G75*
%MOIN*%
%OFA0B0*%
%FSLAX25Y25*%
%IPPOS*%
%LPD*%
%AMOC8*
5,1,8,0,0,1.08239X$1,22.5*
%
%ADD10C,0.05400*%
%ADD11OC8,0.06600*%
%ADD12R,0.05000X0.05000*%
%ADD13C,0.05000*%
%ADD14C,0.06200*%
%ADD15OC8,0.07200*%
%ADD16C,0.14773*%
%ADD17OC8,0.08200*%
%ADD18C,0.07500*%
%ADD19C,0.06600*%
%ADD20C,0.04562*%
D10*
X0230600Y0339500D02*
X0235400Y0339500D01*
X0260600Y0339500D02*
X0265400Y0339500D01*
D11*
X0288000Y0282000D03*
X0298000Y0282000D03*
X0308000Y0282000D03*
X0308000Y0115000D03*
X0308000Y0105000D03*
X0078000Y0147000D03*
X0078000Y0157000D03*
X0068000Y0157000D03*
X0068000Y0147000D03*
X0058000Y0157000D03*
X0048000Y0157000D03*
X0038000Y0157000D03*
X0028000Y0157000D03*
X0028000Y0172000D03*
X0028000Y0182000D03*
X0028000Y0267000D03*
X0038000Y0267000D03*
X0048000Y0267000D03*
X0058000Y0267000D03*
X0068000Y0267000D03*
X0078000Y0267000D03*
D12*
X0306937Y0257748D03*
D13*
X0299063Y0257748D03*
X0299063Y0249874D03*
X0299063Y0242000D03*
X0306937Y0242000D03*
X0306937Y0234126D03*
X0299063Y0234126D03*
X0299063Y0226252D03*
X0306937Y0226252D03*
X0306937Y0249874D03*
D14*
X0303000Y0293063D03*
X0303000Y0300937D03*
D15*
X0298000Y0202000D03*
X0298000Y0192000D03*
X0298000Y0182000D03*
X0298000Y0172000D03*
X0308000Y0172000D03*
X0308000Y0182000D03*
X0308000Y0192000D03*
X0308000Y0202000D03*
X0248000Y0147000D03*
X0248000Y0137000D03*
X0238000Y0137000D03*
X0238000Y0147000D03*
X0228000Y0147000D03*
X0228000Y0137000D03*
X0218000Y0137000D03*
X0218000Y0147000D03*
D16*
X0293000Y0082000D03*
X0293000Y0327000D03*
X0038000Y0207000D03*
D17*
X0308000Y0154500D03*
X0308000Y0144500D03*
D18*
X0193000Y0162000D03*
X0193000Y0172000D03*
X0193000Y0182000D03*
X0193000Y0192000D03*
X0193000Y0202000D03*
X0193000Y0212000D03*
X0193000Y0222000D03*
X0193000Y0232000D03*
X0193000Y0242000D03*
X0193000Y0252000D03*
X0193000Y0262000D03*
X0193000Y0272000D03*
X0193000Y0282000D03*
X0193000Y0292000D03*
X0193000Y0302000D03*
X0193000Y0312000D03*
X0193000Y0322000D03*
X0193000Y0332000D03*
X0183000Y0332000D03*
X0183000Y0322000D03*
X0183000Y0312000D03*
X0183000Y0302000D03*
X0183000Y0292000D03*
X0183000Y0282000D03*
X0183000Y0272000D03*
X0183000Y0262000D03*
X0183000Y0252000D03*
X0183000Y0242000D03*
X0183000Y0232000D03*
X0183000Y0222000D03*
X0183000Y0212000D03*
X0183000Y0202000D03*
X0183000Y0192000D03*
X0183000Y0182000D03*
X0183000Y0172000D03*
X0183000Y0162000D03*
X0173000Y0162000D03*
X0173000Y0172000D03*
X0173000Y0182000D03*
X0173000Y0192000D03*
X0173000Y0202000D03*
X0173000Y0212000D03*
X0173000Y0222000D03*
X0173000Y0232000D03*
X0173000Y0242000D03*
X0173000Y0252000D03*
X0173000Y0262000D03*
X0173000Y0272000D03*
X0173000Y0282000D03*
X0173000Y0292000D03*
X0173000Y0302000D03*
X0173000Y0312000D03*
X0173000Y0322000D03*
X0173000Y0332000D03*
X0123000Y0332000D03*
X0123000Y0322000D03*
X0123000Y0312000D03*
X0123000Y0302000D03*
X0123000Y0292000D03*
X0123000Y0282000D03*
X0123000Y0272000D03*
X0123000Y0262000D03*
X0123000Y0252000D03*
X0123000Y0242000D03*
X0123000Y0232000D03*
X0123000Y0222000D03*
X0123000Y0212000D03*
X0123000Y0202000D03*
X0123000Y0192000D03*
X0123000Y0182000D03*
X0123000Y0172000D03*
X0123000Y0162000D03*
X0113000Y0162000D03*
X0113000Y0172000D03*
X0113000Y0182000D03*
X0113000Y0192000D03*
X0113000Y0202000D03*
X0113000Y0212000D03*
X0113000Y0222000D03*
X0113000Y0232000D03*
X0113000Y0242000D03*
X0113000Y0252000D03*
X0113000Y0262000D03*
X0113000Y0272000D03*
X0113000Y0282000D03*
X0113000Y0292000D03*
X0113000Y0302000D03*
X0113000Y0312000D03*
X0113000Y0322000D03*
X0113000Y0332000D03*
X0103000Y0332000D03*
X0103000Y0322000D03*
X0103000Y0312000D03*
X0103000Y0302000D03*
X0103000Y0292000D03*
X0103000Y0282000D03*
X0103000Y0272000D03*
X0103000Y0262000D03*
X0103000Y0252000D03*
X0103000Y0242000D03*
X0103000Y0232000D03*
X0103000Y0222000D03*
X0103000Y0212000D03*
X0103000Y0202000D03*
X0103000Y0192000D03*
X0103000Y0182000D03*
X0103000Y0172000D03*
X0103000Y0162000D03*
D19*
X0180000Y0142000D02*
X0186000Y0142000D01*
X0186000Y0132000D02*
X0180000Y0132000D01*
X0180000Y0122000D02*
X0186000Y0122000D01*
X0186000Y0112000D02*
X0180000Y0112000D01*
X0278000Y0124000D02*
X0278000Y0130000D01*
X0288000Y0130000D02*
X0288000Y0124000D01*
X0298000Y0124000D02*
X0298000Y0130000D01*
X0308000Y0130000D02*
X0308000Y0124000D01*
D20*
X0073000Y0097000D03*
X0063000Y0117000D03*
X0104000Y0131000D03*
X0145000Y0082000D03*
X0157000Y0077000D03*
X0166750Y0098250D03*
X0210000Y0147000D03*
X0206000Y0158000D03*
X0202000Y0163000D03*
X0215000Y0160000D03*
X0222500Y0167500D03*
X0237000Y0217000D03*
X0240500Y0221500D03*
X0244000Y0226000D03*
X0245000Y0217500D03*
X0256654Y0231654D03*
X0266000Y0233000D03*
X0268000Y0228000D03*
X0293000Y0234000D03*
X0288000Y0255000D03*
X0263000Y0282000D03*
X0234500Y0292500D03*
X0223000Y0276000D03*
X0229250Y0261750D03*
X0204000Y0275000D03*
X0208000Y0313000D03*
X0218000Y0313000D03*
X0213000Y0339500D03*
X0161000Y0270000D03*
X0153000Y0252000D03*
X0204250Y0222000D03*
X0264000Y0163000D03*
X0287000Y0189000D03*
X0236000Y0102000D03*
X0230000Y0102000D03*
X0085500Y0212000D03*
X0078000Y0207000D03*
X0068000Y0227000D03*
X0070500Y0247000D03*
X0073000Y0252000D03*
X0085500Y0267000D03*
X0085500Y0278250D03*
X0098000Y0277000D03*
X0083000Y0295750D03*
X0055500Y0257000D03*
M02*
