%
M48
M72
T01C0.01400
T02C0.02362
T03C0.02800
T04C0.03200
T05C0.03300
T06C0.03500
T07C0.04000
T08C0.14173
%
T01
X23000Y67000
X20500Y87000
X43000Y67000
X63000Y67000
X83000Y67000
X103000Y67000
X123000Y67000
X143000Y67000
X112000Y99000
X109000Y126500
X120000Y132000
X133000Y132000
X148000Y132000
X148000Y122000
X148000Y112500
X148000Y103500
X170500Y122000
X163000Y132000
X193000Y100000
X208000Y100000
X214500Y122500
X203500Y136000
X196500Y122000
X198000Y149500
X210000Y162500
X207000Y167000
X215000Y176000
X225500Y159500
X229500Y159500
X238000Y165000
X255000Y157500
X261500Y147000
X268000Y132000
X268000Y122000
X253000Y122000
X260000Y102000
X243000Y102000
X278000Y97000
X278000Y67000
X308000Y67000
X308000Y97000
X303500Y163000
X279000Y165000
X279000Y173500
X270000Y169500
X257500Y174500
X257500Y189000
X247000Y201000
X252000Y214000
X250500Y218000
X251500Y229000
X252000Y233500
X248000Y256000
X238000Y266500
X232000Y256000
X226500Y271500
X219000Y279500
X216500Y266500
X211000Y262000
X200000Y267000
X203500Y231500
X209000Y227000
X212500Y230500
X211500Y212500
X226500Y212000
X229000Y189000
X259000Y210500
X271000Y209000
X280500Y211500
X282500Y208000
X275500Y219000
X273500Y222500
X274000Y231000
X276000Y235000
X283000Y246500
X273500Y251000
X273000Y247000
X264000Y254500
X276000Y266000
X263000Y274000
X262000Y289000
X246000Y290000
X237000Y300000
X228000Y307000
X218000Y302000
X225000Y318000
X201500Y322500
X188000Y339500
X178000Y339500
X163000Y329500
X153000Y339500
X143000Y327000
X133000Y339500
X135500Y292000
X148000Y292000
X160500Y292000
X148000Y272000
X140500Y262000
X133000Y272000
X156000Y237000
X163000Y227000
X148000Y227000
X148000Y182000
X135500Y182000
X160500Y182000
X93000Y187000
X82000Y180000
X73000Y172000
X58000Y193500
X73000Y212000
X76000Y235500
X57000Y245000
X78500Y276500
X60000Y300000
X77000Y317500
X80500Y336500
X68000Y342000
X48000Y342000
X43000Y322000
X33000Y307000
X23000Y327000
X33000Y282000
X23000Y242000
X23000Y222000
X23000Y192000
X30000Y149000
X38000Y122000
X85000Y138000
X93000Y157000
X186000Y84000
X186000Y67000
X269000Y187500
X293000Y209500
X294500Y212500
X287500Y233000
X293000Y268000
X304000Y268000
X309000Y314000
X308000Y342000
X278000Y342000
X259000Y308000
X248000Y342000
T02
X218000Y313000
X208000Y313000
X213000Y339500
X234500Y292500
X223000Y276000
X229250Y261750
X204000Y275000
X244000Y226000
X240500Y221500
X237000Y217000
X245000Y217500
X256654Y231654
X266000Y233000
X268000Y228000
X293000Y234000
X288000Y255000
X263000Y282000
X204250Y222000
X161000Y270000
X153000Y252000
X98000Y277000
X85500Y278250
X85500Y267000
X73000Y252000
X70500Y247000
X55500Y257000
X68000Y227000
X78000Y207000
X85500Y212000
X104000Y131000
X73000Y97000
X63000Y117000
X145000Y82000
X157000Y77000
X166750Y98250
X210000Y147000
X206000Y158000
X202000Y163000
X215000Y160000
X222500Y167500
X264000Y163000
X287000Y189000
X236000Y102000
X230000Y102000
X83000Y295750
T03
X299063Y257748
X306937Y257748
X306937Y249874
X306937Y242000
X299063Y242000
X299063Y234126
X306937Y234126
X306937Y226252
X299063Y226252
X299063Y249874
T04
X263000Y339500
X233000Y339500
T05
X303000Y300937
X303000Y293063
T06
X193000Y292000
X193000Y282000
X193000Y272000
X193000Y262000
X193000Y252000
X193000Y242000
X193000Y232000
X193000Y222000
X193000Y212000
X193000Y202000
X193000Y192000
X193000Y182000
X193000Y172000
X193000Y162000
X183000Y162000
X183000Y172000
X183000Y182000
X183000Y192000
X183000Y202000
X183000Y212000
X183000Y222000
X183000Y232000
X183000Y242000
X183000Y252000
X183000Y262000
X183000Y272000
X183000Y282000
X183000Y292000
X183000Y302000
X183000Y312000
X183000Y322000
X183000Y332000
X173000Y332000
X173000Y322000
X173000Y312000
X173000Y302000
X173000Y292000
X173000Y282000
X173000Y272000
X173000Y262000
X173000Y252000
X173000Y242000
X173000Y232000
X173000Y222000
X173000Y212000
X173000Y202000
X173000Y192000
X173000Y182000
X173000Y172000
X173000Y162000
X123000Y162000
X123000Y172000
X123000Y182000
X123000Y192000
X123000Y202000
X123000Y212000
X123000Y222000
X123000Y232000
X123000Y242000
X123000Y252000
X123000Y262000
X123000Y272000
X123000Y282000
X123000Y292000
X123000Y302000
X123000Y312000
X123000Y322000
X123000Y332000
X113000Y332000
X113000Y322000
X113000Y312000
X113000Y302000
X113000Y292000
X113000Y282000
X113000Y272000
X113000Y262000
X113000Y252000
X113000Y242000
X113000Y232000
X113000Y222000
X113000Y212000
X113000Y202000
X113000Y192000
X113000Y182000
X113000Y172000
X113000Y162000
X103000Y162000
X103000Y172000
X103000Y182000
X103000Y192000
X103000Y202000
X103000Y212000
X103000Y222000
X103000Y232000
X103000Y242000
X103000Y252000
X103000Y262000
X103000Y272000
X103000Y282000
X103000Y292000
X103000Y302000
X103000Y312000
X103000Y322000
X103000Y332000
X193000Y332000
X193000Y322000
X193000Y312000
X193000Y302000
T07
X288000Y282000
X298000Y282000
X308000Y282000
X308000Y202000
X308000Y192000
X308000Y182000
X308000Y172000
X298000Y172000
X298000Y182000
X298000Y192000
X298000Y202000
X308000Y154500
X308000Y144500
X308000Y127000
X298000Y127000
X288000Y127000
X278000Y127000
X308000Y115000
X308000Y105000
X248000Y137000
X248000Y147000
X238000Y147000
X238000Y137000
X228000Y137000
X228000Y147000
X218000Y147000
X218000Y137000
X183000Y132000
X183000Y122000
X183000Y112000
X183000Y142000
X78000Y147000
X78000Y157000
X68000Y157000
X68000Y147000
X58000Y157000
X48000Y157000
X38000Y157000
X28000Y157000
X28000Y172000
X28000Y182000
X28000Y267000
X38000Y267000
X48000Y267000
X58000Y267000
X68000Y267000
X78000Y267000
T08
X38000Y207000
X293000Y327000
X293000Y82000
M30
