G75*
%MOIN*%
%OFA0B0*%
%FSLAX25Y25*%
%IPPOS*%
%LPD*%
%AMOC8*
5,1,8,0,0,1.08239X$1,22.5*
%
%ADD10C,0.04800*%
%ADD11OC8,0.06000*%
%ADD12R,0.04400X0.04400*%
%ADD13C,0.04400*%
%ADD14C,0.05600*%
%ADD15OC8,0.06600*%
%ADD16OC8,0.07600*%
%ADD17C,0.06900*%
%ADD18C,0.01000*%
%ADD19C,0.03962*%
%ADD20C,0.03100*%
%ADD21C,0.01600*%
%ADD22C,0.00600*%
%ADD23C,0.01200*%
%ADD24C,0.04356*%
D10*
X0230600Y0339500D02*
X0235400Y0339500D01*
X0260600Y0339500D02*
X0265400Y0339500D01*
D11*
X0078000Y0267000D03*
X0068000Y0267000D03*
X0058000Y0267000D03*
X0048000Y0267000D03*
X0038000Y0267000D03*
X0028000Y0267000D03*
X0028000Y0157000D03*
X0038000Y0157000D03*
X0048000Y0157000D03*
X0058000Y0157000D03*
X0068000Y0157000D03*
X0078000Y0157000D03*
D12*
X0306937Y0257748D03*
D13*
X0299063Y0257748D03*
X0299063Y0249874D03*
X0299063Y0242000D03*
X0306937Y0242000D03*
X0306937Y0234126D03*
X0299063Y0234126D03*
X0299063Y0226252D03*
X0306937Y0226252D03*
X0306937Y0249874D03*
D14*
X0303000Y0293063D03*
X0303000Y0300937D03*
D15*
X0298000Y0282000D03*
X0288000Y0282000D03*
X0308000Y0282000D03*
X0308000Y0202000D03*
X0308000Y0192000D03*
X0308000Y0182000D03*
X0308000Y0172000D03*
X0298000Y0172000D03*
X0298000Y0182000D03*
X0298000Y0192000D03*
X0298000Y0202000D03*
X0248000Y0147000D03*
X0248000Y0137000D03*
X0238000Y0137000D03*
X0238000Y0147000D03*
X0228000Y0147000D03*
X0228000Y0137000D03*
X0218000Y0137000D03*
X0218000Y0147000D03*
X0183000Y0142000D03*
X0183000Y0132000D03*
X0183000Y0122000D03*
X0183000Y0112000D03*
X0278000Y0127000D03*
X0288000Y0127000D03*
X0298000Y0127000D03*
X0308000Y0127000D03*
X0308000Y0115000D03*
X0308000Y0105000D03*
X0233000Y0266000D03*
X0233000Y0276000D03*
X0159000Y0332000D03*
X0149000Y0332000D03*
X0139000Y0332000D03*
X0023000Y0230000D03*
X0023000Y0220000D03*
X0078000Y0179000D03*
X0078000Y0169000D03*
X0078000Y0147000D03*
X0068000Y0147000D03*
D16*
X0308000Y0144500D03*
X0308000Y0154500D03*
D17*
X0193000Y0162000D03*
X0193000Y0172000D03*
X0193000Y0182000D03*
X0193000Y0192000D03*
X0193000Y0202000D03*
X0193000Y0212000D03*
X0193000Y0222000D03*
X0193000Y0232000D03*
X0193000Y0242000D03*
X0193000Y0252000D03*
X0193000Y0262000D03*
X0193000Y0272000D03*
X0193000Y0282000D03*
X0193000Y0292000D03*
X0193000Y0302000D03*
X0193000Y0312000D03*
X0193000Y0322000D03*
X0193000Y0332000D03*
X0183000Y0332000D03*
X0183000Y0322000D03*
X0183000Y0312000D03*
X0183000Y0302000D03*
X0183000Y0292000D03*
X0183000Y0282000D03*
X0183000Y0272000D03*
X0183000Y0262000D03*
X0183000Y0252000D03*
X0183000Y0242000D03*
X0183000Y0232000D03*
X0183000Y0222000D03*
X0183000Y0212000D03*
X0183000Y0202000D03*
X0183000Y0192000D03*
X0183000Y0182000D03*
X0183000Y0172000D03*
X0183000Y0162000D03*
X0173000Y0162000D03*
X0173000Y0172000D03*
X0173000Y0182000D03*
X0173000Y0192000D03*
X0173000Y0202000D03*
X0173000Y0212000D03*
X0173000Y0222000D03*
X0173000Y0232000D03*
X0173000Y0242000D03*
X0173000Y0252000D03*
X0173000Y0262000D03*
X0173000Y0272000D03*
X0173000Y0282000D03*
X0173000Y0292000D03*
X0173000Y0302000D03*
X0173000Y0312000D03*
X0173000Y0322000D03*
X0173000Y0332000D03*
X0123000Y0332000D03*
X0123000Y0322000D03*
X0123000Y0312000D03*
X0123000Y0302000D03*
X0123000Y0292000D03*
X0123000Y0282000D03*
X0123000Y0272000D03*
X0123000Y0262000D03*
X0123000Y0252000D03*
X0123000Y0242000D03*
X0123000Y0232000D03*
X0123000Y0222000D03*
X0123000Y0212000D03*
X0123000Y0202000D03*
X0123000Y0192000D03*
X0123000Y0182000D03*
X0123000Y0172000D03*
X0123000Y0162000D03*
X0113000Y0162000D03*
X0113000Y0172000D03*
X0113000Y0182000D03*
X0113000Y0192000D03*
X0113000Y0202000D03*
X0113000Y0212000D03*
X0113000Y0222000D03*
X0113000Y0232000D03*
X0113000Y0242000D03*
X0113000Y0252000D03*
X0113000Y0262000D03*
X0113000Y0272000D03*
X0113000Y0282000D03*
X0113000Y0292000D03*
X0113000Y0302000D03*
X0113000Y0312000D03*
X0113000Y0322000D03*
X0113000Y0332000D03*
X0103000Y0332000D03*
X0103000Y0322000D03*
X0103000Y0312000D03*
X0103000Y0302000D03*
X0103000Y0292000D03*
X0103000Y0282000D03*
X0103000Y0272000D03*
X0103000Y0262000D03*
X0103000Y0252000D03*
X0103000Y0242000D03*
X0103000Y0232000D03*
X0103000Y0222000D03*
X0103000Y0212000D03*
X0103000Y0202000D03*
X0103000Y0192000D03*
X0103000Y0182000D03*
X0103000Y0172000D03*
X0103000Y0162000D03*
D18*
X0015500Y0059500D02*
X0015500Y0348000D01*
X0314000Y0348000D01*
X0314000Y0206394D01*
X0313400Y0206994D01*
X0313400Y0238477D01*
X0313035Y0239359D01*
X0312359Y0240035D01*
X0311237Y0241157D01*
X0311237Y0242855D01*
X0310582Y0244436D01*
X0309373Y0245645D01*
X0308669Y0245937D01*
X0309373Y0246229D01*
X0310582Y0247438D01*
X0311237Y0249019D01*
X0311237Y0250729D01*
X0310582Y0252310D01*
X0309444Y0253448D01*
X0310007Y0253448D01*
X0311237Y0254678D01*
X0311237Y0260818D01*
X0310007Y0262048D01*
X0306738Y0262048D01*
X0304144Y0264643D01*
X0303328Y0265458D01*
X0302262Y0265900D01*
X0289423Y0265900D01*
X0288357Y0265458D01*
X0277357Y0254458D01*
X0276541Y0253643D01*
X0276100Y0252577D01*
X0276100Y0248201D01*
X0268799Y0240900D01*
X0262423Y0240900D01*
X0261357Y0240458D01*
X0256633Y0235735D01*
X0255842Y0235735D01*
X0254342Y0235113D01*
X0253194Y0233965D01*
X0252572Y0232465D01*
X0252572Y0230842D01*
X0253194Y0229342D01*
X0254342Y0228194D01*
X0255775Y0227600D01*
X0247755Y0227600D01*
X0247460Y0228312D01*
X0246312Y0229460D01*
X0244812Y0230081D01*
X0243188Y0230081D01*
X0241688Y0229460D01*
X0240540Y0228312D01*
X0240245Y0227600D01*
X0212650Y0227600D01*
X0212650Y0227726D01*
X0212094Y0229068D01*
X0211068Y0230094D01*
X0209726Y0230650D01*
X0208274Y0230650D01*
X0206932Y0230094D01*
X0206438Y0229600D01*
X0199077Y0229600D01*
X0198325Y0230352D01*
X0198550Y0230896D01*
X0198550Y0233104D01*
X0197705Y0235144D01*
X0196144Y0236705D01*
X0195432Y0237000D01*
X0196144Y0237295D01*
X0197705Y0238856D01*
X0198550Y0240896D01*
X0198550Y0243104D01*
X0197705Y0245144D01*
X0196144Y0246705D01*
X0195432Y0247000D01*
X0196144Y0247295D01*
X0197705Y0248856D01*
X0198550Y0250896D01*
X0198550Y0253104D01*
X0197705Y0255144D01*
X0196144Y0256705D01*
X0195432Y0257000D01*
X0196144Y0257295D01*
X0197705Y0258856D01*
X0198550Y0260896D01*
X0198550Y0263104D01*
X0197705Y0265144D01*
X0196144Y0266705D01*
X0195432Y0267000D01*
X0196144Y0267295D01*
X0197705Y0268856D01*
X0198550Y0270896D01*
X0198550Y0273104D01*
X0197705Y0275144D01*
X0196144Y0276705D01*
X0195432Y0277000D01*
X0196144Y0277295D01*
X0197705Y0278856D01*
X0198550Y0280896D01*
X0198550Y0283104D01*
X0197705Y0285144D01*
X0196144Y0286705D01*
X0195432Y0287000D01*
X0196144Y0287295D01*
X0197705Y0288856D01*
X0198550Y0290896D01*
X0198550Y0293104D01*
X0197705Y0295144D01*
X0196144Y0296705D01*
X0194640Y0297328D01*
X0194900Y0297413D01*
X0195594Y0297766D01*
X0196225Y0298224D01*
X0196776Y0298775D01*
X0197234Y0299406D01*
X0197587Y0300100D01*
X0197828Y0300841D01*
X0197950Y0301610D01*
X0197950Y0301625D01*
X0193375Y0301625D01*
X0193375Y0302375D01*
X0197950Y0302375D01*
X0197950Y0302390D01*
X0197828Y0303159D01*
X0197587Y0303900D01*
X0197234Y0304594D01*
X0196776Y0305225D01*
X0196225Y0305776D01*
X0195594Y0306234D01*
X0194900Y0306587D01*
X0194640Y0306672D01*
X0196144Y0307295D01*
X0197705Y0308856D01*
X0198550Y0310896D01*
X0198550Y0313104D01*
X0197705Y0315144D01*
X0196144Y0316705D01*
X0195432Y0317000D01*
X0196144Y0317295D01*
X0197705Y0318856D01*
X0198550Y0320896D01*
X0198550Y0323104D01*
X0197705Y0325144D01*
X0196144Y0326705D01*
X0195432Y0327000D01*
X0196144Y0327295D01*
X0197705Y0328856D01*
X0198550Y0330896D01*
X0198550Y0333104D01*
X0197705Y0335144D01*
X0196249Y0336600D01*
X0210128Y0336600D01*
X0210146Y0336582D01*
X0210471Y0316301D01*
X0210312Y0316460D01*
X0208812Y0317081D01*
X0207188Y0317081D01*
X0205688Y0316460D01*
X0204540Y0315312D01*
X0203919Y0313812D01*
X0203919Y0312188D01*
X0204540Y0310688D01*
X0205400Y0309828D01*
X0205400Y0280077D01*
X0204404Y0279081D01*
X0203188Y0279081D01*
X0201688Y0278460D01*
X0200540Y0277312D01*
X0199919Y0275812D01*
X0199919Y0274188D01*
X0200540Y0272688D01*
X0201688Y0271540D01*
X0203188Y0270919D01*
X0204812Y0270919D01*
X0206312Y0271540D01*
X0207460Y0272688D01*
X0208081Y0274188D01*
X0208081Y0275404D01*
X0210204Y0277527D01*
X0210600Y0278483D01*
X0210600Y0308228D01*
X0211100Y0276976D01*
X0211100Y0273423D01*
X0211541Y0272357D01*
X0227169Y0256730D01*
X0227169Y0255938D01*
X0227790Y0254438D01*
X0228938Y0253290D01*
X0230438Y0252669D01*
X0232062Y0252669D01*
X0233562Y0253290D01*
X0234710Y0254438D01*
X0235331Y0255938D01*
X0235331Y0257562D01*
X0234710Y0259062D01*
X0233562Y0260210D01*
X0232620Y0260600D01*
X0235237Y0260600D01*
X0238400Y0263763D01*
X0238400Y0268237D01*
X0235637Y0271000D01*
X0238400Y0273763D01*
X0238400Y0278237D01*
X0235237Y0281400D01*
X0233514Y0281400D01*
X0250615Y0298037D01*
X0298970Y0298037D01*
X0300007Y0297000D01*
X0298846Y0295839D01*
X0298100Y0294038D01*
X0298100Y0292088D01*
X0298846Y0290287D01*
X0300224Y0288909D01*
X0302025Y0288163D01*
X0303905Y0288163D01*
X0305064Y0287046D01*
X0305044Y0286934D01*
X0305090Y0286727D01*
X0303000Y0284637D01*
X0300237Y0287400D01*
X0295763Y0287400D01*
X0293000Y0284637D01*
X0290237Y0287400D01*
X0286277Y0287400D01*
X0281473Y0292204D01*
X0280517Y0292600D01*
X0269172Y0292600D01*
X0268312Y0293460D01*
X0266812Y0294081D01*
X0265188Y0294081D01*
X0263688Y0293460D01*
X0262540Y0292312D01*
X0261919Y0290812D01*
X0261919Y0289188D01*
X0262540Y0287688D01*
X0263688Y0286540D01*
X0265188Y0285919D01*
X0266812Y0285919D01*
X0268312Y0286540D01*
X0269172Y0287400D01*
X0278923Y0287400D01*
X0282600Y0283723D01*
X0282600Y0279763D01*
X0285763Y0276600D01*
X0290237Y0276600D01*
X0293000Y0279363D01*
X0295763Y0276600D01*
X0300237Y0276600D01*
X0303000Y0279363D01*
X0305763Y0276600D01*
X0310237Y0276600D01*
X0313400Y0279763D01*
X0313400Y0284237D01*
X0310900Y0286737D01*
X0310900Y0286747D01*
X0310993Y0287274D01*
X0311097Y0287539D01*
X0311092Y0287836D01*
X0311143Y0288129D01*
X0311081Y0288407D01*
X0311076Y0288693D01*
X0310957Y0288965D01*
X0310893Y0289255D01*
X0310729Y0289489D01*
X0310615Y0289751D01*
X0310401Y0289957D01*
X0310231Y0290200D01*
X0309990Y0290353D01*
X0307900Y0292368D01*
X0307900Y0294038D01*
X0307154Y0295839D01*
X0305993Y0297000D01*
X0307154Y0298161D01*
X0307900Y0299962D01*
X0307900Y0301912D01*
X0307154Y0303713D01*
X0305776Y0305091D01*
X0303975Y0305837D01*
X0302025Y0305837D01*
X0300224Y0305091D01*
X0298970Y0303837D01*
X0249457Y0303837D01*
X0248900Y0303845D01*
X0248881Y0303837D01*
X0248860Y0303837D01*
X0248345Y0303624D01*
X0247828Y0303418D01*
X0247813Y0303403D01*
X0247794Y0303395D01*
X0247400Y0303001D01*
X0239974Y0295777D01*
X0239960Y0295812D01*
X0238812Y0296960D01*
X0237312Y0297581D01*
X0235688Y0297581D01*
X0234188Y0296960D01*
X0233328Y0296100D01*
X0230577Y0296100D01*
X0220600Y0306077D01*
X0220600Y0308222D01*
X0220700Y0308463D01*
X0220700Y0309928D01*
X0221460Y0310688D01*
X0221680Y0311219D01*
X0226722Y0306177D01*
X0226722Y0305149D01*
X0227373Y0303577D01*
X0228577Y0302373D01*
X0230149Y0301722D01*
X0231851Y0301722D01*
X0233423Y0302373D01*
X0234627Y0303577D01*
X0235278Y0305149D01*
X0235278Y0306851D01*
X0234627Y0308423D01*
X0233423Y0309627D01*
X0231851Y0310278D01*
X0230823Y0310278D01*
X0219900Y0321201D01*
X0219900Y0342577D01*
X0219458Y0343643D01*
X0218643Y0344458D01*
X0216643Y0346458D01*
X0215577Y0346900D01*
X0210423Y0346900D01*
X0209357Y0346458D01*
X0208799Y0345900D01*
X0169423Y0345900D01*
X0168357Y0345458D01*
X0167541Y0344643D01*
X0160299Y0337400D01*
X0156763Y0337400D01*
X0154000Y0334637D01*
X0151237Y0337400D01*
X0146763Y0337400D01*
X0144000Y0334637D01*
X0141237Y0337400D01*
X0136763Y0337400D01*
X0134263Y0334900D01*
X0127806Y0334900D01*
X0127705Y0335144D01*
X0126144Y0336705D01*
X0124104Y0337550D01*
X0121896Y0337550D01*
X0119856Y0336705D01*
X0118295Y0335144D01*
X0118194Y0334900D01*
X0117806Y0334900D01*
X0117705Y0335144D01*
X0116144Y0336705D01*
X0114104Y0337550D01*
X0111896Y0337550D01*
X0109856Y0336705D01*
X0108295Y0335144D01*
X0108194Y0334900D01*
X0107806Y0334900D01*
X0107705Y0335144D01*
X0106144Y0336705D01*
X0104104Y0337550D01*
X0101896Y0337550D01*
X0099856Y0336705D01*
X0098295Y0335144D01*
X0097450Y0333104D01*
X0097450Y0330896D01*
X0098295Y0328856D01*
X0099856Y0327295D01*
X0101360Y0326672D01*
X0101100Y0326587D01*
X0100406Y0326234D01*
X0099775Y0325776D01*
X0099224Y0325225D01*
X0098766Y0324594D01*
X0098413Y0323900D01*
X0098172Y0323159D01*
X0098050Y0322390D01*
X0098050Y0322375D01*
X0102625Y0322375D01*
X0102625Y0321625D01*
X0098050Y0321625D01*
X0098050Y0321610D01*
X0098172Y0320841D01*
X0098413Y0320100D01*
X0098766Y0319406D01*
X0099224Y0318775D01*
X0099775Y0318224D01*
X0100406Y0317766D01*
X0101100Y0317413D01*
X0101360Y0317328D01*
X0099856Y0316705D01*
X0098295Y0315144D01*
X0097450Y0313104D01*
X0097450Y0310896D01*
X0098295Y0308856D01*
X0099856Y0307295D01*
X0100568Y0307000D01*
X0099856Y0306705D01*
X0098295Y0305144D01*
X0097450Y0303104D01*
X0097450Y0300896D01*
X0098295Y0298856D01*
X0099856Y0297295D01*
X0100568Y0297000D01*
X0099856Y0296705D01*
X0098295Y0295144D01*
X0097450Y0293104D01*
X0097450Y0290896D01*
X0098295Y0288856D01*
X0099856Y0287295D01*
X0100568Y0287000D01*
X0099856Y0286705D01*
X0098295Y0285144D01*
X0097450Y0283104D01*
X0097450Y0280896D01*
X0098295Y0278856D01*
X0099856Y0277295D01*
X0100568Y0277000D01*
X0099856Y0276705D01*
X0098295Y0275144D01*
X0098111Y0274700D01*
X0074503Y0274700D01*
X0074529Y0274711D01*
X0075289Y0275471D01*
X0085289Y0285471D01*
X0085700Y0286463D01*
X0085700Y0292678D01*
X0086460Y0293438D01*
X0087081Y0294938D01*
X0087081Y0296562D01*
X0086460Y0298062D01*
X0085312Y0299210D01*
X0083812Y0299831D01*
X0082188Y0299831D01*
X0080688Y0299210D01*
X0079540Y0298062D01*
X0078919Y0296562D01*
X0078919Y0294938D01*
X0079540Y0293438D01*
X0080300Y0292678D01*
X0080300Y0288118D01*
X0071882Y0279700D01*
X0057463Y0279700D01*
X0056471Y0279289D01*
X0049282Y0272100D01*
X0045888Y0272100D01*
X0043000Y0269212D01*
X0040112Y0272100D01*
X0035888Y0272100D01*
X0033000Y0269212D01*
X0030112Y0272100D01*
X0025888Y0272100D01*
X0022900Y0269112D01*
X0022900Y0264888D01*
X0025888Y0261900D01*
X0030112Y0261900D01*
X0033000Y0264788D01*
X0035888Y0261900D01*
X0040112Y0261900D01*
X0043000Y0264788D01*
X0045400Y0262388D01*
X0045400Y0231483D01*
X0045796Y0230527D01*
X0046527Y0229796D01*
X0055400Y0220923D01*
X0055400Y0211868D01*
X0055367Y0212099D01*
X0055367Y0212099D01*
X0053227Y0216786D01*
X0049853Y0220679D01*
X0045519Y0223464D01*
X0040576Y0224916D01*
X0035424Y0224916D01*
X0030481Y0223464D01*
X0027800Y0221741D01*
X0027800Y0221988D01*
X0024988Y0224800D01*
X0023500Y0224800D01*
X0023500Y0220500D01*
X0022500Y0220500D01*
X0022500Y0224800D01*
X0021012Y0224800D01*
X0018200Y0221988D01*
X0018200Y0220500D01*
X0022500Y0220500D01*
X0022500Y0219500D01*
X0018200Y0219500D01*
X0018200Y0218012D01*
X0021012Y0215200D01*
X0022049Y0215200D01*
X0020633Y0212099D01*
X0019900Y0207000D01*
X0019900Y0207000D01*
X0020633Y0201901D01*
X0020633Y0201901D01*
X0022773Y0197214D01*
X0026147Y0193321D01*
X0030481Y0190536D01*
X0035424Y0189084D01*
X0040576Y0189084D01*
X0045519Y0190536D01*
X0049853Y0193321D01*
X0050400Y0193952D01*
X0050400Y0161812D01*
X0050112Y0162100D01*
X0045888Y0162100D01*
X0043000Y0159212D01*
X0040112Y0162100D01*
X0035888Y0162100D01*
X0033000Y0159212D01*
X0030112Y0162100D01*
X0025888Y0162100D01*
X0022900Y0159112D01*
X0022900Y0154888D01*
X0025888Y0151900D01*
X0030112Y0151900D01*
X0033000Y0154788D01*
X0035400Y0152388D01*
X0035400Y0141483D01*
X0035796Y0140527D01*
X0036527Y0139796D01*
X0058919Y0117404D01*
X0058919Y0116188D01*
X0059540Y0114688D01*
X0060688Y0113540D01*
X0062188Y0112919D01*
X0063812Y0112919D01*
X0065312Y0113540D01*
X0066460Y0114688D01*
X0066511Y0114812D01*
X0070400Y0110923D01*
X0070400Y0100172D01*
X0069540Y0099312D01*
X0068919Y0097812D01*
X0068919Y0096188D01*
X0069540Y0094688D01*
X0070688Y0093540D01*
X0072188Y0092919D01*
X0073812Y0092919D01*
X0075312Y0093540D01*
X0076460Y0094688D01*
X0077081Y0096188D01*
X0077081Y0097812D01*
X0076460Y0099312D01*
X0075600Y0100172D01*
X0075600Y0112517D01*
X0075204Y0113473D01*
X0074473Y0114204D01*
X0050600Y0138077D01*
X0050600Y0145000D01*
X0050796Y0144527D01*
X0080527Y0114796D01*
X0081483Y0114400D01*
X0108923Y0114400D01*
X0140919Y0082404D01*
X0140919Y0081188D01*
X0141540Y0079688D01*
X0142688Y0078540D01*
X0144188Y0077919D01*
X0145812Y0077919D01*
X0147312Y0078540D01*
X0148460Y0079688D01*
X0149081Y0081188D01*
X0149081Y0081242D01*
X0152919Y0077404D01*
X0152919Y0076188D01*
X0153540Y0074688D01*
X0154688Y0073540D01*
X0156188Y0072919D01*
X0157812Y0072919D01*
X0159312Y0073540D01*
X0160460Y0074688D01*
X0161081Y0076188D01*
X0161081Y0077812D01*
X0160460Y0079312D01*
X0159312Y0080460D01*
X0157812Y0081081D01*
X0156596Y0081081D01*
X0113473Y0124204D01*
X0112517Y0124600D01*
X0084077Y0124600D01*
X0067077Y0141600D01*
X0070237Y0141600D01*
X0073000Y0144363D01*
X0075763Y0141600D01*
X0080237Y0141600D01*
X0083400Y0144763D01*
X0083400Y0147499D01*
X0099919Y0130980D01*
X0099919Y0130188D01*
X0100540Y0128688D01*
X0101688Y0127540D01*
X0103188Y0126919D01*
X0104812Y0126919D01*
X0106312Y0127540D01*
X0107460Y0128688D01*
X0108081Y0130188D01*
X0108081Y0130242D01*
X0141546Y0096777D01*
X0142277Y0096046D01*
X0143233Y0095650D01*
X0163578Y0095650D01*
X0164438Y0094790D01*
X0165938Y0094169D01*
X0167562Y0094169D01*
X0169062Y0094790D01*
X0170210Y0095938D01*
X0170831Y0097438D01*
X0170831Y0099062D01*
X0170210Y0100562D01*
X0169062Y0101710D01*
X0167562Y0102331D01*
X0165938Y0102331D01*
X0164438Y0101710D01*
X0163578Y0100850D01*
X0144827Y0100850D01*
X0092600Y0153077D01*
X0092600Y0208017D01*
X0092204Y0208973D01*
X0087081Y0214096D01*
X0087081Y0215312D01*
X0086460Y0216812D01*
X0085312Y0217960D01*
X0083812Y0218581D01*
X0082188Y0218581D01*
X0080688Y0217960D01*
X0080600Y0217872D01*
X0080600Y0220923D01*
X0094077Y0234400D01*
X0097987Y0234400D01*
X0097450Y0233104D01*
X0097450Y0230896D01*
X0098295Y0228856D01*
X0099856Y0227295D01*
X0100568Y0227000D01*
X0099856Y0226705D01*
X0098295Y0225144D01*
X0097450Y0223104D01*
X0097450Y0220896D01*
X0098295Y0218856D01*
X0099856Y0217295D01*
X0100568Y0217000D01*
X0099856Y0216705D01*
X0098295Y0215144D01*
X0097450Y0213104D01*
X0097450Y0210896D01*
X0098295Y0208856D01*
X0099856Y0207295D01*
X0100568Y0207000D01*
X0099856Y0206705D01*
X0098295Y0205144D01*
X0097450Y0203104D01*
X0097450Y0200896D01*
X0098295Y0198856D01*
X0099856Y0197295D01*
X0100568Y0197000D01*
X0099856Y0196705D01*
X0098295Y0195144D01*
X0097450Y0193104D01*
X0097450Y0190896D01*
X0098295Y0188856D01*
X0099856Y0187295D01*
X0100568Y0187000D01*
X0099856Y0186705D01*
X0098295Y0185144D01*
X0097450Y0183104D01*
X0097450Y0180896D01*
X0098295Y0178856D01*
X0099856Y0177295D01*
X0100568Y0177000D01*
X0099856Y0176705D01*
X0098295Y0175144D01*
X0097450Y0173104D01*
X0097450Y0170896D01*
X0098295Y0168856D01*
X0099856Y0167295D01*
X0100568Y0167000D01*
X0099856Y0166705D01*
X0098295Y0165144D01*
X0097450Y0163104D01*
X0097450Y0160896D01*
X0098295Y0158856D01*
X0099856Y0157295D01*
X0101896Y0156450D01*
X0104104Y0156450D01*
X0106144Y0157295D01*
X0107705Y0158856D01*
X0108000Y0159568D01*
X0108295Y0158856D01*
X0109856Y0157295D01*
X0110900Y0156863D01*
X0110900Y0156130D01*
X0112130Y0154900D01*
X0183870Y0154900D01*
X0185100Y0156130D01*
X0185100Y0156863D01*
X0186062Y0157261D01*
X0190527Y0152796D01*
X0191483Y0152400D01*
X0197923Y0152400D01*
X0205527Y0144796D01*
X0206483Y0144400D01*
X0206828Y0144400D01*
X0207688Y0143540D01*
X0209188Y0142919D01*
X0210812Y0142919D01*
X0212312Y0143540D01*
X0213067Y0144296D01*
X0215363Y0142000D01*
X0212600Y0139237D01*
X0212600Y0134763D01*
X0215763Y0131600D01*
X0220237Y0131600D01*
X0223000Y0134363D01*
X0225400Y0131963D01*
X0225400Y0130077D01*
X0215923Y0120600D01*
X0194483Y0120600D01*
X0193527Y0120204D01*
X0187980Y0114657D01*
X0185637Y0117000D01*
X0188400Y0119763D01*
X0188400Y0124237D01*
X0185637Y0127000D01*
X0188400Y0129763D01*
X0188400Y0134237D01*
X0185237Y0137400D01*
X0185188Y0137400D01*
X0187800Y0140012D01*
X0187800Y0141500D01*
X0183500Y0141500D01*
X0183500Y0142500D01*
X0182500Y0142500D01*
X0182500Y0146800D01*
X0181012Y0146800D01*
X0178200Y0143988D01*
X0178200Y0142500D01*
X0182500Y0142500D01*
X0182500Y0141500D01*
X0178200Y0141500D01*
X0178200Y0140012D01*
X0180812Y0137400D01*
X0180763Y0137400D01*
X0177600Y0134237D01*
X0177600Y0129763D01*
X0180363Y0127000D01*
X0177600Y0124237D01*
X0177600Y0120277D01*
X0173527Y0116204D01*
X0172796Y0115473D01*
X0172400Y0114517D01*
X0172400Y0108983D01*
X0172796Y0108027D01*
X0175296Y0105527D01*
X0176027Y0104796D01*
X0176983Y0104400D01*
X0189017Y0104400D01*
X0189973Y0104796D01*
X0198077Y0112900D01*
X0229223Y0112900D01*
X0228527Y0112204D01*
X0227796Y0111473D01*
X0227400Y0110517D01*
X0227400Y0105172D01*
X0226540Y0104312D01*
X0225919Y0102812D01*
X0225919Y0101188D01*
X0226540Y0099688D01*
X0227688Y0098540D01*
X0229188Y0097919D01*
X0230812Y0097919D01*
X0232312Y0098540D01*
X0233000Y0099228D01*
X0233688Y0098540D01*
X0235188Y0097919D01*
X0236812Y0097919D01*
X0238312Y0098540D01*
X0239460Y0099688D01*
X0240081Y0101188D01*
X0240081Y0102812D01*
X0239460Y0104312D01*
X0238600Y0105172D01*
X0238600Y0111923D01*
X0258204Y0131527D01*
X0258600Y0132483D01*
X0258600Y0151517D01*
X0258204Y0152473D01*
X0257473Y0153204D01*
X0252973Y0157704D01*
X0252017Y0158100D01*
X0218630Y0158100D01*
X0219081Y0159188D01*
X0219081Y0159980D01*
X0222520Y0163419D01*
X0223312Y0163419D01*
X0224812Y0164040D01*
X0225960Y0165188D01*
X0226581Y0166688D01*
X0226581Y0168312D01*
X0225960Y0169812D01*
X0224812Y0170960D01*
X0223312Y0171581D01*
X0221688Y0171581D01*
X0220188Y0170960D01*
X0219040Y0169812D01*
X0218419Y0168312D01*
X0218419Y0167520D01*
X0214980Y0164081D01*
X0214188Y0164081D01*
X0212688Y0163460D01*
X0211540Y0162312D01*
X0210919Y0160812D01*
X0210919Y0159188D01*
X0211370Y0158100D01*
X0210081Y0158100D01*
X0210081Y0158812D01*
X0209460Y0160312D01*
X0208312Y0161460D01*
X0206812Y0162081D01*
X0206037Y0162081D01*
X0206081Y0162188D01*
X0206081Y0163812D01*
X0205460Y0165312D01*
X0204312Y0166460D01*
X0202812Y0167081D01*
X0201188Y0167081D01*
X0199688Y0166460D01*
X0198540Y0165312D01*
X0198088Y0164220D01*
X0197705Y0165144D01*
X0196144Y0166705D01*
X0195432Y0167000D01*
X0196144Y0167295D01*
X0197705Y0168856D01*
X0198550Y0170896D01*
X0198550Y0173104D01*
X0197705Y0175144D01*
X0196144Y0176705D01*
X0195432Y0177000D01*
X0196144Y0177295D01*
X0197705Y0178856D01*
X0198550Y0180896D01*
X0198550Y0183104D01*
X0197705Y0185144D01*
X0196144Y0186705D01*
X0195432Y0187000D01*
X0196144Y0187295D01*
X0197705Y0188856D01*
X0198550Y0190896D01*
X0198550Y0193104D01*
X0197705Y0195144D01*
X0196144Y0196705D01*
X0195432Y0197000D01*
X0196144Y0197295D01*
X0197705Y0198856D01*
X0198550Y0200896D01*
X0198550Y0203104D01*
X0197705Y0205144D01*
X0196144Y0206705D01*
X0195432Y0207000D01*
X0196144Y0207295D01*
X0197705Y0208856D01*
X0198550Y0210896D01*
X0198550Y0213104D01*
X0198055Y0214300D01*
X0198940Y0214300D01*
X0199423Y0214100D01*
X0234128Y0214100D01*
X0234688Y0213540D01*
X0236188Y0212919D01*
X0236980Y0212919D01*
X0238857Y0211041D01*
X0239923Y0210600D01*
X0242299Y0210600D01*
X0259100Y0193799D01*
X0259100Y0169701D01*
X0256541Y0167143D01*
X0256100Y0166077D01*
X0256100Y0158423D01*
X0256541Y0157357D01*
X0257357Y0156541D01*
X0275100Y0138799D01*
X0275100Y0131737D01*
X0272600Y0129237D01*
X0272600Y0124763D01*
X0275763Y0121600D01*
X0280237Y0121600D01*
X0283000Y0124363D01*
X0285763Y0121600D01*
X0290237Y0121600D01*
X0293000Y0124363D01*
X0295763Y0121600D01*
X0300237Y0121600D01*
X0303400Y0124763D01*
X0303400Y0124812D01*
X0306012Y0122200D01*
X0307500Y0122200D01*
X0307500Y0126500D01*
X0308500Y0126500D01*
X0308500Y0127500D01*
X0307500Y0127500D01*
X0307500Y0131800D01*
X0306012Y0131800D01*
X0303400Y0129188D01*
X0303400Y0129237D01*
X0300400Y0132237D01*
X0300400Y0135477D01*
X0300035Y0136359D01*
X0299359Y0137035D01*
X0267400Y0168994D01*
X0267400Y0195977D01*
X0267035Y0196859D01*
X0248532Y0215362D01*
X0249081Y0216688D01*
X0249081Y0218312D01*
X0248630Y0219400D01*
X0262517Y0219400D01*
X0263473Y0219796D01*
X0264204Y0220527D01*
X0267596Y0223919D01*
X0268812Y0223919D01*
X0270312Y0224540D01*
X0271460Y0225688D01*
X0272081Y0227188D01*
X0272081Y0228812D01*
X0271460Y0230312D01*
X0270312Y0231460D01*
X0269857Y0231648D01*
X0270081Y0232188D01*
X0270081Y0233812D01*
X0269547Y0235100D01*
X0270577Y0235100D01*
X0271643Y0235541D01*
X0272458Y0236357D01*
X0281458Y0245357D01*
X0281900Y0246423D01*
X0281900Y0250799D01*
X0284320Y0253219D01*
X0284540Y0252688D01*
X0285600Y0251628D01*
X0285600Y0245994D01*
X0277965Y0238359D01*
X0277600Y0237477D01*
X0277600Y0227523D01*
X0277965Y0226641D01*
X0289965Y0214641D01*
X0290641Y0213965D01*
X0291523Y0213600D01*
X0295006Y0213600D01*
X0295600Y0213006D01*
X0295600Y0210494D01*
X0290965Y0205859D01*
X0290600Y0204977D01*
X0290600Y0190973D01*
X0290460Y0191312D01*
X0289312Y0192460D01*
X0287812Y0193081D01*
X0286188Y0193081D01*
X0284688Y0192460D01*
X0283540Y0191312D01*
X0282919Y0189812D01*
X0282919Y0188188D01*
X0283540Y0186688D01*
X0284688Y0185540D01*
X0286188Y0184919D01*
X0287687Y0184919D01*
X0288600Y0184006D01*
X0288600Y0161023D01*
X0288965Y0160141D01*
X0289641Y0159465D01*
X0302131Y0146975D01*
X0302100Y0146944D01*
X0302100Y0142056D01*
X0305556Y0138600D01*
X0310444Y0138600D01*
X0313900Y0142056D01*
X0313900Y0146944D01*
X0311344Y0149500D01*
X0313900Y0152056D01*
X0313900Y0156944D01*
X0310444Y0160400D01*
X0305556Y0160400D01*
X0303275Y0158119D01*
X0295400Y0165994D01*
X0295400Y0166963D01*
X0295763Y0166600D01*
X0300237Y0166600D01*
X0303000Y0169363D01*
X0305763Y0166600D01*
X0310237Y0166600D01*
X0313400Y0169763D01*
X0313400Y0174237D01*
X0310637Y0177000D01*
X0313400Y0179763D01*
X0313400Y0184237D01*
X0310637Y0187000D01*
X0313400Y0189763D01*
X0313400Y0194006D01*
X0314000Y0194606D01*
X0314000Y0059500D01*
X0275100Y0059500D01*
X0275100Y0080609D01*
X0275633Y0076901D01*
X0275633Y0076901D01*
X0277773Y0072214D01*
X0281147Y0068321D01*
X0285481Y0065536D01*
X0290424Y0064084D01*
X0295576Y0064084D01*
X0300519Y0065536D01*
X0304853Y0068321D01*
X0308227Y0072214D01*
X0308227Y0072214D01*
X0310367Y0076901D01*
X0311100Y0082000D01*
X0310367Y0087099D01*
X0310367Y0087099D01*
X0308227Y0091786D01*
X0304853Y0095679D01*
X0300519Y0098464D01*
X0295576Y0099916D01*
X0290424Y0099916D01*
X0285481Y0098464D01*
X0281147Y0095679D01*
X0277773Y0091786D01*
X0275633Y0087099D01*
X0275100Y0083391D01*
X0275100Y0095370D01*
X0273870Y0096600D01*
X0192130Y0096600D01*
X0190900Y0095370D01*
X0190900Y0059500D01*
X0015500Y0059500D01*
X0015500Y0059996D02*
X0190900Y0059996D01*
X0190900Y0060994D02*
X0015500Y0060994D01*
X0015500Y0061993D02*
X0190900Y0061993D01*
X0190900Y0062991D02*
X0015500Y0062991D01*
X0015500Y0063990D02*
X0190900Y0063990D01*
X0190900Y0064988D02*
X0015500Y0064988D01*
X0015500Y0065987D02*
X0190900Y0065987D01*
X0190900Y0066985D02*
X0015500Y0066985D01*
X0015500Y0067984D02*
X0190900Y0067984D01*
X0190900Y0068982D02*
X0015500Y0068982D01*
X0015500Y0069981D02*
X0190900Y0069981D01*
X0190900Y0070979D02*
X0015500Y0070979D01*
X0015500Y0071978D02*
X0190900Y0071978D01*
X0190900Y0072976D02*
X0157950Y0072976D01*
X0156050Y0072976D02*
X0015500Y0072976D01*
X0015500Y0073975D02*
X0154254Y0073975D01*
X0153422Y0074973D02*
X0015500Y0074973D01*
X0015500Y0075972D02*
X0153009Y0075972D01*
X0152919Y0076970D02*
X0015500Y0076970D01*
X0015500Y0077969D02*
X0144068Y0077969D01*
X0145932Y0077969D02*
X0152354Y0077969D01*
X0151356Y0078967D02*
X0147739Y0078967D01*
X0148575Y0079966D02*
X0150357Y0079966D01*
X0149359Y0080964D02*
X0148988Y0080964D01*
X0145000Y0082000D02*
X0110000Y0117000D01*
X0082000Y0117000D01*
X0053000Y0146000D01*
X0053000Y0195000D01*
X0058000Y0200000D01*
X0058000Y0222000D01*
X0048000Y0232000D01*
X0048000Y0267000D01*
X0045094Y0262693D02*
X0040906Y0262693D01*
X0041904Y0263692D02*
X0044096Y0263692D01*
X0043097Y0264690D02*
X0042903Y0264690D01*
X0045400Y0261695D02*
X0015500Y0261695D01*
X0015500Y0262693D02*
X0025094Y0262693D01*
X0024096Y0263692D02*
X0015500Y0263692D01*
X0015500Y0264690D02*
X0023097Y0264690D01*
X0022900Y0265689D02*
X0015500Y0265689D01*
X0015500Y0266687D02*
X0022900Y0266687D01*
X0022900Y0267686D02*
X0015500Y0267686D01*
X0015500Y0268684D02*
X0022900Y0268684D01*
X0023470Y0269683D02*
X0015500Y0269683D01*
X0015500Y0270681D02*
X0024469Y0270681D01*
X0025467Y0271680D02*
X0015500Y0271680D01*
X0015500Y0272678D02*
X0049860Y0272678D01*
X0050859Y0273677D02*
X0015500Y0273677D01*
X0015500Y0274675D02*
X0051857Y0274675D01*
X0052856Y0275674D02*
X0015500Y0275674D01*
X0015500Y0276672D02*
X0053854Y0276672D01*
X0054853Y0277671D02*
X0015500Y0277671D01*
X0015500Y0278670D02*
X0055851Y0278670D01*
X0057386Y0279668D02*
X0015500Y0279668D01*
X0015500Y0280667D02*
X0072848Y0280667D01*
X0073847Y0281665D02*
X0015500Y0281665D01*
X0015500Y0282664D02*
X0074845Y0282664D01*
X0075844Y0283662D02*
X0015500Y0283662D01*
X0015500Y0284661D02*
X0076842Y0284661D01*
X0077841Y0285659D02*
X0015500Y0285659D01*
X0015500Y0286658D02*
X0078839Y0286658D01*
X0079838Y0287656D02*
X0015500Y0287656D01*
X0015500Y0288655D02*
X0080300Y0288655D01*
X0080300Y0289653D02*
X0015500Y0289653D01*
X0015500Y0290652D02*
X0080300Y0290652D01*
X0080300Y0291650D02*
X0015500Y0291650D01*
X0015500Y0292649D02*
X0080300Y0292649D01*
X0079454Y0293647D02*
X0015500Y0293647D01*
X0015500Y0294646D02*
X0079040Y0294646D01*
X0078919Y0295644D02*
X0015500Y0295644D01*
X0015500Y0296643D02*
X0078952Y0296643D01*
X0079366Y0297641D02*
X0015500Y0297641D01*
X0015500Y0298640D02*
X0080118Y0298640D01*
X0081723Y0299638D02*
X0015500Y0299638D01*
X0015500Y0300637D02*
X0097557Y0300637D01*
X0097450Y0301635D02*
X0015500Y0301635D01*
X0015500Y0302634D02*
X0097450Y0302634D01*
X0097669Y0303632D02*
X0015500Y0303632D01*
X0015500Y0304631D02*
X0098082Y0304631D01*
X0098780Y0305629D02*
X0015500Y0305629D01*
X0015500Y0306628D02*
X0099779Y0306628D01*
X0099525Y0307626D02*
X0015500Y0307626D01*
X0015500Y0308625D02*
X0098526Y0308625D01*
X0097977Y0309623D02*
X0015500Y0309623D01*
X0015500Y0310622D02*
X0097564Y0310622D01*
X0097450Y0311620D02*
X0015500Y0311620D01*
X0015500Y0312619D02*
X0097450Y0312619D01*
X0097663Y0313617D02*
X0015500Y0313617D01*
X0015500Y0314616D02*
X0098076Y0314616D01*
X0098766Y0315614D02*
X0015500Y0315614D01*
X0015500Y0316613D02*
X0099764Y0316613D01*
X0100710Y0317611D02*
X0015500Y0317611D01*
X0015500Y0318610D02*
X0099390Y0318610D01*
X0098663Y0319608D02*
X0015500Y0319608D01*
X0015500Y0320607D02*
X0098248Y0320607D01*
X0098051Y0321605D02*
X0015500Y0321605D01*
X0015500Y0322604D02*
X0098084Y0322604D01*
X0098316Y0323603D02*
X0015500Y0323603D01*
X0015500Y0324601D02*
X0098771Y0324601D01*
X0099599Y0325600D02*
X0015500Y0325600D01*
X0015500Y0326598D02*
X0101133Y0326598D01*
X0099555Y0327597D02*
X0015500Y0327597D01*
X0015500Y0328595D02*
X0098556Y0328595D01*
X0097989Y0329594D02*
X0015500Y0329594D01*
X0015500Y0330592D02*
X0097576Y0330592D01*
X0097450Y0331591D02*
X0015500Y0331591D01*
X0015500Y0332589D02*
X0097450Y0332589D01*
X0097650Y0333588D02*
X0015500Y0333588D01*
X0015500Y0334586D02*
X0098064Y0334586D01*
X0098736Y0335585D02*
X0015500Y0335585D01*
X0015500Y0336583D02*
X0099734Y0336583D01*
X0106266Y0336583D02*
X0109734Y0336583D01*
X0108736Y0335585D02*
X0107264Y0335585D01*
X0107806Y0329100D02*
X0108194Y0329100D01*
X0108295Y0328856D01*
X0109856Y0327295D01*
X0111360Y0326672D01*
X0111100Y0326587D01*
X0110406Y0326234D01*
X0109775Y0325776D01*
X0109224Y0325225D01*
X0108766Y0324594D01*
X0108413Y0323900D01*
X0108172Y0323159D01*
X0108050Y0322390D01*
X0108050Y0322375D01*
X0112625Y0322375D01*
X0112625Y0321625D01*
X0108050Y0321625D01*
X0108050Y0321610D01*
X0108172Y0320841D01*
X0108413Y0320100D01*
X0108766Y0319406D01*
X0109224Y0318775D01*
X0109775Y0318224D01*
X0110406Y0317766D01*
X0111100Y0317413D01*
X0111360Y0317328D01*
X0109856Y0316705D01*
X0108295Y0315144D01*
X0108000Y0314432D01*
X0107705Y0315144D01*
X0106144Y0316705D01*
X0104640Y0317328D01*
X0104900Y0317413D01*
X0105594Y0317766D01*
X0106225Y0318224D01*
X0106776Y0318775D01*
X0107234Y0319406D01*
X0107587Y0320100D01*
X0107828Y0320841D01*
X0107950Y0321610D01*
X0107950Y0321625D01*
X0103375Y0321625D01*
X0103375Y0322375D01*
X0107950Y0322375D01*
X0107950Y0322390D01*
X0107828Y0323159D01*
X0107587Y0323900D01*
X0107234Y0324594D01*
X0106776Y0325225D01*
X0106225Y0325776D01*
X0105594Y0326234D01*
X0104900Y0326587D01*
X0104640Y0326672D01*
X0106144Y0327295D01*
X0107705Y0328856D01*
X0107806Y0329100D01*
X0107444Y0328595D02*
X0108556Y0328595D01*
X0109555Y0327597D02*
X0106445Y0327597D01*
X0104867Y0326598D02*
X0111133Y0326598D01*
X0109599Y0325600D02*
X0106401Y0325600D01*
X0107229Y0324601D02*
X0108771Y0324601D01*
X0108316Y0323603D02*
X0107684Y0323603D01*
X0107916Y0322604D02*
X0108084Y0322604D01*
X0108051Y0321605D02*
X0107949Y0321605D01*
X0107752Y0320607D02*
X0108248Y0320607D01*
X0108663Y0319608D02*
X0107337Y0319608D01*
X0106610Y0318610D02*
X0109390Y0318610D01*
X0110710Y0317611D02*
X0105290Y0317611D01*
X0106236Y0316613D02*
X0109764Y0316613D01*
X0108766Y0315614D02*
X0107234Y0315614D01*
X0107924Y0314616D02*
X0108076Y0314616D01*
X0113375Y0321625D02*
X0113375Y0322375D01*
X0117950Y0322375D01*
X0117950Y0322390D01*
X0117828Y0323159D01*
X0117587Y0323900D01*
X0117234Y0324594D01*
X0116776Y0325225D01*
X0116225Y0325776D01*
X0115594Y0326234D01*
X0114900Y0326587D01*
X0114640Y0326672D01*
X0116144Y0327295D01*
X0117705Y0328856D01*
X0117806Y0329100D01*
X0118194Y0329100D01*
X0118295Y0328856D01*
X0119856Y0327295D01*
X0121360Y0326672D01*
X0121100Y0326587D01*
X0120406Y0326234D01*
X0119775Y0325776D01*
X0119224Y0325225D01*
X0118766Y0324594D01*
X0118413Y0323900D01*
X0118172Y0323159D01*
X0118050Y0322390D01*
X0118050Y0322375D01*
X0122625Y0322375D01*
X0122625Y0321625D01*
X0118050Y0321625D01*
X0118050Y0321610D01*
X0118172Y0320841D01*
X0118413Y0320100D01*
X0118766Y0319406D01*
X0119224Y0318775D01*
X0119775Y0318224D01*
X0120406Y0317766D01*
X0121100Y0317413D01*
X0121360Y0317328D01*
X0119856Y0316705D01*
X0118295Y0315144D01*
X0118000Y0314432D01*
X0117705Y0315144D01*
X0116144Y0316705D01*
X0114640Y0317328D01*
X0114900Y0317413D01*
X0115594Y0317766D01*
X0116225Y0318224D01*
X0116776Y0318775D01*
X0117234Y0319406D01*
X0117587Y0320100D01*
X0117828Y0320841D01*
X0117950Y0321610D01*
X0117950Y0321625D01*
X0113375Y0321625D01*
X0116610Y0318610D02*
X0119390Y0318610D01*
X0118663Y0319608D02*
X0117337Y0319608D01*
X0117752Y0320607D02*
X0118248Y0320607D01*
X0118051Y0321605D02*
X0117949Y0321605D01*
X0117916Y0322604D02*
X0118084Y0322604D01*
X0118316Y0323603D02*
X0117684Y0323603D01*
X0117229Y0324601D02*
X0118771Y0324601D01*
X0119599Y0325600D02*
X0116401Y0325600D01*
X0114867Y0326598D02*
X0121133Y0326598D01*
X0119555Y0327597D02*
X0116445Y0327597D01*
X0117444Y0328595D02*
X0118556Y0328595D01*
X0124640Y0326672D02*
X0126144Y0327295D01*
X0127705Y0328856D01*
X0127806Y0329100D01*
X0134263Y0329100D01*
X0136763Y0326600D01*
X0141237Y0326600D01*
X0144000Y0329363D01*
X0146763Y0326600D01*
X0150299Y0326600D01*
X0154357Y0322541D01*
X0155423Y0322100D01*
X0162577Y0322100D01*
X0163643Y0322541D01*
X0164458Y0323357D01*
X0169126Y0328025D01*
X0169856Y0327295D01*
X0170568Y0327000D01*
X0169856Y0326705D01*
X0168295Y0325144D01*
X0167450Y0323104D01*
X0167450Y0320896D01*
X0168295Y0318856D01*
X0169856Y0317295D01*
X0170568Y0317000D01*
X0169856Y0316705D01*
X0168295Y0315144D01*
X0167450Y0313104D01*
X0167450Y0310896D01*
X0168295Y0308856D01*
X0169856Y0307295D01*
X0171360Y0306672D01*
X0171100Y0306587D01*
X0170406Y0306234D01*
X0169775Y0305776D01*
X0169224Y0305225D01*
X0168766Y0304594D01*
X0168413Y0303900D01*
X0168172Y0303159D01*
X0168050Y0302390D01*
X0168050Y0302375D01*
X0172625Y0302375D01*
X0172625Y0301625D01*
X0168050Y0301625D01*
X0168050Y0301610D01*
X0168172Y0300841D01*
X0168413Y0300100D01*
X0168766Y0299406D01*
X0169224Y0298775D01*
X0169775Y0298224D01*
X0170406Y0297766D01*
X0171100Y0297413D01*
X0171360Y0297328D01*
X0169856Y0296705D01*
X0168295Y0295144D01*
X0167450Y0293104D01*
X0167450Y0290896D01*
X0168295Y0288856D01*
X0169856Y0287295D01*
X0170568Y0287000D01*
X0169856Y0286705D01*
X0168295Y0285144D01*
X0167450Y0283104D01*
X0167450Y0280896D01*
X0168295Y0278856D01*
X0169856Y0277295D01*
X0170568Y0277000D01*
X0169856Y0276705D01*
X0168295Y0275144D01*
X0167527Y0273291D01*
X0156529Y0284289D01*
X0155537Y0284700D01*
X0127889Y0284700D01*
X0127705Y0285144D01*
X0126144Y0286705D01*
X0125432Y0287000D01*
X0126144Y0287295D01*
X0127705Y0288856D01*
X0128550Y0290896D01*
X0128550Y0293104D01*
X0127705Y0295144D01*
X0126144Y0296705D01*
X0125432Y0297000D01*
X0126144Y0297295D01*
X0127705Y0298856D01*
X0128550Y0300896D01*
X0128550Y0303104D01*
X0127705Y0305144D01*
X0126144Y0306705D01*
X0125432Y0307000D01*
X0126144Y0307295D01*
X0127705Y0308856D01*
X0128550Y0310896D01*
X0128550Y0313104D01*
X0127705Y0315144D01*
X0126144Y0316705D01*
X0124640Y0317328D01*
X0124900Y0317413D01*
X0125594Y0317766D01*
X0126225Y0318224D01*
X0126776Y0318775D01*
X0127234Y0319406D01*
X0127587Y0320100D01*
X0127828Y0320841D01*
X0127950Y0321610D01*
X0127950Y0321625D01*
X0123375Y0321625D01*
X0123375Y0322375D01*
X0127950Y0322375D01*
X0127950Y0322390D01*
X0127828Y0323159D01*
X0127587Y0323900D01*
X0127234Y0324594D01*
X0126776Y0325225D01*
X0126225Y0325776D01*
X0125594Y0326234D01*
X0124900Y0326587D01*
X0124640Y0326672D01*
X0124867Y0326598D02*
X0150301Y0326598D01*
X0151299Y0325600D02*
X0126401Y0325600D01*
X0127229Y0324601D02*
X0152298Y0324601D01*
X0153296Y0323603D02*
X0127684Y0323603D01*
X0127916Y0322604D02*
X0154295Y0322604D01*
X0163705Y0322604D02*
X0167450Y0322604D01*
X0167450Y0321605D02*
X0127949Y0321605D01*
X0127752Y0320607D02*
X0167570Y0320607D01*
X0167983Y0319608D02*
X0127337Y0319608D01*
X0126610Y0318610D02*
X0168541Y0318610D01*
X0169540Y0317611D02*
X0125290Y0317611D01*
X0126236Y0316613D02*
X0169764Y0316613D01*
X0168766Y0315614D02*
X0127234Y0315614D01*
X0127924Y0314616D02*
X0168076Y0314616D01*
X0167663Y0313617D02*
X0128337Y0313617D01*
X0128550Y0312619D02*
X0167450Y0312619D01*
X0167450Y0311620D02*
X0128550Y0311620D01*
X0128436Y0310622D02*
X0167564Y0310622D01*
X0167977Y0309623D02*
X0128023Y0309623D01*
X0127474Y0308625D02*
X0168526Y0308625D01*
X0169525Y0307626D02*
X0126475Y0307626D01*
X0126221Y0306628D02*
X0171225Y0306628D01*
X0169629Y0305629D02*
X0127220Y0305629D01*
X0127918Y0304631D02*
X0168793Y0304631D01*
X0168326Y0303632D02*
X0128331Y0303632D01*
X0128550Y0302634D02*
X0168089Y0302634D01*
X0168238Y0300637D02*
X0128443Y0300637D01*
X0128550Y0301635D02*
X0172625Y0301635D01*
X0173375Y0301635D02*
X0182625Y0301635D01*
X0182625Y0301625D02*
X0178050Y0301625D01*
X0178050Y0301610D01*
X0178172Y0300841D01*
X0178413Y0300100D01*
X0178766Y0299406D01*
X0179224Y0298775D01*
X0179775Y0298224D01*
X0180406Y0297766D01*
X0181100Y0297413D01*
X0181360Y0297328D01*
X0179856Y0296705D01*
X0178295Y0295144D01*
X0178000Y0294432D01*
X0177705Y0295144D01*
X0176144Y0296705D01*
X0174640Y0297328D01*
X0174900Y0297413D01*
X0175594Y0297766D01*
X0176225Y0298224D01*
X0176776Y0298775D01*
X0177234Y0299406D01*
X0177587Y0300100D01*
X0177828Y0300841D01*
X0177950Y0301610D01*
X0177950Y0301625D01*
X0173375Y0301625D01*
X0173375Y0302375D01*
X0177950Y0302375D01*
X0177950Y0302390D01*
X0177828Y0303159D01*
X0177587Y0303900D01*
X0177234Y0304594D01*
X0176776Y0305225D01*
X0176225Y0305776D01*
X0175594Y0306234D01*
X0174900Y0306587D01*
X0174640Y0306672D01*
X0176144Y0307295D01*
X0177705Y0308856D01*
X0178000Y0309568D01*
X0178295Y0308856D01*
X0179856Y0307295D01*
X0181360Y0306672D01*
X0181100Y0306587D01*
X0180406Y0306234D01*
X0179775Y0305776D01*
X0179224Y0305225D01*
X0178766Y0304594D01*
X0178413Y0303900D01*
X0178172Y0303159D01*
X0178050Y0302390D01*
X0178050Y0302375D01*
X0182625Y0302375D01*
X0182625Y0301625D01*
X0179360Y0298640D02*
X0176640Y0298640D01*
X0177352Y0299638D02*
X0178648Y0299638D01*
X0178238Y0300637D02*
X0177762Y0300637D01*
X0177911Y0302634D02*
X0178089Y0302634D01*
X0178326Y0303632D02*
X0177674Y0303632D01*
X0177207Y0304631D02*
X0178793Y0304631D01*
X0179629Y0305629D02*
X0176371Y0305629D01*
X0174775Y0306628D02*
X0181225Y0306628D01*
X0179525Y0307626D02*
X0176475Y0307626D01*
X0177474Y0308625D02*
X0178526Y0308625D01*
X0180651Y0297641D02*
X0175349Y0297641D01*
X0176206Y0296643D02*
X0179794Y0296643D01*
X0178795Y0295644D02*
X0177205Y0295644D01*
X0177911Y0294646D02*
X0178089Y0294646D01*
X0170651Y0297641D02*
X0126490Y0297641D01*
X0126206Y0296643D02*
X0169794Y0296643D01*
X0168795Y0295644D02*
X0127205Y0295644D01*
X0127911Y0294646D02*
X0168089Y0294646D01*
X0167675Y0293647D02*
X0128325Y0293647D01*
X0128550Y0292649D02*
X0167450Y0292649D01*
X0167450Y0291650D02*
X0128550Y0291650D01*
X0128449Y0290652D02*
X0167551Y0290652D01*
X0167965Y0289653D02*
X0128035Y0289653D01*
X0127504Y0288655D02*
X0168496Y0288655D01*
X0169495Y0287656D02*
X0126505Y0287656D01*
X0126191Y0286658D02*
X0169809Y0286658D01*
X0168810Y0285659D02*
X0127190Y0285659D01*
X0127889Y0279300D02*
X0153882Y0279300D01*
X0159419Y0273763D01*
X0158688Y0273460D01*
X0157540Y0272312D01*
X0156919Y0270812D01*
X0156919Y0269596D01*
X0146923Y0259600D01*
X0128013Y0259600D01*
X0128550Y0260896D01*
X0128550Y0263104D01*
X0127705Y0265144D01*
X0126144Y0266705D01*
X0125432Y0267000D01*
X0126144Y0267295D01*
X0127705Y0268856D01*
X0128550Y0270896D01*
X0128550Y0273104D01*
X0127705Y0275144D01*
X0126144Y0276705D01*
X0125432Y0277000D01*
X0126144Y0277295D01*
X0127705Y0278856D01*
X0127889Y0279300D01*
X0127518Y0278670D02*
X0154512Y0278670D01*
X0155511Y0277671D02*
X0126520Y0277671D01*
X0126176Y0276672D02*
X0156509Y0276672D01*
X0157508Y0275674D02*
X0127175Y0275674D01*
X0127899Y0274675D02*
X0158506Y0274675D01*
X0159213Y0273677D02*
X0128313Y0273677D01*
X0128550Y0272678D02*
X0157907Y0272678D01*
X0157279Y0271680D02*
X0128550Y0271680D01*
X0128461Y0270681D02*
X0156919Y0270681D01*
X0156919Y0269683D02*
X0128047Y0269683D01*
X0127533Y0268684D02*
X0156007Y0268684D01*
X0155009Y0267686D02*
X0126535Y0267686D01*
X0126161Y0266687D02*
X0154010Y0266687D01*
X0153012Y0265689D02*
X0127160Y0265689D01*
X0127893Y0264690D02*
X0152013Y0264690D01*
X0151015Y0263692D02*
X0128306Y0263692D01*
X0128550Y0262693D02*
X0150016Y0262693D01*
X0149018Y0261695D02*
X0128550Y0261695D01*
X0128467Y0260696D02*
X0148019Y0260696D01*
X0147021Y0259698D02*
X0128054Y0259698D01*
X0128013Y0254400D02*
X0148517Y0254400D01*
X0149473Y0254796D01*
X0150204Y0255527D01*
X0160596Y0265919D01*
X0161812Y0265919D01*
X0163312Y0266540D01*
X0164460Y0267688D01*
X0164763Y0268419D01*
X0167711Y0265471D01*
X0168220Y0264962D01*
X0167450Y0263104D01*
X0167450Y0260896D01*
X0168295Y0258856D01*
X0169856Y0257295D01*
X0170568Y0257000D01*
X0169856Y0256705D01*
X0168295Y0255144D01*
X0167450Y0253104D01*
X0167450Y0250896D01*
X0168295Y0248856D01*
X0169856Y0247295D01*
X0170568Y0247000D01*
X0169856Y0246705D01*
X0168295Y0245144D01*
X0167450Y0243104D01*
X0167450Y0240896D01*
X0168295Y0238856D01*
X0169856Y0237295D01*
X0170568Y0237000D01*
X0169856Y0236705D01*
X0168295Y0235144D01*
X0167450Y0233104D01*
X0167450Y0230896D01*
X0168295Y0228856D01*
X0169856Y0227295D01*
X0170568Y0227000D01*
X0169856Y0226705D01*
X0168295Y0225144D01*
X0167863Y0224100D01*
X0128137Y0224100D01*
X0127705Y0225144D01*
X0126144Y0226705D01*
X0125432Y0227000D01*
X0126144Y0227295D01*
X0127705Y0228856D01*
X0128550Y0230896D01*
X0128550Y0233104D01*
X0128013Y0234400D01*
X0138517Y0234400D01*
X0139473Y0234796D01*
X0152596Y0247919D01*
X0153812Y0247919D01*
X0155312Y0248540D01*
X0156460Y0249688D01*
X0157081Y0251188D01*
X0157081Y0252812D01*
X0156460Y0254312D01*
X0155312Y0255460D01*
X0153812Y0256081D01*
X0152188Y0256081D01*
X0150688Y0255460D01*
X0149540Y0254312D01*
X0148919Y0252812D01*
X0148919Y0251596D01*
X0136923Y0239600D01*
X0128013Y0239600D01*
X0128550Y0240896D01*
X0128550Y0243104D01*
X0127705Y0245144D01*
X0126144Y0246705D01*
X0125432Y0247000D01*
X0126144Y0247295D01*
X0127705Y0248856D01*
X0128550Y0250896D01*
X0128550Y0253104D01*
X0128013Y0254400D01*
X0128300Y0253707D02*
X0149290Y0253707D01*
X0149254Y0254705D02*
X0149934Y0254705D01*
X0150381Y0255704D02*
X0151277Y0255704D01*
X0151379Y0256702D02*
X0169853Y0256702D01*
X0169450Y0257701D02*
X0152378Y0257701D01*
X0153376Y0258699D02*
X0168452Y0258699D01*
X0167946Y0259698D02*
X0154375Y0259698D01*
X0155373Y0260696D02*
X0167533Y0260696D01*
X0167450Y0261695D02*
X0156372Y0261695D01*
X0157370Y0262693D02*
X0167450Y0262693D01*
X0167694Y0263692D02*
X0158369Y0263692D01*
X0159367Y0264690D02*
X0168107Y0264690D01*
X0167493Y0265689D02*
X0160366Y0265689D01*
X0163459Y0266687D02*
X0166494Y0266687D01*
X0165496Y0267686D02*
X0164457Y0267686D01*
X0161000Y0270000D02*
X0148000Y0257000D01*
X0055500Y0257000D01*
X0051787Y0258699D02*
X0050600Y0258699D01*
X0050600Y0257701D02*
X0051419Y0257701D01*
X0051419Y0257812D02*
X0051419Y0256188D01*
X0052040Y0254688D01*
X0053188Y0253540D01*
X0054688Y0252919D01*
X0056312Y0252919D01*
X0057812Y0253540D01*
X0058672Y0254400D01*
X0067000Y0254400D01*
X0066527Y0254204D01*
X0065796Y0253473D01*
X0065796Y0253473D01*
X0060796Y0248473D01*
X0060400Y0247517D01*
X0060400Y0223000D01*
X0060204Y0223473D01*
X0050600Y0233077D01*
X0050600Y0260582D01*
X0050711Y0260471D01*
X0051471Y0259711D01*
X0052156Y0259427D01*
X0052040Y0259312D01*
X0051419Y0257812D01*
X0051419Y0256702D02*
X0050600Y0256702D01*
X0050600Y0255704D02*
X0051620Y0255704D01*
X0052033Y0254705D02*
X0050600Y0254705D01*
X0050600Y0253707D02*
X0053022Y0253707D01*
X0050600Y0252708D02*
X0065031Y0252708D01*
X0064033Y0251710D02*
X0050600Y0251710D01*
X0050600Y0250711D02*
X0063034Y0250711D01*
X0062036Y0249713D02*
X0050600Y0249713D01*
X0050600Y0248714D02*
X0061037Y0248714D01*
X0060482Y0247716D02*
X0050600Y0247716D01*
X0050600Y0246717D02*
X0060400Y0246717D01*
X0060400Y0245719D02*
X0050600Y0245719D01*
X0050600Y0244720D02*
X0060400Y0244720D01*
X0060400Y0243722D02*
X0050600Y0243722D01*
X0050600Y0242723D02*
X0060400Y0242723D01*
X0060400Y0241725D02*
X0050600Y0241725D01*
X0050600Y0240726D02*
X0060400Y0240726D01*
X0060400Y0239728D02*
X0050600Y0239728D01*
X0050600Y0238729D02*
X0060400Y0238729D01*
X0060400Y0237731D02*
X0050600Y0237731D01*
X0050600Y0236732D02*
X0060400Y0236732D01*
X0060400Y0235734D02*
X0050600Y0235734D01*
X0050600Y0234735D02*
X0060400Y0234735D01*
X0060400Y0233737D02*
X0050600Y0233737D01*
X0050939Y0232738D02*
X0060400Y0232738D01*
X0060400Y0231739D02*
X0051937Y0231739D01*
X0052936Y0230741D02*
X0060400Y0230741D01*
X0060400Y0229742D02*
X0053934Y0229742D01*
X0054933Y0228744D02*
X0060400Y0228744D01*
X0060400Y0227745D02*
X0055931Y0227745D01*
X0056930Y0226747D02*
X0060400Y0226747D01*
X0060400Y0225748D02*
X0057929Y0225748D01*
X0058927Y0224750D02*
X0060400Y0224750D01*
X0060400Y0223751D02*
X0059926Y0223751D01*
X0055400Y0220756D02*
X0049733Y0220756D01*
X0049853Y0220679D02*
X0049853Y0220679D01*
X0050652Y0219757D02*
X0055400Y0219757D01*
X0055400Y0218759D02*
X0051517Y0218759D01*
X0052382Y0217760D02*
X0055400Y0217760D01*
X0055400Y0216762D02*
X0053238Y0216762D01*
X0053227Y0216786D02*
X0053227Y0216786D01*
X0053694Y0215763D02*
X0055400Y0215763D01*
X0055400Y0214765D02*
X0054150Y0214765D01*
X0054606Y0213766D02*
X0055400Y0213766D01*
X0055400Y0212768D02*
X0055062Y0212768D01*
X0054569Y0221754D02*
X0048180Y0221754D01*
X0046626Y0222753D02*
X0053570Y0222753D01*
X0052572Y0223751D02*
X0044541Y0223751D01*
X0045519Y0223464D02*
X0045519Y0223464D01*
X0049576Y0226747D02*
X0026535Y0226747D01*
X0025537Y0225748D02*
X0050575Y0225748D01*
X0051573Y0224750D02*
X0041141Y0224750D01*
X0034859Y0224750D02*
X0025038Y0224750D01*
X0024988Y0225200D02*
X0027800Y0228012D01*
X0027800Y0229500D01*
X0023500Y0229500D01*
X0023500Y0230500D01*
X0027800Y0230500D01*
X0027800Y0231988D01*
X0024988Y0234800D01*
X0023500Y0234800D01*
X0023500Y0230500D01*
X0022500Y0230500D01*
X0022500Y0234800D01*
X0021012Y0234800D01*
X0018200Y0231988D01*
X0018200Y0230500D01*
X0022500Y0230500D01*
X0022500Y0229500D01*
X0023500Y0229500D01*
X0023500Y0225200D01*
X0024988Y0225200D01*
X0023500Y0224750D02*
X0022500Y0224750D01*
X0022500Y0225200D02*
X0022500Y0229500D01*
X0018200Y0229500D01*
X0018200Y0228012D01*
X0021012Y0225200D01*
X0022500Y0225200D01*
X0022500Y0225748D02*
X0023500Y0225748D01*
X0023500Y0226747D02*
X0022500Y0226747D01*
X0022500Y0227745D02*
X0023500Y0227745D01*
X0023500Y0228744D02*
X0022500Y0228744D01*
X0022500Y0229742D02*
X0015500Y0229742D01*
X0015500Y0228744D02*
X0018200Y0228744D01*
X0018466Y0227745D02*
X0015500Y0227745D01*
X0015500Y0226747D02*
X0019465Y0226747D01*
X0020463Y0225748D02*
X0015500Y0225748D01*
X0015500Y0224750D02*
X0020962Y0224750D01*
X0019963Y0223751D02*
X0015500Y0223751D01*
X0015500Y0222753D02*
X0018965Y0222753D01*
X0018200Y0221754D02*
X0015500Y0221754D01*
X0015500Y0220756D02*
X0018200Y0220756D01*
X0018200Y0218759D02*
X0015500Y0218759D01*
X0015500Y0219757D02*
X0022500Y0219757D01*
X0022500Y0220756D02*
X0023500Y0220756D01*
X0023500Y0221754D02*
X0022500Y0221754D01*
X0022500Y0222753D02*
X0023500Y0222753D01*
X0023500Y0223751D02*
X0022500Y0223751D01*
X0026037Y0223751D02*
X0031459Y0223751D01*
X0030481Y0223464D02*
X0030481Y0223464D01*
X0029374Y0222753D02*
X0027035Y0222753D01*
X0027800Y0221754D02*
X0027820Y0221754D01*
X0027534Y0227745D02*
X0048578Y0227745D01*
X0047579Y0228744D02*
X0027800Y0228744D01*
X0027800Y0230741D02*
X0045707Y0230741D01*
X0045400Y0231739D02*
X0027800Y0231739D01*
X0027050Y0232738D02*
X0045400Y0232738D01*
X0045400Y0233737D02*
X0026052Y0233737D01*
X0025053Y0234735D02*
X0045400Y0234735D01*
X0045400Y0235734D02*
X0015500Y0235734D01*
X0015500Y0236732D02*
X0045400Y0236732D01*
X0045400Y0237731D02*
X0015500Y0237731D01*
X0015500Y0238729D02*
X0045400Y0238729D01*
X0045400Y0239728D02*
X0015500Y0239728D01*
X0015500Y0240726D02*
X0045400Y0240726D01*
X0045400Y0241725D02*
X0015500Y0241725D01*
X0015500Y0242723D02*
X0045400Y0242723D01*
X0045400Y0243722D02*
X0015500Y0243722D01*
X0015500Y0244720D02*
X0045400Y0244720D01*
X0045400Y0245719D02*
X0015500Y0245719D01*
X0015500Y0246717D02*
X0045400Y0246717D01*
X0045400Y0247716D02*
X0015500Y0247716D01*
X0015500Y0248714D02*
X0045400Y0248714D01*
X0045400Y0249713D02*
X0015500Y0249713D01*
X0015500Y0250711D02*
X0045400Y0250711D01*
X0045400Y0251710D02*
X0015500Y0251710D01*
X0015500Y0252708D02*
X0045400Y0252708D01*
X0045400Y0253707D02*
X0015500Y0253707D01*
X0015500Y0254705D02*
X0045400Y0254705D01*
X0045400Y0255704D02*
X0015500Y0255704D01*
X0015500Y0256702D02*
X0045400Y0256702D01*
X0045400Y0257701D02*
X0015500Y0257701D01*
X0015500Y0258699D02*
X0045400Y0258699D01*
X0045400Y0259698D02*
X0015500Y0259698D01*
X0015500Y0260696D02*
X0045400Y0260696D01*
X0050600Y0259698D02*
X0051503Y0259698D01*
X0057978Y0253707D02*
X0066030Y0253707D01*
X0068000Y0252000D02*
X0063000Y0247000D01*
X0063000Y0142000D01*
X0083000Y0122000D01*
X0112000Y0122000D01*
X0157000Y0077000D01*
X0161081Y0076970D02*
X0190900Y0076970D01*
X0190900Y0075972D02*
X0160991Y0075972D01*
X0160578Y0074973D02*
X0190900Y0074973D01*
X0190900Y0073975D02*
X0159746Y0073975D01*
X0161016Y0077969D02*
X0190900Y0077969D01*
X0190900Y0078967D02*
X0160602Y0078967D01*
X0159806Y0079966D02*
X0190900Y0079966D01*
X0190900Y0080964D02*
X0158094Y0080964D01*
X0155714Y0081963D02*
X0190900Y0081963D01*
X0190900Y0082961D02*
X0154716Y0082961D01*
X0153717Y0083960D02*
X0190900Y0083960D01*
X0190900Y0084958D02*
X0152719Y0084958D01*
X0151720Y0085957D02*
X0190900Y0085957D01*
X0190900Y0086955D02*
X0150722Y0086955D01*
X0149723Y0087954D02*
X0190900Y0087954D01*
X0190900Y0088952D02*
X0148725Y0088952D01*
X0147726Y0089951D02*
X0190900Y0089951D01*
X0190900Y0090949D02*
X0146728Y0090949D01*
X0145729Y0091948D02*
X0190900Y0091948D01*
X0190900Y0092946D02*
X0144731Y0092946D01*
X0143732Y0093945D02*
X0190900Y0093945D01*
X0190900Y0094943D02*
X0169215Y0094943D01*
X0170211Y0095942D02*
X0191472Y0095942D01*
X0190105Y0104929D02*
X0227157Y0104929D01*
X0227400Y0105927D02*
X0191104Y0105927D01*
X0192103Y0106926D02*
X0227400Y0106926D01*
X0227400Y0107924D02*
X0193101Y0107924D01*
X0194100Y0108923D02*
X0227400Y0108923D01*
X0227400Y0109921D02*
X0195098Y0109921D01*
X0196097Y0110920D02*
X0227567Y0110920D01*
X0228241Y0111918D02*
X0197095Y0111918D01*
X0197000Y0115500D02*
X0231500Y0115500D01*
X0248000Y0132000D01*
X0248000Y0137000D01*
X0244238Y0140875D02*
X0240913Y0140875D01*
X0239988Y0141800D02*
X0238500Y0141800D01*
X0238500Y0137500D01*
X0237500Y0137500D01*
X0237500Y0141800D01*
X0236012Y0141800D01*
X0233400Y0139188D01*
X0233400Y0139237D01*
X0230637Y0142000D01*
X0233400Y0144763D01*
X0233400Y0144812D01*
X0236012Y0142200D01*
X0237500Y0142200D01*
X0237500Y0146500D01*
X0238500Y0146500D01*
X0238500Y0142200D01*
X0239988Y0142200D01*
X0242600Y0144812D01*
X0242600Y0144763D01*
X0245363Y0142000D01*
X0242600Y0139237D01*
X0242600Y0139188D01*
X0239988Y0141800D01*
X0240660Y0142872D02*
X0244491Y0142872D01*
X0245237Y0141873D02*
X0230763Y0141873D01*
X0231509Y0142872D02*
X0235340Y0142872D01*
X0234341Y0143870D02*
X0232507Y0143870D01*
X0231762Y0140875D02*
X0235087Y0140875D01*
X0234088Y0139876D02*
X0232760Y0139876D01*
X0237500Y0139876D02*
X0238500Y0139876D01*
X0238500Y0138878D02*
X0237500Y0138878D01*
X0237500Y0137879D02*
X0238500Y0137879D01*
X0238500Y0136500D02*
X0238500Y0132200D01*
X0239988Y0132200D01*
X0242600Y0134812D01*
X0242600Y0134763D01*
X0244843Y0132520D01*
X0230423Y0118100D01*
X0220777Y0118100D01*
X0230204Y0127527D01*
X0230600Y0128483D01*
X0230600Y0131963D01*
X0233400Y0134763D01*
X0233400Y0134812D01*
X0236012Y0132200D01*
X0237500Y0132200D01*
X0237500Y0136500D01*
X0238500Y0136500D01*
X0238500Y0135882D02*
X0237500Y0135882D01*
X0237500Y0134884D02*
X0238500Y0134884D01*
X0238500Y0133885D02*
X0237500Y0133885D01*
X0237500Y0132887D02*
X0238500Y0132887D01*
X0240675Y0132887D02*
X0244476Y0132887D01*
X0244211Y0131888D02*
X0230600Y0131888D01*
X0230600Y0130890D02*
X0243213Y0130890D01*
X0242214Y0129891D02*
X0230600Y0129891D01*
X0230600Y0128893D02*
X0241216Y0128893D01*
X0240217Y0127894D02*
X0230356Y0127894D01*
X0229573Y0126896D02*
X0239219Y0126896D01*
X0238220Y0125897D02*
X0228574Y0125897D01*
X0227576Y0124899D02*
X0237222Y0124899D01*
X0236223Y0123900D02*
X0226577Y0123900D01*
X0225579Y0122902D02*
X0235225Y0122902D01*
X0234226Y0121903D02*
X0224580Y0121903D01*
X0223582Y0120905D02*
X0233228Y0120905D01*
X0232229Y0119906D02*
X0222583Y0119906D01*
X0221585Y0118908D02*
X0231231Y0118908D01*
X0236000Y0113000D02*
X0236000Y0102000D01*
X0238843Y0104929D02*
X0307500Y0104929D01*
X0307500Y0104500D02*
X0303200Y0104500D01*
X0303200Y0103012D01*
X0306012Y0100200D01*
X0307500Y0100200D01*
X0307500Y0104500D01*
X0308500Y0104500D01*
X0308500Y0105500D01*
X0312800Y0105500D01*
X0312800Y0106988D01*
X0309988Y0109800D01*
X0308500Y0109800D01*
X0308500Y0105500D01*
X0307500Y0105500D01*
X0307500Y0109800D01*
X0306012Y0109800D01*
X0303200Y0106988D01*
X0303200Y0105500D01*
X0307500Y0105500D01*
X0307500Y0104500D01*
X0307500Y0103930D02*
X0308500Y0103930D01*
X0308500Y0104500D02*
X0308500Y0100200D01*
X0309988Y0100200D01*
X0312800Y0103012D01*
X0312800Y0104500D01*
X0308500Y0104500D01*
X0308500Y0104929D02*
X0314000Y0104929D01*
X0314000Y0105927D02*
X0312800Y0105927D01*
X0312800Y0106926D02*
X0314000Y0106926D01*
X0314000Y0107924D02*
X0311864Y0107924D01*
X0310866Y0108923D02*
X0314000Y0108923D01*
X0314000Y0109921D02*
X0238600Y0109921D01*
X0238600Y0108923D02*
X0305134Y0108923D01*
X0304136Y0107924D02*
X0238600Y0107924D01*
X0238600Y0106926D02*
X0303200Y0106926D01*
X0303200Y0105927D02*
X0238600Y0105927D01*
X0239618Y0103930D02*
X0303200Y0103930D01*
X0303280Y0102932D02*
X0240031Y0102932D01*
X0240081Y0101933D02*
X0304279Y0101933D01*
X0305277Y0100934D02*
X0239976Y0100934D01*
X0239562Y0099936D02*
X0314000Y0099936D01*
X0314000Y0100934D02*
X0310723Y0100934D01*
X0311721Y0101933D02*
X0314000Y0101933D01*
X0314000Y0102932D02*
X0312720Y0102932D01*
X0312800Y0103930D02*
X0314000Y0103930D01*
X0308500Y0102932D02*
X0307500Y0102932D01*
X0307500Y0101933D02*
X0308500Y0101933D01*
X0308500Y0100934D02*
X0307500Y0100934D01*
X0307500Y0105927D02*
X0308500Y0105927D01*
X0308500Y0106926D02*
X0307500Y0106926D01*
X0307500Y0107924D02*
X0308500Y0107924D01*
X0308500Y0108923D02*
X0307500Y0108923D01*
X0307500Y0110200D02*
X0307500Y0114500D01*
X0308500Y0114500D01*
X0308500Y0115500D01*
X0312800Y0115500D01*
X0312800Y0116988D01*
X0309988Y0119800D01*
X0308500Y0119800D01*
X0308500Y0115500D01*
X0307500Y0115500D01*
X0307500Y0119800D01*
X0306012Y0119800D01*
X0303200Y0116988D01*
X0303200Y0115500D01*
X0307500Y0115500D01*
X0307500Y0114500D01*
X0303200Y0114500D01*
X0303200Y0113012D01*
X0306012Y0110200D01*
X0307500Y0110200D01*
X0307500Y0110920D02*
X0308500Y0110920D01*
X0308500Y0110200D02*
X0309988Y0110200D01*
X0312800Y0113012D01*
X0312800Y0114500D01*
X0308500Y0114500D01*
X0308500Y0110200D01*
X0308500Y0111918D02*
X0307500Y0111918D01*
X0307500Y0112917D02*
X0308500Y0112917D01*
X0308500Y0113915D02*
X0307500Y0113915D01*
X0307500Y0114914D02*
X0241591Y0114914D01*
X0242589Y0115912D02*
X0303200Y0115912D01*
X0303200Y0116911D02*
X0243588Y0116911D01*
X0244586Y0117909D02*
X0304121Y0117909D01*
X0305119Y0118908D02*
X0245585Y0118908D01*
X0246583Y0119906D02*
X0314000Y0119906D01*
X0314000Y0118908D02*
X0310880Y0118908D01*
X0311879Y0117909D02*
X0314000Y0117909D01*
X0314000Y0116911D02*
X0312800Y0116911D01*
X0312800Y0115912D02*
X0314000Y0115912D01*
X0314000Y0114914D02*
X0308500Y0114914D01*
X0308500Y0115912D02*
X0307500Y0115912D01*
X0307500Y0116911D02*
X0308500Y0116911D01*
X0308500Y0117909D02*
X0307500Y0117909D01*
X0307500Y0118908D02*
X0308500Y0118908D01*
X0308500Y0122200D02*
X0309988Y0122200D01*
X0312800Y0125012D01*
X0312800Y0126500D01*
X0308500Y0126500D01*
X0308500Y0122200D01*
X0308500Y0122902D02*
X0307500Y0122902D01*
X0307500Y0123900D02*
X0308500Y0123900D01*
X0308500Y0124899D02*
X0307500Y0124899D01*
X0307500Y0125897D02*
X0308500Y0125897D01*
X0308500Y0126896D02*
X0314000Y0126896D01*
X0314000Y0127894D02*
X0312800Y0127894D01*
X0312800Y0127500D02*
X0312800Y0128988D01*
X0309988Y0131800D01*
X0308500Y0131800D01*
X0308500Y0127500D01*
X0312800Y0127500D01*
X0312800Y0128893D02*
X0314000Y0128893D01*
X0314000Y0129891D02*
X0311897Y0129891D01*
X0310898Y0130890D02*
X0314000Y0130890D01*
X0314000Y0131888D02*
X0300748Y0131888D01*
X0300400Y0132887D02*
X0314000Y0132887D01*
X0314000Y0133885D02*
X0300400Y0133885D01*
X0300400Y0134884D02*
X0314000Y0134884D01*
X0314000Y0135882D02*
X0300232Y0135882D01*
X0299513Y0136881D02*
X0314000Y0136881D01*
X0314000Y0137879D02*
X0298515Y0137879D01*
X0297516Y0138878D02*
X0305278Y0138878D01*
X0304280Y0139876D02*
X0296518Y0139876D01*
X0295519Y0140875D02*
X0303281Y0140875D01*
X0302283Y0141873D02*
X0294521Y0141873D01*
X0293522Y0142872D02*
X0302100Y0142872D01*
X0302100Y0143870D02*
X0292524Y0143870D01*
X0291525Y0144869D02*
X0302100Y0144869D01*
X0302100Y0145868D02*
X0290527Y0145868D01*
X0289528Y0146866D02*
X0302100Y0146866D01*
X0301241Y0147865D02*
X0288530Y0147865D01*
X0287531Y0148863D02*
X0300243Y0148863D01*
X0299244Y0149862D02*
X0286533Y0149862D01*
X0285534Y0150860D02*
X0298246Y0150860D01*
X0297247Y0151859D02*
X0284536Y0151859D01*
X0283537Y0152857D02*
X0296249Y0152857D01*
X0295250Y0153856D02*
X0282538Y0153856D01*
X0281540Y0154854D02*
X0294252Y0154854D01*
X0293253Y0155853D02*
X0280541Y0155853D01*
X0279543Y0156851D02*
X0292255Y0156851D01*
X0291256Y0157850D02*
X0278544Y0157850D01*
X0277546Y0158848D02*
X0290258Y0158848D01*
X0289259Y0159847D02*
X0276547Y0159847D01*
X0275549Y0160845D02*
X0288673Y0160845D01*
X0288600Y0161844D02*
X0274550Y0161844D01*
X0273552Y0162842D02*
X0288600Y0162842D01*
X0288600Y0163841D02*
X0272553Y0163841D01*
X0271555Y0164839D02*
X0288600Y0164839D01*
X0288600Y0165838D02*
X0270556Y0165838D01*
X0269558Y0166836D02*
X0288600Y0166836D01*
X0288600Y0167835D02*
X0268559Y0167835D01*
X0267561Y0168833D02*
X0288600Y0168833D01*
X0288600Y0169832D02*
X0267400Y0169832D01*
X0267400Y0170830D02*
X0288600Y0170830D01*
X0288600Y0171829D02*
X0267400Y0171829D01*
X0267400Y0172827D02*
X0288600Y0172827D01*
X0288600Y0173826D02*
X0267400Y0173826D01*
X0267400Y0174824D02*
X0288600Y0174824D01*
X0288600Y0175823D02*
X0267400Y0175823D01*
X0267400Y0176821D02*
X0288600Y0176821D01*
X0288600Y0177820D02*
X0267400Y0177820D01*
X0267400Y0178818D02*
X0288600Y0178818D01*
X0288600Y0179817D02*
X0267400Y0179817D01*
X0267400Y0180815D02*
X0288600Y0180815D01*
X0288600Y0181814D02*
X0267400Y0181814D01*
X0267400Y0182812D02*
X0288600Y0182812D01*
X0288600Y0183811D02*
X0267400Y0183811D01*
X0267400Y0184809D02*
X0287796Y0184809D01*
X0284420Y0185808D02*
X0267400Y0185808D01*
X0267400Y0186806D02*
X0283491Y0186806D01*
X0283078Y0187805D02*
X0267400Y0187805D01*
X0267400Y0188803D02*
X0282919Y0188803D01*
X0282919Y0189802D02*
X0267400Y0189802D01*
X0267400Y0190801D02*
X0283328Y0190801D01*
X0284027Y0191799D02*
X0267400Y0191799D01*
X0267400Y0192798D02*
X0285504Y0192798D01*
X0288496Y0192798D02*
X0290600Y0192798D01*
X0290600Y0193796D02*
X0267400Y0193796D01*
X0267400Y0194795D02*
X0290600Y0194795D01*
X0290600Y0195793D02*
X0267400Y0195793D01*
X0267063Y0196792D02*
X0290600Y0196792D01*
X0290600Y0197790D02*
X0266104Y0197790D01*
X0265105Y0198789D02*
X0290600Y0198789D01*
X0290600Y0199787D02*
X0264107Y0199787D01*
X0263108Y0200786D02*
X0290600Y0200786D01*
X0290600Y0201784D02*
X0262110Y0201784D01*
X0261111Y0202783D02*
X0290600Y0202783D01*
X0290600Y0203781D02*
X0260113Y0203781D01*
X0259114Y0204780D02*
X0290600Y0204780D01*
X0290932Y0205778D02*
X0258116Y0205778D01*
X0257117Y0206777D02*
X0291883Y0206777D01*
X0292881Y0207775D02*
X0256119Y0207775D01*
X0255120Y0208774D02*
X0293880Y0208774D01*
X0294878Y0209772D02*
X0254122Y0209772D01*
X0253123Y0210771D02*
X0295600Y0210771D01*
X0295600Y0211769D02*
X0252125Y0211769D01*
X0251126Y0212768D02*
X0295600Y0212768D01*
X0291121Y0213766D02*
X0250128Y0213766D01*
X0249129Y0214765D02*
X0289841Y0214765D01*
X0288843Y0215763D02*
X0248698Y0215763D01*
X0249081Y0216762D02*
X0287844Y0216762D01*
X0286846Y0217760D02*
X0249081Y0217760D01*
X0248896Y0218759D02*
X0285847Y0218759D01*
X0284849Y0219757D02*
X0263380Y0219757D01*
X0264433Y0220756D02*
X0283850Y0220756D01*
X0282852Y0221754D02*
X0265431Y0221754D01*
X0266430Y0222753D02*
X0281853Y0222753D01*
X0280854Y0223751D02*
X0267428Y0223751D01*
X0270521Y0224750D02*
X0279856Y0224750D01*
X0278857Y0225748D02*
X0271485Y0225748D01*
X0271898Y0226747D02*
X0277921Y0226747D01*
X0277600Y0227745D02*
X0272081Y0227745D01*
X0272081Y0228744D02*
X0277600Y0228744D01*
X0277600Y0229742D02*
X0271696Y0229742D01*
X0271031Y0230741D02*
X0277600Y0230741D01*
X0277600Y0231739D02*
X0269895Y0231739D01*
X0270081Y0232738D02*
X0277600Y0232738D01*
X0277600Y0233737D02*
X0270081Y0233737D01*
X0269699Y0234735D02*
X0277600Y0234735D01*
X0277600Y0235734D02*
X0271835Y0235734D01*
X0272833Y0236732D02*
X0277600Y0236732D01*
X0277705Y0237731D02*
X0273832Y0237731D01*
X0274830Y0238729D02*
X0278335Y0238729D01*
X0279333Y0239728D02*
X0275829Y0239728D01*
X0276827Y0240726D02*
X0280332Y0240726D01*
X0281330Y0241725D02*
X0277826Y0241725D01*
X0278824Y0242723D02*
X0282329Y0242723D01*
X0283328Y0243722D02*
X0279823Y0243722D01*
X0280821Y0244720D02*
X0284326Y0244720D01*
X0285325Y0245719D02*
X0281608Y0245719D01*
X0281900Y0246717D02*
X0285600Y0246717D01*
X0285600Y0247716D02*
X0281900Y0247716D01*
X0281900Y0248714D02*
X0285600Y0248714D01*
X0285600Y0249713D02*
X0281900Y0249713D01*
X0281900Y0250711D02*
X0285600Y0250711D01*
X0285519Y0251710D02*
X0282811Y0251710D01*
X0283809Y0252708D02*
X0284532Y0252708D01*
X0290400Y0251628D02*
X0290400Y0247794D01*
X0293839Y0251233D01*
X0293839Y0251234D01*
X0294515Y0251909D01*
X0295397Y0252274D01*
X0295403Y0252274D01*
X0295418Y0252310D01*
X0296627Y0253519D01*
X0298161Y0254155D01*
X0297984Y0254190D01*
X0297310Y0254469D01*
X0296704Y0254874D01*
X0296189Y0255389D01*
X0295784Y0255995D01*
X0295505Y0256669D01*
X0295363Y0257384D01*
X0295363Y0257548D01*
X0298863Y0257548D01*
X0298863Y0257948D01*
X0295363Y0257948D01*
X0295363Y0258112D01*
X0295505Y0258827D01*
X0295784Y0259501D01*
X0296185Y0260100D01*
X0291201Y0260100D01*
X0289781Y0258680D01*
X0290312Y0258460D01*
X0291460Y0257312D01*
X0292081Y0255812D01*
X0292081Y0254188D01*
X0291460Y0252688D01*
X0290400Y0251628D01*
X0290481Y0251710D02*
X0294316Y0251710D01*
X0293317Y0250711D02*
X0290400Y0250711D01*
X0290400Y0249713D02*
X0292319Y0249713D01*
X0291320Y0248714D02*
X0290400Y0248714D01*
X0291468Y0252708D02*
X0295816Y0252708D01*
X0297080Y0253707D02*
X0291882Y0253707D01*
X0292081Y0254705D02*
X0296957Y0254705D01*
X0295979Y0255704D02*
X0292081Y0255704D01*
X0291712Y0256702D02*
X0295499Y0256702D01*
X0295480Y0258699D02*
X0289800Y0258699D01*
X0290799Y0259698D02*
X0295916Y0259698D01*
X0298863Y0257701D02*
X0291071Y0257701D01*
X0286591Y0263692D02*
X0238329Y0263692D01*
X0238400Y0264690D02*
X0287589Y0264690D01*
X0288913Y0265689D02*
X0238400Y0265689D01*
X0238400Y0266687D02*
X0314000Y0266687D01*
X0314000Y0265689D02*
X0302772Y0265689D01*
X0304096Y0264690D02*
X0314000Y0264690D01*
X0314000Y0263692D02*
X0305094Y0263692D01*
X0304144Y0264643D02*
X0304144Y0264643D01*
X0306093Y0262693D02*
X0314000Y0262693D01*
X0314000Y0261695D02*
X0310360Y0261695D01*
X0311237Y0260696D02*
X0314000Y0260696D01*
X0314000Y0259698D02*
X0311237Y0259698D01*
X0311237Y0258699D02*
X0314000Y0258699D01*
X0314000Y0257701D02*
X0311237Y0257701D01*
X0311237Y0256702D02*
X0314000Y0256702D01*
X0314000Y0255704D02*
X0311237Y0255704D01*
X0311237Y0254705D02*
X0314000Y0254705D01*
X0314000Y0253707D02*
X0310266Y0253707D01*
X0310184Y0252708D02*
X0314000Y0252708D01*
X0314000Y0251710D02*
X0310831Y0251710D01*
X0311237Y0250711D02*
X0314000Y0250711D01*
X0314000Y0249713D02*
X0311237Y0249713D01*
X0311111Y0248714D02*
X0314000Y0248714D01*
X0314000Y0247716D02*
X0310697Y0247716D01*
X0309861Y0246717D02*
X0314000Y0246717D01*
X0314000Y0245719D02*
X0309196Y0245719D01*
X0310298Y0244720D02*
X0314000Y0244720D01*
X0314000Y0243722D02*
X0310878Y0243722D01*
X0311237Y0242723D02*
X0314000Y0242723D01*
X0314000Y0241725D02*
X0311237Y0241725D01*
X0311668Y0240726D02*
X0314000Y0240726D01*
X0314000Y0239728D02*
X0312667Y0239728D01*
X0313296Y0238729D02*
X0314000Y0238729D01*
X0314000Y0237731D02*
X0313400Y0237731D01*
X0313400Y0236732D02*
X0314000Y0236732D01*
X0314000Y0235734D02*
X0313400Y0235734D01*
X0313400Y0234735D02*
X0314000Y0234735D01*
X0314000Y0233737D02*
X0313400Y0233737D01*
X0313400Y0232738D02*
X0314000Y0232738D01*
X0314000Y0231739D02*
X0313400Y0231739D01*
X0313400Y0230741D02*
X0314000Y0230741D01*
X0314000Y0229742D02*
X0313400Y0229742D01*
X0313400Y0228744D02*
X0314000Y0228744D01*
X0314000Y0227745D02*
X0313400Y0227745D01*
X0313400Y0226747D02*
X0314000Y0226747D01*
X0314000Y0225748D02*
X0313400Y0225748D01*
X0313400Y0224750D02*
X0314000Y0224750D01*
X0314000Y0223751D02*
X0313400Y0223751D01*
X0313400Y0222753D02*
X0314000Y0222753D01*
X0314000Y0221754D02*
X0313400Y0221754D01*
X0313400Y0220756D02*
X0314000Y0220756D01*
X0314000Y0219757D02*
X0313400Y0219757D01*
X0313400Y0218759D02*
X0314000Y0218759D01*
X0314000Y0217760D02*
X0313400Y0217760D01*
X0313400Y0216762D02*
X0314000Y0216762D01*
X0314000Y0215763D02*
X0313400Y0215763D01*
X0313400Y0214765D02*
X0314000Y0214765D01*
X0314000Y0213766D02*
X0313400Y0213766D01*
X0313400Y0212768D02*
X0314000Y0212768D01*
X0314000Y0211769D02*
X0313400Y0211769D01*
X0313400Y0210771D02*
X0314000Y0210771D01*
X0314000Y0209772D02*
X0313400Y0209772D01*
X0313400Y0208774D02*
X0314000Y0208774D01*
X0314000Y0207775D02*
X0313400Y0207775D01*
X0313617Y0206777D02*
X0314000Y0206777D01*
X0308600Y0207400D02*
X0305763Y0207400D01*
X0305400Y0207037D01*
X0305400Y0216477D01*
X0305035Y0217359D01*
X0300359Y0222035D01*
X0299477Y0222400D01*
X0294994Y0222400D01*
X0286400Y0230994D01*
X0286400Y0234006D01*
X0291994Y0239600D01*
X0295403Y0239600D01*
X0295418Y0239564D01*
X0296627Y0238355D01*
X0297331Y0238063D01*
X0296627Y0237771D01*
X0295814Y0236958D01*
X0295312Y0237460D01*
X0293812Y0238081D01*
X0292188Y0238081D01*
X0290688Y0237460D01*
X0289540Y0236312D01*
X0288919Y0234812D01*
X0288919Y0233188D01*
X0289540Y0231688D01*
X0290688Y0230540D01*
X0292188Y0229919D01*
X0293404Y0229919D01*
X0295527Y0227796D01*
X0295673Y0227736D01*
X0295505Y0227331D01*
X0295363Y0226616D01*
X0295363Y0226452D01*
X0298863Y0226452D01*
X0298863Y0226052D01*
X0295363Y0226052D01*
X0295363Y0225888D01*
X0295505Y0225173D01*
X0295784Y0224499D01*
X0296189Y0223893D01*
X0296704Y0223378D01*
X0297310Y0222973D01*
X0297984Y0222694D01*
X0298699Y0222552D01*
X0298863Y0222552D01*
X0298863Y0226052D01*
X0299263Y0226052D01*
X0299263Y0222552D01*
X0299427Y0222552D01*
X0300142Y0222694D01*
X0300816Y0222973D01*
X0301422Y0223378D01*
X0301937Y0223893D01*
X0302342Y0224499D01*
X0302621Y0225173D01*
X0302656Y0225350D01*
X0303292Y0223816D01*
X0304501Y0222607D01*
X0306082Y0221952D01*
X0307792Y0221952D01*
X0308600Y0222287D01*
X0308600Y0207400D01*
X0308600Y0207775D02*
X0305400Y0207775D01*
X0305400Y0208774D02*
X0308600Y0208774D01*
X0308600Y0209772D02*
X0305400Y0209772D01*
X0305400Y0210771D02*
X0308600Y0210771D01*
X0308600Y0211769D02*
X0305400Y0211769D01*
X0305400Y0212768D02*
X0308600Y0212768D01*
X0308600Y0213766D02*
X0305400Y0213766D01*
X0305400Y0214765D02*
X0308600Y0214765D01*
X0308600Y0215763D02*
X0305400Y0215763D01*
X0305282Y0216762D02*
X0308600Y0216762D01*
X0308600Y0217760D02*
X0304634Y0217760D01*
X0303635Y0218759D02*
X0308600Y0218759D01*
X0308600Y0219757D02*
X0302637Y0219757D01*
X0301638Y0220756D02*
X0308600Y0220756D01*
X0308600Y0221754D02*
X0300640Y0221754D01*
X0300284Y0222753D02*
X0304355Y0222753D01*
X0303356Y0223751D02*
X0301795Y0223751D01*
X0302446Y0224750D02*
X0302905Y0224750D01*
X0299263Y0224750D02*
X0298863Y0224750D01*
X0298863Y0225748D02*
X0299263Y0225748D01*
X0299263Y0223751D02*
X0298863Y0223751D01*
X0298863Y0222753D02*
X0299263Y0222753D01*
X0297842Y0222753D02*
X0294641Y0222753D01*
X0293643Y0223751D02*
X0296331Y0223751D01*
X0295680Y0224750D02*
X0292644Y0224750D01*
X0291646Y0225748D02*
X0295391Y0225748D01*
X0295389Y0226747D02*
X0290647Y0226747D01*
X0289649Y0227745D02*
X0295649Y0227745D01*
X0294579Y0228744D02*
X0288650Y0228744D01*
X0287652Y0229742D02*
X0293581Y0229742D01*
X0290487Y0230741D02*
X0286653Y0230741D01*
X0286400Y0231739D02*
X0289519Y0231739D01*
X0289105Y0232738D02*
X0286400Y0232738D01*
X0286400Y0233737D02*
X0288919Y0233737D01*
X0288919Y0234735D02*
X0287129Y0234735D01*
X0288128Y0235734D02*
X0289301Y0235734D01*
X0289126Y0236732D02*
X0289960Y0236732D01*
X0290125Y0237731D02*
X0291342Y0237731D01*
X0291123Y0238729D02*
X0296253Y0238729D01*
X0296586Y0237731D02*
X0294658Y0237731D01*
X0293000Y0234000D02*
X0297000Y0230000D01*
X0303189Y0230000D01*
X0306937Y0226252D01*
X0313400Y0193796D02*
X0314000Y0193796D01*
X0314000Y0192798D02*
X0313400Y0192798D01*
X0313400Y0191799D02*
X0314000Y0191799D01*
X0314000Y0190801D02*
X0313400Y0190801D01*
X0313400Y0189802D02*
X0314000Y0189802D01*
X0314000Y0188803D02*
X0312440Y0188803D01*
X0311442Y0187805D02*
X0314000Y0187805D01*
X0314000Y0186806D02*
X0310830Y0186806D01*
X0311829Y0185808D02*
X0314000Y0185808D01*
X0314000Y0184809D02*
X0312827Y0184809D01*
X0313400Y0183811D02*
X0314000Y0183811D01*
X0314000Y0182812D02*
X0313400Y0182812D01*
X0313400Y0181814D02*
X0314000Y0181814D01*
X0314000Y0180815D02*
X0313400Y0180815D01*
X0313400Y0179817D02*
X0314000Y0179817D01*
X0314000Y0178818D02*
X0312455Y0178818D01*
X0311457Y0177820D02*
X0314000Y0177820D01*
X0314000Y0176821D02*
X0310815Y0176821D01*
X0311814Y0175823D02*
X0314000Y0175823D01*
X0314000Y0174824D02*
X0312812Y0174824D01*
X0313400Y0173826D02*
X0314000Y0173826D01*
X0314000Y0172827D02*
X0313400Y0172827D01*
X0313400Y0171829D02*
X0314000Y0171829D01*
X0314000Y0170830D02*
X0313400Y0170830D01*
X0313400Y0169832D02*
X0314000Y0169832D01*
X0314000Y0168833D02*
X0312470Y0168833D01*
X0311471Y0167835D02*
X0314000Y0167835D01*
X0314000Y0166836D02*
X0310473Y0166836D01*
X0314000Y0165838D02*
X0295556Y0165838D01*
X0295527Y0166836D02*
X0295400Y0166836D01*
X0296555Y0164839D02*
X0314000Y0164839D01*
X0314000Y0163841D02*
X0297553Y0163841D01*
X0298552Y0162842D02*
X0314000Y0162842D01*
X0314000Y0161844D02*
X0299550Y0161844D01*
X0300549Y0160845D02*
X0314000Y0160845D01*
X0314000Y0159847D02*
X0310997Y0159847D01*
X0311996Y0158848D02*
X0314000Y0158848D01*
X0314000Y0157850D02*
X0312994Y0157850D01*
X0313900Y0156851D02*
X0314000Y0156851D01*
X0314000Y0155853D02*
X0313900Y0155853D01*
X0313900Y0154854D02*
X0314000Y0154854D01*
X0314000Y0153856D02*
X0313900Y0153856D01*
X0313900Y0152857D02*
X0314000Y0152857D01*
X0314000Y0151859D02*
X0313702Y0151859D01*
X0314000Y0150860D02*
X0312704Y0150860D01*
X0311705Y0149862D02*
X0314000Y0149862D01*
X0314000Y0148863D02*
X0311981Y0148863D01*
X0312979Y0147865D02*
X0314000Y0147865D01*
X0314000Y0146866D02*
X0313900Y0146866D01*
X0313900Y0145868D02*
X0314000Y0145868D01*
X0314000Y0144869D02*
X0313900Y0144869D01*
X0313900Y0143870D02*
X0314000Y0143870D01*
X0314000Y0142872D02*
X0313900Y0142872D01*
X0314000Y0141873D02*
X0313717Y0141873D01*
X0314000Y0140875D02*
X0312719Y0140875D01*
X0311720Y0139876D02*
X0314000Y0139876D01*
X0314000Y0138878D02*
X0310722Y0138878D01*
X0308500Y0130890D02*
X0307500Y0130890D01*
X0307500Y0129891D02*
X0308500Y0129891D01*
X0308500Y0128893D02*
X0307500Y0128893D01*
X0307500Y0127894D02*
X0308500Y0127894D01*
X0312800Y0125897D02*
X0314000Y0125897D01*
X0314000Y0124899D02*
X0312687Y0124899D01*
X0311688Y0123900D02*
X0314000Y0123900D01*
X0314000Y0122902D02*
X0310690Y0122902D01*
X0314000Y0121903D02*
X0300540Y0121903D01*
X0301538Y0122902D02*
X0305310Y0122902D01*
X0304312Y0123900D02*
X0302537Y0123900D01*
X0302745Y0129891D02*
X0304103Y0129891D01*
X0305102Y0130890D02*
X0301747Y0130890D01*
X0294462Y0122902D02*
X0291538Y0122902D01*
X0290540Y0121903D02*
X0295460Y0121903D01*
X0293463Y0123900D02*
X0292537Y0123900D01*
X0285460Y0121903D02*
X0280540Y0121903D01*
X0281538Y0122902D02*
X0284462Y0122902D01*
X0283463Y0123900D02*
X0282537Y0123900D01*
X0275460Y0121903D02*
X0248580Y0121903D01*
X0247582Y0120905D02*
X0314000Y0120905D01*
X0314000Y0113915D02*
X0312800Y0113915D01*
X0312705Y0112917D02*
X0314000Y0112917D01*
X0314000Y0111918D02*
X0311706Y0111918D01*
X0310708Y0110920D02*
X0314000Y0110920D01*
X0305292Y0110920D02*
X0238600Y0110920D01*
X0238600Y0111918D02*
X0304294Y0111918D01*
X0303295Y0112917D02*
X0239594Y0112917D01*
X0240592Y0113915D02*
X0303200Y0113915D01*
X0298908Y0098937D02*
X0314000Y0098937D01*
X0314000Y0097939D02*
X0301337Y0097939D01*
X0300519Y0098464D02*
X0300519Y0098464D01*
X0302890Y0096940D02*
X0314000Y0096940D01*
X0314000Y0095942D02*
X0304444Y0095942D01*
X0304853Y0095679D02*
X0304853Y0095679D01*
X0305490Y0094943D02*
X0314000Y0094943D01*
X0314000Y0093945D02*
X0306356Y0093945D01*
X0307221Y0092946D02*
X0314000Y0092946D01*
X0314000Y0091948D02*
X0308086Y0091948D01*
X0308227Y0091786D02*
X0308227Y0091786D01*
X0308609Y0090949D02*
X0314000Y0090949D01*
X0314000Y0089951D02*
X0309065Y0089951D01*
X0309521Y0088952D02*
X0314000Y0088952D01*
X0314000Y0087954D02*
X0309977Y0087954D01*
X0310388Y0086955D02*
X0314000Y0086955D01*
X0314000Y0085957D02*
X0310531Y0085957D01*
X0310675Y0084958D02*
X0314000Y0084958D01*
X0314000Y0083960D02*
X0310818Y0083960D01*
X0310962Y0082961D02*
X0314000Y0082961D01*
X0314000Y0081963D02*
X0311095Y0081963D01*
X0310951Y0080964D02*
X0314000Y0080964D01*
X0314000Y0079966D02*
X0310808Y0079966D01*
X0310664Y0078967D02*
X0314000Y0078967D01*
X0314000Y0077969D02*
X0310520Y0077969D01*
X0310377Y0076970D02*
X0314000Y0076970D01*
X0314000Y0075972D02*
X0309943Y0075972D01*
X0310367Y0076901D02*
X0310367Y0076901D01*
X0309487Y0074973D02*
X0314000Y0074973D01*
X0314000Y0073975D02*
X0309031Y0073975D01*
X0308575Y0072976D02*
X0314000Y0072976D01*
X0314000Y0071978D02*
X0308022Y0071978D01*
X0307156Y0070979D02*
X0314000Y0070979D01*
X0314000Y0069981D02*
X0306291Y0069981D01*
X0305426Y0068982D02*
X0314000Y0068982D01*
X0314000Y0067984D02*
X0304328Y0067984D01*
X0304853Y0068321D02*
X0304853Y0068321D01*
X0304853Y0068321D01*
X0302774Y0066985D02*
X0314000Y0066985D01*
X0314000Y0065987D02*
X0301221Y0065987D01*
X0300519Y0065536D02*
X0300519Y0065536D01*
X0298654Y0064988D02*
X0314000Y0064988D01*
X0314000Y0063990D02*
X0275100Y0063990D01*
X0275100Y0064988D02*
X0287346Y0064988D01*
X0285481Y0065536D02*
X0285481Y0065536D01*
X0284779Y0065987D02*
X0275100Y0065987D01*
X0275100Y0066985D02*
X0283226Y0066985D01*
X0281672Y0067984D02*
X0275100Y0067984D01*
X0275100Y0068982D02*
X0280574Y0068982D01*
X0281147Y0068321D02*
X0281147Y0068321D01*
X0279709Y0069981D02*
X0275100Y0069981D01*
X0275100Y0070979D02*
X0278844Y0070979D01*
X0277978Y0071978D02*
X0275100Y0071978D01*
X0275100Y0072976D02*
X0277425Y0072976D01*
X0277773Y0072214D02*
X0277773Y0072214D01*
X0276969Y0073975D02*
X0275100Y0073975D01*
X0275100Y0074973D02*
X0276513Y0074973D01*
X0276057Y0075972D02*
X0275100Y0075972D01*
X0275100Y0076970D02*
X0275623Y0076970D01*
X0275480Y0077969D02*
X0275100Y0077969D01*
X0275100Y0078967D02*
X0275336Y0078967D01*
X0275192Y0079966D02*
X0275100Y0079966D01*
X0275100Y0083960D02*
X0275182Y0083960D01*
X0275100Y0084958D02*
X0275325Y0084958D01*
X0275469Y0085957D02*
X0275100Y0085957D01*
X0275100Y0086955D02*
X0275612Y0086955D01*
X0275633Y0087099D02*
X0275633Y0087099D01*
X0276023Y0087954D02*
X0275100Y0087954D01*
X0275100Y0088952D02*
X0276479Y0088952D01*
X0276935Y0089951D02*
X0275100Y0089951D01*
X0275100Y0090949D02*
X0277391Y0090949D01*
X0277773Y0091786D02*
X0277773Y0091786D01*
X0277914Y0091948D02*
X0275100Y0091948D01*
X0275100Y0092946D02*
X0278779Y0092946D01*
X0279644Y0093945D02*
X0275100Y0093945D01*
X0275100Y0094943D02*
X0280510Y0094943D01*
X0281147Y0095679D02*
X0281147Y0095679D01*
X0281147Y0095679D01*
X0281556Y0095942D02*
X0274528Y0095942D01*
X0283110Y0096940D02*
X0170625Y0096940D01*
X0170831Y0097939D02*
X0229140Y0097939D01*
X0230860Y0097939D02*
X0235140Y0097939D01*
X0236860Y0097939D02*
X0284663Y0097939D01*
X0285481Y0098464D02*
X0285481Y0098464D01*
X0287092Y0098937D02*
X0238709Y0098937D01*
X0233291Y0098937D02*
X0232709Y0098937D01*
X0230000Y0102000D02*
X0230000Y0110000D01*
X0254000Y0134000D01*
X0254000Y0150000D01*
X0250500Y0153500D01*
X0205500Y0153500D01*
X0202000Y0157000D01*
X0202000Y0163000D01*
X0204934Y0165838D02*
X0216737Y0165838D01*
X0217735Y0166836D02*
X0203403Y0166836D01*
X0200597Y0166836D02*
X0195827Y0166836D01*
X0196684Y0167835D02*
X0218419Y0167835D01*
X0218635Y0168833D02*
X0197682Y0168833D01*
X0198109Y0169832D02*
X0219060Y0169832D01*
X0220059Y0170830D02*
X0198523Y0170830D01*
X0198550Y0171829D02*
X0259100Y0171829D01*
X0259100Y0172827D02*
X0198550Y0172827D01*
X0198251Y0173826D02*
X0259100Y0173826D01*
X0259100Y0174824D02*
X0197837Y0174824D01*
X0197026Y0175823D02*
X0259100Y0175823D01*
X0259100Y0176821D02*
X0195863Y0176821D01*
X0196669Y0177820D02*
X0259100Y0177820D01*
X0259100Y0178818D02*
X0197667Y0178818D01*
X0198103Y0179817D02*
X0259100Y0179817D01*
X0259100Y0180815D02*
X0198517Y0180815D01*
X0198550Y0181814D02*
X0259100Y0181814D01*
X0259100Y0182812D02*
X0198550Y0182812D01*
X0198257Y0183811D02*
X0259100Y0183811D01*
X0259100Y0184809D02*
X0197844Y0184809D01*
X0197041Y0185808D02*
X0259100Y0185808D01*
X0259100Y0186806D02*
X0195899Y0186806D01*
X0196654Y0187805D02*
X0259100Y0187805D01*
X0259100Y0188803D02*
X0197652Y0188803D01*
X0198097Y0189802D02*
X0259100Y0189802D01*
X0259100Y0190801D02*
X0198510Y0190801D01*
X0198550Y0191799D02*
X0259100Y0191799D01*
X0259100Y0192798D02*
X0198550Y0192798D01*
X0198263Y0193796D02*
X0259100Y0193796D01*
X0258104Y0194795D02*
X0197850Y0194795D01*
X0197056Y0195793D02*
X0257106Y0195793D01*
X0256107Y0196792D02*
X0195935Y0196792D01*
X0196639Y0197790D02*
X0255109Y0197790D01*
X0254110Y0198789D02*
X0197637Y0198789D01*
X0198091Y0199787D02*
X0253112Y0199787D01*
X0252113Y0200786D02*
X0198504Y0200786D01*
X0198550Y0201784D02*
X0251115Y0201784D01*
X0250116Y0202783D02*
X0198550Y0202783D01*
X0198269Y0203781D02*
X0249118Y0203781D01*
X0248119Y0204780D02*
X0197856Y0204780D01*
X0197071Y0205778D02*
X0247121Y0205778D01*
X0246122Y0206777D02*
X0195971Y0206777D01*
X0196624Y0207775D02*
X0245124Y0207775D01*
X0244125Y0208774D02*
X0197623Y0208774D01*
X0198084Y0209772D02*
X0243127Y0209772D01*
X0239511Y0210771D02*
X0198498Y0210771D01*
X0198550Y0211769D02*
X0238130Y0211769D01*
X0237131Y0212768D02*
X0198550Y0212768D01*
X0198276Y0213766D02*
X0234462Y0213766D01*
X0240500Y0221500D02*
X0241000Y0221500D01*
X0242000Y0222000D01*
X0262000Y0222000D01*
X0268000Y0228000D01*
X0266000Y0233000D02*
X0258000Y0225000D01*
X0244000Y0225000D01*
X0244000Y0226000D01*
X0244000Y0225000D02*
X0211000Y0225000D01*
X0209000Y0227000D01*
X0198000Y0227000D01*
X0193000Y0232000D01*
X0197115Y0235734D02*
X0255839Y0235734D01*
X0257631Y0236732D02*
X0196079Y0236732D01*
X0196579Y0237731D02*
X0258629Y0237731D01*
X0259628Y0238729D02*
X0197578Y0238729D01*
X0198066Y0239728D02*
X0260626Y0239728D01*
X0262003Y0240726D02*
X0198480Y0240726D01*
X0198550Y0241725D02*
X0269623Y0241725D01*
X0270622Y0242723D02*
X0198550Y0242723D01*
X0198294Y0243722D02*
X0271620Y0243722D01*
X0272619Y0244720D02*
X0197881Y0244720D01*
X0197130Y0245719D02*
X0273617Y0245719D01*
X0274616Y0246717D02*
X0196115Y0246717D01*
X0196565Y0247716D02*
X0275614Y0247716D01*
X0276100Y0248714D02*
X0197563Y0248714D01*
X0198060Y0249713D02*
X0276100Y0249713D01*
X0276100Y0250711D02*
X0198473Y0250711D01*
X0198550Y0251710D02*
X0276100Y0251710D01*
X0276154Y0252708D02*
X0232157Y0252708D01*
X0230343Y0252708D02*
X0198550Y0252708D01*
X0198300Y0253707D02*
X0228522Y0253707D01*
X0227680Y0254705D02*
X0197887Y0254705D01*
X0197145Y0255704D02*
X0227266Y0255704D01*
X0227169Y0256702D02*
X0196147Y0256702D01*
X0196550Y0257701D02*
X0226198Y0257701D01*
X0225199Y0258699D02*
X0197548Y0258699D01*
X0198054Y0259698D02*
X0224201Y0259698D01*
X0223202Y0260696D02*
X0198467Y0260696D01*
X0198550Y0261695D02*
X0222204Y0261695D01*
X0221205Y0262693D02*
X0198550Y0262693D01*
X0198306Y0263692D02*
X0220207Y0263692D01*
X0219208Y0264690D02*
X0197893Y0264690D01*
X0197160Y0265689D02*
X0218210Y0265689D01*
X0217211Y0266687D02*
X0196161Y0266687D01*
X0196535Y0267686D02*
X0216213Y0267686D01*
X0215214Y0268684D02*
X0197533Y0268684D01*
X0198047Y0269683D02*
X0214216Y0269683D01*
X0213217Y0270681D02*
X0198461Y0270681D01*
X0198550Y0271680D02*
X0201549Y0271680D01*
X0200550Y0272678D02*
X0198550Y0272678D01*
X0198313Y0273677D02*
X0200131Y0273677D01*
X0199919Y0274675D02*
X0197899Y0274675D01*
X0197175Y0275674D02*
X0199919Y0275674D01*
X0200275Y0276672D02*
X0196176Y0276672D01*
X0196520Y0277671D02*
X0200899Y0277671D01*
X0202195Y0278670D02*
X0197518Y0278670D01*
X0198041Y0279668D02*
X0204991Y0279668D01*
X0205400Y0280667D02*
X0198455Y0280667D01*
X0198550Y0281665D02*
X0205400Y0281665D01*
X0205400Y0282664D02*
X0198550Y0282664D01*
X0198319Y0283662D02*
X0205400Y0283662D01*
X0205400Y0284661D02*
X0197905Y0284661D01*
X0197190Y0285659D02*
X0205400Y0285659D01*
X0205400Y0286658D02*
X0196191Y0286658D01*
X0196505Y0287656D02*
X0205400Y0287656D01*
X0205400Y0288655D02*
X0197504Y0288655D01*
X0198035Y0289653D02*
X0205400Y0289653D01*
X0205400Y0290652D02*
X0198449Y0290652D01*
X0198550Y0291650D02*
X0205400Y0291650D01*
X0205400Y0292649D02*
X0198550Y0292649D01*
X0198325Y0293647D02*
X0205400Y0293647D01*
X0205400Y0294646D02*
X0197911Y0294646D01*
X0197205Y0295644D02*
X0205400Y0295644D01*
X0205400Y0296643D02*
X0196206Y0296643D01*
X0195349Y0297641D02*
X0205400Y0297641D01*
X0205400Y0298640D02*
X0196640Y0298640D01*
X0197352Y0299638D02*
X0205400Y0299638D01*
X0205400Y0300637D02*
X0197762Y0300637D01*
X0197911Y0302634D02*
X0205400Y0302634D01*
X0205400Y0303632D02*
X0197674Y0303632D01*
X0197207Y0304631D02*
X0205400Y0304631D01*
X0205400Y0305629D02*
X0196371Y0305629D01*
X0194775Y0306628D02*
X0205400Y0306628D01*
X0205400Y0307626D02*
X0196475Y0307626D01*
X0197474Y0308625D02*
X0205400Y0308625D01*
X0205400Y0309623D02*
X0198023Y0309623D01*
X0198436Y0310622D02*
X0204607Y0310622D01*
X0204154Y0311620D02*
X0198550Y0311620D01*
X0198550Y0312619D02*
X0203919Y0312619D01*
X0203919Y0313617D02*
X0198337Y0313617D01*
X0197924Y0314616D02*
X0204252Y0314616D01*
X0204843Y0315614D02*
X0197234Y0315614D01*
X0196236Y0316613D02*
X0206058Y0316613D01*
X0208000Y0313000D02*
X0208000Y0279000D01*
X0204000Y0275000D01*
X0207869Y0273677D02*
X0211100Y0273677D01*
X0211100Y0274675D02*
X0208081Y0274675D01*
X0208351Y0275674D02*
X0211100Y0275674D01*
X0211100Y0276672D02*
X0209349Y0276672D01*
X0210264Y0277671D02*
X0211089Y0277671D01*
X0211073Y0278670D02*
X0210600Y0278670D01*
X0210600Y0279668D02*
X0211057Y0279668D01*
X0211041Y0280667D02*
X0210600Y0280667D01*
X0210600Y0281665D02*
X0211025Y0281665D01*
X0211009Y0282664D02*
X0210600Y0282664D01*
X0210600Y0283662D02*
X0210993Y0283662D01*
X0210977Y0284661D02*
X0210600Y0284661D01*
X0210600Y0285659D02*
X0210961Y0285659D01*
X0210945Y0286658D02*
X0210600Y0286658D01*
X0210600Y0287656D02*
X0210929Y0287656D01*
X0210913Y0288655D02*
X0210600Y0288655D01*
X0210600Y0289653D02*
X0210897Y0289653D01*
X0210881Y0290652D02*
X0210600Y0290652D01*
X0210600Y0291650D02*
X0210865Y0291650D01*
X0210849Y0292649D02*
X0210600Y0292649D01*
X0210600Y0293647D02*
X0210833Y0293647D01*
X0210817Y0294646D02*
X0210600Y0294646D01*
X0210600Y0295644D02*
X0210801Y0295644D01*
X0210785Y0296643D02*
X0210600Y0296643D01*
X0210600Y0297641D02*
X0210769Y0297641D01*
X0210753Y0298640D02*
X0210600Y0298640D01*
X0210600Y0299638D02*
X0210737Y0299638D01*
X0210721Y0300637D02*
X0210600Y0300637D01*
X0210600Y0301635D02*
X0210705Y0301635D01*
X0210689Y0302634D02*
X0210600Y0302634D01*
X0210600Y0303632D02*
X0210674Y0303632D01*
X0210658Y0304631D02*
X0210600Y0304631D01*
X0210600Y0305629D02*
X0210642Y0305629D01*
X0210600Y0306628D02*
X0210626Y0306628D01*
X0210600Y0307626D02*
X0210610Y0307626D01*
X0218000Y0309000D02*
X0218000Y0305000D01*
X0229500Y0293500D01*
X0236500Y0293500D01*
X0233577Y0290652D02*
X0216682Y0290652D01*
X0216666Y0291650D02*
X0227673Y0291650D01*
X0228027Y0291296D02*
X0228983Y0290900D01*
X0233328Y0290900D01*
X0234134Y0290095D01*
X0230521Y0286580D01*
X0229312Y0287081D01*
X0227688Y0287081D01*
X0226188Y0286460D01*
X0225040Y0285312D01*
X0224419Y0283812D01*
X0224419Y0282188D01*
X0225040Y0280688D01*
X0226188Y0279540D01*
X0227688Y0278919D01*
X0228282Y0278919D01*
X0227600Y0278237D01*
X0227600Y0273763D01*
X0230363Y0271000D01*
X0227600Y0268237D01*
X0227600Y0264501D01*
X0216900Y0275201D01*
X0216900Y0276447D01*
X0216909Y0276470D01*
X0216900Y0277023D01*
X0216900Y0277577D01*
X0216891Y0277599D01*
X0216487Y0302836D01*
X0227296Y0292027D01*
X0228027Y0291296D01*
X0226674Y0292649D02*
X0216650Y0292649D01*
X0216634Y0293647D02*
X0225676Y0293647D01*
X0224677Y0294646D02*
X0216618Y0294646D01*
X0216602Y0295644D02*
X0223679Y0295644D01*
X0222680Y0296643D02*
X0216586Y0296643D01*
X0216570Y0297641D02*
X0221682Y0297641D01*
X0220683Y0298640D02*
X0216554Y0298640D01*
X0216538Y0299638D02*
X0219685Y0299638D01*
X0218686Y0300637D02*
X0216522Y0300637D01*
X0216506Y0301635D02*
X0217688Y0301635D01*
X0216689Y0302634D02*
X0216490Y0302634D01*
X0221048Y0305629D02*
X0226722Y0305629D01*
X0226937Y0304631D02*
X0222046Y0304631D01*
X0223045Y0303632D02*
X0227350Y0303632D01*
X0228316Y0302634D02*
X0224043Y0302634D01*
X0225042Y0301635D02*
X0245996Y0301635D01*
X0244970Y0300637D02*
X0226040Y0300637D01*
X0227039Y0299638D02*
X0243943Y0299638D01*
X0242917Y0298640D02*
X0228037Y0298640D01*
X0229036Y0297641D02*
X0241891Y0297641D01*
X0240864Y0296643D02*
X0239129Y0296643D01*
X0244050Y0291650D02*
X0262266Y0291650D01*
X0261919Y0290652D02*
X0243024Y0290652D01*
X0241997Y0289653D02*
X0261919Y0289653D01*
X0262140Y0288655D02*
X0240971Y0288655D01*
X0239945Y0287656D02*
X0262572Y0287656D01*
X0263571Y0286658D02*
X0238918Y0286658D01*
X0237892Y0285659D02*
X0280664Y0285659D01*
X0281662Y0284661D02*
X0236866Y0284661D01*
X0235839Y0283662D02*
X0282600Y0283662D01*
X0282600Y0282664D02*
X0234813Y0282664D01*
X0233787Y0281665D02*
X0282600Y0281665D01*
X0282600Y0280667D02*
X0235970Y0280667D01*
X0236969Y0279668D02*
X0282695Y0279668D01*
X0283694Y0278670D02*
X0237967Y0278670D01*
X0238400Y0277671D02*
X0284692Y0277671D01*
X0285691Y0276672D02*
X0238400Y0276672D01*
X0238400Y0275674D02*
X0314000Y0275674D01*
X0314000Y0276672D02*
X0310309Y0276672D01*
X0311308Y0277671D02*
X0314000Y0277671D01*
X0314000Y0278670D02*
X0312306Y0278670D01*
X0313305Y0279668D02*
X0314000Y0279668D01*
X0314000Y0280667D02*
X0313400Y0280667D01*
X0313400Y0281665D02*
X0314000Y0281665D01*
X0314000Y0282664D02*
X0313400Y0282664D01*
X0313400Y0283662D02*
X0314000Y0283662D01*
X0314000Y0284661D02*
X0312976Y0284661D01*
X0311978Y0285659D02*
X0314000Y0285659D01*
X0314000Y0286658D02*
X0310979Y0286658D01*
X0311095Y0287656D02*
X0314000Y0287656D01*
X0314000Y0288655D02*
X0311077Y0288655D01*
X0310657Y0289653D02*
X0314000Y0289653D01*
X0314000Y0290652D02*
X0309680Y0290652D01*
X0308644Y0291650D02*
X0314000Y0291650D01*
X0314000Y0292649D02*
X0307900Y0292649D01*
X0307900Y0293647D02*
X0314000Y0293647D01*
X0314000Y0294646D02*
X0307648Y0294646D01*
X0307235Y0295644D02*
X0314000Y0295644D01*
X0314000Y0296643D02*
X0306350Y0296643D01*
X0306634Y0297641D02*
X0314000Y0297641D01*
X0314000Y0298640D02*
X0307352Y0298640D01*
X0307766Y0299638D02*
X0314000Y0299638D01*
X0314000Y0300637D02*
X0307900Y0300637D01*
X0307900Y0301635D02*
X0314000Y0301635D01*
X0314000Y0302634D02*
X0307601Y0302634D01*
X0307187Y0303632D02*
X0314000Y0303632D01*
X0314000Y0304631D02*
X0306236Y0304631D01*
X0304476Y0305629D02*
X0314000Y0305629D01*
X0314000Y0306628D02*
X0261790Y0306628D01*
X0262094Y0306932D02*
X0262650Y0308274D01*
X0262650Y0309726D01*
X0262094Y0311068D01*
X0261600Y0311562D01*
X0261600Y0329923D01*
X0264473Y0332796D01*
X0265204Y0333527D01*
X0265600Y0334483D01*
X0265600Y0335000D01*
X0266295Y0335000D01*
X0267949Y0335685D01*
X0269215Y0336951D01*
X0269900Y0338605D01*
X0269900Y0340395D01*
X0269215Y0342049D01*
X0267949Y0343315D01*
X0266295Y0344000D01*
X0259705Y0344000D01*
X0258051Y0343315D01*
X0256785Y0342049D01*
X0256100Y0340395D01*
X0256100Y0338605D01*
X0256785Y0336951D01*
X0258051Y0335685D01*
X0259435Y0335112D01*
X0256796Y0332473D01*
X0256400Y0331517D01*
X0256400Y0311562D01*
X0255906Y0311068D01*
X0255350Y0309726D01*
X0255350Y0308274D01*
X0255906Y0306932D01*
X0256932Y0305906D01*
X0258274Y0305350D01*
X0259726Y0305350D01*
X0261068Y0305906D01*
X0262094Y0306932D01*
X0262382Y0307626D02*
X0314000Y0307626D01*
X0314000Y0308625D02*
X0262650Y0308625D01*
X0262650Y0309623D02*
X0288588Y0309623D01*
X0290424Y0309084D02*
X0295576Y0309084D01*
X0300519Y0310536D01*
X0304853Y0313321D01*
X0308227Y0317214D01*
X0308227Y0317214D01*
X0310367Y0321901D01*
X0311100Y0327000D01*
X0310367Y0332099D01*
X0310367Y0332099D01*
X0308227Y0336786D01*
X0304853Y0340679D01*
X0300519Y0343464D01*
X0295576Y0344916D01*
X0290424Y0344916D01*
X0285481Y0343464D01*
X0281147Y0340679D01*
X0277773Y0336786D01*
X0275633Y0332099D01*
X0274900Y0327000D01*
X0274900Y0327000D01*
X0275633Y0321901D01*
X0275633Y0321901D01*
X0277773Y0317214D01*
X0281147Y0313321D01*
X0285481Y0310536D01*
X0290424Y0309084D01*
X0285481Y0310536D02*
X0285481Y0310536D01*
X0285347Y0310622D02*
X0262279Y0310622D01*
X0261600Y0311620D02*
X0283793Y0311620D01*
X0282239Y0312619D02*
X0261600Y0312619D01*
X0261600Y0313617D02*
X0280890Y0313617D01*
X0281147Y0313321D02*
X0281147Y0313321D01*
X0280025Y0314616D02*
X0261600Y0314616D01*
X0261600Y0315614D02*
X0279160Y0315614D01*
X0278294Y0316613D02*
X0261600Y0316613D01*
X0261600Y0317611D02*
X0277592Y0317611D01*
X0277773Y0317214D02*
X0277773Y0317214D01*
X0277136Y0318610D02*
X0261600Y0318610D01*
X0261600Y0319608D02*
X0276680Y0319608D01*
X0276224Y0320607D02*
X0261600Y0320607D01*
X0261600Y0321605D02*
X0275768Y0321605D01*
X0275532Y0322604D02*
X0261600Y0322604D01*
X0261600Y0323603D02*
X0275388Y0323603D01*
X0275245Y0324601D02*
X0261600Y0324601D01*
X0261600Y0325600D02*
X0275101Y0325600D01*
X0274958Y0326598D02*
X0261600Y0326598D01*
X0261600Y0327597D02*
X0274986Y0327597D01*
X0275129Y0328595D02*
X0261600Y0328595D01*
X0261600Y0329594D02*
X0275273Y0329594D01*
X0275416Y0330592D02*
X0262269Y0330592D01*
X0263268Y0331591D02*
X0275560Y0331591D01*
X0275633Y0332099D02*
X0275633Y0332099D01*
X0275857Y0332589D02*
X0264266Y0332589D01*
X0265229Y0333588D02*
X0276313Y0333588D01*
X0276769Y0334586D02*
X0265600Y0334586D01*
X0267707Y0335585D02*
X0277225Y0335585D01*
X0277681Y0336583D02*
X0268847Y0336583D01*
X0269476Y0337582D02*
X0278463Y0337582D01*
X0277773Y0336786D02*
X0277773Y0336786D01*
X0279328Y0338580D02*
X0269890Y0338580D01*
X0269900Y0339579D02*
X0280194Y0339579D01*
X0281059Y0340577D02*
X0269825Y0340577D01*
X0269411Y0341576D02*
X0282542Y0341576D01*
X0281147Y0340679D02*
X0281147Y0340679D01*
X0284096Y0342574D02*
X0268690Y0342574D01*
X0267327Y0343573D02*
X0285850Y0343573D01*
X0289251Y0344571D02*
X0218530Y0344571D01*
X0219487Y0343573D02*
X0258673Y0343573D01*
X0257310Y0342574D02*
X0237819Y0342574D01*
X0237886Y0342529D02*
X0237247Y0342956D01*
X0236538Y0343250D01*
X0235784Y0343400D01*
X0233300Y0343400D01*
X0233300Y0339800D01*
X0232700Y0339800D01*
X0232700Y0343400D01*
X0230216Y0343400D01*
X0229462Y0343250D01*
X0228753Y0342956D01*
X0228114Y0342529D01*
X0227571Y0341986D01*
X0227144Y0341347D01*
X0226850Y0340638D01*
X0226700Y0339884D01*
X0226700Y0339800D01*
X0232700Y0339800D01*
X0232700Y0339200D01*
X0233300Y0339200D01*
X0233300Y0339800D01*
X0239300Y0339800D01*
X0239300Y0339884D01*
X0239150Y0340638D01*
X0238856Y0341347D01*
X0238429Y0341986D01*
X0237886Y0342529D01*
X0238704Y0341576D02*
X0256589Y0341576D01*
X0256175Y0340577D02*
X0239162Y0340577D01*
X0239300Y0339200D02*
X0233300Y0339200D01*
X0233300Y0335600D01*
X0235784Y0335600D01*
X0236538Y0335750D01*
X0237247Y0336044D01*
X0237886Y0336471D01*
X0238429Y0337014D01*
X0238856Y0337653D01*
X0239150Y0338362D01*
X0239300Y0339116D01*
X0239300Y0339200D01*
X0239193Y0338580D02*
X0256110Y0338580D01*
X0256100Y0339579D02*
X0233300Y0339579D01*
X0232700Y0339579D02*
X0219900Y0339579D01*
X0219900Y0340577D02*
X0226838Y0340577D01*
X0227296Y0341576D02*
X0219900Y0341576D01*
X0219900Y0342574D02*
X0228181Y0342574D01*
X0226700Y0339200D02*
X0226700Y0339116D01*
X0226850Y0338362D01*
X0227144Y0337653D01*
X0227571Y0337014D01*
X0228114Y0336471D01*
X0228753Y0336044D01*
X0229462Y0335750D01*
X0230216Y0335600D01*
X0232700Y0335600D01*
X0232700Y0339200D01*
X0226700Y0339200D01*
X0226807Y0338580D02*
X0219900Y0338580D01*
X0219900Y0337582D02*
X0227191Y0337582D01*
X0228001Y0336583D02*
X0219900Y0336583D01*
X0219900Y0335585D02*
X0258293Y0335585D01*
X0258909Y0334586D02*
X0219900Y0334586D01*
X0219900Y0333588D02*
X0257911Y0333588D01*
X0256912Y0332589D02*
X0219900Y0332589D01*
X0219900Y0331591D02*
X0256430Y0331591D01*
X0256400Y0330592D02*
X0219900Y0330592D01*
X0219900Y0329594D02*
X0256400Y0329594D01*
X0256400Y0328595D02*
X0219900Y0328595D01*
X0219900Y0327597D02*
X0256400Y0327597D01*
X0256400Y0326598D02*
X0219900Y0326598D01*
X0219900Y0325600D02*
X0256400Y0325600D01*
X0256400Y0324601D02*
X0219900Y0324601D01*
X0219900Y0323603D02*
X0256400Y0323603D01*
X0256400Y0322604D02*
X0219900Y0322604D01*
X0219900Y0321605D02*
X0256400Y0321605D01*
X0256400Y0320607D02*
X0220494Y0320607D01*
X0221493Y0319608D02*
X0256400Y0319608D01*
X0256400Y0318610D02*
X0222491Y0318610D01*
X0223490Y0317611D02*
X0256400Y0317611D01*
X0256400Y0316613D02*
X0224488Y0316613D01*
X0225487Y0315614D02*
X0256400Y0315614D01*
X0256400Y0314616D02*
X0226485Y0314616D01*
X0227484Y0313617D02*
X0256400Y0313617D01*
X0256400Y0312619D02*
X0228482Y0312619D01*
X0229481Y0311620D02*
X0256400Y0311620D01*
X0255721Y0310622D02*
X0230479Y0310622D01*
X0233427Y0309623D02*
X0255350Y0309623D01*
X0255350Y0308625D02*
X0234425Y0308625D01*
X0234957Y0307626D02*
X0255618Y0307626D01*
X0256210Y0306628D02*
X0235278Y0306628D01*
X0235278Y0305629D02*
X0257600Y0305629D01*
X0260400Y0305629D02*
X0301524Y0305629D01*
X0299764Y0304631D02*
X0235063Y0304631D01*
X0234650Y0303632D02*
X0248366Y0303632D01*
X0247022Y0302634D02*
X0233684Y0302634D01*
X0233871Y0296643D02*
X0230034Y0296643D01*
X0233680Y0289653D02*
X0216698Y0289653D01*
X0216714Y0288655D02*
X0232653Y0288655D01*
X0231627Y0287656D02*
X0216730Y0287656D01*
X0216746Y0286658D02*
X0226666Y0286658D01*
X0225388Y0285659D02*
X0216762Y0285659D01*
X0216778Y0284661D02*
X0224770Y0284661D01*
X0224419Y0283662D02*
X0216794Y0283662D01*
X0216810Y0282664D02*
X0224419Y0282664D01*
X0224636Y0281665D02*
X0216826Y0281665D01*
X0216842Y0280667D02*
X0225062Y0280667D01*
X0226060Y0279668D02*
X0216858Y0279668D01*
X0216874Y0278670D02*
X0228033Y0278670D01*
X0227600Y0277671D02*
X0216890Y0277671D01*
X0216906Y0276672D02*
X0227600Y0276672D01*
X0227600Y0275674D02*
X0216900Y0275674D01*
X0217426Y0274675D02*
X0227600Y0274675D01*
X0227686Y0273677D02*
X0218424Y0273677D01*
X0219423Y0272678D02*
X0228685Y0272678D01*
X0229683Y0271680D02*
X0220421Y0271680D01*
X0221420Y0270681D02*
X0230045Y0270681D01*
X0229046Y0269683D02*
X0222418Y0269683D01*
X0223417Y0268684D02*
X0228048Y0268684D01*
X0227600Y0267686D02*
X0224415Y0267686D01*
X0225414Y0266687D02*
X0227600Y0266687D01*
X0227600Y0265689D02*
X0226412Y0265689D01*
X0227411Y0264690D02*
X0227600Y0264690D01*
X0234074Y0259698D02*
X0282597Y0259698D01*
X0283595Y0260696D02*
X0235333Y0260696D01*
X0236332Y0261695D02*
X0284594Y0261695D01*
X0285592Y0262693D02*
X0237330Y0262693D01*
X0234860Y0258699D02*
X0281598Y0258699D01*
X0280600Y0257701D02*
X0235274Y0257701D01*
X0235331Y0256702D02*
X0279601Y0256702D01*
X0278603Y0255704D02*
X0235234Y0255704D01*
X0234820Y0254705D02*
X0277604Y0254705D01*
X0276606Y0253707D02*
X0233978Y0253707D01*
X0238400Y0267686D02*
X0314000Y0267686D01*
X0314000Y0268684D02*
X0237952Y0268684D01*
X0236954Y0269683D02*
X0314000Y0269683D01*
X0314000Y0270681D02*
X0235955Y0270681D01*
X0236317Y0271680D02*
X0314000Y0271680D01*
X0314000Y0272678D02*
X0237315Y0272678D01*
X0238314Y0273677D02*
X0314000Y0273677D01*
X0314000Y0274675D02*
X0238400Y0274675D01*
X0230601Y0286658D02*
X0230334Y0286658D01*
X0245076Y0292649D02*
X0262877Y0292649D01*
X0264141Y0293647D02*
X0246103Y0293647D01*
X0247129Y0294646D02*
X0298352Y0294646D01*
X0298100Y0293647D02*
X0267859Y0293647D01*
X0269123Y0292649D02*
X0298100Y0292649D01*
X0298281Y0291650D02*
X0282027Y0291650D01*
X0283025Y0290652D02*
X0298695Y0290652D01*
X0299480Y0289653D02*
X0284024Y0289653D01*
X0285022Y0288655D02*
X0300838Y0288655D01*
X0300979Y0286658D02*
X0305021Y0286658D01*
X0304430Y0287656D02*
X0286021Y0287656D01*
X0288000Y0282000D02*
X0280000Y0290000D01*
X0266000Y0290000D01*
X0268429Y0286658D02*
X0279665Y0286658D01*
X0290979Y0286658D02*
X0295021Y0286658D01*
X0294022Y0285659D02*
X0291978Y0285659D01*
X0292976Y0284661D02*
X0293024Y0284661D01*
X0293694Y0278670D02*
X0292306Y0278670D01*
X0291308Y0277671D02*
X0294692Y0277671D01*
X0295691Y0276672D02*
X0290309Y0276672D01*
X0300309Y0276672D02*
X0305691Y0276672D01*
X0304692Y0277671D02*
X0301308Y0277671D01*
X0302306Y0278670D02*
X0303694Y0278670D01*
X0303024Y0284661D02*
X0302976Y0284661D01*
X0301978Y0285659D02*
X0304022Y0285659D01*
X0298765Y0295644D02*
X0248155Y0295644D01*
X0249182Y0296643D02*
X0299650Y0296643D01*
X0299366Y0297641D02*
X0250208Y0297641D01*
X0259000Y0309000D02*
X0259000Y0331000D01*
X0263000Y0335000D01*
X0263000Y0339500D01*
X0257153Y0336583D02*
X0237999Y0336583D01*
X0238809Y0337582D02*
X0256524Y0337582D01*
X0233300Y0337582D02*
X0232700Y0337582D01*
X0232700Y0338580D02*
X0233300Y0338580D01*
X0233300Y0336583D02*
X0232700Y0336583D01*
X0232700Y0340577D02*
X0233300Y0340577D01*
X0233300Y0341576D02*
X0232700Y0341576D01*
X0232700Y0342574D02*
X0233300Y0342574D01*
X0217531Y0345570D02*
X0314000Y0345570D01*
X0314000Y0346568D02*
X0216378Y0346568D01*
X0209622Y0346568D02*
X0015500Y0346568D01*
X0015500Y0345570D02*
X0168626Y0345570D01*
X0167470Y0344571D02*
X0015500Y0344571D01*
X0015500Y0343573D02*
X0166472Y0343573D01*
X0165473Y0342574D02*
X0015500Y0342574D01*
X0015500Y0341576D02*
X0164475Y0341576D01*
X0163476Y0340577D02*
X0015500Y0340577D01*
X0015500Y0339579D02*
X0162477Y0339579D01*
X0161479Y0338580D02*
X0015500Y0338580D01*
X0015500Y0337582D02*
X0160480Y0337582D01*
X0155946Y0336583D02*
X0152054Y0336583D01*
X0153052Y0335585D02*
X0154948Y0335585D01*
X0145946Y0336583D02*
X0142054Y0336583D01*
X0143052Y0335585D02*
X0144948Y0335585D01*
X0144768Y0328595D02*
X0143232Y0328595D01*
X0142233Y0327597D02*
X0145767Y0327597D01*
X0135767Y0327597D02*
X0126445Y0327597D01*
X0127444Y0328595D02*
X0134768Y0328595D01*
X0134948Y0335585D02*
X0127264Y0335585D01*
X0126266Y0336583D02*
X0135946Y0336583D01*
X0119734Y0336583D02*
X0116266Y0336583D01*
X0117264Y0335585D02*
X0118736Y0335585D01*
X0120710Y0317611D02*
X0115290Y0317611D01*
X0116236Y0316613D02*
X0119764Y0316613D01*
X0118766Y0315614D02*
X0117234Y0315614D01*
X0117924Y0314616D02*
X0118076Y0314616D01*
X0128029Y0299638D02*
X0168648Y0299638D01*
X0169360Y0298640D02*
X0127489Y0298640D01*
X0155632Y0284661D02*
X0168095Y0284661D01*
X0167681Y0283662D02*
X0157156Y0283662D01*
X0158155Y0282664D02*
X0167450Y0282664D01*
X0167450Y0281665D02*
X0159153Y0281665D01*
X0160152Y0280667D02*
X0167545Y0280667D01*
X0167959Y0279668D02*
X0161150Y0279668D01*
X0162149Y0278670D02*
X0168482Y0278670D01*
X0169480Y0277671D02*
X0163147Y0277671D01*
X0164146Y0276672D02*
X0169824Y0276672D01*
X0168825Y0275674D02*
X0165144Y0275674D01*
X0166143Y0274675D02*
X0168101Y0274675D01*
X0167687Y0273677D02*
X0167141Y0273677D01*
X0168855Y0255704D02*
X0154723Y0255704D01*
X0156066Y0254705D02*
X0168113Y0254705D01*
X0167700Y0253707D02*
X0156710Y0253707D01*
X0157081Y0252708D02*
X0167450Y0252708D01*
X0167450Y0251710D02*
X0157081Y0251710D01*
X0156884Y0250711D02*
X0167527Y0250711D01*
X0167940Y0249713D02*
X0156470Y0249713D01*
X0155486Y0248714D02*
X0168437Y0248714D01*
X0169435Y0247716D02*
X0152393Y0247716D01*
X0151394Y0246717D02*
X0169885Y0246717D01*
X0168870Y0245719D02*
X0150396Y0245719D01*
X0149397Y0244720D02*
X0168119Y0244720D01*
X0167706Y0243722D02*
X0148399Y0243722D01*
X0147400Y0242723D02*
X0167450Y0242723D01*
X0167450Y0241725D02*
X0146402Y0241725D01*
X0145403Y0240726D02*
X0167520Y0240726D01*
X0167934Y0239728D02*
X0144405Y0239728D01*
X0143406Y0238729D02*
X0168422Y0238729D01*
X0169421Y0237731D02*
X0142407Y0237731D01*
X0141409Y0236732D02*
X0169921Y0236732D01*
X0168885Y0235734D02*
X0140410Y0235734D01*
X0139326Y0234735D02*
X0168126Y0234735D01*
X0167712Y0233737D02*
X0128288Y0233737D01*
X0128550Y0232738D02*
X0167450Y0232738D01*
X0167450Y0231739D02*
X0128550Y0231739D01*
X0128486Y0230741D02*
X0167514Y0230741D01*
X0167928Y0229742D02*
X0128072Y0229742D01*
X0127593Y0228744D02*
X0168407Y0228744D01*
X0169406Y0227745D02*
X0126594Y0227745D01*
X0126043Y0226747D02*
X0169957Y0226747D01*
X0168900Y0225748D02*
X0127100Y0225748D01*
X0127868Y0224750D02*
X0168132Y0224750D01*
X0180500Y0217000D02*
X0185000Y0217000D01*
X0188000Y0214000D01*
X0188000Y0159000D01*
X0192000Y0155000D01*
X0199000Y0155000D01*
X0207000Y0147000D01*
X0210000Y0147000D01*
X0212642Y0143870D02*
X0213493Y0143870D01*
X0214491Y0142872D02*
X0187800Y0142872D01*
X0187800Y0142500D02*
X0187800Y0143988D01*
X0184988Y0146800D01*
X0183500Y0146800D01*
X0183500Y0142500D01*
X0187800Y0142500D01*
X0187800Y0143870D02*
X0207358Y0143870D01*
X0205454Y0144869D02*
X0186919Y0144869D01*
X0185921Y0145868D02*
X0204456Y0145868D01*
X0203457Y0146866D02*
X0098811Y0146866D01*
X0099809Y0145868D02*
X0180079Y0145868D01*
X0179081Y0144869D02*
X0100808Y0144869D01*
X0101806Y0143870D02*
X0178200Y0143870D01*
X0178200Y0142872D02*
X0102805Y0142872D01*
X0103803Y0141873D02*
X0182500Y0141873D01*
X0182500Y0142872D02*
X0183500Y0142872D01*
X0183500Y0143870D02*
X0182500Y0143870D01*
X0182500Y0144869D02*
X0183500Y0144869D01*
X0183500Y0145868D02*
X0182500Y0145868D01*
X0183500Y0141873D02*
X0215237Y0141873D01*
X0214238Y0140875D02*
X0187800Y0140875D01*
X0187665Y0139876D02*
X0213240Y0139876D01*
X0212600Y0138878D02*
X0186666Y0138878D01*
X0185668Y0137879D02*
X0212600Y0137879D01*
X0212600Y0136881D02*
X0185756Y0136881D01*
X0186754Y0135882D02*
X0212600Y0135882D01*
X0212600Y0134884D02*
X0187753Y0134884D01*
X0188400Y0133885D02*
X0213478Y0133885D01*
X0214476Y0132887D02*
X0188400Y0132887D01*
X0188400Y0131888D02*
X0215475Y0131888D01*
X0220525Y0131888D02*
X0225400Y0131888D01*
X0225400Y0130890D02*
X0188400Y0130890D01*
X0188400Y0129891D02*
X0225214Y0129891D01*
X0224216Y0128893D02*
X0187530Y0128893D01*
X0186531Y0127894D02*
X0223217Y0127894D01*
X0222219Y0126896D02*
X0185741Y0126896D01*
X0186739Y0125897D02*
X0221220Y0125897D01*
X0220222Y0124899D02*
X0187738Y0124899D01*
X0188400Y0123900D02*
X0219223Y0123900D01*
X0218225Y0122902D02*
X0188400Y0122902D01*
X0188400Y0121903D02*
X0217226Y0121903D01*
X0216228Y0120905D02*
X0188400Y0120905D01*
X0188400Y0119906D02*
X0193229Y0119906D01*
X0192231Y0118908D02*
X0187544Y0118908D01*
X0186546Y0117909D02*
X0191232Y0117909D01*
X0190234Y0116911D02*
X0185726Y0116911D01*
X0186725Y0115912D02*
X0189235Y0115912D01*
X0188237Y0114914D02*
X0187723Y0114914D01*
X0189000Y0112000D02*
X0183000Y0112000D01*
X0189000Y0112000D02*
X0195000Y0118000D01*
X0217000Y0118000D01*
X0228000Y0129000D01*
X0228000Y0137000D01*
X0224476Y0132887D02*
X0221524Y0132887D01*
X0222522Y0133885D02*
X0223478Y0133885D01*
X0231524Y0132887D02*
X0235325Y0132887D01*
X0234326Y0133885D02*
X0232522Y0133885D01*
X0237500Y0140875D02*
X0238500Y0140875D01*
X0238500Y0142872D02*
X0237500Y0142872D01*
X0237500Y0143870D02*
X0238500Y0143870D01*
X0238500Y0144869D02*
X0237500Y0144869D01*
X0237500Y0145868D02*
X0238500Y0145868D01*
X0241659Y0143870D02*
X0243493Y0143870D01*
X0243240Y0139876D02*
X0241912Y0139876D01*
X0241674Y0133885D02*
X0243478Y0133885D01*
X0251576Y0124899D02*
X0272600Y0124899D01*
X0272600Y0125897D02*
X0252574Y0125897D01*
X0253573Y0126896D02*
X0272600Y0126896D01*
X0272600Y0127894D02*
X0254571Y0127894D01*
X0255570Y0128893D02*
X0272600Y0128893D01*
X0273255Y0129891D02*
X0256568Y0129891D01*
X0257567Y0130890D02*
X0274253Y0130890D01*
X0275100Y0131888D02*
X0258354Y0131888D01*
X0258600Y0132887D02*
X0275100Y0132887D01*
X0275100Y0133885D02*
X0258600Y0133885D01*
X0258600Y0134884D02*
X0275100Y0134884D01*
X0275100Y0135882D02*
X0258600Y0135882D01*
X0258600Y0136881D02*
X0275100Y0136881D01*
X0275100Y0137879D02*
X0258600Y0137879D01*
X0258600Y0138878D02*
X0275021Y0138878D01*
X0274022Y0139876D02*
X0258600Y0139876D01*
X0258600Y0140875D02*
X0273024Y0140875D01*
X0272025Y0141873D02*
X0258600Y0141873D01*
X0258600Y0142872D02*
X0271027Y0142872D01*
X0270028Y0143870D02*
X0258600Y0143870D01*
X0258600Y0144869D02*
X0269030Y0144869D01*
X0268031Y0145868D02*
X0258600Y0145868D01*
X0258600Y0146866D02*
X0267033Y0146866D01*
X0266034Y0147865D02*
X0258600Y0147865D01*
X0258600Y0148863D02*
X0265036Y0148863D01*
X0264037Y0149862D02*
X0258600Y0149862D01*
X0258600Y0150860D02*
X0263039Y0150860D01*
X0262040Y0151859D02*
X0258459Y0151859D01*
X0257820Y0152857D02*
X0261042Y0152857D01*
X0260043Y0153856D02*
X0256821Y0153856D01*
X0255823Y0154854D02*
X0259045Y0154854D01*
X0258046Y0155853D02*
X0254824Y0155853D01*
X0253826Y0156851D02*
X0257048Y0156851D01*
X0256338Y0157850D02*
X0252622Y0157850D01*
X0251500Y0155500D02*
X0256000Y0151000D01*
X0256000Y0133000D01*
X0236000Y0113000D01*
X0226382Y0103930D02*
X0141747Y0103930D01*
X0142745Y0102932D02*
X0225969Y0102932D01*
X0225919Y0101933D02*
X0168523Y0101933D01*
X0169837Y0100934D02*
X0226024Y0100934D01*
X0226438Y0099936D02*
X0170469Y0099936D01*
X0170831Y0098937D02*
X0227291Y0098937D01*
X0249579Y0122902D02*
X0274462Y0122902D01*
X0273463Y0123900D02*
X0250577Y0123900D01*
X0251500Y0155500D02*
X0208500Y0155500D01*
X0206000Y0158000D01*
X0208926Y0160845D02*
X0210933Y0160845D01*
X0210919Y0159847D02*
X0209652Y0159847D01*
X0210066Y0158848D02*
X0211060Y0158848D01*
X0211346Y0161844D02*
X0207385Y0161844D01*
X0206081Y0162842D02*
X0212071Y0162842D01*
X0213608Y0163841D02*
X0206069Y0163841D01*
X0205656Y0164839D02*
X0215738Y0164839D01*
X0219081Y0159847D02*
X0256100Y0159847D01*
X0256100Y0160845D02*
X0219946Y0160845D01*
X0220945Y0161844D02*
X0256100Y0161844D01*
X0256100Y0162842D02*
X0221943Y0162842D01*
X0224330Y0163841D02*
X0256100Y0163841D01*
X0256100Y0164839D02*
X0225611Y0164839D01*
X0226229Y0165838D02*
X0256100Y0165838D01*
X0256415Y0166836D02*
X0226581Y0166836D01*
X0226581Y0167835D02*
X0257234Y0167835D01*
X0258232Y0168833D02*
X0226365Y0168833D01*
X0225940Y0169832D02*
X0259100Y0169832D01*
X0259100Y0170830D02*
X0224941Y0170830D01*
X0218940Y0158848D02*
X0256100Y0158848D01*
X0289973Y0191799D02*
X0290600Y0191799D01*
X0302470Y0168833D02*
X0303530Y0168833D01*
X0304528Y0167835D02*
X0301471Y0167835D01*
X0300473Y0166836D02*
X0305527Y0166836D01*
X0305003Y0159847D02*
X0301547Y0159847D01*
X0302546Y0158848D02*
X0304004Y0158848D01*
X0255424Y0227745D02*
X0247694Y0227745D01*
X0247028Y0228744D02*
X0253792Y0228744D01*
X0253028Y0229742D02*
X0245629Y0229742D01*
X0242371Y0229742D02*
X0211419Y0229742D01*
X0212228Y0228744D02*
X0240972Y0228744D01*
X0240306Y0227745D02*
X0212642Y0227745D01*
X0206581Y0229742D02*
X0198934Y0229742D01*
X0198486Y0230741D02*
X0252614Y0230741D01*
X0252572Y0231739D02*
X0198550Y0231739D01*
X0198550Y0232738D02*
X0252685Y0232738D01*
X0253099Y0233737D02*
X0198288Y0233737D01*
X0197874Y0234735D02*
X0253963Y0234735D01*
X0240500Y0221500D02*
X0240000Y0222000D01*
X0204250Y0222000D01*
X0193000Y0222000D01*
X0188000Y0229500D02*
X0188000Y0327000D01*
X0183000Y0332000D01*
X0178000Y0334432D02*
X0178295Y0335144D01*
X0179751Y0336600D01*
X0176249Y0336600D01*
X0177705Y0335144D01*
X0178000Y0334432D01*
X0177936Y0334586D02*
X0178064Y0334586D01*
X0178736Y0335585D02*
X0177264Y0335585D01*
X0176266Y0336583D02*
X0179734Y0336583D01*
X0186249Y0336600D02*
X0189751Y0336600D01*
X0188295Y0335144D01*
X0188000Y0334432D01*
X0187705Y0335144D01*
X0186249Y0336600D01*
X0186266Y0336583D02*
X0189734Y0336583D01*
X0188736Y0335585D02*
X0187264Y0335585D01*
X0187936Y0334586D02*
X0188064Y0334586D01*
X0196266Y0336583D02*
X0210145Y0336583D01*
X0210162Y0335585D02*
X0197264Y0335585D01*
X0197936Y0334586D02*
X0210178Y0334586D01*
X0210194Y0333588D02*
X0198350Y0333588D01*
X0198550Y0332589D02*
X0210210Y0332589D01*
X0210226Y0331591D02*
X0198550Y0331591D01*
X0198424Y0330592D02*
X0210242Y0330592D01*
X0210258Y0329594D02*
X0198010Y0329594D01*
X0197444Y0328595D02*
X0210274Y0328595D01*
X0210290Y0327597D02*
X0196445Y0327597D01*
X0196251Y0326598D02*
X0210306Y0326598D01*
X0210322Y0325600D02*
X0197249Y0325600D01*
X0197930Y0324601D02*
X0210338Y0324601D01*
X0210354Y0323603D02*
X0198343Y0323603D01*
X0198550Y0322604D02*
X0210370Y0322604D01*
X0210386Y0321605D02*
X0198550Y0321605D01*
X0198430Y0320607D02*
X0210402Y0320607D01*
X0210418Y0319608D02*
X0198017Y0319608D01*
X0197459Y0318610D02*
X0210434Y0318610D01*
X0210450Y0317611D02*
X0196460Y0317611D01*
X0209942Y0316613D02*
X0210466Y0316613D01*
X0220700Y0309623D02*
X0223275Y0309623D01*
X0222277Y0310622D02*
X0221393Y0310622D01*
X0220700Y0308625D02*
X0224274Y0308625D01*
X0225272Y0307626D02*
X0220600Y0307626D01*
X0220600Y0306628D02*
X0226271Y0306628D01*
X0205400Y0301635D02*
X0193375Y0301635D01*
X0207450Y0272678D02*
X0211408Y0272678D01*
X0212219Y0271680D02*
X0206451Y0271680D01*
X0167657Y0323603D02*
X0164704Y0323603D01*
X0165702Y0324601D02*
X0168070Y0324601D01*
X0168751Y0325600D02*
X0166701Y0325600D01*
X0167699Y0326598D02*
X0169749Y0326598D01*
X0169555Y0327597D02*
X0168698Y0327597D01*
X0153000Y0252000D02*
X0138000Y0237000D01*
X0093000Y0237000D01*
X0078000Y0222000D01*
X0078000Y0207000D01*
X0080999Y0209772D02*
X0084051Y0209772D01*
X0083404Y0210419D02*
X0082188Y0210419D01*
X0080688Y0211040D01*
X0080600Y0211128D01*
X0080600Y0210172D01*
X0081460Y0209312D01*
X0082081Y0207812D01*
X0082081Y0206188D01*
X0081460Y0204688D01*
X0080312Y0203540D01*
X0078812Y0202919D01*
X0077188Y0202919D01*
X0075688Y0203540D01*
X0074540Y0204688D01*
X0073919Y0206188D01*
X0073919Y0207812D01*
X0074540Y0209312D01*
X0075400Y0210172D01*
X0075400Y0222517D01*
X0075796Y0223473D01*
X0090796Y0238473D01*
X0091527Y0239204D01*
X0092483Y0239600D01*
X0097987Y0239600D01*
X0097450Y0240896D01*
X0097450Y0243104D01*
X0097675Y0243648D01*
X0096923Y0244400D01*
X0073672Y0244400D01*
X0072812Y0243540D01*
X0071312Y0242919D01*
X0069688Y0242919D01*
X0068188Y0243540D01*
X0067040Y0244688D01*
X0066419Y0246188D01*
X0066419Y0246742D01*
X0065600Y0245923D01*
X0065600Y0230372D01*
X0065688Y0230460D01*
X0067188Y0231081D01*
X0068812Y0231081D01*
X0070312Y0230460D01*
X0071460Y0229312D01*
X0072081Y0227812D01*
X0072081Y0226188D01*
X0071460Y0224688D01*
X0070900Y0224128D01*
X0070900Y0161312D01*
X0073000Y0159212D01*
X0075888Y0162100D01*
X0080112Y0162100D01*
X0083100Y0159112D01*
X0083100Y0154900D01*
X0083577Y0154900D01*
X0084643Y0154458D01*
X0087400Y0151701D01*
X0087400Y0206423D01*
X0083404Y0210419D01*
X0081339Y0210771D02*
X0080600Y0210771D01*
X0081683Y0208774D02*
X0085049Y0208774D01*
X0086048Y0207775D02*
X0082081Y0207775D01*
X0082081Y0206777D02*
X0087046Y0206777D01*
X0087400Y0205778D02*
X0081911Y0205778D01*
X0081498Y0204780D02*
X0087400Y0204780D01*
X0087400Y0203781D02*
X0080553Y0203781D01*
X0075447Y0203781D02*
X0070900Y0203781D01*
X0070900Y0202783D02*
X0087400Y0202783D01*
X0087400Y0201784D02*
X0070900Y0201784D01*
X0070900Y0200786D02*
X0087400Y0200786D01*
X0087400Y0199787D02*
X0070900Y0199787D01*
X0070900Y0198789D02*
X0087400Y0198789D01*
X0087400Y0197790D02*
X0070900Y0197790D01*
X0070900Y0196792D02*
X0087400Y0196792D01*
X0087400Y0195793D02*
X0070900Y0195793D01*
X0070900Y0194795D02*
X0087400Y0194795D01*
X0087400Y0193796D02*
X0070900Y0193796D01*
X0070900Y0192798D02*
X0087400Y0192798D01*
X0087400Y0191799D02*
X0070900Y0191799D01*
X0070900Y0190801D02*
X0087400Y0190801D01*
X0087400Y0189802D02*
X0070900Y0189802D01*
X0070900Y0188803D02*
X0087400Y0188803D01*
X0087400Y0187805D02*
X0070900Y0187805D01*
X0070900Y0186806D02*
X0087400Y0186806D01*
X0087400Y0185808D02*
X0070900Y0185808D01*
X0070900Y0184809D02*
X0087400Y0184809D01*
X0087400Y0183811D02*
X0080826Y0183811D01*
X0080237Y0184400D02*
X0075763Y0184400D01*
X0072600Y0181237D01*
X0072600Y0176763D01*
X0075363Y0174000D01*
X0072600Y0171237D01*
X0072600Y0166763D01*
X0075763Y0163600D01*
X0080237Y0163600D01*
X0083400Y0166763D01*
X0083400Y0171237D01*
X0080637Y0174000D01*
X0083400Y0176763D01*
X0083400Y0181237D01*
X0080237Y0184400D01*
X0081824Y0182812D02*
X0087400Y0182812D01*
X0087400Y0181814D02*
X0082823Y0181814D01*
X0083400Y0180815D02*
X0087400Y0180815D01*
X0087400Y0179817D02*
X0083400Y0179817D01*
X0083400Y0178818D02*
X0087400Y0178818D01*
X0087400Y0177820D02*
X0083400Y0177820D01*
X0083400Y0176821D02*
X0087400Y0176821D01*
X0087400Y0175823D02*
X0082460Y0175823D01*
X0081461Y0174824D02*
X0087400Y0174824D01*
X0087400Y0173826D02*
X0080811Y0173826D01*
X0081809Y0172827D02*
X0087400Y0172827D01*
X0087400Y0171829D02*
X0082808Y0171829D01*
X0083400Y0170830D02*
X0087400Y0170830D01*
X0087400Y0169832D02*
X0083400Y0169832D01*
X0083400Y0168833D02*
X0087400Y0168833D01*
X0087400Y0167835D02*
X0083400Y0167835D01*
X0083400Y0166836D02*
X0087400Y0166836D01*
X0087400Y0165838D02*
X0082474Y0165838D01*
X0081476Y0164839D02*
X0087400Y0164839D01*
X0087400Y0163841D02*
X0080477Y0163841D01*
X0080369Y0161844D02*
X0087400Y0161844D01*
X0087400Y0162842D02*
X0070900Y0162842D01*
X0070900Y0161844D02*
X0075631Y0161844D01*
X0074633Y0160845D02*
X0071367Y0160845D01*
X0072366Y0159847D02*
X0073634Y0159847D01*
X0075523Y0163841D02*
X0070900Y0163841D01*
X0070900Y0164839D02*
X0074524Y0164839D01*
X0073526Y0165838D02*
X0070900Y0165838D01*
X0070900Y0166836D02*
X0072600Y0166836D01*
X0072600Y0167835D02*
X0070900Y0167835D01*
X0070900Y0168833D02*
X0072600Y0168833D01*
X0072600Y0169832D02*
X0070900Y0169832D01*
X0070900Y0170830D02*
X0072600Y0170830D01*
X0073192Y0171829D02*
X0070900Y0171829D01*
X0070900Y0172827D02*
X0074191Y0172827D01*
X0075189Y0173826D02*
X0070900Y0173826D01*
X0070900Y0174824D02*
X0074539Y0174824D01*
X0073540Y0175823D02*
X0070900Y0175823D01*
X0070900Y0176821D02*
X0072600Y0176821D01*
X0072600Y0177820D02*
X0070900Y0177820D01*
X0070900Y0178818D02*
X0072600Y0178818D01*
X0072600Y0179817D02*
X0070900Y0179817D01*
X0070900Y0180815D02*
X0072600Y0180815D01*
X0073177Y0181814D02*
X0070900Y0181814D01*
X0070900Y0182812D02*
X0074176Y0182812D01*
X0075174Y0183811D02*
X0070900Y0183811D01*
X0060400Y0183811D02*
X0055600Y0183811D01*
X0055600Y0184809D02*
X0060400Y0184809D01*
X0060400Y0185808D02*
X0055600Y0185808D01*
X0055600Y0186806D02*
X0060400Y0186806D01*
X0060400Y0187805D02*
X0055600Y0187805D01*
X0055600Y0188803D02*
X0060400Y0188803D01*
X0060400Y0189802D02*
X0055600Y0189802D01*
X0055600Y0190801D02*
X0060400Y0190801D01*
X0060400Y0191799D02*
X0055600Y0191799D01*
X0055600Y0192798D02*
X0060400Y0192798D01*
X0060400Y0193796D02*
X0055600Y0193796D01*
X0055600Y0193923D02*
X0059473Y0197796D01*
X0060204Y0198527D01*
X0060400Y0199000D01*
X0060400Y0160964D01*
X0059864Y0161500D01*
X0058500Y0161500D01*
X0058500Y0157500D01*
X0057500Y0157500D01*
X0057500Y0161500D01*
X0056136Y0161500D01*
X0055600Y0160964D01*
X0055600Y0193923D01*
X0056472Y0194795D02*
X0060400Y0194795D01*
X0060400Y0195793D02*
X0057470Y0195793D01*
X0058469Y0196792D02*
X0060400Y0196792D01*
X0060400Y0197790D02*
X0059467Y0197790D01*
X0060312Y0198789D02*
X0060400Y0198789D01*
X0050400Y0193796D02*
X0050265Y0193796D01*
X0049853Y0193321D02*
X0049853Y0193321D01*
X0050400Y0192798D02*
X0049039Y0192798D01*
X0050400Y0191799D02*
X0047485Y0191799D01*
X0045931Y0190801D02*
X0050400Y0190801D01*
X0050400Y0189802D02*
X0043020Y0189802D01*
X0045519Y0190536D02*
X0045519Y0190536D01*
X0050400Y0188803D02*
X0015500Y0188803D01*
X0015500Y0187805D02*
X0050400Y0187805D01*
X0050400Y0186806D02*
X0015500Y0186806D01*
X0015500Y0185808D02*
X0050400Y0185808D01*
X0050400Y0184809D02*
X0015500Y0184809D01*
X0015500Y0183811D02*
X0050400Y0183811D01*
X0050400Y0182812D02*
X0015500Y0182812D01*
X0015500Y0181814D02*
X0050400Y0181814D01*
X0050400Y0180815D02*
X0015500Y0180815D01*
X0015500Y0179817D02*
X0050400Y0179817D01*
X0050400Y0178818D02*
X0015500Y0178818D01*
X0015500Y0177820D02*
X0050400Y0177820D01*
X0050400Y0176821D02*
X0015500Y0176821D01*
X0015500Y0175823D02*
X0050400Y0175823D01*
X0050400Y0174824D02*
X0015500Y0174824D01*
X0015500Y0173826D02*
X0050400Y0173826D01*
X0050400Y0172827D02*
X0015500Y0172827D01*
X0015500Y0171829D02*
X0050400Y0171829D01*
X0050400Y0170830D02*
X0015500Y0170830D01*
X0015500Y0169832D02*
X0050400Y0169832D01*
X0050400Y0168833D02*
X0015500Y0168833D01*
X0015500Y0167835D02*
X0050400Y0167835D01*
X0050400Y0166836D02*
X0015500Y0166836D01*
X0015500Y0165838D02*
X0050400Y0165838D01*
X0050400Y0164839D02*
X0015500Y0164839D01*
X0015500Y0163841D02*
X0050400Y0163841D01*
X0050400Y0162842D02*
X0015500Y0162842D01*
X0015500Y0161844D02*
X0025631Y0161844D01*
X0024633Y0160845D02*
X0015500Y0160845D01*
X0015500Y0159847D02*
X0023634Y0159847D01*
X0022900Y0158848D02*
X0015500Y0158848D01*
X0015500Y0157850D02*
X0022900Y0157850D01*
X0022900Y0156851D02*
X0015500Y0156851D01*
X0015500Y0155853D02*
X0022900Y0155853D01*
X0022933Y0154854D02*
X0015500Y0154854D01*
X0015500Y0153856D02*
X0023932Y0153856D01*
X0024930Y0152857D02*
X0015500Y0152857D01*
X0015500Y0151859D02*
X0035400Y0151859D01*
X0035400Y0150860D02*
X0015500Y0150860D01*
X0015500Y0149862D02*
X0035400Y0149862D01*
X0035400Y0148863D02*
X0015500Y0148863D01*
X0015500Y0147865D02*
X0035400Y0147865D01*
X0035400Y0146866D02*
X0015500Y0146866D01*
X0015500Y0145868D02*
X0035400Y0145868D01*
X0035400Y0144869D02*
X0015500Y0144869D01*
X0015500Y0143870D02*
X0035400Y0143870D01*
X0035400Y0142872D02*
X0015500Y0142872D01*
X0015500Y0141873D02*
X0035400Y0141873D01*
X0035652Y0140875D02*
X0015500Y0140875D01*
X0015500Y0139876D02*
X0036447Y0139876D01*
X0036527Y0139796D02*
X0036527Y0139796D01*
X0037445Y0138878D02*
X0015500Y0138878D01*
X0015500Y0137879D02*
X0038444Y0137879D01*
X0039442Y0136881D02*
X0015500Y0136881D01*
X0015500Y0135882D02*
X0040441Y0135882D01*
X0041439Y0134884D02*
X0015500Y0134884D01*
X0015500Y0133885D02*
X0042438Y0133885D01*
X0043436Y0132887D02*
X0015500Y0132887D01*
X0015500Y0131888D02*
X0044435Y0131888D01*
X0045433Y0130890D02*
X0015500Y0130890D01*
X0015500Y0129891D02*
X0046432Y0129891D01*
X0047430Y0128893D02*
X0015500Y0128893D01*
X0015500Y0127894D02*
X0048429Y0127894D01*
X0049427Y0126896D02*
X0015500Y0126896D01*
X0015500Y0125897D02*
X0050426Y0125897D01*
X0051424Y0124899D02*
X0015500Y0124899D01*
X0015500Y0123900D02*
X0052423Y0123900D01*
X0053421Y0122902D02*
X0015500Y0122902D01*
X0015500Y0121903D02*
X0054420Y0121903D01*
X0055418Y0120905D02*
X0015500Y0120905D01*
X0015500Y0119906D02*
X0056417Y0119906D01*
X0057415Y0118908D02*
X0015500Y0118908D01*
X0015500Y0117909D02*
X0058414Y0117909D01*
X0058919Y0116911D02*
X0015500Y0116911D01*
X0015500Y0115912D02*
X0059033Y0115912D01*
X0059447Y0114914D02*
X0015500Y0114914D01*
X0015500Y0113915D02*
X0060313Y0113915D01*
X0063000Y0117000D02*
X0038000Y0142000D01*
X0038000Y0157000D01*
X0034633Y0160845D02*
X0031367Y0160845D01*
X0030369Y0161844D02*
X0035631Y0161844D01*
X0033634Y0159847D02*
X0032366Y0159847D01*
X0032068Y0153856D02*
X0033932Y0153856D01*
X0034930Y0152857D02*
X0031070Y0152857D01*
X0040369Y0161844D02*
X0045631Y0161844D01*
X0044633Y0160845D02*
X0041367Y0160845D01*
X0042366Y0159847D02*
X0043634Y0159847D01*
X0048000Y0157000D02*
X0048000Y0137000D01*
X0073000Y0112000D01*
X0073000Y0097000D01*
X0068919Y0096940D02*
X0015500Y0096940D01*
X0015500Y0095942D02*
X0069021Y0095942D01*
X0069434Y0094943D02*
X0015500Y0094943D01*
X0015500Y0093945D02*
X0070284Y0093945D01*
X0072122Y0092946D02*
X0015500Y0092946D01*
X0015500Y0091948D02*
X0131375Y0091948D01*
X0130377Y0092946D02*
X0073878Y0092946D01*
X0075716Y0093945D02*
X0129378Y0093945D01*
X0128380Y0094943D02*
X0076565Y0094943D01*
X0076979Y0095942D02*
X0127381Y0095942D01*
X0126383Y0096940D02*
X0077081Y0096940D01*
X0077028Y0097939D02*
X0125384Y0097939D01*
X0124386Y0098937D02*
X0076615Y0098937D01*
X0075836Y0099936D02*
X0123387Y0099936D01*
X0122389Y0100934D02*
X0075600Y0100934D01*
X0075600Y0101933D02*
X0121390Y0101933D01*
X0120392Y0102932D02*
X0075600Y0102932D01*
X0075600Y0103930D02*
X0119393Y0103930D01*
X0118395Y0104929D02*
X0075600Y0104929D01*
X0075600Y0105927D02*
X0117396Y0105927D01*
X0116397Y0106926D02*
X0075600Y0106926D01*
X0075600Y0107924D02*
X0115399Y0107924D01*
X0114400Y0108923D02*
X0075600Y0108923D01*
X0075600Y0109921D02*
X0113402Y0109921D01*
X0112403Y0110920D02*
X0075600Y0110920D01*
X0075600Y0111918D02*
X0111405Y0111918D01*
X0110406Y0112917D02*
X0075435Y0112917D01*
X0074762Y0113915D02*
X0109408Y0113915D01*
X0116772Y0120905D02*
X0117418Y0120905D01*
X0117771Y0119906D02*
X0118417Y0119906D01*
X0118769Y0118908D02*
X0119415Y0118908D01*
X0119768Y0117909D02*
X0120414Y0117909D01*
X0120766Y0116911D02*
X0121412Y0116911D01*
X0121765Y0115912D02*
X0122411Y0115912D01*
X0122763Y0114914D02*
X0123409Y0114914D01*
X0123762Y0113915D02*
X0124408Y0113915D01*
X0124760Y0112917D02*
X0125406Y0112917D01*
X0125759Y0111918D02*
X0126405Y0111918D01*
X0126757Y0110920D02*
X0127403Y0110920D01*
X0127756Y0109921D02*
X0128402Y0109921D01*
X0128754Y0108923D02*
X0129400Y0108923D01*
X0129753Y0107924D02*
X0130399Y0107924D01*
X0130751Y0106926D02*
X0131397Y0106926D01*
X0131750Y0105927D02*
X0132396Y0105927D01*
X0132748Y0104929D02*
X0133395Y0104929D01*
X0133747Y0103930D02*
X0134393Y0103930D01*
X0134745Y0102932D02*
X0135392Y0102932D01*
X0135744Y0101933D02*
X0136390Y0101933D01*
X0136742Y0100934D02*
X0137389Y0100934D01*
X0137741Y0099936D02*
X0138387Y0099936D01*
X0138739Y0098937D02*
X0139386Y0098937D01*
X0139738Y0097939D02*
X0140384Y0097939D01*
X0140736Y0096940D02*
X0141383Y0096940D01*
X0141735Y0095942D02*
X0142528Y0095942D01*
X0142734Y0094943D02*
X0164285Y0094943D01*
X0166750Y0098250D02*
X0143750Y0098250D01*
X0090000Y0152000D01*
X0090000Y0207500D01*
X0083000Y0214500D01*
X0087081Y0214765D02*
X0098138Y0214765D01*
X0097724Y0213766D02*
X0087411Y0213766D01*
X0088409Y0212768D02*
X0097450Y0212768D01*
X0097450Y0211769D02*
X0089408Y0211769D01*
X0090406Y0210771D02*
X0097502Y0210771D01*
X0097915Y0209772D02*
X0091405Y0209772D01*
X0092287Y0208774D02*
X0098377Y0208774D01*
X0099376Y0207775D02*
X0092600Y0207775D01*
X0092600Y0206777D02*
X0100029Y0206777D01*
X0098929Y0205778D02*
X0092600Y0205778D01*
X0092600Y0204780D02*
X0098144Y0204780D01*
X0097731Y0203781D02*
X0092600Y0203781D01*
X0092600Y0202783D02*
X0097450Y0202783D01*
X0097450Y0201784D02*
X0092600Y0201784D01*
X0092600Y0200786D02*
X0097496Y0200786D01*
X0097909Y0199787D02*
X0092600Y0199787D01*
X0092600Y0198789D02*
X0098362Y0198789D01*
X0099361Y0197790D02*
X0092600Y0197790D01*
X0092600Y0196792D02*
X0100065Y0196792D01*
X0098944Y0195793D02*
X0092600Y0195793D01*
X0092600Y0194795D02*
X0098150Y0194795D01*
X0097737Y0193796D02*
X0092600Y0193796D01*
X0092600Y0192798D02*
X0097450Y0192798D01*
X0097450Y0191799D02*
X0092600Y0191799D01*
X0092600Y0190801D02*
X0097490Y0190801D01*
X0097903Y0189802D02*
X0092600Y0189802D01*
X0092600Y0188803D02*
X0098348Y0188803D01*
X0099346Y0187805D02*
X0092600Y0187805D01*
X0092600Y0186806D02*
X0100101Y0186806D01*
X0098959Y0185808D02*
X0092600Y0185808D01*
X0092600Y0184809D02*
X0098156Y0184809D01*
X0097743Y0183811D02*
X0092600Y0183811D01*
X0092600Y0182812D02*
X0097450Y0182812D01*
X0097450Y0181814D02*
X0092600Y0181814D01*
X0092600Y0180815D02*
X0097483Y0180815D01*
X0097897Y0179817D02*
X0092600Y0179817D01*
X0092600Y0178818D02*
X0098333Y0178818D01*
X0099331Y0177820D02*
X0092600Y0177820D01*
X0092600Y0176821D02*
X0100137Y0176821D01*
X0098974Y0175823D02*
X0092600Y0175823D01*
X0092600Y0174824D02*
X0098163Y0174824D01*
X0097749Y0173826D02*
X0092600Y0173826D01*
X0092600Y0172827D02*
X0097450Y0172827D01*
X0097450Y0171829D02*
X0092600Y0171829D01*
X0092600Y0170830D02*
X0097477Y0170830D01*
X0097891Y0169832D02*
X0092600Y0169832D01*
X0092600Y0168833D02*
X0098318Y0168833D01*
X0099316Y0167835D02*
X0092600Y0167835D01*
X0092600Y0166836D02*
X0100173Y0166836D01*
X0098989Y0165838D02*
X0092600Y0165838D01*
X0092600Y0164839D02*
X0098169Y0164839D01*
X0097755Y0163841D02*
X0092600Y0163841D01*
X0092600Y0162842D02*
X0097450Y0162842D01*
X0097450Y0161844D02*
X0092600Y0161844D01*
X0092600Y0160845D02*
X0097471Y0160845D01*
X0097885Y0159847D02*
X0092600Y0159847D01*
X0092600Y0158848D02*
X0098303Y0158848D01*
X0099301Y0157850D02*
X0092600Y0157850D01*
X0092600Y0156851D02*
X0100928Y0156851D01*
X0105072Y0156851D02*
X0110900Y0156851D01*
X0111178Y0155853D02*
X0092600Y0155853D01*
X0092600Y0154854D02*
X0188469Y0154854D01*
X0189467Y0153856D02*
X0092600Y0153856D01*
X0092820Y0152857D02*
X0190466Y0152857D01*
X0187470Y0155853D02*
X0184822Y0155853D01*
X0185100Y0156851D02*
X0186472Y0156851D01*
X0197011Y0165838D02*
X0199066Y0165838D01*
X0198344Y0164839D02*
X0197831Y0164839D01*
X0198464Y0151859D02*
X0093818Y0151859D01*
X0094817Y0150860D02*
X0199463Y0150860D01*
X0200461Y0149862D02*
X0095815Y0149862D01*
X0096814Y0148863D02*
X0201460Y0148863D01*
X0202459Y0147865D02*
X0097812Y0147865D01*
X0104802Y0140875D02*
X0178200Y0140875D01*
X0178335Y0139876D02*
X0105800Y0139876D01*
X0106799Y0138878D02*
X0179334Y0138878D01*
X0180332Y0137879D02*
X0107798Y0137879D01*
X0108796Y0136881D02*
X0180244Y0136881D01*
X0179246Y0135882D02*
X0109795Y0135882D01*
X0110793Y0134884D02*
X0178247Y0134884D01*
X0177600Y0133885D02*
X0111792Y0133885D01*
X0112790Y0132887D02*
X0177600Y0132887D01*
X0177600Y0131888D02*
X0113789Y0131888D01*
X0114787Y0130890D02*
X0177600Y0130890D01*
X0177600Y0129891D02*
X0115786Y0129891D01*
X0116784Y0128893D02*
X0178470Y0128893D01*
X0179469Y0127894D02*
X0117783Y0127894D01*
X0118781Y0126896D02*
X0180259Y0126896D01*
X0179261Y0125897D02*
X0119780Y0125897D01*
X0120778Y0124899D02*
X0178262Y0124899D01*
X0177600Y0123900D02*
X0121777Y0123900D01*
X0122775Y0122902D02*
X0177600Y0122902D01*
X0177600Y0121903D02*
X0123774Y0121903D01*
X0124772Y0120905D02*
X0177600Y0120905D01*
X0177229Y0119906D02*
X0125771Y0119906D01*
X0126769Y0118908D02*
X0176231Y0118908D01*
X0175232Y0117909D02*
X0127768Y0117909D01*
X0128766Y0116911D02*
X0174234Y0116911D01*
X0173235Y0115912D02*
X0129765Y0115912D01*
X0130763Y0114914D02*
X0172564Y0114914D01*
X0172400Y0113915D02*
X0131762Y0113915D01*
X0132760Y0112917D02*
X0172400Y0112917D01*
X0172400Y0111918D02*
X0133759Y0111918D01*
X0134757Y0110920D02*
X0172400Y0110920D01*
X0172400Y0109921D02*
X0135756Y0109921D01*
X0136754Y0108923D02*
X0172425Y0108923D01*
X0172899Y0107924D02*
X0137753Y0107924D01*
X0138751Y0106926D02*
X0173897Y0106926D01*
X0174896Y0105927D02*
X0139750Y0105927D01*
X0140748Y0104929D02*
X0175895Y0104929D01*
X0177500Y0107000D02*
X0188500Y0107000D01*
X0197000Y0115500D01*
X0183000Y0122000D02*
X0175000Y0114000D01*
X0175000Y0109500D01*
X0177500Y0107000D01*
X0164977Y0101933D02*
X0143744Y0101933D01*
X0144742Y0100934D02*
X0163663Y0100934D01*
X0140362Y0082961D02*
X0015500Y0082961D01*
X0015500Y0081963D02*
X0140919Y0081963D01*
X0141012Y0080964D02*
X0015500Y0080964D01*
X0015500Y0079966D02*
X0141425Y0079966D01*
X0142261Y0078967D02*
X0015500Y0078967D01*
X0015500Y0083960D02*
X0139363Y0083960D01*
X0138365Y0084958D02*
X0015500Y0084958D01*
X0015500Y0085957D02*
X0137366Y0085957D01*
X0136368Y0086955D02*
X0015500Y0086955D01*
X0015500Y0087954D02*
X0135369Y0087954D01*
X0134371Y0088952D02*
X0015500Y0088952D01*
X0015500Y0089951D02*
X0133372Y0089951D01*
X0132374Y0090949D02*
X0015500Y0090949D01*
X0015500Y0097939D02*
X0068972Y0097939D01*
X0069385Y0098937D02*
X0015500Y0098937D01*
X0015500Y0099936D02*
X0070164Y0099936D01*
X0070400Y0100934D02*
X0015500Y0100934D01*
X0015500Y0101933D02*
X0070400Y0101933D01*
X0070400Y0102932D02*
X0015500Y0102932D01*
X0015500Y0103930D02*
X0070400Y0103930D01*
X0070400Y0104929D02*
X0015500Y0104929D01*
X0015500Y0105927D02*
X0070400Y0105927D01*
X0070400Y0106926D02*
X0015500Y0106926D01*
X0015500Y0107924D02*
X0070400Y0107924D01*
X0070400Y0108923D02*
X0015500Y0108923D01*
X0015500Y0109921D02*
X0070400Y0109921D01*
X0070400Y0110920D02*
X0015500Y0110920D01*
X0015500Y0111918D02*
X0069405Y0111918D01*
X0068406Y0112917D02*
X0015500Y0112917D01*
X0050798Y0137879D02*
X0057444Y0137879D01*
X0058442Y0136881D02*
X0051796Y0136881D01*
X0052795Y0135882D02*
X0059441Y0135882D01*
X0060439Y0134884D02*
X0053793Y0134884D01*
X0054792Y0133885D02*
X0061438Y0133885D01*
X0062436Y0132887D02*
X0055790Y0132887D01*
X0056789Y0131888D02*
X0063435Y0131888D01*
X0064433Y0130890D02*
X0057787Y0130890D01*
X0058786Y0129891D02*
X0065432Y0129891D01*
X0066430Y0128893D02*
X0059784Y0128893D01*
X0060783Y0127894D02*
X0067429Y0127894D01*
X0068427Y0126896D02*
X0061781Y0126896D01*
X0062780Y0125897D02*
X0069426Y0125897D01*
X0070424Y0124899D02*
X0063778Y0124899D01*
X0064777Y0123900D02*
X0071423Y0123900D01*
X0072421Y0122902D02*
X0065775Y0122902D01*
X0066774Y0121903D02*
X0073420Y0121903D01*
X0074418Y0120905D02*
X0067772Y0120905D01*
X0068771Y0119906D02*
X0075417Y0119906D01*
X0076415Y0118908D02*
X0069769Y0118908D01*
X0070768Y0117909D02*
X0077414Y0117909D01*
X0078412Y0116911D02*
X0071766Y0116911D01*
X0072765Y0115912D02*
X0079411Y0115912D01*
X0080409Y0114914D02*
X0073763Y0114914D01*
X0067408Y0113915D02*
X0065687Y0113915D01*
X0079784Y0128893D02*
X0100455Y0128893D01*
X0100042Y0129891D02*
X0078786Y0129891D01*
X0077787Y0130890D02*
X0099919Y0130890D01*
X0099010Y0131888D02*
X0076789Y0131888D01*
X0075790Y0132887D02*
X0098012Y0132887D01*
X0097013Y0133885D02*
X0074792Y0133885D01*
X0073793Y0134884D02*
X0096015Y0134884D01*
X0095016Y0135882D02*
X0072795Y0135882D01*
X0071796Y0136881D02*
X0094018Y0136881D01*
X0093019Y0137879D02*
X0070798Y0137879D01*
X0069799Y0138878D02*
X0092021Y0138878D01*
X0091022Y0139876D02*
X0068800Y0139876D01*
X0067802Y0140875D02*
X0090024Y0140875D01*
X0089025Y0141873D02*
X0080510Y0141873D01*
X0081509Y0142872D02*
X0088027Y0142872D01*
X0087028Y0143870D02*
X0082507Y0143870D01*
X0083400Y0144869D02*
X0086030Y0144869D01*
X0085031Y0145868D02*
X0083400Y0145868D01*
X0083400Y0146866D02*
X0084033Y0146866D01*
X0087243Y0151859D02*
X0087400Y0151859D01*
X0087400Y0152857D02*
X0086244Y0152857D01*
X0085246Y0153856D02*
X0087400Y0153856D01*
X0087400Y0154854D02*
X0083688Y0154854D01*
X0083100Y0155853D02*
X0087400Y0155853D01*
X0087400Y0156851D02*
X0083100Y0156851D01*
X0083100Y0157850D02*
X0087400Y0157850D01*
X0087400Y0158848D02*
X0083100Y0158848D01*
X0082366Y0159847D02*
X0087400Y0159847D01*
X0087400Y0160845D02*
X0081367Y0160845D01*
X0073493Y0143870D02*
X0072507Y0143870D01*
X0071509Y0142872D02*
X0074491Y0142872D01*
X0075490Y0141873D02*
X0070510Y0141873D01*
X0060400Y0142277D02*
X0055600Y0147077D01*
X0055600Y0153036D01*
X0056136Y0152500D01*
X0057500Y0152500D01*
X0057500Y0156500D01*
X0058500Y0156500D01*
X0058500Y0152500D01*
X0059864Y0152500D01*
X0060400Y0153036D01*
X0060400Y0142277D01*
X0060400Y0142872D02*
X0059805Y0142872D01*
X0060400Y0143870D02*
X0058806Y0143870D01*
X0057808Y0144869D02*
X0060400Y0144869D01*
X0060400Y0145868D02*
X0056809Y0145868D01*
X0055811Y0146866D02*
X0060400Y0146866D01*
X0060400Y0147865D02*
X0055600Y0147865D01*
X0055600Y0148863D02*
X0060400Y0148863D01*
X0060400Y0149862D02*
X0055600Y0149862D01*
X0055600Y0150860D02*
X0060400Y0150860D01*
X0060400Y0151859D02*
X0055600Y0151859D01*
X0055600Y0152857D02*
X0055779Y0152857D01*
X0057500Y0152857D02*
X0058500Y0152857D01*
X0058500Y0153856D02*
X0057500Y0153856D01*
X0057500Y0154854D02*
X0058500Y0154854D01*
X0058500Y0155853D02*
X0057500Y0155853D01*
X0057500Y0157850D02*
X0058500Y0157850D01*
X0058500Y0158848D02*
X0057500Y0158848D01*
X0057500Y0159847D02*
X0058500Y0159847D01*
X0058500Y0160845D02*
X0057500Y0160845D01*
X0055600Y0161844D02*
X0060400Y0161844D01*
X0060400Y0162842D02*
X0055600Y0162842D01*
X0055600Y0163841D02*
X0060400Y0163841D01*
X0060400Y0164839D02*
X0055600Y0164839D01*
X0055600Y0165838D02*
X0060400Y0165838D01*
X0060400Y0166836D02*
X0055600Y0166836D01*
X0055600Y0167835D02*
X0060400Y0167835D01*
X0060400Y0168833D02*
X0055600Y0168833D01*
X0055600Y0169832D02*
X0060400Y0169832D01*
X0060400Y0170830D02*
X0055600Y0170830D01*
X0055600Y0171829D02*
X0060400Y0171829D01*
X0060400Y0172827D02*
X0055600Y0172827D01*
X0055600Y0173826D02*
X0060400Y0173826D01*
X0060400Y0174824D02*
X0055600Y0174824D01*
X0055600Y0175823D02*
X0060400Y0175823D01*
X0060400Y0176821D02*
X0055600Y0176821D01*
X0055600Y0177820D02*
X0060400Y0177820D01*
X0060400Y0178818D02*
X0055600Y0178818D01*
X0055600Y0179817D02*
X0060400Y0179817D01*
X0060400Y0180815D02*
X0055600Y0180815D01*
X0055600Y0181814D02*
X0060400Y0181814D01*
X0060400Y0182812D02*
X0055600Y0182812D01*
X0050400Y0161844D02*
X0050369Y0161844D01*
X0060221Y0152857D02*
X0060400Y0152857D01*
X0051453Y0143870D02*
X0050600Y0143870D01*
X0050600Y0142872D02*
X0052451Y0142872D01*
X0053450Y0141873D02*
X0050600Y0141873D01*
X0050600Y0140875D02*
X0054448Y0140875D01*
X0055447Y0139876D02*
X0050600Y0139876D01*
X0050600Y0138878D02*
X0056445Y0138878D01*
X0050654Y0144869D02*
X0050600Y0144869D01*
X0080783Y0127894D02*
X0101334Y0127894D01*
X0106666Y0127894D02*
X0110429Y0127894D01*
X0111427Y0126896D02*
X0081781Y0126896D01*
X0082780Y0125897D02*
X0112426Y0125897D01*
X0113424Y0124899D02*
X0083778Y0124899D01*
X0107545Y0128893D02*
X0109430Y0128893D01*
X0108432Y0129891D02*
X0107958Y0129891D01*
X0113777Y0123900D02*
X0114423Y0123900D01*
X0114775Y0122902D02*
X0115421Y0122902D01*
X0115774Y0121903D02*
X0116420Y0121903D01*
X0109301Y0157850D02*
X0106699Y0157850D01*
X0107697Y0158848D02*
X0108303Y0158848D01*
X0074502Y0204780D02*
X0070900Y0204780D01*
X0070900Y0205778D02*
X0074089Y0205778D01*
X0073919Y0206777D02*
X0070900Y0206777D01*
X0070900Y0207775D02*
X0073919Y0207775D01*
X0074317Y0208774D02*
X0070900Y0208774D01*
X0070900Y0209772D02*
X0075001Y0209772D01*
X0075400Y0210771D02*
X0070900Y0210771D01*
X0070900Y0211769D02*
X0075400Y0211769D01*
X0075400Y0212768D02*
X0070900Y0212768D01*
X0070900Y0213766D02*
X0075400Y0213766D01*
X0075400Y0214765D02*
X0070900Y0214765D01*
X0070900Y0215763D02*
X0075400Y0215763D01*
X0075400Y0216762D02*
X0070900Y0216762D01*
X0070900Y0217760D02*
X0075400Y0217760D01*
X0075400Y0218759D02*
X0070900Y0218759D01*
X0070900Y0219757D02*
X0075400Y0219757D01*
X0075400Y0220756D02*
X0070900Y0220756D01*
X0070900Y0221754D02*
X0075400Y0221754D01*
X0075498Y0222753D02*
X0070900Y0222753D01*
X0070900Y0223751D02*
X0076074Y0223751D01*
X0077073Y0224750D02*
X0071485Y0224750D01*
X0071899Y0225748D02*
X0078071Y0225748D01*
X0079070Y0226747D02*
X0072081Y0226747D01*
X0072081Y0227745D02*
X0080068Y0227745D01*
X0081067Y0228744D02*
X0071695Y0228744D01*
X0071029Y0229742D02*
X0082066Y0229742D01*
X0083064Y0230741D02*
X0069633Y0230741D01*
X0066367Y0230741D02*
X0065600Y0230741D01*
X0065600Y0231739D02*
X0084063Y0231739D01*
X0085061Y0232738D02*
X0065600Y0232738D01*
X0065600Y0233737D02*
X0086060Y0233737D01*
X0087058Y0234735D02*
X0065600Y0234735D01*
X0065600Y0235734D02*
X0088057Y0235734D01*
X0089055Y0236732D02*
X0065600Y0236732D01*
X0065600Y0237731D02*
X0090054Y0237731D01*
X0091052Y0238729D02*
X0065600Y0238729D01*
X0065600Y0239728D02*
X0097934Y0239728D01*
X0097520Y0240726D02*
X0065600Y0240726D01*
X0065600Y0241725D02*
X0097450Y0241725D01*
X0097450Y0242723D02*
X0065600Y0242723D01*
X0065600Y0243722D02*
X0068007Y0243722D01*
X0067027Y0244720D02*
X0065600Y0244720D01*
X0065600Y0245719D02*
X0066613Y0245719D01*
X0066419Y0246717D02*
X0066394Y0246717D01*
X0068000Y0252000D02*
X0073000Y0252000D01*
X0103000Y0252000D01*
X0098000Y0247000D02*
X0103000Y0242000D01*
X0097601Y0243722D02*
X0072993Y0243722D01*
X0070500Y0247000D02*
X0098000Y0247000D01*
X0097712Y0233737D02*
X0093413Y0233737D01*
X0092415Y0232738D02*
X0097450Y0232738D01*
X0097450Y0231739D02*
X0091416Y0231739D01*
X0090418Y0230741D02*
X0097514Y0230741D01*
X0097928Y0229742D02*
X0089419Y0229742D01*
X0088421Y0228744D02*
X0098407Y0228744D01*
X0099406Y0227745D02*
X0087422Y0227745D01*
X0086424Y0226747D02*
X0099957Y0226747D01*
X0098900Y0225748D02*
X0085425Y0225748D01*
X0084427Y0224750D02*
X0098132Y0224750D01*
X0097718Y0223751D02*
X0083428Y0223751D01*
X0082430Y0222753D02*
X0097450Y0222753D01*
X0097450Y0221754D02*
X0081431Y0221754D01*
X0080600Y0220756D02*
X0097508Y0220756D01*
X0097922Y0219757D02*
X0080600Y0219757D01*
X0080600Y0218759D02*
X0098392Y0218759D01*
X0099391Y0217760D02*
X0085511Y0217760D01*
X0086480Y0216762D02*
X0099993Y0216762D01*
X0098914Y0215763D02*
X0086894Y0215763D01*
X0126115Y0246717D02*
X0144040Y0246717D01*
X0143042Y0245719D02*
X0127130Y0245719D01*
X0127881Y0244720D02*
X0142043Y0244720D01*
X0141045Y0243722D02*
X0128294Y0243722D01*
X0128550Y0242723D02*
X0140046Y0242723D01*
X0139048Y0241725D02*
X0128550Y0241725D01*
X0128480Y0240726D02*
X0138049Y0240726D01*
X0137051Y0239728D02*
X0128066Y0239728D01*
X0126565Y0247716D02*
X0145039Y0247716D01*
X0146037Y0248714D02*
X0127563Y0248714D01*
X0128060Y0249713D02*
X0147036Y0249713D01*
X0148034Y0250711D02*
X0128473Y0250711D01*
X0128550Y0251710D02*
X0148919Y0251710D01*
X0148919Y0252708D02*
X0128550Y0252708D01*
X0103000Y0272000D02*
X0098000Y0267000D01*
X0085500Y0267000D01*
X0077500Y0266687D02*
X0073100Y0266687D01*
X0073500Y0266500D02*
X0073500Y0265136D01*
X0073936Y0264700D01*
X0072912Y0264700D01*
X0073100Y0264888D01*
X0073100Y0269112D01*
X0072912Y0269300D01*
X0073936Y0269300D01*
X0073500Y0268864D01*
X0073500Y0267500D01*
X0077500Y0267500D01*
X0077500Y0266500D01*
X0073500Y0266500D01*
X0073500Y0265689D02*
X0073100Y0265689D01*
X0073100Y0267686D02*
X0073500Y0267686D01*
X0073500Y0268684D02*
X0073100Y0268684D01*
X0075492Y0275674D02*
X0098825Y0275674D01*
X0099824Y0276672D02*
X0076491Y0276672D01*
X0077489Y0277671D02*
X0099480Y0277671D01*
X0098482Y0278670D02*
X0078488Y0278670D01*
X0079486Y0279668D02*
X0097959Y0279668D01*
X0097545Y0280667D02*
X0080485Y0280667D01*
X0081483Y0281665D02*
X0097450Y0281665D01*
X0097450Y0282664D02*
X0082482Y0282664D01*
X0083480Y0283662D02*
X0097681Y0283662D01*
X0098095Y0284661D02*
X0084479Y0284661D01*
X0085367Y0285659D02*
X0098810Y0285659D01*
X0099809Y0286658D02*
X0085700Y0286658D01*
X0085700Y0287656D02*
X0099495Y0287656D01*
X0098496Y0288655D02*
X0085700Y0288655D01*
X0085700Y0289653D02*
X0097965Y0289653D01*
X0097551Y0290652D02*
X0085700Y0290652D01*
X0085700Y0291650D02*
X0097450Y0291650D01*
X0097450Y0292649D02*
X0085700Y0292649D01*
X0086546Y0293647D02*
X0097675Y0293647D01*
X0098089Y0294646D02*
X0086960Y0294646D01*
X0087081Y0295644D02*
X0098795Y0295644D01*
X0099794Y0296643D02*
X0087048Y0296643D01*
X0086634Y0297641D02*
X0099510Y0297641D01*
X0098511Y0298640D02*
X0085882Y0298640D01*
X0084277Y0299638D02*
X0097971Y0299638D01*
X0045467Y0271680D02*
X0040533Y0271680D01*
X0041531Y0270681D02*
X0044469Y0270681D01*
X0043470Y0269683D02*
X0042530Y0269683D01*
X0035467Y0271680D02*
X0030533Y0271680D01*
X0031531Y0270681D02*
X0034469Y0270681D01*
X0033470Y0269683D02*
X0032530Y0269683D01*
X0032903Y0264690D02*
X0033097Y0264690D01*
X0034096Y0263692D02*
X0031904Y0263692D01*
X0030906Y0262693D02*
X0035094Y0262693D01*
X0023500Y0234735D02*
X0022500Y0234735D01*
X0022500Y0233737D02*
X0023500Y0233737D01*
X0023500Y0232738D02*
X0022500Y0232738D01*
X0022500Y0231739D02*
X0023500Y0231739D01*
X0023500Y0230741D02*
X0022500Y0230741D01*
X0023500Y0229742D02*
X0046581Y0229742D01*
X0020947Y0234735D02*
X0015500Y0234735D01*
X0015500Y0233737D02*
X0019948Y0233737D01*
X0018950Y0232738D02*
X0015500Y0232738D01*
X0015500Y0231739D02*
X0018200Y0231739D01*
X0018200Y0230741D02*
X0015500Y0230741D01*
X0015500Y0217760D02*
X0018451Y0217760D01*
X0019450Y0216762D02*
X0015500Y0216762D01*
X0015500Y0215763D02*
X0020448Y0215763D01*
X0021850Y0214765D02*
X0015500Y0214765D01*
X0015500Y0213766D02*
X0021394Y0213766D01*
X0020938Y0212768D02*
X0015500Y0212768D01*
X0015500Y0211769D02*
X0020586Y0211769D01*
X0020633Y0212099D02*
X0020633Y0212099D01*
X0020442Y0210771D02*
X0015500Y0210771D01*
X0015500Y0209772D02*
X0020299Y0209772D01*
X0020155Y0208774D02*
X0015500Y0208774D01*
X0015500Y0207775D02*
X0020011Y0207775D01*
X0019932Y0206777D02*
X0015500Y0206777D01*
X0015500Y0205778D02*
X0020076Y0205778D01*
X0020219Y0204780D02*
X0015500Y0204780D01*
X0015500Y0203781D02*
X0020363Y0203781D01*
X0020506Y0202783D02*
X0015500Y0202783D01*
X0015500Y0201784D02*
X0020686Y0201784D01*
X0021142Y0200786D02*
X0015500Y0200786D01*
X0015500Y0199787D02*
X0021598Y0199787D01*
X0022054Y0198789D02*
X0015500Y0198789D01*
X0015500Y0197790D02*
X0022510Y0197790D01*
X0022773Y0197214D02*
X0022773Y0197214D01*
X0023140Y0196792D02*
X0015500Y0196792D01*
X0015500Y0195793D02*
X0024005Y0195793D01*
X0024870Y0194795D02*
X0015500Y0194795D01*
X0015500Y0193796D02*
X0025735Y0193796D01*
X0026147Y0193321D02*
X0026147Y0193321D01*
X0026961Y0192798D02*
X0015500Y0192798D01*
X0015500Y0191799D02*
X0028515Y0191799D01*
X0030069Y0190801D02*
X0015500Y0190801D01*
X0015500Y0189802D02*
X0032980Y0189802D01*
X0030481Y0190536D02*
X0030481Y0190536D01*
X0015500Y0347567D02*
X0314000Y0347567D01*
X0314000Y0344571D02*
X0296749Y0344571D01*
X0300150Y0343573D02*
X0314000Y0343573D01*
X0314000Y0342574D02*
X0301904Y0342574D01*
X0300519Y0343464D02*
X0300519Y0343464D01*
X0303458Y0341576D02*
X0314000Y0341576D01*
X0314000Y0340577D02*
X0304941Y0340577D01*
X0304853Y0340679D02*
X0304853Y0340679D01*
X0305806Y0339579D02*
X0314000Y0339579D01*
X0314000Y0338580D02*
X0306672Y0338580D01*
X0307537Y0337582D02*
X0314000Y0337582D01*
X0314000Y0336583D02*
X0308319Y0336583D01*
X0308227Y0336786D02*
X0308227Y0336786D01*
X0308775Y0335585D02*
X0314000Y0335585D01*
X0314000Y0334586D02*
X0309231Y0334586D01*
X0309687Y0333588D02*
X0314000Y0333588D01*
X0314000Y0332589D02*
X0310143Y0332589D01*
X0310440Y0331591D02*
X0314000Y0331591D01*
X0314000Y0330592D02*
X0310584Y0330592D01*
X0310727Y0329594D02*
X0314000Y0329594D01*
X0314000Y0328595D02*
X0310871Y0328595D01*
X0311014Y0327597D02*
X0314000Y0327597D01*
X0314000Y0326598D02*
X0311042Y0326598D01*
X0310899Y0325600D02*
X0314000Y0325600D01*
X0314000Y0324601D02*
X0310755Y0324601D01*
X0310611Y0323603D02*
X0314000Y0323603D01*
X0314000Y0322604D02*
X0310468Y0322604D01*
X0310367Y0321901D02*
X0310367Y0321901D01*
X0310232Y0321605D02*
X0314000Y0321605D01*
X0314000Y0320607D02*
X0309776Y0320607D01*
X0309320Y0319608D02*
X0314000Y0319608D01*
X0314000Y0318610D02*
X0308864Y0318610D01*
X0308408Y0317611D02*
X0314000Y0317611D01*
X0314000Y0316613D02*
X0307706Y0316613D01*
X0306840Y0315614D02*
X0314000Y0315614D01*
X0314000Y0314616D02*
X0305975Y0314616D01*
X0305110Y0313617D02*
X0314000Y0313617D01*
X0314000Y0312619D02*
X0303761Y0312619D01*
X0304853Y0313321D02*
X0304853Y0313321D01*
X0304853Y0313321D01*
X0302207Y0311620D02*
X0314000Y0311620D01*
X0314000Y0310622D02*
X0300653Y0310622D01*
X0300519Y0310536D02*
X0300519Y0310536D01*
X0297412Y0309623D02*
X0314000Y0309623D01*
X0314000Y0062991D02*
X0275100Y0062991D01*
X0275100Y0061993D02*
X0314000Y0061993D01*
X0314000Y0060994D02*
X0275100Y0060994D01*
X0275100Y0059996D02*
X0314000Y0059996D01*
D19*
X0236000Y0102000D03*
X0230000Y0102000D03*
X0210000Y0147000D03*
X0206000Y0158000D03*
X0202000Y0163000D03*
X0215000Y0160000D03*
X0222500Y0167500D03*
X0237000Y0217000D03*
X0240500Y0221500D03*
X0244000Y0226000D03*
X0245000Y0217500D03*
X0256654Y0231654D03*
X0266000Y0233000D03*
X0268000Y0228000D03*
X0293000Y0234000D03*
X0288000Y0255000D03*
X0266000Y0290000D03*
X0236500Y0293500D03*
X0228500Y0283000D03*
X0204000Y0275000D03*
X0231250Y0256750D03*
X0204250Y0222000D03*
X0161000Y0270000D03*
X0153000Y0252000D03*
X0208000Y0313000D03*
X0218000Y0313000D03*
X0213000Y0339500D03*
X0083000Y0295750D03*
X0085500Y0267000D03*
X0073000Y0252000D03*
X0070500Y0247000D03*
X0055500Y0257000D03*
X0068000Y0227000D03*
X0083000Y0214500D03*
X0078000Y0207000D03*
X0104000Y0131000D03*
X0073000Y0097000D03*
X0063000Y0117000D03*
X0145000Y0082000D03*
X0157000Y0077000D03*
X0166750Y0098250D03*
X0264000Y0163000D03*
X0287000Y0189000D03*
D20*
X0279000Y0173500D03*
X0279000Y0165000D03*
X0270000Y0169500D03*
X0257500Y0174500D03*
X0257500Y0189000D03*
X0247000Y0201000D03*
X0252000Y0214000D03*
X0250500Y0218000D03*
X0251500Y0229000D03*
X0252000Y0233500D03*
X0234000Y0249000D03*
X0244000Y0256000D03*
X0246000Y0266500D03*
X0246000Y0277000D03*
X0246000Y0292000D03*
X0237000Y0300000D03*
X0225000Y0304000D03*
X0218000Y0300000D03*
X0225000Y0319000D03*
X0234000Y0313000D03*
X0248000Y0342000D03*
X0259000Y0309000D03*
X0269000Y0295000D03*
X0263000Y0274000D03*
X0276000Y0266000D03*
X0264000Y0254500D03*
X0273000Y0247000D03*
X0273500Y0251000D03*
X0283000Y0246500D03*
X0276000Y0235000D03*
X0274000Y0231000D03*
X0273500Y0222500D03*
X0275500Y0219000D03*
X0280500Y0211500D03*
X0282500Y0208000D03*
X0271000Y0209000D03*
X0259000Y0210500D03*
X0269000Y0187500D03*
X0293000Y0209500D03*
X0294500Y0212500D03*
X0287500Y0233000D03*
X0293000Y0268000D03*
X0304000Y0268000D03*
X0309000Y0314000D03*
X0308000Y0342000D03*
X0278000Y0342000D03*
X0220000Y0278500D03*
X0226500Y0271500D03*
X0215500Y0265500D03*
X0211000Y0262000D03*
X0200000Y0267000D03*
X0203500Y0231500D03*
X0209000Y0227000D03*
X0212500Y0230500D03*
X0211500Y0212500D03*
X0226500Y0212000D03*
X0229000Y0189000D03*
X0215000Y0176000D03*
X0207000Y0167000D03*
X0210000Y0162500D03*
X0225500Y0159500D03*
X0229500Y0159500D03*
X0238000Y0165000D03*
X0255000Y0157500D03*
X0261500Y0147000D03*
X0268000Y0132000D03*
X0268000Y0122000D03*
X0253000Y0122000D03*
X0260000Y0102000D03*
X0243000Y0102000D03*
X0214500Y0122500D03*
X0203500Y0136000D03*
X0196500Y0122000D03*
X0193000Y0100000D03*
X0208000Y0100000D03*
X0186000Y0084000D03*
X0186000Y0067000D03*
X0148000Y0103500D03*
X0148000Y0112500D03*
X0148000Y0122000D03*
X0148000Y0132000D03*
X0133000Y0132000D03*
X0120000Y0132000D03*
X0109000Y0126500D03*
X0084000Y0137000D03*
X0093000Y0157000D03*
X0086500Y0165000D03*
X0072000Y0174000D03*
X0058000Y0193500D03*
X0072000Y0219000D03*
X0069000Y0238500D03*
X0057000Y0245000D03*
X0078500Y0276500D03*
X0060000Y0300000D03*
X0077000Y0317500D03*
X0080500Y0336500D03*
X0068000Y0342000D03*
X0048000Y0342000D03*
X0043000Y0322000D03*
X0033000Y0307000D03*
X0023000Y0327000D03*
X0033000Y0282000D03*
X0023000Y0242000D03*
X0023000Y0192000D03*
X0030000Y0149000D03*
X0038000Y0122000D03*
X0058000Y0134000D03*
X0020500Y0087000D03*
X0023000Y0067000D03*
X0043000Y0067000D03*
X0063000Y0067000D03*
X0083000Y0067000D03*
X0103000Y0067000D03*
X0123000Y0067000D03*
X0143000Y0067000D03*
X0112000Y0099000D03*
X0135500Y0153000D03*
X0148000Y0153000D03*
X0160500Y0153000D03*
X0163000Y0132000D03*
X0170500Y0122000D03*
X0198000Y0149500D03*
X0163000Y0227000D03*
X0156000Y0237000D03*
X0148000Y0227000D03*
X0135000Y0248000D03*
X0135000Y0262000D03*
X0144500Y0262000D03*
X0148000Y0272000D03*
X0148000Y0292000D03*
X0160500Y0292000D03*
X0165000Y0321500D03*
X0178000Y0336000D03*
X0188000Y0336000D03*
X0201500Y0319500D03*
X0154000Y0340500D03*
X0149000Y0323500D03*
X0133000Y0323000D03*
X0133000Y0339500D03*
X0093000Y0187000D03*
X0278000Y0097000D03*
X0278000Y0067000D03*
X0308000Y0067000D03*
X0308000Y0097000D03*
X0303500Y0163000D03*
D21*
X0288000Y0139000D02*
X0288000Y0127000D01*
X0278000Y0127000D02*
X0278000Y0140000D01*
X0259000Y0159000D01*
X0259000Y0165500D01*
X0262000Y0168500D01*
X0262000Y0195000D01*
X0243500Y0213500D01*
X0240500Y0213500D01*
X0237000Y0217000D01*
X0200000Y0217000D01*
X0231250Y0256750D02*
X0214000Y0274000D01*
X0214000Y0277000D01*
X0213000Y0339500D01*
X0171500Y0339500D01*
X0167000Y0335000D01*
X0167000Y0330000D01*
X0162000Y0325000D01*
X0156000Y0325000D01*
X0149000Y0332000D01*
X0139000Y0332000D02*
X0123000Y0332000D01*
X0113000Y0332000D01*
X0103000Y0332000D01*
X0159000Y0332000D02*
X0170000Y0343000D01*
X0210000Y0343000D01*
X0211000Y0344000D01*
X0215000Y0344000D01*
X0217000Y0342000D01*
X0217000Y0320000D01*
X0231000Y0306000D01*
X0249437Y0300937D02*
X0231000Y0283000D01*
X0228500Y0283000D01*
X0249437Y0300937D02*
X0303000Y0300937D01*
X0303000Y0293063D02*
X0308187Y0288063D01*
X0308000Y0287000D01*
X0308000Y0282000D01*
X0301685Y0263000D02*
X0290000Y0263000D01*
X0279000Y0252000D01*
X0279000Y0247000D01*
X0270000Y0238000D01*
X0263000Y0238000D01*
X0256654Y0231654D01*
X0299000Y0226000D02*
X0302000Y0226000D01*
X0306937Y0257748D02*
X0301685Y0263000D01*
X0222500Y0167500D02*
X0215000Y0160000D01*
X0264000Y0163000D02*
X0288000Y0139000D01*
X0104000Y0131000D02*
X0083000Y0152000D01*
X0073000Y0152000D01*
X0068000Y0157000D01*
X0068000Y0158250D02*
X0069250Y0157000D01*
X0068000Y0158250D02*
X0068000Y0227000D01*
D22*
X0245000Y0217500D02*
X0245000Y0215500D01*
X0265000Y0195500D01*
X0265000Y0168000D01*
X0298000Y0135000D01*
X0298000Y0127000D01*
X0308000Y0144500D02*
X0291000Y0161500D01*
X0291000Y0185000D01*
X0287000Y0189000D01*
X0298000Y0192000D02*
X0303000Y0197000D01*
X0303000Y0216000D01*
X0299000Y0220000D01*
X0294000Y0220000D01*
X0284000Y0230000D01*
X0284000Y0235000D01*
X0291000Y0242000D01*
X0299063Y0242000D01*
X0299063Y0249874D02*
X0295874Y0249874D01*
X0282000Y0236000D01*
X0282000Y0229000D01*
X0293000Y0218000D01*
X0298000Y0218000D01*
X0300500Y0215500D01*
X0300500Y0204500D01*
X0298000Y0202000D01*
X0293000Y0204500D02*
X0298000Y0209500D01*
X0298000Y0214000D01*
X0296000Y0216000D01*
X0292000Y0216000D01*
X0280000Y0228000D01*
X0280000Y0237000D01*
X0288000Y0245000D01*
X0288000Y0255000D01*
X0307000Y0242000D02*
X0311000Y0238000D01*
X0311000Y0206000D01*
X0313000Y0204000D01*
X0313000Y0197000D01*
X0308000Y0192000D01*
X0293000Y0204500D02*
X0293000Y0165000D01*
X0303500Y0154500D01*
X0308000Y0154500D01*
D23*
X0200000Y0217000D02*
X0190000Y0217000D01*
X0188000Y0219000D01*
X0188000Y0229500D01*
X0178000Y0219500D02*
X0180500Y0217000D01*
X0178000Y0219500D02*
X0178000Y0264500D01*
X0175500Y0267000D01*
X0170000Y0267000D01*
X0155000Y0282000D01*
X0123000Y0282000D01*
X0103000Y0272000D02*
X0063000Y0272000D01*
X0058000Y0267000D01*
X0053000Y0262000D02*
X0103000Y0262000D01*
X0083000Y0287000D02*
X0073000Y0277000D01*
X0058000Y0277000D01*
X0048000Y0267000D01*
X0053000Y0262000D01*
X0083000Y0287000D02*
X0083000Y0295750D01*
X0218000Y0309000D02*
X0218000Y0313000D01*
D24*
X0231000Y0306000D03*
M02*
