G75*
%MOIN*%
%OFA0B0*%
%FSLAX25Y25*%
%IPPOS*%
%LPD*%
%AMOC8*
5,1,8,0,0,1.08239X$1,22.5*
%
%ADD10C,0.00000*%
D10*
X0013000Y0057000D02*
X0013000Y0350500D01*
X0316500Y0350500D01*
X0316500Y0057000D01*
X0013000Y0057000D01*
X0030913Y0207000D02*
X0030915Y0207174D01*
X0030922Y0207348D01*
X0030932Y0207521D01*
X0030947Y0207695D01*
X0030966Y0207868D01*
X0030990Y0208040D01*
X0031017Y0208212D01*
X0031049Y0208383D01*
X0031085Y0208553D01*
X0031125Y0208722D01*
X0031170Y0208890D01*
X0031218Y0209057D01*
X0031271Y0209223D01*
X0031327Y0209388D01*
X0031388Y0209551D01*
X0031452Y0209712D01*
X0031521Y0209872D01*
X0031593Y0210030D01*
X0031670Y0210186D01*
X0031750Y0210341D01*
X0031834Y0210493D01*
X0031921Y0210643D01*
X0032013Y0210792D01*
X0032107Y0210937D01*
X0032206Y0211081D01*
X0032308Y0211222D01*
X0032413Y0211360D01*
X0032522Y0211496D01*
X0032634Y0211629D01*
X0032749Y0211759D01*
X0032867Y0211887D01*
X0032989Y0212011D01*
X0033113Y0212133D01*
X0033241Y0212251D01*
X0033371Y0212366D01*
X0033504Y0212478D01*
X0033640Y0212587D01*
X0033778Y0212692D01*
X0033919Y0212794D01*
X0034063Y0212893D01*
X0034208Y0212987D01*
X0034357Y0213079D01*
X0034507Y0213166D01*
X0034659Y0213250D01*
X0034814Y0213330D01*
X0034970Y0213407D01*
X0035128Y0213479D01*
X0035288Y0213548D01*
X0035449Y0213612D01*
X0035612Y0213673D01*
X0035777Y0213729D01*
X0035943Y0213782D01*
X0036110Y0213830D01*
X0036278Y0213875D01*
X0036447Y0213915D01*
X0036617Y0213951D01*
X0036788Y0213983D01*
X0036960Y0214010D01*
X0037132Y0214034D01*
X0037305Y0214053D01*
X0037479Y0214068D01*
X0037652Y0214078D01*
X0037826Y0214085D01*
X0038000Y0214087D01*
X0038174Y0214085D01*
X0038348Y0214078D01*
X0038521Y0214068D01*
X0038695Y0214053D01*
X0038868Y0214034D01*
X0039040Y0214010D01*
X0039212Y0213983D01*
X0039383Y0213951D01*
X0039553Y0213915D01*
X0039722Y0213875D01*
X0039890Y0213830D01*
X0040057Y0213782D01*
X0040223Y0213729D01*
X0040388Y0213673D01*
X0040551Y0213612D01*
X0040712Y0213548D01*
X0040872Y0213479D01*
X0041030Y0213407D01*
X0041186Y0213330D01*
X0041341Y0213250D01*
X0041493Y0213166D01*
X0041643Y0213079D01*
X0041792Y0212987D01*
X0041937Y0212893D01*
X0042081Y0212794D01*
X0042222Y0212692D01*
X0042360Y0212587D01*
X0042496Y0212478D01*
X0042629Y0212366D01*
X0042759Y0212251D01*
X0042887Y0212133D01*
X0043011Y0212011D01*
X0043133Y0211887D01*
X0043251Y0211759D01*
X0043366Y0211629D01*
X0043478Y0211496D01*
X0043587Y0211360D01*
X0043692Y0211222D01*
X0043794Y0211081D01*
X0043893Y0210937D01*
X0043987Y0210792D01*
X0044079Y0210643D01*
X0044166Y0210493D01*
X0044250Y0210341D01*
X0044330Y0210186D01*
X0044407Y0210030D01*
X0044479Y0209872D01*
X0044548Y0209712D01*
X0044612Y0209551D01*
X0044673Y0209388D01*
X0044729Y0209223D01*
X0044782Y0209057D01*
X0044830Y0208890D01*
X0044875Y0208722D01*
X0044915Y0208553D01*
X0044951Y0208383D01*
X0044983Y0208212D01*
X0045010Y0208040D01*
X0045034Y0207868D01*
X0045053Y0207695D01*
X0045068Y0207521D01*
X0045078Y0207348D01*
X0045085Y0207174D01*
X0045087Y0207000D01*
X0045085Y0206826D01*
X0045078Y0206652D01*
X0045068Y0206479D01*
X0045053Y0206305D01*
X0045034Y0206132D01*
X0045010Y0205960D01*
X0044983Y0205788D01*
X0044951Y0205617D01*
X0044915Y0205447D01*
X0044875Y0205278D01*
X0044830Y0205110D01*
X0044782Y0204943D01*
X0044729Y0204777D01*
X0044673Y0204612D01*
X0044612Y0204449D01*
X0044548Y0204288D01*
X0044479Y0204128D01*
X0044407Y0203970D01*
X0044330Y0203814D01*
X0044250Y0203659D01*
X0044166Y0203507D01*
X0044079Y0203357D01*
X0043987Y0203208D01*
X0043893Y0203063D01*
X0043794Y0202919D01*
X0043692Y0202778D01*
X0043587Y0202640D01*
X0043478Y0202504D01*
X0043366Y0202371D01*
X0043251Y0202241D01*
X0043133Y0202113D01*
X0043011Y0201989D01*
X0042887Y0201867D01*
X0042759Y0201749D01*
X0042629Y0201634D01*
X0042496Y0201522D01*
X0042360Y0201413D01*
X0042222Y0201308D01*
X0042081Y0201206D01*
X0041937Y0201107D01*
X0041792Y0201013D01*
X0041643Y0200921D01*
X0041493Y0200834D01*
X0041341Y0200750D01*
X0041186Y0200670D01*
X0041030Y0200593D01*
X0040872Y0200521D01*
X0040712Y0200452D01*
X0040551Y0200388D01*
X0040388Y0200327D01*
X0040223Y0200271D01*
X0040057Y0200218D01*
X0039890Y0200170D01*
X0039722Y0200125D01*
X0039553Y0200085D01*
X0039383Y0200049D01*
X0039212Y0200017D01*
X0039040Y0199990D01*
X0038868Y0199966D01*
X0038695Y0199947D01*
X0038521Y0199932D01*
X0038348Y0199922D01*
X0038174Y0199915D01*
X0038000Y0199913D01*
X0037826Y0199915D01*
X0037652Y0199922D01*
X0037479Y0199932D01*
X0037305Y0199947D01*
X0037132Y0199966D01*
X0036960Y0199990D01*
X0036788Y0200017D01*
X0036617Y0200049D01*
X0036447Y0200085D01*
X0036278Y0200125D01*
X0036110Y0200170D01*
X0035943Y0200218D01*
X0035777Y0200271D01*
X0035612Y0200327D01*
X0035449Y0200388D01*
X0035288Y0200452D01*
X0035128Y0200521D01*
X0034970Y0200593D01*
X0034814Y0200670D01*
X0034659Y0200750D01*
X0034507Y0200834D01*
X0034357Y0200921D01*
X0034208Y0201013D01*
X0034063Y0201107D01*
X0033919Y0201206D01*
X0033778Y0201308D01*
X0033640Y0201413D01*
X0033504Y0201522D01*
X0033371Y0201634D01*
X0033241Y0201749D01*
X0033113Y0201867D01*
X0032989Y0201989D01*
X0032867Y0202113D01*
X0032749Y0202241D01*
X0032634Y0202371D01*
X0032522Y0202504D01*
X0032413Y0202640D01*
X0032308Y0202778D01*
X0032206Y0202919D01*
X0032107Y0203063D01*
X0032013Y0203208D01*
X0031921Y0203357D01*
X0031834Y0203507D01*
X0031750Y0203659D01*
X0031670Y0203814D01*
X0031593Y0203970D01*
X0031521Y0204128D01*
X0031452Y0204288D01*
X0031388Y0204449D01*
X0031327Y0204612D01*
X0031271Y0204777D01*
X0031218Y0204943D01*
X0031170Y0205110D01*
X0031125Y0205278D01*
X0031085Y0205447D01*
X0031049Y0205617D01*
X0031017Y0205788D01*
X0030990Y0205960D01*
X0030966Y0206132D01*
X0030947Y0206305D01*
X0030932Y0206479D01*
X0030922Y0206652D01*
X0030915Y0206826D01*
X0030913Y0207000D01*
X0285913Y0327000D02*
X0285915Y0327174D01*
X0285922Y0327348D01*
X0285932Y0327521D01*
X0285947Y0327695D01*
X0285966Y0327868D01*
X0285990Y0328040D01*
X0286017Y0328212D01*
X0286049Y0328383D01*
X0286085Y0328553D01*
X0286125Y0328722D01*
X0286170Y0328890D01*
X0286218Y0329057D01*
X0286271Y0329223D01*
X0286327Y0329388D01*
X0286388Y0329551D01*
X0286452Y0329712D01*
X0286521Y0329872D01*
X0286593Y0330030D01*
X0286670Y0330186D01*
X0286750Y0330341D01*
X0286834Y0330493D01*
X0286921Y0330643D01*
X0287013Y0330792D01*
X0287107Y0330937D01*
X0287206Y0331081D01*
X0287308Y0331222D01*
X0287413Y0331360D01*
X0287522Y0331496D01*
X0287634Y0331629D01*
X0287749Y0331759D01*
X0287867Y0331887D01*
X0287989Y0332011D01*
X0288113Y0332133D01*
X0288241Y0332251D01*
X0288371Y0332366D01*
X0288504Y0332478D01*
X0288640Y0332587D01*
X0288778Y0332692D01*
X0288919Y0332794D01*
X0289063Y0332893D01*
X0289208Y0332987D01*
X0289357Y0333079D01*
X0289507Y0333166D01*
X0289659Y0333250D01*
X0289814Y0333330D01*
X0289970Y0333407D01*
X0290128Y0333479D01*
X0290288Y0333548D01*
X0290449Y0333612D01*
X0290612Y0333673D01*
X0290777Y0333729D01*
X0290943Y0333782D01*
X0291110Y0333830D01*
X0291278Y0333875D01*
X0291447Y0333915D01*
X0291617Y0333951D01*
X0291788Y0333983D01*
X0291960Y0334010D01*
X0292132Y0334034D01*
X0292305Y0334053D01*
X0292479Y0334068D01*
X0292652Y0334078D01*
X0292826Y0334085D01*
X0293000Y0334087D01*
X0293174Y0334085D01*
X0293348Y0334078D01*
X0293521Y0334068D01*
X0293695Y0334053D01*
X0293868Y0334034D01*
X0294040Y0334010D01*
X0294212Y0333983D01*
X0294383Y0333951D01*
X0294553Y0333915D01*
X0294722Y0333875D01*
X0294890Y0333830D01*
X0295057Y0333782D01*
X0295223Y0333729D01*
X0295388Y0333673D01*
X0295551Y0333612D01*
X0295712Y0333548D01*
X0295872Y0333479D01*
X0296030Y0333407D01*
X0296186Y0333330D01*
X0296341Y0333250D01*
X0296493Y0333166D01*
X0296643Y0333079D01*
X0296792Y0332987D01*
X0296937Y0332893D01*
X0297081Y0332794D01*
X0297222Y0332692D01*
X0297360Y0332587D01*
X0297496Y0332478D01*
X0297629Y0332366D01*
X0297759Y0332251D01*
X0297887Y0332133D01*
X0298011Y0332011D01*
X0298133Y0331887D01*
X0298251Y0331759D01*
X0298366Y0331629D01*
X0298478Y0331496D01*
X0298587Y0331360D01*
X0298692Y0331222D01*
X0298794Y0331081D01*
X0298893Y0330937D01*
X0298987Y0330792D01*
X0299079Y0330643D01*
X0299166Y0330493D01*
X0299250Y0330341D01*
X0299330Y0330186D01*
X0299407Y0330030D01*
X0299479Y0329872D01*
X0299548Y0329712D01*
X0299612Y0329551D01*
X0299673Y0329388D01*
X0299729Y0329223D01*
X0299782Y0329057D01*
X0299830Y0328890D01*
X0299875Y0328722D01*
X0299915Y0328553D01*
X0299951Y0328383D01*
X0299983Y0328212D01*
X0300010Y0328040D01*
X0300034Y0327868D01*
X0300053Y0327695D01*
X0300068Y0327521D01*
X0300078Y0327348D01*
X0300085Y0327174D01*
X0300087Y0327000D01*
X0300085Y0326826D01*
X0300078Y0326652D01*
X0300068Y0326479D01*
X0300053Y0326305D01*
X0300034Y0326132D01*
X0300010Y0325960D01*
X0299983Y0325788D01*
X0299951Y0325617D01*
X0299915Y0325447D01*
X0299875Y0325278D01*
X0299830Y0325110D01*
X0299782Y0324943D01*
X0299729Y0324777D01*
X0299673Y0324612D01*
X0299612Y0324449D01*
X0299548Y0324288D01*
X0299479Y0324128D01*
X0299407Y0323970D01*
X0299330Y0323814D01*
X0299250Y0323659D01*
X0299166Y0323507D01*
X0299079Y0323357D01*
X0298987Y0323208D01*
X0298893Y0323063D01*
X0298794Y0322919D01*
X0298692Y0322778D01*
X0298587Y0322640D01*
X0298478Y0322504D01*
X0298366Y0322371D01*
X0298251Y0322241D01*
X0298133Y0322113D01*
X0298011Y0321989D01*
X0297887Y0321867D01*
X0297759Y0321749D01*
X0297629Y0321634D01*
X0297496Y0321522D01*
X0297360Y0321413D01*
X0297222Y0321308D01*
X0297081Y0321206D01*
X0296937Y0321107D01*
X0296792Y0321013D01*
X0296643Y0320921D01*
X0296493Y0320834D01*
X0296341Y0320750D01*
X0296186Y0320670D01*
X0296030Y0320593D01*
X0295872Y0320521D01*
X0295712Y0320452D01*
X0295551Y0320388D01*
X0295388Y0320327D01*
X0295223Y0320271D01*
X0295057Y0320218D01*
X0294890Y0320170D01*
X0294722Y0320125D01*
X0294553Y0320085D01*
X0294383Y0320049D01*
X0294212Y0320017D01*
X0294040Y0319990D01*
X0293868Y0319966D01*
X0293695Y0319947D01*
X0293521Y0319932D01*
X0293348Y0319922D01*
X0293174Y0319915D01*
X0293000Y0319913D01*
X0292826Y0319915D01*
X0292652Y0319922D01*
X0292479Y0319932D01*
X0292305Y0319947D01*
X0292132Y0319966D01*
X0291960Y0319990D01*
X0291788Y0320017D01*
X0291617Y0320049D01*
X0291447Y0320085D01*
X0291278Y0320125D01*
X0291110Y0320170D01*
X0290943Y0320218D01*
X0290777Y0320271D01*
X0290612Y0320327D01*
X0290449Y0320388D01*
X0290288Y0320452D01*
X0290128Y0320521D01*
X0289970Y0320593D01*
X0289814Y0320670D01*
X0289659Y0320750D01*
X0289507Y0320834D01*
X0289357Y0320921D01*
X0289208Y0321013D01*
X0289063Y0321107D01*
X0288919Y0321206D01*
X0288778Y0321308D01*
X0288640Y0321413D01*
X0288504Y0321522D01*
X0288371Y0321634D01*
X0288241Y0321749D01*
X0288113Y0321867D01*
X0287989Y0321989D01*
X0287867Y0322113D01*
X0287749Y0322241D01*
X0287634Y0322371D01*
X0287522Y0322504D01*
X0287413Y0322640D01*
X0287308Y0322778D01*
X0287206Y0322919D01*
X0287107Y0323063D01*
X0287013Y0323208D01*
X0286921Y0323357D01*
X0286834Y0323507D01*
X0286750Y0323659D01*
X0286670Y0323814D01*
X0286593Y0323970D01*
X0286521Y0324128D01*
X0286452Y0324288D01*
X0286388Y0324449D01*
X0286327Y0324612D01*
X0286271Y0324777D01*
X0286218Y0324943D01*
X0286170Y0325110D01*
X0286125Y0325278D01*
X0286085Y0325447D01*
X0286049Y0325617D01*
X0286017Y0325788D01*
X0285990Y0325960D01*
X0285966Y0326132D01*
X0285947Y0326305D01*
X0285932Y0326479D01*
X0285922Y0326652D01*
X0285915Y0326826D01*
X0285913Y0327000D01*
X0285913Y0082000D02*
X0285915Y0082174D01*
X0285922Y0082348D01*
X0285932Y0082521D01*
X0285947Y0082695D01*
X0285966Y0082868D01*
X0285990Y0083040D01*
X0286017Y0083212D01*
X0286049Y0083383D01*
X0286085Y0083553D01*
X0286125Y0083722D01*
X0286170Y0083890D01*
X0286218Y0084057D01*
X0286271Y0084223D01*
X0286327Y0084388D01*
X0286388Y0084551D01*
X0286452Y0084712D01*
X0286521Y0084872D01*
X0286593Y0085030D01*
X0286670Y0085186D01*
X0286750Y0085341D01*
X0286834Y0085493D01*
X0286921Y0085643D01*
X0287013Y0085792D01*
X0287107Y0085937D01*
X0287206Y0086081D01*
X0287308Y0086222D01*
X0287413Y0086360D01*
X0287522Y0086496D01*
X0287634Y0086629D01*
X0287749Y0086759D01*
X0287867Y0086887D01*
X0287989Y0087011D01*
X0288113Y0087133D01*
X0288241Y0087251D01*
X0288371Y0087366D01*
X0288504Y0087478D01*
X0288640Y0087587D01*
X0288778Y0087692D01*
X0288919Y0087794D01*
X0289063Y0087893D01*
X0289208Y0087987D01*
X0289357Y0088079D01*
X0289507Y0088166D01*
X0289659Y0088250D01*
X0289814Y0088330D01*
X0289970Y0088407D01*
X0290128Y0088479D01*
X0290288Y0088548D01*
X0290449Y0088612D01*
X0290612Y0088673D01*
X0290777Y0088729D01*
X0290943Y0088782D01*
X0291110Y0088830D01*
X0291278Y0088875D01*
X0291447Y0088915D01*
X0291617Y0088951D01*
X0291788Y0088983D01*
X0291960Y0089010D01*
X0292132Y0089034D01*
X0292305Y0089053D01*
X0292479Y0089068D01*
X0292652Y0089078D01*
X0292826Y0089085D01*
X0293000Y0089087D01*
X0293174Y0089085D01*
X0293348Y0089078D01*
X0293521Y0089068D01*
X0293695Y0089053D01*
X0293868Y0089034D01*
X0294040Y0089010D01*
X0294212Y0088983D01*
X0294383Y0088951D01*
X0294553Y0088915D01*
X0294722Y0088875D01*
X0294890Y0088830D01*
X0295057Y0088782D01*
X0295223Y0088729D01*
X0295388Y0088673D01*
X0295551Y0088612D01*
X0295712Y0088548D01*
X0295872Y0088479D01*
X0296030Y0088407D01*
X0296186Y0088330D01*
X0296341Y0088250D01*
X0296493Y0088166D01*
X0296643Y0088079D01*
X0296792Y0087987D01*
X0296937Y0087893D01*
X0297081Y0087794D01*
X0297222Y0087692D01*
X0297360Y0087587D01*
X0297496Y0087478D01*
X0297629Y0087366D01*
X0297759Y0087251D01*
X0297887Y0087133D01*
X0298011Y0087011D01*
X0298133Y0086887D01*
X0298251Y0086759D01*
X0298366Y0086629D01*
X0298478Y0086496D01*
X0298587Y0086360D01*
X0298692Y0086222D01*
X0298794Y0086081D01*
X0298893Y0085937D01*
X0298987Y0085792D01*
X0299079Y0085643D01*
X0299166Y0085493D01*
X0299250Y0085341D01*
X0299330Y0085186D01*
X0299407Y0085030D01*
X0299479Y0084872D01*
X0299548Y0084712D01*
X0299612Y0084551D01*
X0299673Y0084388D01*
X0299729Y0084223D01*
X0299782Y0084057D01*
X0299830Y0083890D01*
X0299875Y0083722D01*
X0299915Y0083553D01*
X0299951Y0083383D01*
X0299983Y0083212D01*
X0300010Y0083040D01*
X0300034Y0082868D01*
X0300053Y0082695D01*
X0300068Y0082521D01*
X0300078Y0082348D01*
X0300085Y0082174D01*
X0300087Y0082000D01*
X0300085Y0081826D01*
X0300078Y0081652D01*
X0300068Y0081479D01*
X0300053Y0081305D01*
X0300034Y0081132D01*
X0300010Y0080960D01*
X0299983Y0080788D01*
X0299951Y0080617D01*
X0299915Y0080447D01*
X0299875Y0080278D01*
X0299830Y0080110D01*
X0299782Y0079943D01*
X0299729Y0079777D01*
X0299673Y0079612D01*
X0299612Y0079449D01*
X0299548Y0079288D01*
X0299479Y0079128D01*
X0299407Y0078970D01*
X0299330Y0078814D01*
X0299250Y0078659D01*
X0299166Y0078507D01*
X0299079Y0078357D01*
X0298987Y0078208D01*
X0298893Y0078063D01*
X0298794Y0077919D01*
X0298692Y0077778D01*
X0298587Y0077640D01*
X0298478Y0077504D01*
X0298366Y0077371D01*
X0298251Y0077241D01*
X0298133Y0077113D01*
X0298011Y0076989D01*
X0297887Y0076867D01*
X0297759Y0076749D01*
X0297629Y0076634D01*
X0297496Y0076522D01*
X0297360Y0076413D01*
X0297222Y0076308D01*
X0297081Y0076206D01*
X0296937Y0076107D01*
X0296792Y0076013D01*
X0296643Y0075921D01*
X0296493Y0075834D01*
X0296341Y0075750D01*
X0296186Y0075670D01*
X0296030Y0075593D01*
X0295872Y0075521D01*
X0295712Y0075452D01*
X0295551Y0075388D01*
X0295388Y0075327D01*
X0295223Y0075271D01*
X0295057Y0075218D01*
X0294890Y0075170D01*
X0294722Y0075125D01*
X0294553Y0075085D01*
X0294383Y0075049D01*
X0294212Y0075017D01*
X0294040Y0074990D01*
X0293868Y0074966D01*
X0293695Y0074947D01*
X0293521Y0074932D01*
X0293348Y0074922D01*
X0293174Y0074915D01*
X0293000Y0074913D01*
X0292826Y0074915D01*
X0292652Y0074922D01*
X0292479Y0074932D01*
X0292305Y0074947D01*
X0292132Y0074966D01*
X0291960Y0074990D01*
X0291788Y0075017D01*
X0291617Y0075049D01*
X0291447Y0075085D01*
X0291278Y0075125D01*
X0291110Y0075170D01*
X0290943Y0075218D01*
X0290777Y0075271D01*
X0290612Y0075327D01*
X0290449Y0075388D01*
X0290288Y0075452D01*
X0290128Y0075521D01*
X0289970Y0075593D01*
X0289814Y0075670D01*
X0289659Y0075750D01*
X0289507Y0075834D01*
X0289357Y0075921D01*
X0289208Y0076013D01*
X0289063Y0076107D01*
X0288919Y0076206D01*
X0288778Y0076308D01*
X0288640Y0076413D01*
X0288504Y0076522D01*
X0288371Y0076634D01*
X0288241Y0076749D01*
X0288113Y0076867D01*
X0287989Y0076989D01*
X0287867Y0077113D01*
X0287749Y0077241D01*
X0287634Y0077371D01*
X0287522Y0077504D01*
X0287413Y0077640D01*
X0287308Y0077778D01*
X0287206Y0077919D01*
X0287107Y0078063D01*
X0287013Y0078208D01*
X0286921Y0078357D01*
X0286834Y0078507D01*
X0286750Y0078659D01*
X0286670Y0078814D01*
X0286593Y0078970D01*
X0286521Y0079128D01*
X0286452Y0079288D01*
X0286388Y0079449D01*
X0286327Y0079612D01*
X0286271Y0079777D01*
X0286218Y0079943D01*
X0286170Y0080110D01*
X0286125Y0080278D01*
X0286085Y0080447D01*
X0286049Y0080617D01*
X0286017Y0080788D01*
X0285990Y0080960D01*
X0285966Y0081132D01*
X0285947Y0081305D01*
X0285932Y0081479D01*
X0285922Y0081652D01*
X0285915Y0081826D01*
X0285913Y0082000D01*
M02*
