0
SECTION
2
HEADER
9
$INSUNITS
70
1
9
$ACADVER
1
AC1014
9
$HANDSEED
5
FFFF
0
ENDSEC
0
SECTION
2
TABLES
0
TABLE
2
VPORT
5
8
100
AcDbSymbolTable
0
ENDTAB
0
TABLE
2
LTYPE
5
5
100
AcDbSymbolTable
0
LTYPE
5
14
100
AcDbSymbolTableRecord
100
AcDbLinetypeTableRecord
2
BYBLOCK
70
0
0
LTYPE
5
15
100
AcDbSymbolTableRecord
100
AcDbLinetypeTableRecord
2
BYLAYER
70
0
0
ENDTAB
0
TABLE
2
LAYER
5
2
100
AcDbSymbolTable
70
2
0
LAYER
5
50
100
AcDbSymbolTableRecord
100
AcDbLayerTableRecord
2
0
70
0
6
CONTINUOUS
0
ENDTAB
0
TABLE
2
STYLE
5
3
100
AcDbSymbolTable
70
1
0
STYLE
5
11
100
AcDbSymbolTableRecord
100
AcDbTextStyleTableRecord
2
STANDARD
70
0
0
ENDTAB
0
TABLE
2
VIEW
5
6
100
AcDbSymbolTable
70
0
0
ENDTAB
0
TABLE
2
UCS
5
7
100
AcDbSymbolTable
70
0
0
ENDTAB
0
TABLE
2
APPID
5
9
100
AcDbSymbolTable
70
2
0
APPID
5
12
100
AcDbSymbolTableRecord
100
AcDbRegAppTableRecord
2
ACAD
70
0
0
ENDTAB
0
TABLE
2
DIMSTYLE
5
A
100
AcDbSymbolTable
70
1
0
ENDTAB
0
TABLE
2
BLOCK_RECORD
5
1
100
AcDbSymbolTable
70
1
0
BLOCK_RECORD
5
1F
100
AcDbSymbolTableRecord
100
AcDbBlockTableRecord
2
*MODEL_SPACE
0
BLOCK_RECORD
5
1B
100
AcDbSymbolTableRecord
100
AcDbBlockTableRecord
2
*PAPER_SPACE
0
ENDTAB
0
ENDSEC
0
SECTION
2
BLOCKS
0
BLOCK
5
20
100
AcDbEntity
100
AcDbBlockBegin
2
*MODEL_SPACE
0
ENDBLK
5
21
100
AcDbEntity
100
AcDbBlockEnd
0
BLOCK
5
1C
100
AcDbEntity
100
AcDbBlockBegin
2
*PAPER_SPACE
0
ENDBLK
5
1D
100
AcDbEntity
100
AcDbBlockEnd
0
ENDSEC
0
SECTION
2
ENTITIES
0
SPLINE
5
100
100
AcDbEntity
8
0
100
AcDbSpline
70
1064
71
3
72
10
73
6
74
0
42
0.000000001
43
0.0000000001
44
0.0000000001
40
1.2794123421767751
40
1.2794123421767751
40
1.2794123421767751
40
1.2794123421767751
40
1.3047091137088109
40
1.3047091137088109
40
1.3638470769443076
40
1.3638470769443076
40
1.3638470769443076
40
1.3638470769443076
10
1.0543520277072109
20
-1.6235039370078737
30
0
10
1.0510322414169175
20
-1.6235039370078737
30
0
10
1.0470488176823882
20
-1.6234534591887386
30
0
10
1.0359696969122596
20
-1.6232679436374331
30
0
10
1.0266585253589888
20
-1.6230801527327787
30
0
10
1.0188976377952754
20
-1.6230801527327787
30
0
0
LINE
5
101
100
AcDbEntity
8
0
100
AcDbLine
10
1.0543520277072109
20
-1.6235039370078737
30
0
11
1.9188976377952749
21
-1.6235039370078737
31
0
0
SPLINE
5
102
100
AcDbEntity
8
0
100
AcDbSpline
70
1064
71
5
72
26
73
20
74
0
42
0.000000001
43
0.0000000001
44
0.0000000001
40
0.086310571699539401
40
0.086310571699539401
40
0.086310571699539401
40
0.086310571699539401
40
0.086310571699539401
40
0.086310571699539401
40
0.088888888888888892
40
0.10000000000000001
40
0.11111111111111112
40
0.12222222222222223
40
0.13333333333333333
40
0.14444444444444443
40
0.15555555555555553
40
0.16666666666666663
40
0.17777777777777773
40
0.18888888888888883
40
0.19999999999999993
40
0.21111111111111103
40
0.22222222222222213
40
0.23333333333333323
40
0.24356271361911008
40
0.24356271361911008
40
0.24356271361911008
40
0.24356271361911008
40
0.24356271361911008
40
0.24356271361911008
10
-0.73503937007874043
20
-1.6081599828300557
30
0
10
-0.72576326353649534
20
-1.6066565322233399
30
0
10
-0.67658669372596036
20
-1.5984160642530869
30
0
10
-0.58822944713729663
20
-1.5810368606841252
30
0
10
-0.46243590415338637
20
-1.549900354827112
30
0
10
-0.30207847567706914
20
-1.4997219551887513
30
0
10
-0.11856002702781833
20
-1.4308130291388956
30
0
10
0.059696732807514689
20
-1.3558646877397771
30
0
10
0.23329081233571294
20
-1.27754801046564
30
0
10
0.40307011886317068
20
-1.1981118665083601
30
0
10
0.57029888945072016
20
-1.1196657916998431
30
0
10
0.73691044580417664
20
-1.044568133954902
30
0
10
0.90567492903334257
20
-0.97572070631174945
30
0
10
1.080523040472591
20
-0.91702168164921161
30
0
10
1.2664076781761293
20
-0.87335876570501236
30
0
10
1.465029920966167
20
-0.8500526221402448
30
0
10
1.63859027850994
20
-0.85011074684126431
30
0
10
1.77724567408328
20
-0.86163830247163886
30
0
10
1.8724018331899412
20
-0.87424945022066636
30
0
10
1.9188976377952518
20
-0.88143955694348652
30
0
0
LINE
5
103
100
AcDbEntity
8
0
100
AcDbLine
10
-0.73503937007874021
20
-1.6235039370078737
30
0
11
0.48344324788334025
21
-1.6235039370078737
31
0
0
SPLINE
5
104
100
AcDbEntity
8
0
100
AcDbSpline
70
1064
71
3
72
10
73
6
74
0
42
0.000000001
43
0.0000000001
44
0.0000000001
40
1.3638470769443056
40
1.3638470769443056
40
1.3638470769443056
40
1.3638470769443056
40
1.4229850401798021
40
1.4229850401798021
40
1.4482818117118375
40
1.4482818117118375
40
1.4482818117118375
40
1.4482818117118375
10
0.51889763779527553
20
-1.6230801527327792
30
0
10
0.51113675023156213
20
-1.6230801527327792
30
0
10
0.50182557867829147
20
-1.6232679436374331
30
0
10
0.49074645790816296
20
-1.6234534591887386
30
0
10
0.48676303417363365
20
-1.6235039370078737
30
0
10
0.48344324788334037
20
-1.6235039370078737
30
0
0
LINE
5
105
100
AcDbEntity
8
0
100
AcDbLine
10
0.51889763779527553
20
-1.6230801527327792
30
0
11
1.0188976377952752
21
-1.6230801527327792
31
0
0
SPLINE
5
106
100
AcDbEntity
8
0
100
AcDbSpline
70
1064
71
5
72
81
73
75
74
0
42
0.000000001
43
0.0000000001
44
0.0000000001
40
0
40
0
40
0
40
0
40
0
40
0
40
0.014285714285714285
40
0.028571428571428571
40
0.042857142857142858
40
0.057142857142857141
40
0.071428571428571425
40
0.085714285714285715
40
0.10000000000000001
40
0.1142857142857143
40
0.12857142857142859
40
0.14285714285714288
40
0.15714285714285717
40
0.17142857142857146
40
0.18571428571428575
40
0.20000000000000004
40
0.21428571428571433
40
0.22857142857142862
40
0.24285714285714291
40
0.25714285714285717
40
0.27142857142857146
40
0.28571428571428575
40
0.30000000000000004
40
0.31428571428571433
40
0.32857142857142863
40
0.34285714285714292
40
0.35714285714285721
40
0.3714285714285715
40
0.38571428571428579
40
0.40000000000000008
40
0.41428571428571437
40
0.42857142857142866
40
0.44285714285714295
40
0.45714285714285724
40
0.47142857142857153
40
0.48571428571428582
40
0.50000000000000011
40
0.51428571428571435
40
0.52857142857142858
40
0.54285714285714282
40
0.55714285714285705
40
0.57142857142857129
40
0.58571428571428552
40
0.59999999999999976
40
0.61428571428571399
40
0.62857142857142823
40
0.64285714285714246
40
0.6571428571428567
40
0.67142857142857093
40
0.68571428571428517
40
0.6999999999999994
40
0.71428571428571364
40
0.72857142857142787
40
0.74285714285714211
40
0.75714285714285634
40
0.77142857142857058
40
0.78571428571428481
40
0.79999999999999905
40
0.81428571428571328
40
0.82857142857142752
40
0.84285714285714175
40
0.85714285714285599
40
0.87142857142857022
40
0.88571428571428445
40
0.89999999999999869
40
0.91428571428571292
40
0.92857142857142716
40
0.94285714285714139
40
0.95714285714285563
40
0.97142857142856986
40
0.9857142857142841
40
1
40
1
40
1
40
1
40
1
40
1
10
0.99629313052893886
20
1.3051462866044494
30
0
10
0.99624632261562651
20
1.3057399504654814
30
0
10
0.99714231805652398
20
1.3077930523993557
30
0
10
1.0014555418480211
20
1.3134575624649518
30
0
10
1.0128789965975424
20
1.3257912606060318
30
0
10
1.0349690698786735
20
1.3470273336544387
30
0
10
1.0626046463649395
20
1.3712680359306852
30
0
10
1.0932563973010947
20
1.3955493071863656
30
0
10
1.1244850548464371
20
1.4172663345110399
30
0
10
1.1543031135785673
20
1.4346966157397356
30
0
10
1.1815174408852429
20
1.4474863750514613
30
0
10
1.2057194291960858
20
1.4562089599380326
30
0
10
1.2272666732138795
20
1.4619665988120949
30
0
10
1.247313723551573
20
1.4659621923550741
30
0
10
1.2677189434623204
20
1.4691171432862298
30
0
10
1.2913102883529874
20
1.4715939266998044
30
0
10
1.3190601562138122
20
1.4724368226214311
30
0
10
1.3507667282685896
20
1.4701651757106897
30
0
10
1.3852803343193647
20
1.463170672114662
30
0
10
1.4208938853252684
20
1.4501919302355606
30
0
10
1.4556631561571376
20
1.4307561317350648
30
0
10
1.4877563220819539
20
1.4056364673843373
30
0
10
1.515791913333139
20
1.3773030527052401
30
0
10
1.5388300237177044
20
1.3491107891674059
30
0
10
1.5563657549274432
20
1.3244691699378712
30
0
10
1.5683137529284474
20
1.3060514225334741
30
0
10
1.5750171787604734
20
1.2949134280906511
30
0
10
1.5771998754916883
20
1.2898202714495441
30
0
10
1.576066275445855
20
1.286031995052761
30
0
10
1.5722275310826579
20
1.2784872265680121
30
0
10
1.5644994193160799
20
1.2655972053497029
30
0
10
1.550983805729157
20
1.2480710019147059
30
0
10
1.5300781205669831
20
1.2279752759876861
30
0
10
1.5014709232354391
20
1.2077289134048712
30
0
10
1.4672565764370398
20
1.1890567486155454
30
0
10
1.4312198102196132
20
1.1730652423735743
30
0
10
1.3979398965784839
20
1.1604328879903052
30
0
10
1.371981871892642
20
1.1515521381741631
30
0
10
1.3570048437228703
20
1.1467049800667688
30
0
10
1.3550134841424379
20
1.1461919229863364
30
0
10
1.365270654026979
20
1.150561863331214
30
0
10
1.384768143057497
20
1.160380055585025
30
0
10
1.4094904941652724
20
1.1757541972259902
30
0
10
1.435411441065171
20
1.1959527349454886
30
0
10
1.4596455542529478
20
1.218940593276437
30
0
10
1.4802996982029786
20
1.2420334946153064
30
0
10
1.4962856681560133
20
1.2625686925538024
30
0
10
1.5071452561184451
20
1.2786270030416351
30
0
10
1.5128748858699659
20
1.2896044912482361
30
0
10
1.513742077246615
20
1.2971650888572817
30
0
10
1.5101371604011857
20
1.3049247908586363
30
0
10
1.5024796667079803
20
1.3159364214316223
30
0
10
1.491119749277801
20
1.3308389446620572
30
0
10
1.4763772172378111
20
1.3486379873733676
30
0
10
1.4585742138289384
20
1.3674546023621432
30
0
10
1.4380651021201947
20
1.385222796146012
30
0
10
1.4152806620100866
20
1.4005487883408856
30
0
10
1.3907052331192529
20
1.4128479384806281
30
0
10
1.3648104964094254
20
1.4220241074694007
30
0
10
1.33800333425828
20
1.4282899224174821
30
0
10
1.3105657233121499
20
1.4319249432252463
30
0
10
1.2826027848148167
20
1.4330709273619187
30
0
10
1.2539739612678895
20
1.4314835049024075
30
0
10
1.2244236757416282
20
1.4267032620563822
30
0
10
1.1937338396290262
20
1.4182694406560541
30
0
10
1.1618652436840595
20
1.4059141405347211
30
0
10
1.1291112937231871
20
1.3897747067446085
30
0
10
1.0962295560333688
20
1.3705761857647982
30
0
10
1.0646250714429011
20
1.349881873583451
30
0
10
1.0363817398449058
20
1.3301449760073023
30
0
10
1.0138085410539175
20
1.314125741207447
30
0
10
1.0020164431505869
20
1.3063585270712146
30
0
10
0.99742316553639809
20
1.3042310692331625
30
0
10
0.99633993844225088
20
1.3045526227434174
30
0
10
0.99629313052893886
20
1.3051462866044494
30
0
0
LINE
5
107
100
AcDbEntity
8
0
100
AcDbLine
10
1.2006745314382443
20
1.4587853056446258
30
0
11
1.3149276551635687
21
1.4761224737602583
31
0
0
LWPOLYLINE
5
108
100
AcDbEntity
8
0
100
AcDbPolyline
90
4
70
1
43
0.0
10
0.63464593396695945
20
1.3413670315332276
10
0.041262171186822544
20
1.341367031533228
10
0.041262171186822544
20
1.5913670315332276
10
0.63464593396695945
20
1.5913670315332276
0
LWPOLYLINE
5
109
100
AcDbEntity
8
0
100
AcDbPolyline
90
4
70
1
43
0.0
10
0.041262171186822544
20
1.0913670219589384
10
0.041262171186822544
20
1.3413670219589386
10
0.91076900336969913
20
1.3413670219589382
10
0.91076900336969902
20
1.0913670219589382
0
SPLINE
5
110
100
AcDbEntity
8
0
100
AcDbSpline
70
1064
71
5
72
76
73
70
74
0
42
0.000000001
43
0.0000000001
44
0.0000000001
40
0
40
0
40
0
40
0
40
0
40
0
40
0.015384615384615385
40
0.030769230769230771
40
0.046153846153846156
40
0.061538461538461542
40
0.076923076923076927
40
0.092307692307692313
40
0.1076923076923077
40
0.12307692307692308
40
0.13846153846153847
40
0.15384615384615385
40
0.16923076923076924
40
0.18461538461538463
40
0.20000000000000001
40
0.2153846153846154
40
0.23076923076923078
40
0.24615384615384617
40
0.26153846153846155
40
0.27692307692307694
40
0.29230769230769232
40
0.30769230769230771
40
0.32307692307692309
40
0.33846153846153848
40
0.35384615384615387
40
0.36923076923076925
40
0.38461538461538464
40
0.40000000000000002
40
0.41538461538461541
40
0.43076923076923079
40
0.44615384615384618
40
0.46153846153846156
40
0.47692307692307695
40
0.49230769230769234
40
0.50769230769230766
40
0.52307692307692299
40
0.53846153846153832
40
0.55384615384615365
40
0.56923076923076898
40
0.58461538461538431
40
0.59999999999999964
40
0.61538461538461497
40
0.6307692307692303
40
0.64615384615384563
40
0.66153846153846096
40
0.67692307692307629
40
0.69230769230769162
40
0.70769230769230695
40
0.72307692307692228
40
0.73846153846153761
40
0.75384615384615294
40
0.76923076923076827
40
0.7846153846153836
40
0.79999999999999893
40
0.81538461538461426
40
0.83076923076922959
40
0.84615384615384492
40
0.86153846153846025
40
0.87692307692307558
40
0.89230769230769091
40
0.90769230769230624
40
0.92307692307692157
40
0.9384615384615369
40
0.95384615384615223
40
0.96923076923076756
40
0.98461538461538289
40
1
40
1
40
1
40
1
40
1
40
1
10
1.3312621600907375
20
1.2213670385919193
30
0
10
1.3315947859002168
20
1.2210278792509703
30
0
10
1.3331720078430271
20
1.2210793744658726
30
0
10
1.338431581432489
20
1.2231920556204146
30
0
10
1.3509489603311604
20
1.2292989193121922
30
0
10
1.3702334535625071
20
1.2423925512162859
30
0
10
1.3871328048483882
20
1.2605276965488994
30
0
10
1.397336153581644
20
1.282622434570672
30
0
10
1.4025603794830308
20
1.3052920052305326
30
0
10
1.403062454257231
20
1.3268636453990521
30
0
10
1.3987759520969347
20
1.346481044815159
30
0
10
1.3893813642370199
20
1.3639059122127313
30
0
10
1.3747284574886924
20
1.3790919514219293
30
0
10
1.355180853719806
20
1.3917836021443206
30
0
10
1.3317199280748324
20
1.4013853220990984
30
0
10
1.3056911034365666
20
1.4071875525845725
30
0
10
1.2786543673593556
20
1.4084899480641206
30
0
10
1.2521859930811623
20
1.4047747636444212
30
0
10
1.2277161570885906
20
1.3958404153132895
30
0
10
1.2063140441234186
20
1.3819989154459189
30
0
10
1.1886499668841992
20
1.3640522882995088
30
0
10
1.1751015968062297
20
1.3430866393851848
30
0
10
1.1658178966841481
20
1.3203214929481348
30
0
10
1.1608023727027521
20
1.2969298120423352
30
0
10
1.1599821273096769
20
1.273886801692063
30
0
10
1.1632972755561151
20
1.2517643243309278
30
0
10
1.1706856032043771
20
1.2308236992362509
30
0
10
1.1820365093369902
20
1.2111945073563619
30
0
10
1.1971541952618858
20
1.1930317189390922
30
0
10
1.2157187385642123
20
1.1766656675383951
30
0
10
1.2372432791368437
20
1.1627940535785513
30
0
10
1.2610469754580205
20
1.1525327704510946
30
0
10
1.2862749763409302
20
1.1470353002296019
30
0
10
1.3119114765011868
20
1.1472011201506167
30
0
10
1.3367914382392343
20
1.1533241143826329
30
0
10
1.3596213257919743
20
1.1648219166901794
30
0
10
1.3789744662225119
20
1.1797933868005577
30
0
10
1.3933733771915309
20
1.1950938381791081
30
0
10
1.4015917732742633
20
1.2072653478920405
30
0
10
1.4028512923092333
20
1.2134466741863945
30
0
10
1.3971875607474245
20
1.2119334853987429
30
0
10
1.3853796831799186
20
1.203927335102853
30
0
10
1.3685612577449395
20
1.1927867441565869
30
0
10
1.348144769299926
20
1.1825118318926204
30
0
10
1.3256153294066246
20
1.1763830660823813
30
0
10
1.3024128545984544
20
1.1759883277246899
30
0
10
1.2798952419873983
20
1.1817470854425978
30
0
10
1.2592922031394684
20
1.1931408006455191
30
0
10
1.2416615511716824
20
1.2090614121618877
30
0
10
1.2278458750956598
20
1.2281021797476077
30
0
10
1.2184241526660546
20
1.2488887951232379
30
0
10
1.2137368822024286
20
1.2701273575103447
30
0
10
1.2139163593925399
20
1.2906316881095503
30
0
10
1.2189169143935779
20
1.3093592419913498
30
0
10
1.2285397865134686
20
1.3254406625703221
30
0
10
1.242473310312094
20
1.3382202006746033
30
0
10
1.260191669410188
20
1.3472132634919716
30
0
10
1.2808239062782167
20
1.3520479416324003
30
0
10
1.3030421714205271
20
1.3524165557533263
30
0
10
1.3249197789138656
20
1.3480135567738634
30
0
10
1.3438601925870537
20
1.3385057756783794
30
0
10
1.3572799198455503
20
1.3238368857990921
30
0
10
1.3632980349699573
20
1.3045369233284863
30
0
10
1.361315141265687
20
1.2819788168922484
30
0
10
1.352899169437799
20
1.2587856404470639
30
0
10
1.3416659490736
20
1.2386488287621138
30
0
10
1.3341244123113556
20
1.2275699744282289
30
0
10
1.3311762529862214
20
1.2231143305116312
30
0
10
1.3309295342812582
20
1.2217061979328685
30
0
10
1.3312621600907375
20
1.2213670385919193
30
0
0
LINE
5
111
100
AcDbEntity
8
0
100
AcDbLine
10
1.3276016859797115
20
1.2250994127844084
30
0
11
1.3349226342017635
21
1.2176346643994305
31
0
0
LINE
5
112
100
AcDbEntity
8
0
100
AcDbLine
10
1.3612621597281818
20
1.2113670387127711
30
0
11
1.4212621590030701
21
1.3313670372625481
31
0
0
LINE
5
113
100
AcDbEntity
8
0
100
AcDbLine
10
1.405570584719539
20
1.2041796319848779
30
0
11
1.3969537337700089
21
1.2185544454406649
31
0
0
LWPOLYLINE
5
114
100
AcDbEntity
8
0
100
AcDbPolyline
90
4
70
1
43
0.0
10
1.5156564237911252
20
0.58669590486063339
10
0.39566130660362547
20
0.58669590486063339
10
0.39566130660362536
20
0.83669590486063328
10
1.5156564237911252
20
0.83669590486063328
0
LWPOLYLINE
5
115
100
AcDbEntity
8
0
100
AcDbPolyline
90
4
70
1
43
0.0
10
0.85989471067306034
20
0.33832551643835729
10
0.39566130660362547
20
0.33832551643835729
10
0.39566130660362547
20
0.58832551643835729
10
0.85989471067306034
20
0.58832551643835729
0
LINE
5
116
100
AcDbEntity
8
0
100
AcDbLine
10
1.9188976377952749
20
-1.6235039370078737
30
0
11
1.9188976377952518
21
-0.88143955694348652
31
0
0
LINE
5
117
100
AcDbEntity
8
0
100
AcDbLine
10
-0.73503937007874043
20
-1.6081599828300557
30
0
11
-0.73503937007874021
21
-1.6235039370078737
31
0
0
LWPOLYLINE
5
118
100
AcDbEntity
8
0
100
AcDbPolyline
90
4
70
1
43
0.0
10
1.6034310285808657
20
0.83136023559145433
10
0.39285984840244137
20
0.83136023559145433
10
0.39285984840244137
20
1.0813602355914542
10
1.6034310285808657
20
1.0813602355914542
0
ENDSEC
0
SECTION
2
OBJECTS
0
DICTIONARY
5
C
100
AcDbDictionary
3
ACAD_GROUP
350
D
3
ACAD_MLINESTYLE
350
17
0
DICTIONARY
5
D
100
AcDbDictionary
0
DICTIONARY
5
1A
330
C
100
AcDbDictionary
0
DICTIONARY
5
17
100
AcDbDictionary
0
ENDSEC
0
EOF
