0
SECTION
2
HEADER
9
$INSUNITS
70
1
9
$ACADVER
1
AC1014
9
$HANDSEED
5
FFFF
0
ENDSEC
0
SECTION
2
TABLES
0
TABLE
2
VPORT
5
8
100
AcDbSymbolTable
0
ENDTAB
0
TABLE
2
LTYPE
5
5
100
AcDbSymbolTable
0
LTYPE
5
14
100
AcDbSymbolTableRecord
100
AcDbLinetypeTableRecord
2
BYBLOCK
70
0
0
LTYPE
5
15
100
AcDbSymbolTableRecord
100
AcDbLinetypeTableRecord
2
BYLAYER
70
0
0
ENDTAB
0
TABLE
2
LAYER
5
2
100
AcDbSymbolTable
70
2
0
LAYER
5
50
100
AcDbSymbolTableRecord
100
AcDbLayerTableRecord
2
0
70
0
6
CONTINUOUS
0
ENDTAB
0
TABLE
2
STYLE
5
3
100
AcDbSymbolTable
70
1
0
STYLE
5
11
100
AcDbSymbolTableRecord
100
AcDbTextStyleTableRecord
2
STANDARD
70
0
0
ENDTAB
0
TABLE
2
VIEW
5
6
100
AcDbSymbolTable
70
0
0
ENDTAB
0
TABLE
2
UCS
5
7
100
AcDbSymbolTable
70
0
0
ENDTAB
0
TABLE
2
APPID
5
9
100
AcDbSymbolTable
70
2
0
APPID
5
12
100
AcDbSymbolTableRecord
100
AcDbRegAppTableRecord
2
ACAD
70
0
0
ENDTAB
0
TABLE
2
DIMSTYLE
5
A
100
AcDbSymbolTable
70
1
0
ENDTAB
0
TABLE
2
BLOCK_RECORD
5
1
100
AcDbSymbolTable
70
1
0
BLOCK_RECORD
5
1F
100
AcDbSymbolTableRecord
100
AcDbBlockTableRecord
2
*MODEL_SPACE
0
BLOCK_RECORD
5
1B
100
AcDbSymbolTableRecord
100
AcDbBlockTableRecord
2
*PAPER_SPACE
0
ENDTAB
0
ENDSEC
0
SECTION
2
BLOCKS
0
BLOCK
5
20
100
AcDbEntity
100
AcDbBlockBegin
2
*MODEL_SPACE
0
ENDBLK
5
21
100
AcDbEntity
100
AcDbBlockEnd
0
BLOCK
5
1C
100
AcDbEntity
100
AcDbBlockBegin
2
*PAPER_SPACE
0
ENDBLK
5
1D
100
AcDbEntity
100
AcDbBlockEnd
0
ENDSEC
0
SECTION
2
ENTITIES
0
LWPOLYLINE
5
100
100
AcDbEntity
8
0
100
AcDbPolyline
90
11
70
1
43
0.0
10
2.1688976377952747
20
0.29999999999999999
10
2.4188976377952729
20
0.29999999999999999
10
2.4188976377952729
20
-0.099999999999999992
10
-2.4188976377952773
20
-0.099999999999999992
10
-2.4188976377952773
20
0.29999999999999999
10
-1.2888914560409701
20
0.29999999999999999
10
-1.2888914560409708
20
0.54999999999999993
10
-0.83503937007874007
20
0.54999999999999982
42
-0.23606797749978958
10
-0.7350393700787401
20
0.75
10
1.9188976377952749
20
0.75
42
-0.41421356237309609
10
2.1688976377952747
20
0.49999999999999994
0
LINE
5
101
100
AcDbEntity
8
0
100
AcDbLine
10
0.63110236220472449
20
0.59055118110236227
30
0
11
0.90669291338582669
21
0.47244094488188981
31
0
0
LWPOLYLINE
5
102
100
AcDbEntity
8
0
100
AcDbPolyline
90
8
70
1
43
0.0
10
0.51889763779527576
20
0.35649606299212594
10
1.0188976377952756
20
0.35649606299212594
42
0.41421356237309553
10
1.0688976377952755
20
0.40649606299212593
10
1.0688976377952755
20
0.65649606299212604
42
0.41421356237309404
10
1.0188976377952756
20
0.70649606299212597
10
0.51889763779527565
20
0.70649606299212597
42
0.41421356237309609
10
0.46889763779527566
20
0.65649606299212604
10
0.46889763779527566
20
0.40649606299212593
42
0.41421356237309553
0
LINE
5
103
100
AcDbEntity
8
0
100
AcDbLine
10
1.0688976377952755
20
0.35649606299212594
30
0
11
0.46889763779527566
21
0.70649606299212597
31
0
0
LINE
5
104
100
AcDbEntity
8
0
100
AcDbLine
10
0.46889763779527566
20
0.35649606299212594
30
0
11
1.0688976377952755
21
0.70649606299212597
31
0
0
LINE
5
105
100
AcDbEntity
8
0
100
AcDbLine
10
0.06889763779527569
20
0
30
0
11
-0.2311023622047243
21
0
31
0
0
LINE
5
106
100
AcDbEntity
8
0
100
AcDbLine
10
0.021397637795275593
20
0.0099999998791480624
30
0
11
0.21639763779527568
21
0.0099999998791480572
31
0
0
LINE
5
107
100
AcDbEntity
8
0
100
AcDbLine
10
0.11889763779527564
20
0.0099999998791480572
30
0
11
0.1188976377952756
21
0.059999999879148058
31
0
0
LINE
5
108
100
AcDbEntity
8
0
100
AcDbLine
10
0.021397637795275593
20
0.0099999998791480624
30
0
11
0.021397637795275593
21
0.059999999879148037
31
0
0
LINE
5
109
100
AcDbEntity
8
0
100
AcDbLine
10
0.21639763779527568
20
0.0099999998791480572
30
0
11
0.21639763779527568
21
0.059999999879148058
31
0
0
LINE
5
110
100
AcDbEntity
8
0
100
AcDbLine
10
0.21639763779527568
20
0.059999999879148058
30
0
11
0.1188976377952756
21
0.059999999879148058
31
0
0
LINE
5
111
100
AcDbEntity
8
0
100
AcDbLine
10
0.1188976377952756
20
0.059999999879148058
30
0
11
0.021397637795275593
21
0.059999999879148037
31
0
0
LINE
5
112
100
AcDbEntity
8
0
100
AcDbLine
10
0.046397637795275594
20
0
30
0
11
0.046397637795275594
21
0.01968503937007874
31
0
0
ARC
5
113
100
AcDbEntity
8
0
100
AcDbCircle
10
0.078812213738025175
20
0.059999999879148058
30
0
40
0.057414575942749589
100
AcDbArc
50
44.161816458119787
51
180
0
ARC
5
114
100
AcDbEntity
8
0
100
AcDbCircle
10
0.15989986020265398
20
0.059999999879148044
30
0
40
0.056497777592621735
100
AcDbArc
50
0
51
134.92819212331239
0
LINE
5
115
100
AcDbEntity
8
0
100
AcDbLine
10
-0.68503937007874005
20
0
30
0
11
0.31496062992125984
21
0
31
0
0
LINE
5
116
100
AcDbEntity
8
0
100
AcDbLine
10
0.31496062992125984
20
0
30
0
11
-0.68503937007874005
21
0
31
0
0
LINE
5
117
100
AcDbEntity
8
0
100
AcDbLine
10
-0.32650516327937107
20
0.22834645669291334
30
0
11
-0.23653304765143743
21
0.22834645669291334
31
0
0
LINE
5
118
100
AcDbEntity
8
0
100
AcDbLine
10
-0.23653304765143743
20
0.22834645669291334
30
0
11
-0.32650516327937107
21
0.22834645669291334
31
0
0
LINE
5
119
100
AcDbEntity
8
0
100
AcDbLine
10
-0.031102362204724128
20
0.22834645669291334
30
0
11
-0.43110236220472409
21
0.22834645669291334
31
0
0
LINE
5
120
100
AcDbEntity
8
0
100
AcDbLine
10
-0.43110236220472409
20
0.22834645669291334
30
0
11
-0.031102362204724128
21
0.22834645669291334
31
0
0
LINE
5
121
100
AcDbEntity
8
0
100
AcDbLine
10
-0.32952755905511744
20
0.29741546147292092
30
0
11
-0.13267716535433008
21
0.29741546147291997
31
0
0
LINE
5
122
100
AcDbEntity
8
0
100
AcDbLine
10
-0.13267716535433008
20
0.29741546147291997
30
0
11
-0.13267716535432869
21
0
31
0
0
LINE
5
123
100
AcDbEntity
8
0
100
AcDbLine
10
-0.32952755905511744
20
0
30
0
11
-0.32952755905511744
21
0.29741546147292092
31
0
0
LINE
5
124
100
AcDbEntity
8
0
100
AcDbLine
10
-0.32952755905511744
20
0
30
0
11
-0.13267716535432869
21
0
31
0
0
LWPOLYLINE
5
125
100
AcDbEntity
8
0
100
AcDbPolyline
90
8
70
1
43
0.0
10
1.8988976377952758
20
0.12874015748031495
10
1.3388976377952755
20
0.128740157480315
42
0.41421356237309093
10
1.2888976377952754
20
0.078740157480314918
10
1.2888976377952754
20
0.020000000000000035
42
0.41421356237309309
10
1.3388976377952759
20
-0.030000000000000065
10
1.8988976377952758
20
-0.029999999999999999
42
0.41421356237309503
10
1.9488976377952754
20
0.019999999999999664
10
1.9488976377952754
20
0.078740157480314973
42
0.41421356237309698
0
LINE
5
126
100
AcDbEntity
8
0
100
AcDbLine
10
1.3388976377952755
20
0
30
0
11
1.3388976377952755
21
0.07874015748031496
31
0
0
LINE
5
127
100
AcDbEntity
8
0
100
AcDbLine
10
1.8988976377952758
20
0
30
0
11
1.8988976377952758
21
0.07874015748031496
31
0
0
LINE
5
128
100
AcDbEntity
8
0
100
AcDbLine
10
1.3388976377952755
20
0.07874015748031496
30
0
11
1.8988976377952758
21
0.07874015748031496
31
0
0
LINE
5
129
100
AcDbEntity
8
0
100
AcDbLine
10
-0.91811023622047228
20
0
30
0
11
2.1188976377952757
21
0
31
0
0
LINE
5
130
100
AcDbEntity
8
0
100
AcDbLine
10
-0.32952755905511744
20
0
30
0
11
-0.32952755905511744
21
-0.099999999999999992
31
0
0
LINE
5
131
100
AcDbEntity
8
0
100
AcDbLine
10
-0.13267716535432869
20
0
30
0
11
-0.13267716535432872
21
-0.099999999999999992
31
0
0
LINE
5
132
100
AcDbEntity
8
0
100
AcDbLine
10
-0.32952755905511744
20
-0.099999999999999992
30
0
11
-0.13267716535432872
21
-0.099999999999999992
31
0
0
LINE
5
133
100
AcDbEntity
8
0
100
AcDbLine
10
-0.2311023622047241
20
0.22834645669291334
30
0
11
-0.23110236220472377
21
0.29741546147292042
31
0
0
LWPOLYLINE
5
134
100
AcDbEntity
8
0
100
AcDbPolyline
90
4
70
1
43
0.0
10
-0.41396728574522723
20
-0.04395445447665533
10
-0.82302490481003887
20
-0.04395445447665533
10
-0.82302490481003887
20
0.20604554552334464
10
-0.41396728574522723
20
0.20604554552334464
0
LWPOLYLINE
5
135
100
AcDbEntity
8
0
100
AcDbPolyline
90
4
70
1
43
0.0
10
1.5985876576505829
20
0.20100250371670106
10
1.3373571842073038
20
0.20100250371670106
10
1.3373571842073038
20
0.45100250371670103
10
1.5985876576505829
20
0.45100250371670103
0
LWPOLYLINE
5
136
100
AcDbEntity
8
0
100
AcDbPolyline
90
8
70
1
43
0.0
10
1.6690643709926376
20
0.20500000638285956
10
1.6690643709926376
20
0.43165811579144625
10
1.8293224630078402
20
0.43165811579144642
10
1.8293224630078402
20
0.34567751076729047
10
1.8599999775215406
20
0.31499999625359021
10
1.837878685570643
20
0.29122060439515862
10
1.8645164061973436
20
0.26458288376845801
10
1.8645164061973436
20
0.20500000638285956
0
ENDSEC
0
SECTION
2
OBJECTS
0
DICTIONARY
5
C
100
AcDbDictionary
3
ACAD_GROUP
350
D
3
ACAD_MLINESTYLE
350
17
0
DICTIONARY
5
D
100
AcDbDictionary
0
DICTIONARY
5
1A
330
C
100
AcDbDictionary
0
DICTIONARY
5
17
100
AcDbDictionary
0
ENDSEC
0
EOF
