%
M48
M72
T01C0.02362
T02C0.02756
T03C0.02800
T04C0.03150
T05C0.03200
T06C0.03500
T07C0.04000
T08C0.14173
%
T01
X38333Y65000
X53333Y65000
X68333Y65000
X68333Y80000
X53333Y80000
X53333Y95000
X68333Y95000
X78333Y95000
X68333Y115000
X48333Y125000
X28333Y162500
X28333Y190000
X63333Y192500
X83333Y205000
X90833Y210000
X73333Y225000
X63333Y227500
X58333Y220000
X75833Y245000
X78333Y250000
X60833Y255000
X90833Y265000
X90833Y276250
X103333Y275000
X88333Y293750
X83333Y300000
X83333Y315000
X87083Y332500
X73333Y340000
X58333Y340000
X48333Y325000
X48333Y315000
X63333Y300000
X38333Y280000
X28333Y325000
X138333Y325000
X153333Y325000
X153333Y337500
X138333Y337500
X168333Y325000
X168333Y305000
X153333Y305000
X138333Y305000
X138333Y285000
X138333Y275000
X138333Y265000
X153333Y265000
X153333Y275000
X153333Y285000
X168333Y285000
X168333Y250000
X158333Y250000
X148333Y250000
X138333Y250000
X153333Y235000
X153333Y225000
X168333Y225000
X168333Y235000
X209583Y220000
X213333Y230000
X253333Y211250
X270833Y220000
X275833Y226250
X279583Y233750
X287083Y230000
X294583Y226250
X302083Y218750
X283333Y216250
X293333Y190000
X284583Y175000
X265833Y157500
X258333Y155000
X269583Y140000
X292083Y146250
X314583Y161250
X263333Y120000
X283333Y110000
X283333Y95000
X303333Y110000
X313333Y95000
X313333Y65000
X283333Y65000
X240833Y100000
X233333Y100000
X213333Y100000
X218333Y120000
X228333Y120000
X203333Y140000
X188333Y135000
X162083Y135000
X133333Y135000
X113333Y125000
X133333Y100000
X159583Y70000
X168333Y80000
X172083Y96250
X148333Y65000
X118333Y65000
X88333Y65000
X98333Y165000
X98333Y185000
X28333Y220000
X208333Y270000
X215833Y275000
X234583Y263750
X247083Y277500
X255833Y277500
X268333Y280000
X263333Y292500
X264583Y310000
X264583Y316250
X272083Y316250
X278333Y311250
X275833Y330000
X283333Y340000
X313333Y340000
X313333Y310000
X288333Y290000
X288333Y270000
X304583Y265000
X299583Y251250
X289583Y246250
X283333Y250000
X275833Y247500
X255833Y250000
X240833Y285000
X244583Y296250
X230833Y316250
X237083Y322500
X229583Y328750
X218333Y337500
X207083Y315000
X318333Y270000
X235833Y187500
X220833Y177500
X213333Y158750
X208333Y155000
T02
X272083Y235000
T03
X304396Y232126
X304396Y240000
X304396Y247874
X304396Y255748
X312270Y255748
X312270Y247874
X312270Y240000
X312270Y232126
X312270Y224252
X304396Y224252
T04
X308333Y291063
X308333Y298937
T05
X268333Y337500
X238333Y337500
T06
X198333Y330000
X188333Y330000
X178333Y330000
X178333Y320000
X188333Y320000
X188333Y310000
X178333Y310000
X178333Y300000
X178333Y290000
X188333Y290000
X188333Y300000
X198333Y300000
X198333Y290000
X198333Y280000
X188333Y280000
X178333Y280000
X178333Y270000
X178333Y260000
X188333Y260000
X188333Y270000
X198333Y270000
X198333Y260000
X198333Y250000
X188333Y250000
X178333Y250000
X178333Y240000
X188333Y240000
X188333Y230000
X178333Y230000
X178333Y220000
X188333Y220000
X188333Y210000
X178333Y210000
X178333Y200000
X188333Y200000
X188333Y190000
X178333Y190000
X178333Y180000
X188333Y180000
X188333Y170000
X178333Y170000
X178333Y160000
X188333Y160000
X198333Y160000
X198333Y170000
X198333Y180000
X198333Y190000
X198333Y200000
X198333Y210000
X198333Y220000
X198333Y230000
X198333Y240000
X128333Y240000
X118333Y240000
X108333Y240000
X108333Y230000
X108333Y220000
X118333Y220000
X118333Y230000
X128333Y230000
X128333Y220000
X128333Y210000
X118333Y210000
X108333Y210000
X108333Y200000
X118333Y200000
X128333Y200000
X128333Y190000
X118333Y190000
X108333Y190000
X108333Y180000
X118333Y180000
X128333Y180000
X128333Y170000
X118333Y170000
X108333Y170000
X108333Y160000
X118333Y160000
X128333Y160000
X128333Y250000
X118333Y250000
X108333Y250000
X108333Y260000
X108333Y270000
X118333Y270000
X118333Y260000
X128333Y260000
X128333Y270000
X128333Y280000
X118333Y280000
X108333Y280000
X108333Y290000
X108333Y300000
X118333Y300000
X118333Y290000
X128333Y290000
X128333Y300000
X128333Y310000
X118333Y310000
X108333Y310000
X108333Y320000
X118333Y320000
X128333Y320000
X128333Y330000
X118333Y330000
X108333Y330000
X198333Y320000
X198333Y310000
T07
X293333Y280000
X303333Y280000
X313333Y280000
X313333Y200000
X303333Y200000
X303333Y190000
X303333Y180000
X313333Y180000
X313333Y190000
X313333Y170000
X303333Y170000
X313333Y152500
X313333Y142500
X313333Y125000
X303333Y125000
X293333Y125000
X283333Y125000
X253333Y135000
X243333Y135000
X233333Y135000
X223333Y135000
X223333Y145000
X233333Y145000
X243333Y145000
X253333Y145000
X313333Y115000
X313333Y105000
X83333Y145000
X73333Y145000
X73333Y155000
X83333Y155000
X63333Y155000
X53333Y155000
X43333Y155000
X33333Y155000
X33333Y170000
X33333Y180000
X33333Y265000
X43333Y265000
X53333Y265000
X63333Y265000
X73333Y265000
X83333Y265000
T08
X43333Y205000
X298333Y325000
X298333Y80000
M30
