G75*
%MOIN*%
%OFA0B0*%
%FSLAX25Y25*%
%IPPOS*%
%LPD*%
%AMOC8*
5,1,8,0,0,1.08239X$1,22.5*
%
%ADD10C,0.00400*%
%ADD11R,0.21250X0.81750*%
%ADD12R,0.15000X0.88750*%
%ADD13C,0.00300*%
%ADD14C,0.00200*%
%ADD15C,0.00800*%
%ADD16C,0.01000*%
%ADD17C,0.00600*%
%ADD18R,0.00787X0.00787*%
%ADD19R,0.02559X0.05512*%
%ADD20R,0.05512X0.02559*%
%ADD21R,0.01500X0.04000*%
%ADD22C,0.00500*%
%ADD23C,0.00000*%
%ADD24C,0.01000*%
%ADD25R,0.01969X0.02953*%
D10*
X0061029Y0169780D02*
X0064866Y0169780D01*
X0065633Y0170547D01*
X0065633Y0172082D01*
X0064866Y0172849D01*
X0061029Y0172849D01*
X0061797Y0174383D02*
X0064866Y0174383D01*
X0065633Y0175151D01*
X0065633Y0176685D01*
X0064866Y0177453D01*
X0064866Y0178987D02*
X0065633Y0179755D01*
X0065633Y0181289D01*
X0064866Y0182057D01*
X0064099Y0182057D01*
X0063331Y0181289D01*
X0063331Y0179755D01*
X0062564Y0178987D01*
X0061797Y0178987D01*
X0061029Y0179755D01*
X0061029Y0181289D01*
X0061797Y0182057D01*
X0061029Y0183591D02*
X0061029Y0185893D01*
X0061797Y0186661D01*
X0064866Y0186661D01*
X0065633Y0185893D01*
X0065633Y0183591D01*
X0061029Y0183591D01*
X0061797Y0177453D02*
X0061029Y0176685D01*
X0061029Y0175151D01*
X0061797Y0174383D01*
X0068529Y0172082D02*
X0068529Y0169780D01*
X0073133Y0169780D01*
X0073133Y0172082D01*
X0072366Y0172849D01*
X0071599Y0172849D01*
X0070831Y0172082D01*
X0070831Y0169780D01*
X0070831Y0172082D02*
X0070064Y0172849D01*
X0069297Y0172849D01*
X0068529Y0172082D01*
X0070831Y0174383D02*
X0072366Y0174383D01*
X0073133Y0175151D01*
X0073133Y0176685D01*
X0072366Y0177453D01*
X0070831Y0177453D01*
X0070064Y0176685D01*
X0070064Y0175151D01*
X0070831Y0174383D01*
X0072366Y0178987D02*
X0071599Y0179755D01*
X0071599Y0182057D01*
X0070831Y0182057D02*
X0073133Y0182057D01*
X0073133Y0179755D01*
X0072366Y0178987D01*
X0070064Y0179755D02*
X0070064Y0181289D01*
X0070831Y0182057D01*
X0070064Y0183591D02*
X0073133Y0183591D01*
X0071599Y0183591D02*
X0070064Y0185126D01*
X0070064Y0185893D01*
X0070831Y0187428D02*
X0070064Y0188195D01*
X0070064Y0190497D01*
X0068529Y0190497D02*
X0073133Y0190497D01*
X0073133Y0188195D01*
X0072366Y0187428D01*
X0070831Y0187428D01*
X0070064Y0192032D02*
X0073133Y0193566D01*
X0070064Y0195101D01*
X0069297Y0196636D02*
X0068529Y0197403D01*
X0068529Y0198938D01*
X0069297Y0199705D01*
X0070064Y0199705D01*
X0073133Y0196636D01*
X0073133Y0199705D01*
X0073133Y0201240D02*
X0073133Y0202007D01*
X0072366Y0202007D01*
X0072366Y0201240D01*
X0073133Y0201240D01*
X0073133Y0203542D02*
X0073133Y0206611D01*
X0073133Y0205076D02*
X0068529Y0205076D01*
X0070064Y0203542D01*
X0065633Y0203542D02*
X0064866Y0202774D01*
X0061797Y0202774D01*
X0062564Y0202007D02*
X0062564Y0203542D01*
X0062564Y0205844D02*
X0062564Y0207378D01*
X0063331Y0208146D01*
X0065633Y0208146D01*
X0065633Y0205844D01*
X0064866Y0205076D01*
X0064099Y0205844D01*
X0064099Y0208146D01*
X0064866Y0209680D02*
X0065633Y0210448D01*
X0065633Y0211982D01*
X0064866Y0212750D01*
X0064099Y0212750D01*
X0063331Y0211982D01*
X0063331Y0210448D01*
X0062564Y0209680D01*
X0061797Y0209680D01*
X0061029Y0210448D01*
X0061029Y0211982D01*
X0061797Y0212750D01*
X0063331Y0214284D02*
X0062564Y0215051D01*
X0062564Y0216586D01*
X0063331Y0217353D01*
X0064099Y0217353D01*
X0064099Y0214284D01*
X0064866Y0214284D02*
X0063331Y0214284D01*
X0064866Y0214284D02*
X0065633Y0215051D01*
X0065633Y0216586D01*
X0065633Y0218888D02*
X0062564Y0218888D01*
X0062564Y0221190D01*
X0063331Y0221957D01*
X0065633Y0221957D01*
X0065633Y0223492D02*
X0065633Y0225794D01*
X0064866Y0226561D01*
X0064099Y0225794D01*
X0064099Y0224259D01*
X0063331Y0223492D01*
X0062564Y0224259D01*
X0062564Y0226561D01*
X0063331Y0228096D02*
X0062564Y0228863D01*
X0062564Y0230398D01*
X0063331Y0231165D01*
X0064099Y0231165D01*
X0064099Y0228096D01*
X0064866Y0228096D02*
X0063331Y0228096D01*
X0064866Y0228096D02*
X0065633Y0228863D01*
X0065633Y0230398D01*
X0064099Y0200472D02*
X0064099Y0197403D01*
X0064866Y0197403D02*
X0063331Y0197403D01*
X0062564Y0198170D01*
X0062564Y0199705D01*
X0063331Y0200472D01*
X0064099Y0200472D01*
X0065633Y0199705D02*
X0065633Y0198170D01*
X0064866Y0197403D01*
X0065633Y0195868D02*
X0061029Y0195868D01*
X0062564Y0194334D01*
X0061029Y0192799D01*
X0065633Y0192799D01*
X0037401Y0272400D02*
X0038002Y0273001D01*
X0038002Y0275403D01*
X0037401Y0276003D01*
X0036200Y0276003D01*
X0035600Y0275403D01*
X0035600Y0274802D01*
X0036200Y0274202D01*
X0038002Y0274202D01*
X0037401Y0272400D02*
X0036200Y0272400D01*
X0035600Y0273001D01*
X0034319Y0274202D02*
X0034319Y0275403D01*
X0033718Y0276003D01*
X0031916Y0276003D01*
X0031916Y0272400D01*
X0031916Y0273601D02*
X0033718Y0273601D01*
X0034319Y0274202D01*
X0030635Y0276003D02*
X0029434Y0276003D01*
X0030035Y0276003D02*
X0030035Y0273001D01*
X0029434Y0272400D01*
X0028834Y0272400D01*
X0028233Y0273001D01*
X0072259Y0295229D02*
X0073026Y0294462D01*
X0074560Y0294462D01*
X0075328Y0295229D01*
X0075328Y0299066D01*
X0076862Y0296764D02*
X0079164Y0296764D01*
X0079932Y0295996D01*
X0079932Y0295229D01*
X0079164Y0294462D01*
X0077630Y0294462D01*
X0076862Y0295229D01*
X0076862Y0296764D01*
X0078397Y0298298D01*
X0079932Y0299066D01*
X0072259Y0299066D02*
X0072259Y0295229D01*
X0259780Y0147068D02*
X0261582Y0145267D01*
X0261582Y0147669D01*
X0263383Y0147068D02*
X0259780Y0147068D01*
X0263383Y0143986D02*
X0263383Y0141584D01*
X0263383Y0142785D02*
X0259780Y0142785D01*
X0260981Y0141584D01*
X0260381Y0140303D02*
X0261582Y0140303D01*
X0262182Y0139702D01*
X0262182Y0137901D01*
X0263383Y0137901D02*
X0259780Y0137901D01*
X0259780Y0139702D01*
X0260381Y0140303D01*
X0259780Y0136619D02*
X0259780Y0135418D01*
X0259780Y0136019D02*
X0262783Y0136019D01*
X0263383Y0135418D01*
X0263383Y0134818D01*
X0262783Y0134217D01*
X0273580Y0129068D02*
X0273580Y0127867D01*
X0274181Y0127266D01*
X0274781Y0127266D01*
X0275382Y0127867D01*
X0275382Y0129068D01*
X0275982Y0129668D01*
X0276583Y0129668D01*
X0277183Y0129068D01*
X0277183Y0127867D01*
X0276583Y0127266D01*
X0275982Y0127266D01*
X0275382Y0127867D01*
X0275382Y0129068D02*
X0274781Y0129668D01*
X0274181Y0129668D01*
X0273580Y0129068D01*
X0274181Y0125985D02*
X0275382Y0125985D01*
X0275982Y0125385D01*
X0275982Y0123583D01*
X0277183Y0123583D02*
X0273580Y0123583D01*
X0273580Y0125385D01*
X0274181Y0125985D01*
X0273580Y0122302D02*
X0273580Y0121101D01*
X0273580Y0121702D02*
X0276583Y0121702D01*
X0277183Y0121101D01*
X0277183Y0120501D01*
X0276583Y0119900D01*
X0260637Y0089800D02*
X0260637Y0088265D01*
X0260637Y0089033D02*
X0256033Y0089033D01*
X0256033Y0089800D02*
X0256033Y0088265D01*
X0256801Y0086731D02*
X0256033Y0085963D01*
X0256033Y0084429D01*
X0256801Y0083661D01*
X0256033Y0082127D02*
X0259103Y0079058D01*
X0259870Y0079058D01*
X0260637Y0079825D01*
X0260637Y0081359D01*
X0259870Y0082127D01*
X0259870Y0083661D02*
X0260637Y0084429D01*
X0260637Y0085963D01*
X0259870Y0086731D01*
X0256801Y0086731D01*
X0256033Y0082127D02*
X0256033Y0079058D01*
X0272030Y0209100D02*
X0275033Y0209100D01*
X0275633Y0209701D01*
X0275633Y0210902D01*
X0275033Y0211502D01*
X0272030Y0211502D01*
X0272631Y0212783D02*
X0273231Y0212783D01*
X0273832Y0213384D01*
X0273832Y0215185D01*
X0275033Y0215185D02*
X0272631Y0215185D01*
X0272030Y0214585D01*
X0272030Y0213384D01*
X0272631Y0212783D01*
X0275033Y0212783D02*
X0275633Y0213384D01*
X0275633Y0214585D01*
X0275033Y0215185D01*
X0275033Y0241600D02*
X0275633Y0242201D01*
X0275633Y0243402D01*
X0275033Y0244002D01*
X0272030Y0244002D01*
X0272631Y0245283D02*
X0273231Y0245283D01*
X0273832Y0245884D01*
X0273832Y0247085D01*
X0274432Y0247685D01*
X0275033Y0247685D01*
X0275633Y0247085D01*
X0275633Y0245884D01*
X0275033Y0245283D01*
X0274432Y0245283D01*
X0273832Y0245884D01*
X0273832Y0247085D02*
X0273231Y0247685D01*
X0272631Y0247685D01*
X0272030Y0247085D01*
X0272030Y0245884D01*
X0272631Y0245283D01*
X0272030Y0241600D02*
X0275033Y0241600D01*
X0276381Y0332901D02*
X0276981Y0332901D01*
X0277582Y0333501D01*
X0277582Y0334702D01*
X0278182Y0335303D01*
X0278783Y0335303D01*
X0279383Y0334702D01*
X0279383Y0333501D01*
X0278783Y0332901D01*
X0276381Y0332901D02*
X0275780Y0333501D01*
X0275780Y0334702D01*
X0276381Y0335303D01*
X0275780Y0336584D02*
X0279383Y0336584D01*
X0278182Y0337785D01*
X0279383Y0338986D01*
X0275780Y0338986D01*
X0276981Y0340267D02*
X0275780Y0341468D01*
X0279383Y0341468D01*
X0279383Y0340267D02*
X0279383Y0342669D01*
D11*
X0087708Y0210875D03*
D12*
X0102083Y0105625D03*
D13*
X0112604Y0107091D02*
X0113839Y0105857D01*
X0113221Y0104642D02*
X0115690Y0104642D01*
X0116307Y0104025D01*
X0116307Y0102791D01*
X0115690Y0102173D01*
X0113221Y0102173D01*
X0112604Y0102791D01*
X0112604Y0104025D01*
X0113221Y0104642D01*
X0115073Y0103408D02*
X0116307Y0104642D01*
X0116307Y0105857D02*
X0116307Y0108325D01*
X0116307Y0107091D02*
X0112604Y0107091D01*
X0115480Y0088302D02*
X0115480Y0085833D01*
X0117332Y0085833D01*
X0116715Y0087068D01*
X0116715Y0087685D01*
X0117332Y0088302D01*
X0118566Y0088302D01*
X0119183Y0087685D01*
X0119183Y0086450D01*
X0118566Y0085833D01*
X0119183Y0084619D02*
X0117949Y0083384D01*
X0117949Y0084002D02*
X0117949Y0082150D01*
X0119183Y0082150D02*
X0115480Y0082150D01*
X0115480Y0084002D01*
X0116097Y0084619D01*
X0117332Y0084619D01*
X0117949Y0084002D01*
X0135196Y0084197D02*
X0135680Y0083713D01*
X0136647Y0083713D01*
X0137131Y0084197D01*
X0137131Y0086615D01*
X0138142Y0086132D02*
X0138626Y0086615D01*
X0139594Y0086615D01*
X0140077Y0086132D01*
X0140077Y0085648D01*
X0138142Y0083713D01*
X0140077Y0083713D01*
X0135196Y0084197D02*
X0135196Y0086615D01*
X0159336Y0082686D02*
X0159336Y0080217D01*
X0161188Y0080217D01*
X0160571Y0081451D01*
X0160571Y0082068D01*
X0161188Y0082686D01*
X0162422Y0082686D01*
X0163040Y0082068D01*
X0163040Y0080834D01*
X0162422Y0080217D01*
X0162422Y0079002D02*
X0159336Y0079002D01*
X0159336Y0076534D02*
X0162422Y0076534D01*
X0163040Y0077151D01*
X0163040Y0078385D01*
X0162422Y0079002D01*
X0191230Y0095784D02*
X0191230Y0097635D01*
X0191847Y0098252D01*
X0193082Y0098252D01*
X0193699Y0097635D01*
X0193699Y0095784D01*
X0193699Y0097018D02*
X0194933Y0098252D01*
X0194933Y0099467D02*
X0194316Y0099467D01*
X0191847Y0101936D01*
X0191230Y0101936D01*
X0191230Y0099467D01*
X0191230Y0095784D02*
X0194933Y0095784D01*
X0207480Y0095784D02*
X0207480Y0097635D01*
X0208097Y0098252D01*
X0209332Y0098252D01*
X0209949Y0097635D01*
X0209949Y0095784D01*
X0209949Y0097018D02*
X0211183Y0098252D01*
X0210566Y0099467D02*
X0211183Y0100084D01*
X0211183Y0101318D01*
X0210566Y0101936D01*
X0209949Y0101936D01*
X0209332Y0101318D01*
X0209332Y0099467D01*
X0210566Y0099467D01*
X0209332Y0099467D02*
X0208097Y0100701D01*
X0207480Y0101936D01*
X0207480Y0095784D02*
X0211183Y0095784D01*
X0220480Y0117150D02*
X0220480Y0119002D01*
X0221097Y0119619D01*
X0222332Y0119619D01*
X0222949Y0119002D01*
X0222949Y0117150D01*
X0224183Y0117150D02*
X0220480Y0117150D01*
X0222949Y0118384D02*
X0224183Y0119619D01*
X0224183Y0120833D02*
X0224183Y0123302D01*
X0224183Y0122068D02*
X0220480Y0122068D01*
X0221715Y0120833D01*
X0222332Y0124516D02*
X0221715Y0125751D01*
X0221715Y0126368D01*
X0222332Y0126985D01*
X0223566Y0126985D01*
X0224183Y0126368D01*
X0224183Y0125133D01*
X0223566Y0124516D01*
X0222332Y0124516D02*
X0220480Y0124516D01*
X0220480Y0126985D01*
X0230480Y0126368D02*
X0232332Y0124516D01*
X0232332Y0126985D01*
X0234183Y0126368D02*
X0230480Y0126368D01*
X0230480Y0122068D02*
X0234183Y0122068D01*
X0234183Y0123302D02*
X0234183Y0120833D01*
X0234183Y0119619D02*
X0232949Y0118384D01*
X0232949Y0119002D02*
X0232949Y0117150D01*
X0234183Y0117150D02*
X0230480Y0117150D01*
X0230480Y0119002D01*
X0231097Y0119619D01*
X0232332Y0119619D01*
X0232949Y0119002D01*
X0231715Y0120833D02*
X0230480Y0122068D01*
X0240480Y0122185D02*
X0240480Y0120950D01*
X0241097Y0120333D01*
X0241097Y0119119D02*
X0240480Y0118502D01*
X0240480Y0117267D01*
X0241097Y0116650D01*
X0243566Y0116650D01*
X0244183Y0117267D01*
X0244183Y0118502D01*
X0243566Y0119119D01*
X0244183Y0120333D02*
X0241715Y0122802D01*
X0241097Y0122802D01*
X0240480Y0122185D01*
X0241097Y0124016D02*
X0240480Y0124633D01*
X0240480Y0125868D01*
X0241097Y0126485D01*
X0241715Y0126485D01*
X0244183Y0124016D01*
X0244183Y0126485D01*
X0244183Y0122802D02*
X0244183Y0120333D01*
X0250480Y0121568D02*
X0251715Y0120333D01*
X0251097Y0119119D02*
X0250480Y0118502D01*
X0250480Y0117267D01*
X0251097Y0116650D01*
X0253566Y0116650D01*
X0254183Y0117267D01*
X0254183Y0118502D01*
X0253566Y0119119D01*
X0254183Y0120333D02*
X0254183Y0122802D01*
X0254183Y0121568D02*
X0250480Y0121568D01*
X0251097Y0124016D02*
X0251715Y0124016D01*
X0252332Y0124633D01*
X0252332Y0126485D01*
X0253566Y0126485D02*
X0251097Y0126485D01*
X0250480Y0125868D01*
X0250480Y0124633D01*
X0251097Y0124016D01*
X0253566Y0124016D02*
X0254183Y0124633D01*
X0254183Y0125868D01*
X0253566Y0126485D01*
X0279733Y0132017D02*
X0280351Y0131400D01*
X0281585Y0131400D01*
X0282202Y0132017D01*
X0282202Y0132634D01*
X0281585Y0133252D01*
X0280968Y0133252D01*
X0281585Y0133252D02*
X0282202Y0133869D01*
X0282202Y0134486D01*
X0281585Y0135103D01*
X0280351Y0135103D01*
X0279733Y0134486D01*
X0283416Y0135103D02*
X0283416Y0132634D01*
X0284651Y0131400D01*
X0285885Y0132634D01*
X0285885Y0135103D01*
X0289733Y0135103D02*
X0289733Y0133252D01*
X0290968Y0133869D01*
X0291585Y0133869D01*
X0292202Y0133252D01*
X0292202Y0132017D01*
X0291585Y0131400D01*
X0290351Y0131400D01*
X0289733Y0132017D01*
X0289733Y0135103D02*
X0292202Y0135103D01*
X0293416Y0135103D02*
X0293416Y0132634D01*
X0294651Y0131400D01*
X0295885Y0132634D01*
X0295885Y0135103D01*
X0298483Y0135103D02*
X0298483Y0131400D01*
X0300952Y0131400D02*
X0300952Y0135103D01*
X0299718Y0133869D01*
X0298483Y0135103D01*
X0302166Y0134486D02*
X0302166Y0132017D01*
X0302784Y0131400D01*
X0304018Y0131400D01*
X0304635Y0132017D01*
X0305850Y0132017D02*
X0306467Y0131400D01*
X0307701Y0131400D01*
X0308318Y0132017D01*
X0308318Y0135103D01*
X0305850Y0135103D02*
X0305850Y0132017D01*
X0304635Y0134486D02*
X0304018Y0135103D01*
X0302784Y0135103D01*
X0302166Y0134486D01*
X0313483Y0134486D02*
X0313483Y0132017D01*
X0314101Y0131400D01*
X0315335Y0131400D01*
X0315952Y0132017D01*
X0315952Y0133252D01*
X0314718Y0133252D01*
X0315952Y0134486D02*
X0315335Y0135103D01*
X0314101Y0135103D01*
X0313483Y0134486D01*
X0307372Y0143700D02*
X0306471Y0143700D01*
X0306021Y0144150D01*
X0306021Y0145051D02*
X0306922Y0145502D01*
X0307372Y0145502D01*
X0307822Y0145051D01*
X0307822Y0144150D01*
X0307372Y0143700D01*
X0306021Y0145051D02*
X0306021Y0146402D01*
X0307822Y0146402D01*
X0304159Y0146402D02*
X0304159Y0143700D01*
X0303259Y0143700D02*
X0305060Y0143700D01*
X0303259Y0145502D02*
X0304159Y0146402D01*
X0302298Y0145952D02*
X0302298Y0145051D01*
X0301847Y0144601D01*
X0300496Y0144601D01*
X0300496Y0143700D02*
X0300496Y0146402D01*
X0301847Y0146402D01*
X0302298Y0145952D01*
X0299535Y0146402D02*
X0298635Y0146402D01*
X0299085Y0146402D02*
X0299085Y0144150D01*
X0298635Y0143700D01*
X0298184Y0143700D01*
X0297734Y0144150D01*
X0297884Y0154650D02*
X0298335Y0154650D01*
X0298785Y0155100D01*
X0298785Y0157352D01*
X0298335Y0157352D02*
X0299235Y0157352D01*
X0300196Y0157352D02*
X0301547Y0157352D01*
X0301998Y0156902D01*
X0301998Y0156001D01*
X0301547Y0155551D01*
X0300196Y0155551D01*
X0300196Y0154650D02*
X0300196Y0157352D01*
X0302959Y0156452D02*
X0303859Y0157352D01*
X0303859Y0154650D01*
X0302959Y0154650D02*
X0304760Y0154650D01*
X0305721Y0155100D02*
X0306171Y0154650D01*
X0307072Y0154650D01*
X0307522Y0155100D01*
X0307522Y0155551D01*
X0307072Y0156001D01*
X0305721Y0156001D01*
X0305721Y0155100D01*
X0305721Y0156001D02*
X0306622Y0156902D01*
X0307522Y0157352D01*
X0297884Y0154650D02*
X0297434Y0155100D01*
X0265769Y0162150D02*
X0263300Y0162150D01*
X0264535Y0162150D02*
X0264535Y0165853D01*
X0263300Y0164619D01*
X0262086Y0165236D02*
X0261469Y0165853D01*
X0260234Y0165853D01*
X0259617Y0165236D01*
X0259617Y0162767D01*
X0260234Y0162150D01*
X0261469Y0162150D01*
X0262086Y0162767D01*
X0245433Y0163217D02*
X0245433Y0165686D01*
X0245433Y0164451D02*
X0241730Y0164451D01*
X0242965Y0163217D01*
X0245433Y0162002D02*
X0245433Y0159534D01*
X0241730Y0159534D01*
X0231183Y0159534D02*
X0227480Y0159534D01*
X0227480Y0161385D01*
X0228097Y0162002D01*
X0229332Y0162002D01*
X0229949Y0161385D01*
X0229949Y0159534D01*
X0229949Y0160768D02*
X0231183Y0162002D01*
X0231183Y0163217D02*
X0231183Y0165686D01*
X0231183Y0164451D02*
X0227480Y0164451D01*
X0228715Y0163217D01*
X0259983Y0184767D02*
X0259983Y0187236D01*
X0260601Y0187853D01*
X0261835Y0187853D01*
X0262452Y0187236D01*
X0263666Y0187236D02*
X0264284Y0187853D01*
X0265518Y0187853D01*
X0266135Y0187236D01*
X0266135Y0186619D01*
X0265518Y0186002D01*
X0266135Y0185384D01*
X0266135Y0184767D01*
X0265518Y0184150D01*
X0264284Y0184150D01*
X0263666Y0184767D01*
X0262452Y0184767D02*
X0261835Y0184150D01*
X0260601Y0184150D01*
X0259983Y0184767D01*
X0264901Y0186002D02*
X0265518Y0186002D01*
X0258566Y0196650D02*
X0256097Y0196650D01*
X0255480Y0197267D01*
X0255480Y0198502D01*
X0256097Y0199119D01*
X0256097Y0200333D02*
X0255480Y0200950D01*
X0255480Y0202185D01*
X0256097Y0202802D01*
X0256715Y0202802D01*
X0259183Y0200333D01*
X0259183Y0202802D01*
X0258566Y0204016D02*
X0256097Y0206485D01*
X0258566Y0206485D01*
X0259183Y0205868D01*
X0259183Y0204633D01*
X0258566Y0204016D01*
X0256097Y0204016D01*
X0255480Y0204633D01*
X0255480Y0205868D01*
X0256097Y0206485D01*
X0258566Y0199119D02*
X0259183Y0198502D01*
X0259183Y0197267D01*
X0258566Y0196650D01*
X0274763Y0203350D02*
X0277899Y0206486D01*
X0276331Y0206486D02*
X0276331Y0203350D01*
X0277899Y0203350D02*
X0274763Y0206486D01*
X0274763Y0204918D02*
X0277899Y0204918D01*
X0259183Y0217267D02*
X0259183Y0218502D01*
X0258566Y0219119D01*
X0259183Y0220333D02*
X0259183Y0222802D01*
X0259183Y0224016D02*
X0258566Y0224016D01*
X0256097Y0226485D01*
X0255480Y0226485D01*
X0255480Y0224016D01*
X0255480Y0221568D02*
X0259183Y0221568D01*
X0256715Y0220333D02*
X0255480Y0221568D01*
X0256097Y0219119D02*
X0255480Y0218502D01*
X0255480Y0217267D01*
X0256097Y0216650D01*
X0258566Y0216650D01*
X0259183Y0217267D01*
X0245769Y0215853D02*
X0245769Y0215236D01*
X0243300Y0212767D01*
X0243300Y0212150D01*
X0242086Y0212767D02*
X0241469Y0212150D01*
X0240234Y0212150D01*
X0239617Y0212767D01*
X0239617Y0215236D01*
X0240234Y0215853D01*
X0241469Y0215853D01*
X0242086Y0215236D01*
X0243300Y0215853D02*
X0245769Y0215853D01*
X0236933Y0204936D02*
X0236933Y0202467D01*
X0236933Y0203701D02*
X0233230Y0203701D01*
X0234465Y0202467D01*
X0233847Y0201252D02*
X0233230Y0200635D01*
X0233230Y0199401D01*
X0233847Y0198784D01*
X0236316Y0198784D01*
X0236933Y0199401D01*
X0236933Y0200635D01*
X0236316Y0201252D01*
X0236933Y0197563D02*
X0236933Y0196328D01*
X0236933Y0196945D02*
X0233230Y0196945D01*
X0233230Y0196328D02*
X0233230Y0197563D01*
X0219933Y0222150D02*
X0216230Y0222150D01*
X0219933Y0222150D02*
X0219933Y0224619D01*
X0219933Y0225833D02*
X0217465Y0228302D01*
X0216847Y0228302D01*
X0216230Y0227685D01*
X0216230Y0226450D01*
X0216847Y0225833D01*
X0219933Y0225833D02*
X0219933Y0228302D01*
X0239983Y0238517D02*
X0240601Y0237900D01*
X0241835Y0237900D01*
X0242452Y0238517D01*
X0243666Y0238517D02*
X0243666Y0239134D01*
X0244284Y0239752D01*
X0245518Y0239752D01*
X0246135Y0239134D01*
X0246135Y0238517D01*
X0245518Y0237900D01*
X0244284Y0237900D01*
X0243666Y0238517D01*
X0244284Y0239752D02*
X0243666Y0240369D01*
X0243666Y0240986D01*
X0244284Y0241603D01*
X0245518Y0241603D01*
X0246135Y0240986D01*
X0246135Y0240369D01*
X0245518Y0239752D01*
X0242452Y0240986D02*
X0241835Y0241603D01*
X0240601Y0241603D01*
X0239983Y0240986D01*
X0239983Y0238517D01*
X0234068Y0245400D02*
X0231600Y0245400D01*
X0230385Y0245400D02*
X0227916Y0245400D01*
X0226702Y0245400D02*
X0225468Y0246634D01*
X0226085Y0246634D02*
X0224233Y0246634D01*
X0224233Y0245400D02*
X0224233Y0249103D01*
X0226085Y0249103D01*
X0226702Y0248486D01*
X0226702Y0247252D01*
X0226085Y0246634D01*
X0227916Y0247869D02*
X0229151Y0249103D01*
X0229151Y0245400D01*
X0231600Y0247869D02*
X0232834Y0249103D01*
X0232834Y0245400D01*
X0232230Y0261650D02*
X0235316Y0261650D01*
X0235933Y0262267D01*
X0235933Y0263502D01*
X0235316Y0264119D01*
X0232230Y0264119D01*
X0232847Y0265333D02*
X0232230Y0265950D01*
X0232230Y0267185D01*
X0232847Y0267802D01*
X0233465Y0267802D01*
X0234082Y0267185D01*
X0234699Y0267802D01*
X0235316Y0267802D01*
X0235933Y0267185D01*
X0235933Y0265950D01*
X0235316Y0265333D01*
X0234082Y0266568D02*
X0234082Y0267185D01*
X0218644Y0279087D02*
X0218644Y0282790D01*
X0216792Y0280939D01*
X0219261Y0280939D01*
X0215578Y0279704D02*
X0215578Y0282790D01*
X0213109Y0282790D02*
X0213109Y0279704D01*
X0213727Y0279087D01*
X0214961Y0279087D01*
X0215578Y0279704D01*
X0249257Y0296393D02*
X0249874Y0295776D01*
X0251108Y0295776D01*
X0251726Y0296393D01*
X0251726Y0298862D01*
X0251108Y0299479D01*
X0249874Y0299479D01*
X0249257Y0298862D01*
X0249257Y0296393D01*
X0250491Y0297010D02*
X0251726Y0295776D01*
X0252940Y0295776D02*
X0255409Y0298245D01*
X0255409Y0298862D01*
X0254792Y0299479D01*
X0253557Y0299479D01*
X0252940Y0298862D01*
X0252940Y0295776D02*
X0255409Y0295776D01*
X0260483Y0295384D02*
X0262335Y0295384D01*
X0262952Y0296002D01*
X0262952Y0297236D01*
X0262335Y0297853D01*
X0260483Y0297853D01*
X0260483Y0294150D01*
X0261718Y0295384D02*
X0262952Y0294150D01*
X0264166Y0294150D02*
X0266635Y0294150D01*
X0265401Y0294150D02*
X0265401Y0297853D01*
X0264166Y0296619D01*
X0267850Y0297236D02*
X0267850Y0294767D01*
X0270318Y0297236D01*
X0270318Y0294767D01*
X0269701Y0294150D01*
X0268467Y0294150D01*
X0267850Y0294767D01*
X0267850Y0297236D02*
X0268467Y0297853D01*
X0269701Y0297853D01*
X0270318Y0297236D01*
X0269701Y0304150D02*
X0268467Y0304150D01*
X0267850Y0304767D01*
X0266635Y0304150D02*
X0264166Y0304150D01*
X0262952Y0304150D02*
X0261718Y0305384D01*
X0262335Y0305384D02*
X0260483Y0305384D01*
X0260483Y0304150D02*
X0260483Y0307853D01*
X0262335Y0307853D01*
X0262952Y0307236D01*
X0262952Y0306002D01*
X0262335Y0305384D01*
X0264166Y0306619D02*
X0265401Y0307853D01*
X0265401Y0304150D01*
X0267850Y0307236D02*
X0268467Y0307853D01*
X0269701Y0307853D01*
X0270318Y0307236D01*
X0270318Y0306619D01*
X0269701Y0306002D01*
X0270318Y0305384D01*
X0270318Y0304767D01*
X0269701Y0304150D01*
X0269701Y0306002D02*
X0269084Y0306002D01*
X0269518Y0320900D02*
X0268284Y0320900D01*
X0267666Y0321517D01*
X0266452Y0321517D02*
X0266452Y0323986D01*
X0265835Y0324603D01*
X0263983Y0324603D01*
X0263983Y0320900D01*
X0265835Y0320900D01*
X0266452Y0321517D01*
X0268901Y0322752D02*
X0269518Y0322752D01*
X0270135Y0322134D01*
X0270135Y0321517D01*
X0269518Y0320900D01*
X0269518Y0322752D02*
X0270135Y0323369D01*
X0270135Y0323986D01*
X0269518Y0324603D01*
X0268284Y0324603D01*
X0267666Y0323986D01*
X0287031Y0293426D02*
X0287481Y0293426D01*
X0289283Y0291625D01*
X0289733Y0291625D01*
X0288382Y0290664D02*
X0288833Y0290213D01*
X0288833Y0288862D01*
X0289733Y0288862D02*
X0287031Y0288862D01*
X0287031Y0290213D01*
X0287481Y0290664D01*
X0288382Y0290664D01*
X0287031Y0291625D02*
X0287031Y0293426D01*
X0287031Y0287902D02*
X0287031Y0287001D01*
X0287031Y0287451D02*
X0289283Y0287451D01*
X0289733Y0287001D01*
X0289733Y0286550D01*
X0289283Y0286100D01*
X0297031Y0287001D02*
X0297031Y0287902D01*
X0297031Y0287451D02*
X0299283Y0287451D01*
X0299733Y0287001D01*
X0299733Y0286550D01*
X0299283Y0286100D01*
X0299733Y0288862D02*
X0297031Y0288862D01*
X0297031Y0290213D01*
X0297481Y0290664D01*
X0298382Y0290664D01*
X0298833Y0290213D01*
X0298833Y0288862D01*
X0299283Y0291625D02*
X0299733Y0292075D01*
X0299733Y0292976D01*
X0299283Y0293426D01*
X0298833Y0293426D01*
X0298382Y0292976D01*
X0298382Y0291625D01*
X0299283Y0291625D01*
X0298382Y0291625D02*
X0297481Y0292525D01*
X0297031Y0293426D01*
X0312031Y0292176D02*
X0312031Y0290375D01*
X0313382Y0290375D01*
X0312932Y0291275D01*
X0312932Y0291726D01*
X0313382Y0292176D01*
X0314283Y0292176D01*
X0314733Y0291726D01*
X0314733Y0290825D01*
X0314283Y0290375D01*
X0313382Y0289414D02*
X0313833Y0288963D01*
X0313833Y0287612D01*
X0314733Y0287612D02*
X0312031Y0287612D01*
X0312031Y0288963D01*
X0312481Y0289414D01*
X0313382Y0289414D01*
X0312031Y0286652D02*
X0312031Y0285751D01*
X0312031Y0286201D02*
X0314283Y0286201D01*
X0314733Y0285751D01*
X0314733Y0285300D01*
X0314283Y0284850D01*
X0269818Y0284767D02*
X0269201Y0284150D01*
X0267967Y0284150D01*
X0267350Y0284767D01*
X0267350Y0286002D02*
X0268584Y0286619D01*
X0269201Y0286619D01*
X0269818Y0286002D01*
X0269818Y0284767D01*
X0267350Y0286002D02*
X0267350Y0287853D01*
X0269818Y0287853D01*
X0264901Y0287853D02*
X0264901Y0284150D01*
X0266135Y0284150D02*
X0263666Y0284150D01*
X0262452Y0284767D02*
X0261835Y0284150D01*
X0260601Y0284150D01*
X0259983Y0284767D01*
X0259983Y0287236D01*
X0260601Y0287853D01*
X0261835Y0287853D01*
X0262452Y0287236D01*
X0263666Y0286619D02*
X0264901Y0287853D01*
X0264901Y0277853D02*
X0264901Y0274150D01*
X0266135Y0274150D02*
X0263666Y0274150D01*
X0262452Y0274767D02*
X0261835Y0274150D01*
X0260601Y0274150D01*
X0259983Y0274767D01*
X0259983Y0277236D01*
X0260601Y0277853D01*
X0261835Y0277853D01*
X0262452Y0277236D01*
X0263666Y0276619D02*
X0264901Y0277853D01*
X0267350Y0276002D02*
X0269201Y0276002D01*
X0269818Y0275384D01*
X0269818Y0274767D01*
X0269201Y0274150D01*
X0267967Y0274150D01*
X0267350Y0274767D01*
X0267350Y0276002D01*
X0268584Y0277236D01*
X0269818Y0277853D01*
X0258566Y0266485D02*
X0257949Y0266485D01*
X0257332Y0265868D01*
X0257332Y0264633D01*
X0256715Y0264016D01*
X0256097Y0264016D01*
X0255480Y0264633D01*
X0255480Y0265868D01*
X0256097Y0266485D01*
X0256715Y0266485D01*
X0257332Y0265868D01*
X0257332Y0264633D02*
X0257949Y0264016D01*
X0258566Y0264016D01*
X0259183Y0264633D01*
X0259183Y0265868D01*
X0258566Y0266485D01*
X0259183Y0262802D02*
X0259183Y0260333D01*
X0259183Y0261568D02*
X0255480Y0261568D01*
X0256715Y0260333D01*
X0256097Y0259119D02*
X0255480Y0258502D01*
X0255480Y0257267D01*
X0256097Y0256650D01*
X0258566Y0256650D01*
X0259183Y0257267D01*
X0259183Y0258502D01*
X0258566Y0259119D01*
X0259183Y0246485D02*
X0259183Y0244016D01*
X0259183Y0242802D02*
X0259183Y0240333D01*
X0256715Y0242802D01*
X0256097Y0242802D01*
X0255480Y0242185D01*
X0255480Y0240950D01*
X0256097Y0240333D01*
X0256097Y0239119D02*
X0255480Y0238502D01*
X0255480Y0237267D01*
X0256097Y0236650D01*
X0258566Y0236650D01*
X0259183Y0237267D01*
X0259183Y0238502D01*
X0258566Y0239119D01*
X0256715Y0244016D02*
X0255480Y0245251D01*
X0259183Y0245251D01*
X0274763Y0240236D02*
X0277899Y0237100D01*
X0276331Y0237100D02*
X0276331Y0240236D01*
X0277899Y0240236D02*
X0274763Y0237100D01*
X0274763Y0238668D02*
X0277899Y0238668D01*
X0299384Y0207852D02*
X0300285Y0207852D01*
X0299834Y0207852D02*
X0299834Y0205600D01*
X0299384Y0205150D01*
X0298934Y0205150D01*
X0298483Y0205600D01*
X0301246Y0205150D02*
X0301246Y0207852D01*
X0302597Y0207852D01*
X0303047Y0207402D01*
X0303047Y0206501D01*
X0302597Y0206051D01*
X0301246Y0206051D01*
X0304008Y0206952D02*
X0304909Y0207852D01*
X0304909Y0205150D01*
X0304008Y0205150D02*
X0305810Y0205150D01*
X0306770Y0205600D02*
X0307221Y0205150D01*
X0308122Y0205150D01*
X0308572Y0205600D01*
X0308572Y0206051D01*
X0308122Y0206501D01*
X0307671Y0206501D01*
X0308122Y0206501D02*
X0308572Y0206952D01*
X0308572Y0207402D01*
X0308122Y0207852D01*
X0307221Y0207852D01*
X0306770Y0207402D01*
X0231183Y0317034D02*
X0227480Y0317034D01*
X0227480Y0318885D01*
X0228097Y0319502D01*
X0229332Y0319502D01*
X0229949Y0318885D01*
X0229949Y0317034D01*
X0229949Y0318268D02*
X0231183Y0319502D01*
X0230566Y0320717D02*
X0229949Y0320717D01*
X0229332Y0321334D01*
X0229332Y0322568D01*
X0229949Y0323186D01*
X0230566Y0323186D01*
X0231183Y0322568D01*
X0231183Y0321334D01*
X0230566Y0320717D01*
X0229332Y0321334D02*
X0228715Y0320717D01*
X0228097Y0320717D01*
X0227480Y0321334D01*
X0227480Y0322568D01*
X0228097Y0323186D01*
X0228715Y0323186D01*
X0229332Y0322568D01*
X0230933Y0329167D02*
X0227230Y0329167D01*
X0227230Y0332851D02*
X0230933Y0332851D01*
X0230933Y0335319D01*
X0230933Y0336534D02*
X0230933Y0338385D01*
X0230316Y0339002D01*
X0227847Y0339002D01*
X0227230Y0338385D01*
X0227230Y0336534D01*
X0230933Y0336534D01*
X0229082Y0334085D02*
X0229082Y0332851D01*
X0227230Y0332851D02*
X0227230Y0335319D01*
X0228465Y0340217D02*
X0227230Y0341451D01*
X0230933Y0341451D01*
X0230933Y0340217D02*
X0230933Y0342686D01*
X0230933Y0331636D02*
X0230933Y0329167D01*
X0209683Y0329167D02*
X0209683Y0331636D01*
X0209683Y0332851D02*
X0209683Y0335319D01*
X0209683Y0336534D02*
X0209683Y0338385D01*
X0209066Y0339002D01*
X0206597Y0339002D01*
X0205980Y0338385D01*
X0205980Y0336534D01*
X0209683Y0336534D01*
X0207832Y0334085D02*
X0207832Y0332851D01*
X0209683Y0332851D02*
X0205980Y0332851D01*
X0205980Y0335319D01*
X0206597Y0340217D02*
X0205980Y0340834D01*
X0205980Y0342068D01*
X0206597Y0342686D01*
X0207215Y0342686D01*
X0209683Y0340217D01*
X0209683Y0342686D01*
X0209683Y0329167D02*
X0205980Y0329167D01*
X0205597Y0323186D02*
X0204980Y0322568D01*
X0204980Y0321334D01*
X0205597Y0320717D01*
X0206215Y0320717D01*
X0206832Y0321334D01*
X0206832Y0323186D01*
X0208066Y0323186D02*
X0205597Y0323186D01*
X0208066Y0323186D02*
X0208683Y0322568D01*
X0208683Y0321334D01*
X0208066Y0320717D01*
X0208683Y0319502D02*
X0207449Y0318268D01*
X0207449Y0318885D02*
X0207449Y0317034D01*
X0208683Y0317034D02*
X0204980Y0317034D01*
X0204980Y0318885D01*
X0205597Y0319502D01*
X0206832Y0319502D01*
X0207449Y0318885D01*
X0054933Y0239436D02*
X0054933Y0236967D01*
X0052465Y0239436D01*
X0051847Y0239436D01*
X0051230Y0238818D01*
X0051230Y0237584D01*
X0051847Y0236967D01*
X0051847Y0235752D02*
X0053082Y0235752D01*
X0053699Y0235135D01*
X0053699Y0233284D01*
X0053699Y0234518D02*
X0054933Y0235752D01*
X0054933Y0233284D02*
X0051230Y0233284D01*
X0051230Y0235135D01*
X0051847Y0235752D01*
X0046183Y0236834D02*
X0046183Y0238068D01*
X0045566Y0238686D01*
X0044949Y0238686D01*
X0044332Y0238068D01*
X0044332Y0236217D01*
X0045566Y0236217D01*
X0046183Y0236834D01*
X0045566Y0235002D02*
X0046183Y0234385D01*
X0046183Y0233151D01*
X0045566Y0232534D01*
X0043097Y0232534D01*
X0042480Y0233151D01*
X0042480Y0234385D01*
X0043097Y0235002D01*
X0044332Y0236217D02*
X0043097Y0237451D01*
X0042480Y0238686D01*
X0036183Y0238068D02*
X0036183Y0236834D01*
X0035566Y0236217D01*
X0035566Y0235002D02*
X0036183Y0234385D01*
X0036183Y0233151D01*
X0035566Y0232534D01*
X0033097Y0232534D01*
X0032480Y0233151D01*
X0032480Y0234385D01*
X0033097Y0235002D01*
X0032480Y0236217D02*
X0034332Y0236217D01*
X0033715Y0237451D01*
X0033715Y0238068D01*
X0034332Y0238686D01*
X0035566Y0238686D01*
X0036183Y0238068D01*
X0032480Y0238686D02*
X0032480Y0236217D01*
X0029183Y0292150D02*
X0025480Y0292150D01*
X0025480Y0294002D01*
X0026097Y0294619D01*
X0027332Y0294619D01*
X0027949Y0294002D01*
X0027949Y0292150D01*
X0027949Y0293384D02*
X0029183Y0294619D01*
X0028566Y0295833D02*
X0029183Y0296450D01*
X0029183Y0297685D01*
X0028566Y0298302D01*
X0027949Y0298302D01*
X0027332Y0297685D01*
X0027332Y0297068D01*
X0027332Y0297685D02*
X0026715Y0298302D01*
X0026097Y0298302D01*
X0025480Y0297685D01*
X0025480Y0296450D01*
X0026097Y0295833D01*
X0026097Y0311650D02*
X0025480Y0312267D01*
X0025480Y0313502D01*
X0026097Y0314119D01*
X0026715Y0315333D02*
X0025480Y0316568D01*
X0029183Y0316568D01*
X0029183Y0317802D02*
X0029183Y0315333D01*
X0028566Y0314119D02*
X0029183Y0313502D01*
X0029183Y0312267D01*
X0028566Y0311650D01*
X0026097Y0311650D01*
X0026715Y0319016D02*
X0025480Y0320251D01*
X0029183Y0320251D01*
X0029183Y0321485D02*
X0029183Y0319016D01*
X0028566Y0331650D02*
X0029183Y0332267D01*
X0029183Y0333502D01*
X0028566Y0334119D01*
X0028566Y0335333D02*
X0029183Y0335950D01*
X0029183Y0337185D01*
X0028566Y0337802D01*
X0026097Y0337802D01*
X0025480Y0337185D01*
X0025480Y0335950D01*
X0026097Y0335333D01*
X0026715Y0335333D01*
X0027332Y0335950D01*
X0027332Y0337802D01*
X0026097Y0334119D02*
X0025480Y0333502D01*
X0025480Y0332267D01*
X0026097Y0331650D01*
X0028566Y0331650D01*
X0080334Y0163802D02*
X0081235Y0163802D01*
X0080784Y0163802D02*
X0080784Y0161550D01*
X0080334Y0161100D01*
X0079884Y0161100D01*
X0079433Y0161550D01*
X0082196Y0161100D02*
X0082196Y0163802D01*
X0083547Y0163802D01*
X0083997Y0163352D01*
X0083997Y0162451D01*
X0083547Y0162001D01*
X0082196Y0162001D01*
X0084958Y0162902D02*
X0085859Y0163802D01*
X0085859Y0161100D01*
X0084958Y0161100D02*
X0086760Y0161100D01*
X0087720Y0161550D02*
X0089522Y0163352D01*
X0089522Y0161550D01*
X0089072Y0161100D01*
X0088171Y0161100D01*
X0087720Y0161550D01*
X0087720Y0163352D01*
X0088171Y0163802D01*
X0089072Y0163802D01*
X0089522Y0163352D01*
X0064818Y0146002D02*
X0062350Y0146002D01*
X0064201Y0147853D01*
X0064201Y0144150D01*
X0061135Y0144150D02*
X0058666Y0144150D01*
X0061135Y0146619D01*
X0061135Y0147236D01*
X0060518Y0147853D01*
X0059284Y0147853D01*
X0058666Y0147236D01*
X0057452Y0147236D02*
X0056835Y0147853D01*
X0055601Y0147853D01*
X0054983Y0147236D01*
X0054983Y0144767D01*
X0055601Y0144150D01*
X0056835Y0144150D01*
X0057452Y0144767D01*
X0068183Y0136550D02*
X0068634Y0136100D01*
X0069084Y0136100D01*
X0069534Y0136550D01*
X0069534Y0138802D01*
X0069084Y0138802D02*
X0069985Y0138802D01*
X0070946Y0138802D02*
X0072297Y0138802D01*
X0072747Y0138352D01*
X0072747Y0137451D01*
X0072297Y0137001D01*
X0070946Y0137001D01*
X0070946Y0136100D02*
X0070946Y0138802D01*
X0073708Y0137902D02*
X0074609Y0138802D01*
X0074609Y0136100D01*
X0073708Y0136100D02*
X0075510Y0136100D01*
X0076470Y0136100D02*
X0078272Y0137902D01*
X0078272Y0138352D01*
X0077822Y0138802D01*
X0076921Y0138802D01*
X0076470Y0138352D01*
X0076470Y0136100D02*
X0078272Y0136100D01*
X0079433Y0136550D02*
X0079884Y0136100D01*
X0080334Y0136100D01*
X0080784Y0136550D01*
X0080784Y0138802D01*
X0080334Y0138802D02*
X0081235Y0138802D01*
X0082196Y0138802D02*
X0083547Y0138802D01*
X0083997Y0138352D01*
X0083997Y0137451D01*
X0083547Y0137001D01*
X0082196Y0137001D01*
X0082196Y0136100D02*
X0082196Y0138802D01*
X0084958Y0137902D02*
X0085859Y0138802D01*
X0085859Y0136100D01*
X0084958Y0136100D02*
X0086760Y0136100D01*
X0087720Y0136100D02*
X0089522Y0136100D01*
X0088621Y0136100D02*
X0088621Y0138802D01*
X0087720Y0137902D01*
X0120367Y0129603D02*
X0120367Y0125900D01*
X0120367Y0127134D02*
X0122219Y0127134D01*
X0122836Y0127752D01*
X0122836Y0128986D01*
X0122219Y0129603D01*
X0120367Y0129603D01*
X0121601Y0127134D02*
X0122836Y0125900D01*
X0124050Y0127752D02*
X0126519Y0127752D01*
X0125902Y0129603D02*
X0125902Y0125900D01*
X0124050Y0127752D02*
X0125902Y0129603D01*
X0135480Y0122185D02*
X0135480Y0120950D01*
X0136097Y0120333D01*
X0136097Y0119119D02*
X0135480Y0118502D01*
X0135480Y0117267D01*
X0136097Y0116650D01*
X0138566Y0116650D01*
X0139183Y0117267D01*
X0139183Y0118502D01*
X0138566Y0119119D01*
X0139183Y0120333D02*
X0136715Y0122802D01*
X0136097Y0122802D01*
X0135480Y0122185D01*
X0139183Y0122802D02*
X0139183Y0120333D01*
X0145480Y0118502D02*
X0145480Y0117267D01*
X0146097Y0116650D01*
X0148566Y0116650D01*
X0149183Y0117267D01*
X0149183Y0118502D01*
X0148566Y0119119D01*
X0147332Y0120333D02*
X0147332Y0122802D01*
X0149183Y0122185D02*
X0145480Y0122185D01*
X0147332Y0120333D01*
X0146097Y0119119D02*
X0145480Y0118502D01*
X0155480Y0118502D02*
X0155480Y0117267D01*
X0156097Y0116650D01*
X0158566Y0116650D01*
X0159183Y0117267D01*
X0159183Y0118502D01*
X0158566Y0119119D01*
X0159183Y0120333D02*
X0159183Y0122802D01*
X0159183Y0121568D02*
X0155480Y0121568D01*
X0156715Y0120333D01*
X0156097Y0119119D02*
X0155480Y0118502D01*
X0156097Y0124016D02*
X0155480Y0124633D01*
X0155480Y0125868D01*
X0156097Y0126485D01*
X0158566Y0124016D01*
X0159183Y0124633D01*
X0159183Y0125868D01*
X0158566Y0126485D01*
X0156097Y0126485D01*
X0156097Y0124016D02*
X0158566Y0124016D01*
X0165480Y0124633D02*
X0166097Y0124016D01*
X0165480Y0124633D02*
X0165480Y0125868D01*
X0166097Y0126485D01*
X0166715Y0126485D01*
X0169183Y0124016D01*
X0169183Y0126485D01*
X0169183Y0122802D02*
X0169183Y0120333D01*
X0169183Y0121568D02*
X0165480Y0121568D01*
X0166715Y0120333D01*
X0166097Y0119119D02*
X0165480Y0118502D01*
X0165480Y0117267D01*
X0166097Y0116650D01*
X0168566Y0116650D01*
X0169183Y0117267D01*
X0169183Y0118502D01*
X0168566Y0119119D01*
X0080269Y0072002D02*
X0080269Y0070150D01*
X0080269Y0072002D02*
X0079652Y0072619D01*
X0077800Y0072619D01*
X0077800Y0070150D01*
X0076586Y0071384D02*
X0074117Y0071384D01*
X0074117Y0070767D02*
X0074117Y0072002D01*
X0074734Y0072619D01*
X0075969Y0072619D01*
X0076586Y0072002D01*
X0076586Y0071384D01*
X0075969Y0070150D02*
X0074734Y0070150D01*
X0074117Y0070767D01*
X0072903Y0070767D02*
X0072285Y0071384D01*
X0071051Y0071384D01*
X0070434Y0072002D01*
X0071051Y0072619D01*
X0072903Y0072619D01*
X0072903Y0070767D02*
X0072285Y0070150D01*
X0070434Y0070150D01*
X0069216Y0070150D02*
X0067365Y0071384D01*
X0069216Y0072619D01*
X0067365Y0073853D02*
X0067365Y0070150D01*
X0066144Y0070150D02*
X0064909Y0070150D01*
X0065526Y0070150D02*
X0065526Y0072619D01*
X0064909Y0072619D01*
X0063691Y0072619D02*
X0063074Y0072619D01*
X0061840Y0071384D01*
X0061840Y0070150D02*
X0061840Y0072619D01*
X0060625Y0072619D02*
X0058774Y0072619D01*
X0058157Y0072002D01*
X0058157Y0070767D01*
X0058774Y0070150D01*
X0060625Y0070150D01*
X0060625Y0073853D01*
X0056942Y0072002D02*
X0056942Y0070150D01*
X0056942Y0072002D02*
X0056325Y0072619D01*
X0054474Y0072619D01*
X0054474Y0070150D01*
X0053259Y0071384D02*
X0050790Y0071384D01*
X0050790Y0070767D02*
X0050790Y0072002D01*
X0051408Y0072619D01*
X0052642Y0072619D01*
X0053259Y0072002D01*
X0053259Y0071384D01*
X0052642Y0070150D02*
X0051408Y0070150D01*
X0050790Y0070767D01*
X0049576Y0070150D02*
X0049576Y0073853D01*
X0049576Y0072002D02*
X0047107Y0072002D01*
X0045883Y0070767D02*
X0045883Y0070150D01*
X0045266Y0070150D01*
X0045266Y0070767D01*
X0045883Y0070767D01*
X0047107Y0070150D02*
X0047107Y0073853D01*
X0044051Y0073236D02*
X0043434Y0073853D01*
X0042200Y0073853D01*
X0041583Y0073236D01*
X0041583Y0072619D01*
X0042200Y0072002D01*
X0043434Y0072002D01*
X0044051Y0071384D01*
X0044051Y0070767D01*
X0043434Y0070150D01*
X0042200Y0070150D01*
X0041583Y0070767D01*
X0043493Y0064853D02*
X0043493Y0061150D01*
X0043493Y0063002D02*
X0045962Y0063002D01*
X0045962Y0064853D02*
X0045962Y0061150D01*
X0047177Y0061150D02*
X0047177Y0064853D01*
X0048411Y0063619D01*
X0049645Y0064853D01*
X0049645Y0061150D01*
X0050860Y0063002D02*
X0053328Y0063002D01*
X0054543Y0063619D02*
X0055777Y0064853D01*
X0055777Y0061150D01*
X0054543Y0061150D02*
X0057012Y0061150D01*
X0058226Y0061150D02*
X0060695Y0061150D01*
X0059460Y0061150D02*
X0059460Y0064853D01*
X0058226Y0063619D01*
X0065592Y0063619D02*
X0066827Y0061150D01*
X0068061Y0063619D01*
X0069275Y0064236D02*
X0069275Y0061767D01*
X0071744Y0064236D01*
X0071744Y0061767D01*
X0071127Y0061150D01*
X0069893Y0061150D01*
X0069275Y0061767D01*
X0069275Y0064236D02*
X0069893Y0064853D01*
X0071127Y0064853D01*
X0071744Y0064236D01*
X0072959Y0061767D02*
X0073576Y0061767D01*
X0073576Y0061150D01*
X0072959Y0061150D01*
X0072959Y0061767D01*
X0074800Y0061150D02*
X0077269Y0061150D01*
X0076035Y0061150D02*
X0076035Y0064853D01*
X0074800Y0063619D01*
X0065526Y0073853D02*
X0065526Y0074470D01*
X0044201Y0144150D02*
X0042967Y0144150D01*
X0042350Y0144767D01*
X0041135Y0144150D02*
X0038666Y0144150D01*
X0041135Y0146619D01*
X0041135Y0147236D01*
X0040518Y0147853D01*
X0039284Y0147853D01*
X0038666Y0147236D01*
X0037452Y0147236D02*
X0036835Y0147853D01*
X0035601Y0147853D01*
X0034983Y0147236D01*
X0034983Y0144767D01*
X0035601Y0144150D01*
X0036835Y0144150D01*
X0037452Y0144767D01*
X0042350Y0147236D02*
X0042967Y0147853D01*
X0044201Y0147853D01*
X0044818Y0147236D01*
X0044818Y0146619D01*
X0044201Y0146002D01*
X0044818Y0145384D01*
X0044818Y0144767D01*
X0044201Y0144150D01*
X0044201Y0146002D02*
X0043584Y0146002D01*
D14*
X0231181Y0292313D02*
X0231181Y0293714D01*
X0231648Y0294181D01*
X0232582Y0294181D01*
X0233049Y0293714D01*
X0233049Y0292313D01*
X0233049Y0293247D02*
X0233983Y0294181D01*
X0233983Y0295075D02*
X0233983Y0296944D01*
X0233983Y0297838D02*
X0232115Y0299706D01*
X0231648Y0299706D01*
X0231181Y0299239D01*
X0231181Y0298305D01*
X0231648Y0297838D01*
X0231181Y0296009D02*
X0233983Y0296009D01*
X0233983Y0297838D02*
X0233983Y0299706D01*
X0231181Y0296009D02*
X0232115Y0295075D01*
X0231181Y0292313D02*
X0233983Y0292313D01*
X0229359Y0305350D02*
X0228425Y0305350D01*
X0227958Y0305817D01*
X0227064Y0305350D02*
X0225196Y0305350D01*
X0226130Y0305350D02*
X0226130Y0308152D01*
X0225196Y0307218D01*
X0224302Y0307685D02*
X0223835Y0308152D01*
X0222900Y0308152D01*
X0222433Y0307685D01*
X0222433Y0305817D01*
X0222900Y0305350D01*
X0223835Y0305350D01*
X0224302Y0305817D01*
X0227958Y0307685D02*
X0228425Y0308152D01*
X0229359Y0308152D01*
X0229826Y0307685D01*
X0229826Y0307218D01*
X0229359Y0306751D01*
X0229826Y0306284D01*
X0229826Y0305817D01*
X0229359Y0305350D01*
X0229359Y0306751D02*
X0228892Y0306751D01*
X0217326Y0306751D02*
X0215458Y0306751D01*
X0216859Y0308152D01*
X0216859Y0305350D01*
X0214564Y0305350D02*
X0212696Y0305350D01*
X0213630Y0305350D02*
X0213630Y0308152D01*
X0212696Y0307218D01*
X0211802Y0307685D02*
X0211335Y0308152D01*
X0210400Y0308152D01*
X0209933Y0307685D01*
X0209933Y0305817D01*
X0210400Y0305350D01*
X0211335Y0305350D01*
X0211802Y0305817D01*
X0290431Y0296038D02*
X0290431Y0295104D01*
X0290898Y0294637D01*
X0292766Y0294637D01*
X0293233Y0295104D01*
X0293233Y0296038D01*
X0292766Y0296505D01*
X0290898Y0296505D02*
X0290431Y0296038D01*
X0290431Y0293743D02*
X0290431Y0291875D01*
X0290431Y0290981D02*
X0293233Y0290981D01*
X0292299Y0290046D01*
X0293233Y0289112D01*
X0290431Y0289112D01*
X0290898Y0288218D02*
X0290431Y0287751D01*
X0290431Y0286817D01*
X0290898Y0286350D01*
X0291365Y0286350D01*
X0291832Y0286817D01*
X0291832Y0287751D01*
X0292299Y0288218D01*
X0292766Y0288218D01*
X0293233Y0287751D01*
X0293233Y0286817D01*
X0292766Y0286350D01*
X0293233Y0292809D02*
X0290431Y0292809D01*
X0301681Y0293743D02*
X0302615Y0292809D01*
X0301681Y0291875D01*
X0304483Y0291875D01*
X0304483Y0290981D02*
X0304483Y0289112D01*
X0301681Y0289112D01*
X0302148Y0288218D02*
X0301681Y0287751D01*
X0301681Y0286817D01*
X0302148Y0286350D01*
X0304016Y0286350D01*
X0304483Y0286817D01*
X0304483Y0287751D01*
X0304016Y0288218D01*
X0304483Y0293743D02*
X0301681Y0293743D01*
X0301681Y0294637D02*
X0301681Y0296038D01*
X0302148Y0296505D01*
X0303082Y0296505D01*
X0303549Y0296038D01*
X0303549Y0294637D01*
X0304483Y0294637D02*
X0301681Y0294637D01*
X0315431Y0293743D02*
X0318233Y0293743D01*
X0317299Y0292809D01*
X0318233Y0291875D01*
X0315431Y0291875D01*
X0316365Y0290981D02*
X0318233Y0290981D01*
X0316832Y0290981D02*
X0316832Y0289112D01*
X0316365Y0289112D02*
X0315431Y0290046D01*
X0316365Y0290981D01*
X0316365Y0289112D02*
X0318233Y0289112D01*
X0318233Y0288218D02*
X0317299Y0287284D01*
X0317299Y0287751D02*
X0317299Y0286350D01*
X0318233Y0286350D02*
X0315431Y0286350D01*
X0315431Y0287751D01*
X0315898Y0288218D01*
X0316832Y0288218D01*
X0317299Y0287751D01*
D15*
X0290853Y0325000D02*
X0290855Y0325184D01*
X0290862Y0325367D01*
X0290873Y0325550D01*
X0290889Y0325733D01*
X0290909Y0325916D01*
X0290934Y0326098D01*
X0290963Y0326279D01*
X0290997Y0326459D01*
X0291035Y0326639D01*
X0291077Y0326817D01*
X0291124Y0326995D01*
X0291175Y0327171D01*
X0291231Y0327346D01*
X0291290Y0327520D01*
X0291354Y0327692D01*
X0291422Y0327862D01*
X0291495Y0328031D01*
X0291571Y0328198D01*
X0291652Y0328363D01*
X0291736Y0328526D01*
X0291825Y0328687D01*
X0291917Y0328845D01*
X0292013Y0329002D01*
X0292114Y0329156D01*
X0292217Y0329307D01*
X0292325Y0329456D01*
X0292436Y0329602D01*
X0292551Y0329745D01*
X0292669Y0329886D01*
X0292791Y0330023D01*
X0292916Y0330158D01*
X0293044Y0330289D01*
X0293175Y0330417D01*
X0293310Y0330542D01*
X0293447Y0330664D01*
X0293588Y0330782D01*
X0293731Y0330897D01*
X0293877Y0331008D01*
X0294026Y0331116D01*
X0294177Y0331219D01*
X0294331Y0331320D01*
X0294488Y0331416D01*
X0294646Y0331508D01*
X0294807Y0331597D01*
X0294970Y0331681D01*
X0295135Y0331762D01*
X0295302Y0331838D01*
X0295471Y0331911D01*
X0295641Y0331979D01*
X0295813Y0332043D01*
X0295987Y0332102D01*
X0296162Y0332158D01*
X0296338Y0332209D01*
X0296516Y0332256D01*
X0296694Y0332298D01*
X0296874Y0332336D01*
X0297054Y0332370D01*
X0297235Y0332399D01*
X0297417Y0332424D01*
X0297600Y0332444D01*
X0297783Y0332460D01*
X0297966Y0332471D01*
X0298149Y0332478D01*
X0298333Y0332480D01*
X0298517Y0332478D01*
X0298700Y0332471D01*
X0298883Y0332460D01*
X0299066Y0332444D01*
X0299249Y0332424D01*
X0299431Y0332399D01*
X0299612Y0332370D01*
X0299792Y0332336D01*
X0299972Y0332298D01*
X0300150Y0332256D01*
X0300328Y0332209D01*
X0300504Y0332158D01*
X0300679Y0332102D01*
X0300853Y0332043D01*
X0301025Y0331979D01*
X0301195Y0331911D01*
X0301364Y0331838D01*
X0301531Y0331762D01*
X0301696Y0331681D01*
X0301859Y0331597D01*
X0302020Y0331508D01*
X0302178Y0331416D01*
X0302335Y0331320D01*
X0302489Y0331219D01*
X0302640Y0331116D01*
X0302789Y0331008D01*
X0302935Y0330897D01*
X0303078Y0330782D01*
X0303219Y0330664D01*
X0303356Y0330542D01*
X0303491Y0330417D01*
X0303622Y0330289D01*
X0303750Y0330158D01*
X0303875Y0330023D01*
X0303997Y0329886D01*
X0304115Y0329745D01*
X0304230Y0329602D01*
X0304341Y0329456D01*
X0304449Y0329307D01*
X0304552Y0329156D01*
X0304653Y0329002D01*
X0304749Y0328845D01*
X0304841Y0328687D01*
X0304930Y0328526D01*
X0305014Y0328363D01*
X0305095Y0328198D01*
X0305171Y0328031D01*
X0305244Y0327862D01*
X0305312Y0327692D01*
X0305376Y0327520D01*
X0305435Y0327346D01*
X0305491Y0327171D01*
X0305542Y0326995D01*
X0305589Y0326817D01*
X0305631Y0326639D01*
X0305669Y0326459D01*
X0305703Y0326279D01*
X0305732Y0326098D01*
X0305757Y0325916D01*
X0305777Y0325733D01*
X0305793Y0325550D01*
X0305804Y0325367D01*
X0305811Y0325184D01*
X0305813Y0325000D01*
X0305811Y0324816D01*
X0305804Y0324633D01*
X0305793Y0324450D01*
X0305777Y0324267D01*
X0305757Y0324084D01*
X0305732Y0323902D01*
X0305703Y0323721D01*
X0305669Y0323541D01*
X0305631Y0323361D01*
X0305589Y0323183D01*
X0305542Y0323005D01*
X0305491Y0322829D01*
X0305435Y0322654D01*
X0305376Y0322480D01*
X0305312Y0322308D01*
X0305244Y0322138D01*
X0305171Y0321969D01*
X0305095Y0321802D01*
X0305014Y0321637D01*
X0304930Y0321474D01*
X0304841Y0321313D01*
X0304749Y0321155D01*
X0304653Y0320998D01*
X0304552Y0320844D01*
X0304449Y0320693D01*
X0304341Y0320544D01*
X0304230Y0320398D01*
X0304115Y0320255D01*
X0303997Y0320114D01*
X0303875Y0319977D01*
X0303750Y0319842D01*
X0303622Y0319711D01*
X0303491Y0319583D01*
X0303356Y0319458D01*
X0303219Y0319336D01*
X0303078Y0319218D01*
X0302935Y0319103D01*
X0302789Y0318992D01*
X0302640Y0318884D01*
X0302489Y0318781D01*
X0302335Y0318680D01*
X0302178Y0318584D01*
X0302020Y0318492D01*
X0301859Y0318403D01*
X0301696Y0318319D01*
X0301531Y0318238D01*
X0301364Y0318162D01*
X0301195Y0318089D01*
X0301025Y0318021D01*
X0300853Y0317957D01*
X0300679Y0317898D01*
X0300504Y0317842D01*
X0300328Y0317791D01*
X0300150Y0317744D01*
X0299972Y0317702D01*
X0299792Y0317664D01*
X0299612Y0317630D01*
X0299431Y0317601D01*
X0299249Y0317576D01*
X0299066Y0317556D01*
X0298883Y0317540D01*
X0298700Y0317529D01*
X0298517Y0317522D01*
X0298333Y0317520D01*
X0298149Y0317522D01*
X0297966Y0317529D01*
X0297783Y0317540D01*
X0297600Y0317556D01*
X0297417Y0317576D01*
X0297235Y0317601D01*
X0297054Y0317630D01*
X0296874Y0317664D01*
X0296694Y0317702D01*
X0296516Y0317744D01*
X0296338Y0317791D01*
X0296162Y0317842D01*
X0295987Y0317898D01*
X0295813Y0317957D01*
X0295641Y0318021D01*
X0295471Y0318089D01*
X0295302Y0318162D01*
X0295135Y0318238D01*
X0294970Y0318319D01*
X0294807Y0318403D01*
X0294646Y0318492D01*
X0294488Y0318584D01*
X0294331Y0318680D01*
X0294177Y0318781D01*
X0294026Y0318884D01*
X0293877Y0318992D01*
X0293731Y0319103D01*
X0293588Y0319218D01*
X0293447Y0319336D01*
X0293310Y0319458D01*
X0293175Y0319583D01*
X0293044Y0319711D01*
X0292916Y0319842D01*
X0292791Y0319977D01*
X0292669Y0320114D01*
X0292551Y0320255D01*
X0292436Y0320398D01*
X0292325Y0320544D01*
X0292217Y0320693D01*
X0292114Y0320844D01*
X0292013Y0320998D01*
X0291917Y0321155D01*
X0291825Y0321313D01*
X0291736Y0321474D01*
X0291652Y0321637D01*
X0291571Y0321802D01*
X0291495Y0321969D01*
X0291422Y0322138D01*
X0291354Y0322308D01*
X0291290Y0322480D01*
X0291231Y0322654D01*
X0291175Y0322829D01*
X0291124Y0323005D01*
X0291077Y0323183D01*
X0291035Y0323361D01*
X0290997Y0323541D01*
X0290963Y0323721D01*
X0290934Y0323902D01*
X0290909Y0324084D01*
X0290889Y0324267D01*
X0290873Y0324450D01*
X0290862Y0324633D01*
X0290855Y0324816D01*
X0290853Y0325000D01*
X0254457Y0312823D02*
X0254457Y0302177D01*
X0249709Y0302177D01*
X0249709Y0312823D01*
X0254457Y0312823D01*
X0203333Y0312500D02*
X0203333Y0307500D01*
X0200833Y0305000D01*
X0203333Y0302500D01*
X0203333Y0297500D01*
X0200833Y0295000D01*
X0203333Y0292500D01*
X0203333Y0287500D01*
X0200833Y0285000D01*
X0203333Y0282500D01*
X0203333Y0277500D01*
X0200833Y0275000D01*
X0203333Y0272500D01*
X0203333Y0267500D01*
X0200833Y0265000D01*
X0203333Y0262500D01*
X0203333Y0257500D01*
X0200833Y0255000D01*
X0203333Y0252500D01*
X0203333Y0247500D01*
X0200833Y0245000D01*
X0203333Y0242500D01*
X0203333Y0237500D01*
X0200833Y0235000D01*
X0203333Y0232500D01*
X0203333Y0227500D01*
X0200833Y0225000D01*
X0203333Y0222500D01*
X0203333Y0217500D01*
X0200833Y0215000D01*
X0203333Y0212500D01*
X0203333Y0207500D01*
X0200833Y0205000D01*
X0203333Y0202500D01*
X0203333Y0197500D01*
X0200833Y0195000D01*
X0203333Y0192500D01*
X0203333Y0187500D01*
X0200833Y0185000D01*
X0203333Y0182500D01*
X0203333Y0177500D01*
X0200833Y0175000D01*
X0203333Y0172500D01*
X0203333Y0167500D01*
X0200833Y0165000D01*
X0203333Y0162500D01*
X0203333Y0157500D01*
X0200833Y0155000D01*
X0195833Y0155000D01*
X0193333Y0157500D01*
X0193333Y0162500D01*
X0195833Y0165000D01*
X0193333Y0167500D01*
X0193333Y0172500D01*
X0195833Y0175000D01*
X0193333Y0177500D01*
X0193333Y0182500D01*
X0195833Y0185000D01*
X0193333Y0187500D01*
X0193333Y0192500D01*
X0195833Y0195000D01*
X0193333Y0197500D01*
X0193333Y0202500D01*
X0195833Y0205000D01*
X0193333Y0207500D01*
X0193333Y0212500D01*
X0195833Y0215000D01*
X0193333Y0217500D01*
X0193333Y0222500D01*
X0195833Y0225000D01*
X0193333Y0227500D01*
X0193333Y0232500D01*
X0195833Y0235000D01*
X0193333Y0237500D01*
X0193333Y0242500D01*
X0195833Y0245000D01*
X0193333Y0247500D01*
X0193333Y0252500D01*
X0195833Y0255000D01*
X0193333Y0257500D01*
X0193333Y0262500D01*
X0195833Y0265000D01*
X0193333Y0267500D01*
X0193333Y0272500D01*
X0195833Y0275000D01*
X0193333Y0277500D01*
X0193333Y0282500D01*
X0195833Y0285000D01*
X0193333Y0287500D01*
X0193333Y0292500D01*
X0195833Y0295000D01*
X0193333Y0297500D01*
X0193333Y0302500D01*
X0195833Y0305000D01*
X0193333Y0307500D01*
X0193333Y0312500D01*
X0195833Y0315000D01*
X0193333Y0317500D01*
X0193333Y0322500D01*
X0195833Y0325000D01*
X0193333Y0327500D01*
X0193333Y0332500D01*
X0195833Y0335000D01*
X0200833Y0335000D01*
X0203333Y0332500D01*
X0203333Y0327500D01*
X0200833Y0325000D01*
X0203333Y0322500D01*
X0203333Y0317500D01*
X0200833Y0315000D01*
X0203333Y0312500D01*
X0193333Y0312500D02*
X0190833Y0315000D01*
X0193333Y0317500D01*
X0185833Y0315000D02*
X0183333Y0317500D01*
X0183333Y0322500D01*
X0185833Y0325000D01*
X0183333Y0327500D01*
X0183333Y0332500D01*
X0185833Y0335000D01*
X0190833Y0335000D01*
X0193333Y0332500D01*
X0193333Y0327500D02*
X0190833Y0325000D01*
X0193333Y0322500D01*
X0185833Y0315000D02*
X0183333Y0312500D01*
X0183333Y0307500D01*
X0185833Y0305000D01*
X0183333Y0302500D01*
X0183333Y0297500D01*
X0185833Y0295000D01*
X0183333Y0292500D01*
X0183333Y0287500D01*
X0185833Y0285000D01*
X0183333Y0282500D01*
X0183333Y0277500D01*
X0185833Y0275000D01*
X0183333Y0272500D01*
X0183333Y0267500D01*
X0185833Y0265000D01*
X0183333Y0262500D01*
X0183333Y0257500D01*
X0185833Y0255000D01*
X0183333Y0252500D01*
X0183333Y0247500D01*
X0185833Y0245000D01*
X0183333Y0242500D01*
X0183333Y0237500D01*
X0185833Y0235000D01*
X0183333Y0232500D01*
X0183333Y0227500D01*
X0185833Y0225000D01*
X0183333Y0222500D01*
X0183333Y0217500D01*
X0185833Y0215000D01*
X0183333Y0212500D01*
X0183333Y0207500D01*
X0185833Y0205000D01*
X0183333Y0202500D01*
X0183333Y0197500D01*
X0185833Y0195000D01*
X0183333Y0192500D01*
X0183333Y0187500D01*
X0185833Y0185000D01*
X0183333Y0182500D01*
X0183333Y0177500D01*
X0185833Y0175000D01*
X0183333Y0172500D01*
X0183333Y0167500D01*
X0185833Y0165000D01*
X0183333Y0162500D01*
X0183333Y0157500D01*
X0185833Y0155000D01*
X0190833Y0155000D01*
X0193333Y0157500D01*
X0193333Y0155000D02*
X0188333Y0145000D01*
X0118333Y0145000D01*
X0113333Y0155000D01*
X0113333Y0345000D01*
X0193333Y0345000D01*
X0193333Y0155000D01*
X0193333Y0162500D02*
X0190833Y0165000D01*
X0193333Y0167500D01*
X0193333Y0172500D02*
X0190833Y0175000D01*
X0193333Y0177500D01*
X0193333Y0182500D02*
X0190833Y0185000D01*
X0193333Y0187500D01*
X0193333Y0192500D02*
X0190833Y0195000D01*
X0193333Y0197500D01*
X0193333Y0202500D02*
X0190833Y0205000D01*
X0193333Y0207500D01*
X0193333Y0212500D02*
X0190833Y0215000D01*
X0193333Y0217500D01*
X0193333Y0222500D02*
X0190833Y0225000D01*
X0193333Y0227500D01*
X0193333Y0232500D02*
X0190833Y0235000D01*
X0193333Y0237500D01*
X0193333Y0242500D02*
X0190833Y0245000D01*
X0193333Y0247500D01*
X0193333Y0252500D02*
X0190833Y0255000D01*
X0193333Y0257500D01*
X0193333Y0262500D02*
X0190833Y0265000D01*
X0193333Y0267500D01*
X0193333Y0272500D02*
X0190833Y0275000D01*
X0193333Y0277500D01*
X0193333Y0282500D02*
X0190833Y0285000D01*
X0193333Y0287500D01*
X0193333Y0292500D02*
X0190833Y0295000D01*
X0193333Y0297500D01*
X0193333Y0302500D02*
X0190833Y0305000D01*
X0193333Y0307500D01*
X0238333Y0266691D02*
X0238333Y0263309D01*
X0242277Y0262209D02*
X0244390Y0262209D01*
X0248333Y0263309D02*
X0248333Y0266691D01*
X0244390Y0202791D02*
X0242277Y0202791D01*
X0238333Y0201691D02*
X0238333Y0198309D01*
X0248333Y0198309D02*
X0248333Y0201691D01*
X0128656Y0107374D02*
X0128656Y0102626D01*
X0118010Y0102626D01*
X0118010Y0107374D01*
X0128656Y0107374D01*
X0120833Y0155000D02*
X0115833Y0155000D01*
X0113333Y0157500D01*
X0113333Y0162500D01*
X0115833Y0165000D01*
X0113333Y0167500D01*
X0113333Y0172500D01*
X0115833Y0175000D01*
X0113333Y0177500D01*
X0113333Y0182500D01*
X0115833Y0185000D01*
X0113333Y0187500D01*
X0113333Y0192500D01*
X0115833Y0195000D01*
X0113333Y0197500D01*
X0113333Y0202500D01*
X0115833Y0205000D01*
X0113333Y0207500D01*
X0113333Y0212500D01*
X0115833Y0215000D01*
X0113333Y0217500D01*
X0113333Y0222500D01*
X0115833Y0225000D01*
X0113333Y0227500D01*
X0113333Y0232500D01*
X0115833Y0235000D01*
X0113333Y0237500D01*
X0113333Y0242500D01*
X0115833Y0245000D01*
X0113333Y0247500D01*
X0113333Y0252500D01*
X0115833Y0255000D01*
X0113333Y0257500D01*
X0113333Y0262500D01*
X0115833Y0265000D01*
X0113333Y0267500D01*
X0113333Y0272500D01*
X0115833Y0275000D01*
X0113333Y0277500D01*
X0113333Y0282500D01*
X0115833Y0285000D01*
X0113333Y0287500D01*
X0113333Y0292500D01*
X0115833Y0295000D01*
X0113333Y0297500D01*
X0113333Y0302500D01*
X0115833Y0305000D01*
X0113333Y0307500D01*
X0113333Y0312500D01*
X0115833Y0315000D01*
X0113333Y0317500D01*
X0113333Y0322500D01*
X0115833Y0325000D01*
X0113333Y0327500D01*
X0113333Y0332500D01*
X0115833Y0335000D01*
X0120833Y0335000D01*
X0123333Y0332500D01*
X0123333Y0327500D01*
X0120833Y0325000D01*
X0123333Y0322500D01*
X0123333Y0317500D01*
X0120833Y0315000D01*
X0123333Y0312500D01*
X0123333Y0307500D01*
X0120833Y0305000D01*
X0123333Y0302500D01*
X0123333Y0297500D01*
X0120833Y0295000D01*
X0123333Y0292500D01*
X0123333Y0287500D01*
X0120833Y0285000D01*
X0123333Y0282500D01*
X0123333Y0277500D01*
X0120833Y0275000D01*
X0123333Y0272500D01*
X0123333Y0267500D01*
X0120833Y0265000D01*
X0123333Y0262500D01*
X0123333Y0257500D01*
X0120833Y0255000D01*
X0123333Y0252500D01*
X0123333Y0247500D01*
X0120833Y0245000D01*
X0123333Y0242500D01*
X0123333Y0237500D01*
X0120833Y0235000D01*
X0123333Y0232500D01*
X0123333Y0227500D01*
X0120833Y0225000D01*
X0123333Y0222500D01*
X0123333Y0217500D01*
X0120833Y0215000D01*
X0123333Y0212500D01*
X0123333Y0207500D01*
X0120833Y0205000D01*
X0123333Y0202500D01*
X0123333Y0197500D01*
X0120833Y0195000D01*
X0123333Y0192500D01*
X0123333Y0187500D01*
X0120833Y0185000D01*
X0123333Y0182500D01*
X0123333Y0177500D01*
X0120833Y0175000D01*
X0123333Y0172500D01*
X0123333Y0167500D01*
X0120833Y0165000D01*
X0123333Y0162500D01*
X0123333Y0157500D01*
X0120833Y0155000D01*
X0113333Y0157500D02*
X0110833Y0155000D01*
X0105833Y0155000D01*
X0103333Y0157500D01*
X0103333Y0162500D01*
X0105833Y0165000D01*
X0103333Y0167500D01*
X0103333Y0172500D01*
X0105833Y0175000D01*
X0103333Y0177500D01*
X0103333Y0182500D01*
X0105833Y0185000D01*
X0103333Y0187500D01*
X0103333Y0192500D01*
X0105833Y0195000D01*
X0103333Y0197500D01*
X0103333Y0202500D01*
X0105833Y0205000D01*
X0103333Y0207500D01*
X0103333Y0212500D01*
X0105833Y0215000D01*
X0103333Y0217500D01*
X0103333Y0222500D01*
X0105833Y0225000D01*
X0103333Y0227500D01*
X0103333Y0232500D01*
X0105833Y0235000D01*
X0103333Y0237500D01*
X0103333Y0242500D01*
X0105833Y0245000D01*
X0103333Y0247500D01*
X0103333Y0252500D01*
X0105833Y0255000D01*
X0103333Y0257500D01*
X0103333Y0262500D01*
X0105833Y0265000D01*
X0103333Y0267500D01*
X0103333Y0272500D01*
X0105833Y0275000D01*
X0103333Y0277500D01*
X0103333Y0282500D01*
X0105833Y0285000D01*
X0103333Y0287500D01*
X0103333Y0292500D01*
X0105833Y0295000D01*
X0103333Y0297500D01*
X0103333Y0302500D01*
X0105833Y0305000D01*
X0103333Y0307500D01*
X0103333Y0312500D01*
X0105833Y0315000D01*
X0103333Y0317500D01*
X0103333Y0322500D01*
X0105833Y0325000D01*
X0103333Y0327500D01*
X0103333Y0332500D01*
X0105833Y0335000D01*
X0110833Y0335000D01*
X0113333Y0332500D01*
X0113333Y0327500D02*
X0110833Y0325000D01*
X0113333Y0322500D01*
X0113333Y0317500D02*
X0110833Y0315000D01*
X0113333Y0312500D01*
X0113333Y0307500D02*
X0110833Y0305000D01*
X0113333Y0302500D01*
X0113333Y0297500D02*
X0110833Y0295000D01*
X0113333Y0292500D01*
X0113333Y0287500D02*
X0110833Y0285000D01*
X0113333Y0282500D01*
X0113333Y0277500D02*
X0110833Y0275000D01*
X0113333Y0272500D01*
X0113333Y0267500D02*
X0110833Y0265000D01*
X0113333Y0262500D01*
X0113333Y0257500D02*
X0110833Y0255000D01*
X0113333Y0252500D01*
X0113333Y0247500D02*
X0110833Y0245000D01*
X0113333Y0242500D01*
X0113333Y0237500D02*
X0110833Y0235000D01*
X0113333Y0232500D01*
X0113333Y0227500D02*
X0110833Y0225000D01*
X0113333Y0222500D01*
X0113333Y0217500D02*
X0110833Y0215000D01*
X0113333Y0212500D01*
X0113333Y0207500D02*
X0110833Y0205000D01*
X0113333Y0202500D01*
X0113333Y0197500D02*
X0110833Y0195000D01*
X0113333Y0192500D01*
X0113333Y0187500D02*
X0110833Y0185000D01*
X0113333Y0182500D01*
X0113333Y0177500D02*
X0110833Y0175000D01*
X0113333Y0172500D01*
X0113333Y0167500D02*
X0110833Y0165000D01*
X0113333Y0162500D01*
X0035853Y0205000D02*
X0035855Y0205184D01*
X0035862Y0205367D01*
X0035873Y0205550D01*
X0035889Y0205733D01*
X0035909Y0205916D01*
X0035934Y0206098D01*
X0035963Y0206279D01*
X0035997Y0206459D01*
X0036035Y0206639D01*
X0036077Y0206817D01*
X0036124Y0206995D01*
X0036175Y0207171D01*
X0036231Y0207346D01*
X0036290Y0207520D01*
X0036354Y0207692D01*
X0036422Y0207862D01*
X0036495Y0208031D01*
X0036571Y0208198D01*
X0036652Y0208363D01*
X0036736Y0208526D01*
X0036825Y0208687D01*
X0036917Y0208845D01*
X0037013Y0209002D01*
X0037114Y0209156D01*
X0037217Y0209307D01*
X0037325Y0209456D01*
X0037436Y0209602D01*
X0037551Y0209745D01*
X0037669Y0209886D01*
X0037791Y0210023D01*
X0037916Y0210158D01*
X0038044Y0210289D01*
X0038175Y0210417D01*
X0038310Y0210542D01*
X0038447Y0210664D01*
X0038588Y0210782D01*
X0038731Y0210897D01*
X0038877Y0211008D01*
X0039026Y0211116D01*
X0039177Y0211219D01*
X0039331Y0211320D01*
X0039488Y0211416D01*
X0039646Y0211508D01*
X0039807Y0211597D01*
X0039970Y0211681D01*
X0040135Y0211762D01*
X0040302Y0211838D01*
X0040471Y0211911D01*
X0040641Y0211979D01*
X0040813Y0212043D01*
X0040987Y0212102D01*
X0041162Y0212158D01*
X0041338Y0212209D01*
X0041516Y0212256D01*
X0041694Y0212298D01*
X0041874Y0212336D01*
X0042054Y0212370D01*
X0042235Y0212399D01*
X0042417Y0212424D01*
X0042600Y0212444D01*
X0042783Y0212460D01*
X0042966Y0212471D01*
X0043149Y0212478D01*
X0043333Y0212480D01*
X0043517Y0212478D01*
X0043700Y0212471D01*
X0043883Y0212460D01*
X0044066Y0212444D01*
X0044249Y0212424D01*
X0044431Y0212399D01*
X0044612Y0212370D01*
X0044792Y0212336D01*
X0044972Y0212298D01*
X0045150Y0212256D01*
X0045328Y0212209D01*
X0045504Y0212158D01*
X0045679Y0212102D01*
X0045853Y0212043D01*
X0046025Y0211979D01*
X0046195Y0211911D01*
X0046364Y0211838D01*
X0046531Y0211762D01*
X0046696Y0211681D01*
X0046859Y0211597D01*
X0047020Y0211508D01*
X0047178Y0211416D01*
X0047335Y0211320D01*
X0047489Y0211219D01*
X0047640Y0211116D01*
X0047789Y0211008D01*
X0047935Y0210897D01*
X0048078Y0210782D01*
X0048219Y0210664D01*
X0048356Y0210542D01*
X0048491Y0210417D01*
X0048622Y0210289D01*
X0048750Y0210158D01*
X0048875Y0210023D01*
X0048997Y0209886D01*
X0049115Y0209745D01*
X0049230Y0209602D01*
X0049341Y0209456D01*
X0049449Y0209307D01*
X0049552Y0209156D01*
X0049653Y0209002D01*
X0049749Y0208845D01*
X0049841Y0208687D01*
X0049930Y0208526D01*
X0050014Y0208363D01*
X0050095Y0208198D01*
X0050171Y0208031D01*
X0050244Y0207862D01*
X0050312Y0207692D01*
X0050376Y0207520D01*
X0050435Y0207346D01*
X0050491Y0207171D01*
X0050542Y0206995D01*
X0050589Y0206817D01*
X0050631Y0206639D01*
X0050669Y0206459D01*
X0050703Y0206279D01*
X0050732Y0206098D01*
X0050757Y0205916D01*
X0050777Y0205733D01*
X0050793Y0205550D01*
X0050804Y0205367D01*
X0050811Y0205184D01*
X0050813Y0205000D01*
X0050811Y0204816D01*
X0050804Y0204633D01*
X0050793Y0204450D01*
X0050777Y0204267D01*
X0050757Y0204084D01*
X0050732Y0203902D01*
X0050703Y0203721D01*
X0050669Y0203541D01*
X0050631Y0203361D01*
X0050589Y0203183D01*
X0050542Y0203005D01*
X0050491Y0202829D01*
X0050435Y0202654D01*
X0050376Y0202480D01*
X0050312Y0202308D01*
X0050244Y0202138D01*
X0050171Y0201969D01*
X0050095Y0201802D01*
X0050014Y0201637D01*
X0049930Y0201474D01*
X0049841Y0201313D01*
X0049749Y0201155D01*
X0049653Y0200998D01*
X0049552Y0200844D01*
X0049449Y0200693D01*
X0049341Y0200544D01*
X0049230Y0200398D01*
X0049115Y0200255D01*
X0048997Y0200114D01*
X0048875Y0199977D01*
X0048750Y0199842D01*
X0048622Y0199711D01*
X0048491Y0199583D01*
X0048356Y0199458D01*
X0048219Y0199336D01*
X0048078Y0199218D01*
X0047935Y0199103D01*
X0047789Y0198992D01*
X0047640Y0198884D01*
X0047489Y0198781D01*
X0047335Y0198680D01*
X0047178Y0198584D01*
X0047020Y0198492D01*
X0046859Y0198403D01*
X0046696Y0198319D01*
X0046531Y0198238D01*
X0046364Y0198162D01*
X0046195Y0198089D01*
X0046025Y0198021D01*
X0045853Y0197957D01*
X0045679Y0197898D01*
X0045504Y0197842D01*
X0045328Y0197791D01*
X0045150Y0197744D01*
X0044972Y0197702D01*
X0044792Y0197664D01*
X0044612Y0197630D01*
X0044431Y0197601D01*
X0044249Y0197576D01*
X0044066Y0197556D01*
X0043883Y0197540D01*
X0043700Y0197529D01*
X0043517Y0197522D01*
X0043333Y0197520D01*
X0043149Y0197522D01*
X0042966Y0197529D01*
X0042783Y0197540D01*
X0042600Y0197556D01*
X0042417Y0197576D01*
X0042235Y0197601D01*
X0042054Y0197630D01*
X0041874Y0197664D01*
X0041694Y0197702D01*
X0041516Y0197744D01*
X0041338Y0197791D01*
X0041162Y0197842D01*
X0040987Y0197898D01*
X0040813Y0197957D01*
X0040641Y0198021D01*
X0040471Y0198089D01*
X0040302Y0198162D01*
X0040135Y0198238D01*
X0039970Y0198319D01*
X0039807Y0198403D01*
X0039646Y0198492D01*
X0039488Y0198584D01*
X0039331Y0198680D01*
X0039177Y0198781D01*
X0039026Y0198884D01*
X0038877Y0198992D01*
X0038731Y0199103D01*
X0038588Y0199218D01*
X0038447Y0199336D01*
X0038310Y0199458D01*
X0038175Y0199583D01*
X0038044Y0199711D01*
X0037916Y0199842D01*
X0037791Y0199977D01*
X0037669Y0200114D01*
X0037551Y0200255D01*
X0037436Y0200398D01*
X0037325Y0200544D01*
X0037217Y0200693D01*
X0037114Y0200844D01*
X0037013Y0200998D01*
X0036917Y0201155D01*
X0036825Y0201313D01*
X0036736Y0201474D01*
X0036652Y0201637D01*
X0036571Y0201802D01*
X0036495Y0201969D01*
X0036422Y0202138D01*
X0036354Y0202308D01*
X0036290Y0202480D01*
X0036231Y0202654D01*
X0036175Y0202829D01*
X0036124Y0203005D01*
X0036077Y0203183D01*
X0036035Y0203361D01*
X0035997Y0203541D01*
X0035963Y0203721D01*
X0035934Y0203902D01*
X0035909Y0204084D01*
X0035889Y0204267D01*
X0035873Y0204450D01*
X0035862Y0204633D01*
X0035855Y0204816D01*
X0035853Y0205000D01*
X0223633Y0089700D02*
X0223633Y0070300D01*
X0227833Y0070300D01*
X0244083Y0077250D02*
X0244083Y0082750D01*
X0244085Y0082810D01*
X0244090Y0082871D01*
X0244099Y0082930D01*
X0244112Y0082989D01*
X0244128Y0083048D01*
X0244148Y0083105D01*
X0244171Y0083160D01*
X0244198Y0083215D01*
X0244227Y0083267D01*
X0244260Y0083318D01*
X0244296Y0083367D01*
X0244334Y0083413D01*
X0244376Y0083457D01*
X0244420Y0083499D01*
X0244466Y0083537D01*
X0244515Y0083573D01*
X0244566Y0083606D01*
X0244618Y0083635D01*
X0244673Y0083662D01*
X0244728Y0083685D01*
X0244785Y0083705D01*
X0244844Y0083721D01*
X0244903Y0083734D01*
X0244962Y0083743D01*
X0245023Y0083748D01*
X0245083Y0083750D01*
X0245483Y0083750D01*
X0245543Y0083748D01*
X0245604Y0083743D01*
X0245663Y0083734D01*
X0245722Y0083721D01*
X0245781Y0083705D01*
X0245838Y0083685D01*
X0245893Y0083662D01*
X0245948Y0083635D01*
X0246000Y0083606D01*
X0246051Y0083573D01*
X0246100Y0083537D01*
X0246146Y0083499D01*
X0246190Y0083457D01*
X0246232Y0083413D01*
X0246270Y0083367D01*
X0246306Y0083318D01*
X0246339Y0083267D01*
X0246368Y0083215D01*
X0246395Y0083160D01*
X0246418Y0083105D01*
X0246438Y0083048D01*
X0246454Y0082989D01*
X0246467Y0082930D01*
X0246476Y0082871D01*
X0246481Y0082810D01*
X0246483Y0082750D01*
X0246483Y0077250D01*
X0246481Y0077190D01*
X0246476Y0077129D01*
X0246467Y0077070D01*
X0246454Y0077011D01*
X0246438Y0076952D01*
X0246418Y0076895D01*
X0246395Y0076840D01*
X0246368Y0076785D01*
X0246339Y0076733D01*
X0246306Y0076682D01*
X0246270Y0076633D01*
X0246232Y0076587D01*
X0246190Y0076543D01*
X0246146Y0076501D01*
X0246100Y0076463D01*
X0246051Y0076427D01*
X0246000Y0076394D01*
X0245948Y0076365D01*
X0245893Y0076338D01*
X0245838Y0076315D01*
X0245781Y0076295D01*
X0245722Y0076279D01*
X0245663Y0076266D01*
X0245604Y0076257D01*
X0245543Y0076252D01*
X0245483Y0076250D01*
X0245083Y0076250D01*
X0245023Y0076252D01*
X0244962Y0076257D01*
X0244903Y0076266D01*
X0244844Y0076279D01*
X0244785Y0076295D01*
X0244728Y0076315D01*
X0244673Y0076338D01*
X0244618Y0076365D01*
X0244566Y0076394D01*
X0244515Y0076427D01*
X0244466Y0076463D01*
X0244420Y0076501D01*
X0244376Y0076543D01*
X0244334Y0076587D01*
X0244296Y0076633D01*
X0244260Y0076682D01*
X0244227Y0076733D01*
X0244198Y0076785D01*
X0244171Y0076840D01*
X0244148Y0076895D01*
X0244128Y0076952D01*
X0244112Y0077011D01*
X0244099Y0077070D01*
X0244090Y0077129D01*
X0244085Y0077190D01*
X0244083Y0077250D01*
X0248833Y0070300D02*
X0253033Y0070300D01*
X0253033Y0089700D01*
X0248833Y0089700D01*
X0250514Y0085100D02*
X0250516Y0085132D01*
X0250522Y0085164D01*
X0250531Y0085195D01*
X0250545Y0085225D01*
X0250562Y0085253D01*
X0250582Y0085278D01*
X0250605Y0085301D01*
X0250630Y0085321D01*
X0250658Y0085338D01*
X0250688Y0085352D01*
X0250719Y0085361D01*
X0250751Y0085367D01*
X0250783Y0085369D01*
X0250815Y0085367D01*
X0250847Y0085361D01*
X0250878Y0085352D01*
X0250908Y0085338D01*
X0250936Y0085321D01*
X0250961Y0085301D01*
X0250984Y0085278D01*
X0251004Y0085253D01*
X0251021Y0085225D01*
X0251035Y0085195D01*
X0251044Y0085164D01*
X0251050Y0085132D01*
X0251052Y0085100D01*
X0251050Y0085068D01*
X0251044Y0085036D01*
X0251035Y0085005D01*
X0251021Y0084975D01*
X0251004Y0084947D01*
X0250984Y0084922D01*
X0250961Y0084899D01*
X0250936Y0084879D01*
X0250908Y0084862D01*
X0250878Y0084848D01*
X0250847Y0084839D01*
X0250815Y0084833D01*
X0250783Y0084831D01*
X0250751Y0084833D01*
X0250719Y0084839D01*
X0250688Y0084848D01*
X0250658Y0084862D01*
X0250630Y0084879D01*
X0250605Y0084899D01*
X0250582Y0084922D01*
X0250562Y0084947D01*
X0250545Y0084975D01*
X0250531Y0085005D01*
X0250522Y0085036D01*
X0250516Y0085068D01*
X0250514Y0085100D01*
X0227833Y0089700D02*
X0223633Y0089700D01*
X0290853Y0080000D02*
X0290855Y0080184D01*
X0290862Y0080367D01*
X0290873Y0080550D01*
X0290889Y0080733D01*
X0290909Y0080916D01*
X0290934Y0081098D01*
X0290963Y0081279D01*
X0290997Y0081459D01*
X0291035Y0081639D01*
X0291077Y0081817D01*
X0291124Y0081995D01*
X0291175Y0082171D01*
X0291231Y0082346D01*
X0291290Y0082520D01*
X0291354Y0082692D01*
X0291422Y0082862D01*
X0291495Y0083031D01*
X0291571Y0083198D01*
X0291652Y0083363D01*
X0291736Y0083526D01*
X0291825Y0083687D01*
X0291917Y0083845D01*
X0292013Y0084002D01*
X0292114Y0084156D01*
X0292217Y0084307D01*
X0292325Y0084456D01*
X0292436Y0084602D01*
X0292551Y0084745D01*
X0292669Y0084886D01*
X0292791Y0085023D01*
X0292916Y0085158D01*
X0293044Y0085289D01*
X0293175Y0085417D01*
X0293310Y0085542D01*
X0293447Y0085664D01*
X0293588Y0085782D01*
X0293731Y0085897D01*
X0293877Y0086008D01*
X0294026Y0086116D01*
X0294177Y0086219D01*
X0294331Y0086320D01*
X0294488Y0086416D01*
X0294646Y0086508D01*
X0294807Y0086597D01*
X0294970Y0086681D01*
X0295135Y0086762D01*
X0295302Y0086838D01*
X0295471Y0086911D01*
X0295641Y0086979D01*
X0295813Y0087043D01*
X0295987Y0087102D01*
X0296162Y0087158D01*
X0296338Y0087209D01*
X0296516Y0087256D01*
X0296694Y0087298D01*
X0296874Y0087336D01*
X0297054Y0087370D01*
X0297235Y0087399D01*
X0297417Y0087424D01*
X0297600Y0087444D01*
X0297783Y0087460D01*
X0297966Y0087471D01*
X0298149Y0087478D01*
X0298333Y0087480D01*
X0298517Y0087478D01*
X0298700Y0087471D01*
X0298883Y0087460D01*
X0299066Y0087444D01*
X0299249Y0087424D01*
X0299431Y0087399D01*
X0299612Y0087370D01*
X0299792Y0087336D01*
X0299972Y0087298D01*
X0300150Y0087256D01*
X0300328Y0087209D01*
X0300504Y0087158D01*
X0300679Y0087102D01*
X0300853Y0087043D01*
X0301025Y0086979D01*
X0301195Y0086911D01*
X0301364Y0086838D01*
X0301531Y0086762D01*
X0301696Y0086681D01*
X0301859Y0086597D01*
X0302020Y0086508D01*
X0302178Y0086416D01*
X0302335Y0086320D01*
X0302489Y0086219D01*
X0302640Y0086116D01*
X0302789Y0086008D01*
X0302935Y0085897D01*
X0303078Y0085782D01*
X0303219Y0085664D01*
X0303356Y0085542D01*
X0303491Y0085417D01*
X0303622Y0085289D01*
X0303750Y0085158D01*
X0303875Y0085023D01*
X0303997Y0084886D01*
X0304115Y0084745D01*
X0304230Y0084602D01*
X0304341Y0084456D01*
X0304449Y0084307D01*
X0304552Y0084156D01*
X0304653Y0084002D01*
X0304749Y0083845D01*
X0304841Y0083687D01*
X0304930Y0083526D01*
X0305014Y0083363D01*
X0305095Y0083198D01*
X0305171Y0083031D01*
X0305244Y0082862D01*
X0305312Y0082692D01*
X0305376Y0082520D01*
X0305435Y0082346D01*
X0305491Y0082171D01*
X0305542Y0081995D01*
X0305589Y0081817D01*
X0305631Y0081639D01*
X0305669Y0081459D01*
X0305703Y0081279D01*
X0305732Y0081098D01*
X0305757Y0080916D01*
X0305777Y0080733D01*
X0305793Y0080550D01*
X0305804Y0080367D01*
X0305811Y0080184D01*
X0305813Y0080000D01*
X0305811Y0079816D01*
X0305804Y0079633D01*
X0305793Y0079450D01*
X0305777Y0079267D01*
X0305757Y0079084D01*
X0305732Y0078902D01*
X0305703Y0078721D01*
X0305669Y0078541D01*
X0305631Y0078361D01*
X0305589Y0078183D01*
X0305542Y0078005D01*
X0305491Y0077829D01*
X0305435Y0077654D01*
X0305376Y0077480D01*
X0305312Y0077308D01*
X0305244Y0077138D01*
X0305171Y0076969D01*
X0305095Y0076802D01*
X0305014Y0076637D01*
X0304930Y0076474D01*
X0304841Y0076313D01*
X0304749Y0076155D01*
X0304653Y0075998D01*
X0304552Y0075844D01*
X0304449Y0075693D01*
X0304341Y0075544D01*
X0304230Y0075398D01*
X0304115Y0075255D01*
X0303997Y0075114D01*
X0303875Y0074977D01*
X0303750Y0074842D01*
X0303622Y0074711D01*
X0303491Y0074583D01*
X0303356Y0074458D01*
X0303219Y0074336D01*
X0303078Y0074218D01*
X0302935Y0074103D01*
X0302789Y0073992D01*
X0302640Y0073884D01*
X0302489Y0073781D01*
X0302335Y0073680D01*
X0302178Y0073584D01*
X0302020Y0073492D01*
X0301859Y0073403D01*
X0301696Y0073319D01*
X0301531Y0073238D01*
X0301364Y0073162D01*
X0301195Y0073089D01*
X0301025Y0073021D01*
X0300853Y0072957D01*
X0300679Y0072898D01*
X0300504Y0072842D01*
X0300328Y0072791D01*
X0300150Y0072744D01*
X0299972Y0072702D01*
X0299792Y0072664D01*
X0299612Y0072630D01*
X0299431Y0072601D01*
X0299249Y0072576D01*
X0299066Y0072556D01*
X0298883Y0072540D01*
X0298700Y0072529D01*
X0298517Y0072522D01*
X0298333Y0072520D01*
X0298149Y0072522D01*
X0297966Y0072529D01*
X0297783Y0072540D01*
X0297600Y0072556D01*
X0297417Y0072576D01*
X0297235Y0072601D01*
X0297054Y0072630D01*
X0296874Y0072664D01*
X0296694Y0072702D01*
X0296516Y0072744D01*
X0296338Y0072791D01*
X0296162Y0072842D01*
X0295987Y0072898D01*
X0295813Y0072957D01*
X0295641Y0073021D01*
X0295471Y0073089D01*
X0295302Y0073162D01*
X0295135Y0073238D01*
X0294970Y0073319D01*
X0294807Y0073403D01*
X0294646Y0073492D01*
X0294488Y0073584D01*
X0294331Y0073680D01*
X0294177Y0073781D01*
X0294026Y0073884D01*
X0293877Y0073992D01*
X0293731Y0074103D01*
X0293588Y0074218D01*
X0293447Y0074336D01*
X0293310Y0074458D01*
X0293175Y0074583D01*
X0293044Y0074711D01*
X0292916Y0074842D01*
X0292791Y0074977D01*
X0292669Y0075114D01*
X0292551Y0075255D01*
X0292436Y0075398D01*
X0292325Y0075544D01*
X0292217Y0075693D01*
X0292114Y0075844D01*
X0292013Y0075998D01*
X0291917Y0076155D01*
X0291825Y0076313D01*
X0291736Y0076474D01*
X0291652Y0076637D01*
X0291571Y0076802D01*
X0291495Y0076969D01*
X0291422Y0077138D01*
X0291354Y0077308D01*
X0291290Y0077480D01*
X0291231Y0077654D01*
X0291175Y0077829D01*
X0291124Y0078005D01*
X0291077Y0078183D01*
X0291035Y0078361D01*
X0290997Y0078541D01*
X0290963Y0078721D01*
X0290934Y0078902D01*
X0290909Y0079084D01*
X0290889Y0079267D01*
X0290873Y0079450D01*
X0290862Y0079633D01*
X0290855Y0079816D01*
X0290853Y0080000D01*
D16*
X0237033Y0196000D03*
X0249633Y0269000D03*
D17*
X0279333Y0265250D02*
X0279333Y0261350D01*
X0277233Y0254850D02*
X0277233Y0249950D01*
X0277233Y0247550D01*
X0277233Y0242650D01*
X0277233Y0247550D02*
X0277302Y0247552D01*
X0277370Y0247558D01*
X0277438Y0247568D01*
X0277505Y0247581D01*
X0277571Y0247599D01*
X0277636Y0247620D01*
X0277700Y0247645D01*
X0277762Y0247673D01*
X0277823Y0247705D01*
X0277882Y0247740D01*
X0277938Y0247779D01*
X0277993Y0247821D01*
X0278044Y0247866D01*
X0278094Y0247914D01*
X0278140Y0247964D01*
X0278183Y0248017D01*
X0278224Y0248073D01*
X0278261Y0248130D01*
X0278294Y0248190D01*
X0278325Y0248252D01*
X0278351Y0248315D01*
X0278374Y0248379D01*
X0278394Y0248445D01*
X0278409Y0248512D01*
X0278421Y0248579D01*
X0278429Y0248647D01*
X0278433Y0248716D01*
X0278433Y0248784D01*
X0278429Y0248853D01*
X0278421Y0248921D01*
X0278409Y0248988D01*
X0278394Y0249055D01*
X0278374Y0249121D01*
X0278351Y0249185D01*
X0278325Y0249248D01*
X0278294Y0249310D01*
X0278261Y0249370D01*
X0278224Y0249427D01*
X0278183Y0249483D01*
X0278140Y0249536D01*
X0278094Y0249586D01*
X0278044Y0249634D01*
X0277993Y0249679D01*
X0277938Y0249721D01*
X0277882Y0249760D01*
X0277823Y0249795D01*
X0277762Y0249827D01*
X0277700Y0249855D01*
X0277636Y0249880D01*
X0277571Y0249901D01*
X0277505Y0249919D01*
X0277438Y0249932D01*
X0277370Y0249942D01*
X0277302Y0249948D01*
X0277233Y0249950D01*
X0289433Y0254850D02*
X0289433Y0242650D01*
X0279333Y0231500D02*
X0279333Y0227600D01*
X0277233Y0221100D02*
X0277233Y0216200D01*
X0277233Y0213800D01*
X0277233Y0208900D01*
X0277233Y0213800D02*
X0277302Y0213802D01*
X0277370Y0213808D01*
X0277438Y0213818D01*
X0277505Y0213831D01*
X0277571Y0213849D01*
X0277636Y0213870D01*
X0277700Y0213895D01*
X0277762Y0213923D01*
X0277823Y0213955D01*
X0277882Y0213990D01*
X0277938Y0214029D01*
X0277993Y0214071D01*
X0278044Y0214116D01*
X0278094Y0214164D01*
X0278140Y0214214D01*
X0278183Y0214267D01*
X0278224Y0214323D01*
X0278261Y0214380D01*
X0278294Y0214440D01*
X0278325Y0214502D01*
X0278351Y0214565D01*
X0278374Y0214629D01*
X0278394Y0214695D01*
X0278409Y0214762D01*
X0278421Y0214829D01*
X0278429Y0214897D01*
X0278433Y0214966D01*
X0278433Y0215034D01*
X0278429Y0215103D01*
X0278421Y0215171D01*
X0278409Y0215238D01*
X0278394Y0215305D01*
X0278374Y0215371D01*
X0278351Y0215435D01*
X0278325Y0215498D01*
X0278294Y0215560D01*
X0278261Y0215620D01*
X0278224Y0215677D01*
X0278183Y0215733D01*
X0278140Y0215786D01*
X0278094Y0215836D01*
X0278044Y0215884D01*
X0277993Y0215929D01*
X0277938Y0215971D01*
X0277882Y0216010D01*
X0277823Y0216045D01*
X0277762Y0216077D01*
X0277700Y0216105D01*
X0277636Y0216130D01*
X0277571Y0216151D01*
X0277505Y0216169D01*
X0277438Y0216182D01*
X0277370Y0216192D01*
X0277302Y0216198D01*
X0277233Y0216200D01*
X0289433Y0221100D02*
X0289433Y0208900D01*
X0298333Y0202500D02*
X0298333Y0197500D01*
X0300833Y0195000D01*
X0315833Y0195000D01*
X0318333Y0192500D01*
X0318333Y0187500D01*
X0315833Y0185000D01*
X0300833Y0185000D01*
X0298333Y0182500D01*
X0298333Y0177500D01*
X0300833Y0175000D01*
X0298333Y0172500D01*
X0298333Y0167500D01*
X0300833Y0165000D01*
X0315833Y0165000D01*
X0318333Y0167500D01*
X0318333Y0172500D01*
X0315833Y0175000D01*
X0300833Y0175000D01*
X0300833Y0185000D02*
X0298333Y0187500D01*
X0298333Y0192500D01*
X0300833Y0195000D01*
X0298333Y0202500D02*
X0300833Y0205000D01*
X0315833Y0205000D01*
X0318333Y0202500D01*
X0318333Y0197500D01*
X0315833Y0195000D01*
X0315833Y0185000D02*
X0318333Y0182500D01*
X0318333Y0177500D01*
X0315833Y0175000D01*
X0315833Y0157500D02*
X0310833Y0157500D01*
X0308333Y0155000D01*
X0308333Y0150000D01*
X0310833Y0147500D01*
X0315833Y0147500D01*
X0318333Y0150000D01*
X0318333Y0155000D01*
X0315833Y0157500D01*
X0315833Y0147500D02*
X0310833Y0147500D01*
X0308333Y0145000D01*
X0308333Y0140000D01*
X0310833Y0137500D01*
X0315833Y0137500D01*
X0318333Y0140000D01*
X0318333Y0145000D01*
X0315833Y0147500D01*
X0315833Y0130000D02*
X0310833Y0130000D01*
X0308333Y0127500D01*
X0308333Y0122500D01*
X0310833Y0120000D01*
X0315833Y0120000D01*
X0318333Y0122500D01*
X0318333Y0127500D01*
X0315833Y0130000D01*
X0308333Y0127500D02*
X0305833Y0130000D01*
X0300833Y0130000D01*
X0298333Y0127500D01*
X0298333Y0122500D01*
X0295833Y0120000D01*
X0290833Y0120000D01*
X0288333Y0122500D01*
X0285833Y0120000D01*
X0280833Y0120000D01*
X0278333Y0122500D01*
X0278333Y0127500D01*
X0280833Y0130000D01*
X0285833Y0130000D01*
X0288333Y0127500D01*
X0290833Y0130000D01*
X0295833Y0130000D01*
X0298333Y0127500D01*
X0298333Y0122500D02*
X0300833Y0120000D01*
X0305833Y0120000D01*
X0308333Y0122500D01*
X0310833Y0120000D02*
X0308333Y0117500D01*
X0308333Y0112500D01*
X0310833Y0110000D01*
X0308333Y0107500D01*
X0308333Y0102500D01*
X0310833Y0100000D01*
X0315833Y0100000D01*
X0318333Y0102500D01*
X0318333Y0107500D01*
X0315833Y0110000D01*
X0310833Y0110000D01*
X0315833Y0110000D01*
X0318333Y0112500D01*
X0318333Y0117500D01*
X0315833Y0120000D01*
X0310833Y0120000D01*
X0288333Y0122500D02*
X0288333Y0127500D01*
X0258333Y0132500D02*
X0255833Y0130000D01*
X0250833Y0130000D01*
X0248333Y0132500D01*
X0248333Y0147500D01*
X0245833Y0150000D01*
X0240833Y0150000D01*
X0238333Y0147500D01*
X0238333Y0132500D01*
X0235833Y0130000D01*
X0230833Y0130000D01*
X0228333Y0132500D01*
X0225833Y0130000D01*
X0220833Y0130000D01*
X0218333Y0132500D01*
X0218333Y0147500D01*
X0220833Y0150000D01*
X0225833Y0150000D01*
X0228333Y0147500D01*
X0228333Y0132500D01*
X0238333Y0132500D02*
X0240833Y0130000D01*
X0245833Y0130000D01*
X0248333Y0132500D01*
X0258333Y0132500D02*
X0258333Y0147500D01*
X0255833Y0150000D01*
X0250833Y0150000D01*
X0248333Y0147500D01*
X0238333Y0147500D02*
X0235833Y0150000D01*
X0230833Y0150000D01*
X0228333Y0147500D01*
X0240971Y0173819D02*
X0240971Y0176181D01*
X0245696Y0176181D02*
X0245696Y0173819D01*
X0225696Y0223819D02*
X0225696Y0226181D01*
X0220971Y0226181D02*
X0220971Y0223819D01*
X0288333Y0277500D02*
X0288333Y0282500D01*
X0290833Y0285000D01*
X0295833Y0285000D01*
X0298333Y0282500D01*
X0298333Y0277500D01*
X0295833Y0275000D01*
X0290833Y0275000D01*
X0288333Y0277500D01*
X0298333Y0277500D02*
X0298333Y0282500D01*
X0300833Y0285000D01*
X0305833Y0285000D01*
X0308333Y0282500D01*
X0308333Y0277500D01*
X0305833Y0275000D01*
X0300833Y0275000D01*
X0298333Y0277500D01*
X0308333Y0277500D02*
X0308333Y0282500D01*
X0310833Y0285000D01*
X0315833Y0285000D01*
X0318333Y0282500D01*
X0318333Y0277500D01*
X0315833Y0275000D01*
X0310833Y0275000D01*
X0308333Y0277500D01*
X0284833Y0325000D02*
X0284837Y0325331D01*
X0284849Y0325662D01*
X0284870Y0325993D01*
X0284898Y0326323D01*
X0284935Y0326653D01*
X0284979Y0326981D01*
X0285032Y0327308D01*
X0285092Y0327634D01*
X0285161Y0327958D01*
X0285238Y0328280D01*
X0285322Y0328601D01*
X0285414Y0328919D01*
X0285514Y0329235D01*
X0285622Y0329548D01*
X0285738Y0329859D01*
X0285861Y0330166D01*
X0285991Y0330471D01*
X0286129Y0330772D01*
X0286274Y0331070D01*
X0286427Y0331364D01*
X0286587Y0331654D01*
X0286754Y0331940D01*
X0286927Y0332222D01*
X0287108Y0332500D01*
X0287296Y0332773D01*
X0287490Y0333042D01*
X0287690Y0333306D01*
X0287897Y0333564D01*
X0288111Y0333818D01*
X0288330Y0334066D01*
X0288556Y0334309D01*
X0288787Y0334546D01*
X0289024Y0334777D01*
X0289267Y0335003D01*
X0289515Y0335222D01*
X0289769Y0335436D01*
X0290027Y0335643D01*
X0290291Y0335843D01*
X0290560Y0336037D01*
X0290833Y0336225D01*
X0291111Y0336406D01*
X0291393Y0336579D01*
X0291679Y0336746D01*
X0291969Y0336906D01*
X0292263Y0337059D01*
X0292561Y0337204D01*
X0292862Y0337342D01*
X0293167Y0337472D01*
X0293474Y0337595D01*
X0293785Y0337711D01*
X0294098Y0337819D01*
X0294414Y0337919D01*
X0294732Y0338011D01*
X0295053Y0338095D01*
X0295375Y0338172D01*
X0295699Y0338241D01*
X0296025Y0338301D01*
X0296352Y0338354D01*
X0296680Y0338398D01*
X0297010Y0338435D01*
X0297340Y0338463D01*
X0297671Y0338484D01*
X0298002Y0338496D01*
X0298333Y0338500D01*
X0298664Y0338496D01*
X0298995Y0338484D01*
X0299326Y0338463D01*
X0299656Y0338435D01*
X0299986Y0338398D01*
X0300314Y0338354D01*
X0300641Y0338301D01*
X0300967Y0338241D01*
X0301291Y0338172D01*
X0301613Y0338095D01*
X0301934Y0338011D01*
X0302252Y0337919D01*
X0302568Y0337819D01*
X0302881Y0337711D01*
X0303192Y0337595D01*
X0303499Y0337472D01*
X0303804Y0337342D01*
X0304105Y0337204D01*
X0304403Y0337059D01*
X0304697Y0336906D01*
X0304987Y0336746D01*
X0305273Y0336579D01*
X0305555Y0336406D01*
X0305833Y0336225D01*
X0306106Y0336037D01*
X0306375Y0335843D01*
X0306639Y0335643D01*
X0306897Y0335436D01*
X0307151Y0335222D01*
X0307399Y0335003D01*
X0307642Y0334777D01*
X0307879Y0334546D01*
X0308110Y0334309D01*
X0308336Y0334066D01*
X0308555Y0333818D01*
X0308769Y0333564D01*
X0308976Y0333306D01*
X0309176Y0333042D01*
X0309370Y0332773D01*
X0309558Y0332500D01*
X0309739Y0332222D01*
X0309912Y0331940D01*
X0310079Y0331654D01*
X0310239Y0331364D01*
X0310392Y0331070D01*
X0310537Y0330772D01*
X0310675Y0330471D01*
X0310805Y0330166D01*
X0310928Y0329859D01*
X0311044Y0329548D01*
X0311152Y0329235D01*
X0311252Y0328919D01*
X0311344Y0328601D01*
X0311428Y0328280D01*
X0311505Y0327958D01*
X0311574Y0327634D01*
X0311634Y0327308D01*
X0311687Y0326981D01*
X0311731Y0326653D01*
X0311768Y0326323D01*
X0311796Y0325993D01*
X0311817Y0325662D01*
X0311829Y0325331D01*
X0311833Y0325000D01*
X0311829Y0324669D01*
X0311817Y0324338D01*
X0311796Y0324007D01*
X0311768Y0323677D01*
X0311731Y0323347D01*
X0311687Y0323019D01*
X0311634Y0322692D01*
X0311574Y0322366D01*
X0311505Y0322042D01*
X0311428Y0321720D01*
X0311344Y0321399D01*
X0311252Y0321081D01*
X0311152Y0320765D01*
X0311044Y0320452D01*
X0310928Y0320141D01*
X0310805Y0319834D01*
X0310675Y0319529D01*
X0310537Y0319228D01*
X0310392Y0318930D01*
X0310239Y0318636D01*
X0310079Y0318346D01*
X0309912Y0318060D01*
X0309739Y0317778D01*
X0309558Y0317500D01*
X0309370Y0317227D01*
X0309176Y0316958D01*
X0308976Y0316694D01*
X0308769Y0316436D01*
X0308555Y0316182D01*
X0308336Y0315934D01*
X0308110Y0315691D01*
X0307879Y0315454D01*
X0307642Y0315223D01*
X0307399Y0314997D01*
X0307151Y0314778D01*
X0306897Y0314564D01*
X0306639Y0314357D01*
X0306375Y0314157D01*
X0306106Y0313963D01*
X0305833Y0313775D01*
X0305555Y0313594D01*
X0305273Y0313421D01*
X0304987Y0313254D01*
X0304697Y0313094D01*
X0304403Y0312941D01*
X0304105Y0312796D01*
X0303804Y0312658D01*
X0303499Y0312528D01*
X0303192Y0312405D01*
X0302881Y0312289D01*
X0302568Y0312181D01*
X0302252Y0312081D01*
X0301934Y0311989D01*
X0301613Y0311905D01*
X0301291Y0311828D01*
X0300967Y0311759D01*
X0300641Y0311699D01*
X0300314Y0311646D01*
X0299986Y0311602D01*
X0299656Y0311565D01*
X0299326Y0311537D01*
X0298995Y0311516D01*
X0298664Y0311504D01*
X0298333Y0311500D01*
X0298002Y0311504D01*
X0297671Y0311516D01*
X0297340Y0311537D01*
X0297010Y0311565D01*
X0296680Y0311602D01*
X0296352Y0311646D01*
X0296025Y0311699D01*
X0295699Y0311759D01*
X0295375Y0311828D01*
X0295053Y0311905D01*
X0294732Y0311989D01*
X0294414Y0312081D01*
X0294098Y0312181D01*
X0293785Y0312289D01*
X0293474Y0312405D01*
X0293167Y0312528D01*
X0292862Y0312658D01*
X0292561Y0312796D01*
X0292263Y0312941D01*
X0291969Y0313094D01*
X0291679Y0313254D01*
X0291393Y0313421D01*
X0291111Y0313594D01*
X0290833Y0313775D01*
X0290560Y0313963D01*
X0290291Y0314157D01*
X0290027Y0314357D01*
X0289769Y0314564D01*
X0289515Y0314778D01*
X0289267Y0314997D01*
X0289024Y0315223D01*
X0288787Y0315454D01*
X0288556Y0315691D01*
X0288330Y0315934D01*
X0288111Y0316182D01*
X0287897Y0316436D01*
X0287690Y0316694D01*
X0287490Y0316958D01*
X0287296Y0317227D01*
X0287108Y0317500D01*
X0286927Y0317778D01*
X0286754Y0318060D01*
X0286587Y0318346D01*
X0286427Y0318636D01*
X0286274Y0318930D01*
X0286129Y0319228D01*
X0285991Y0319529D01*
X0285861Y0319834D01*
X0285738Y0320141D01*
X0285622Y0320452D01*
X0285514Y0320765D01*
X0285414Y0321081D01*
X0285322Y0321399D01*
X0285238Y0321720D01*
X0285161Y0322042D01*
X0285092Y0322366D01*
X0285032Y0322692D01*
X0284979Y0323019D01*
X0284935Y0323347D01*
X0284898Y0323677D01*
X0284870Y0324007D01*
X0284849Y0324338D01*
X0284837Y0324669D01*
X0284833Y0325000D01*
X0272833Y0330000D02*
X0259833Y0330000D01*
X0246833Y0330000D01*
X0246833Y0332000D01*
X0259833Y0332000D01*
X0259833Y0330000D01*
X0260833Y0334500D02*
X0260833Y0340500D01*
X0245833Y0340500D01*
X0245833Y0334500D01*
X0260833Y0334500D01*
X0259833Y0343000D02*
X0259833Y0345000D01*
X0246833Y0345000D01*
X0233833Y0345000D01*
X0233833Y0330000D01*
X0246833Y0330000D01*
X0246833Y0343000D02*
X0259833Y0343000D01*
X0259833Y0345000D02*
X0272833Y0345000D01*
X0272833Y0330000D01*
X0246833Y0343000D02*
X0246833Y0345000D01*
X0088333Y0267500D02*
X0088333Y0262500D01*
X0085833Y0260000D01*
X0080833Y0260000D01*
X0078333Y0262500D01*
X0075833Y0260000D01*
X0070833Y0260000D01*
X0068333Y0262500D01*
X0065833Y0260000D01*
X0060833Y0260000D01*
X0058333Y0262500D01*
X0055833Y0260000D01*
X0050833Y0260000D01*
X0048333Y0262500D01*
X0045833Y0260000D01*
X0040833Y0260000D01*
X0038333Y0262500D01*
X0035833Y0260000D01*
X0030833Y0260000D01*
X0028333Y0262500D01*
X0028333Y0267500D01*
X0030833Y0270000D01*
X0035833Y0270000D01*
X0038333Y0267500D01*
X0040833Y0270000D01*
X0045833Y0270000D01*
X0048333Y0267500D01*
X0048333Y0262500D01*
X0048333Y0267500D02*
X0050833Y0270000D01*
X0055833Y0270000D01*
X0058333Y0267500D01*
X0060833Y0270000D01*
X0065833Y0270000D01*
X0068333Y0267500D01*
X0070833Y0270000D01*
X0075833Y0270000D01*
X0078333Y0267500D01*
X0080833Y0270000D01*
X0085833Y0270000D01*
X0088333Y0267500D01*
X0078333Y0267500D02*
X0078333Y0262500D01*
X0068333Y0262500D02*
X0068333Y0267500D01*
X0058333Y0267500D02*
X0058333Y0262500D01*
X0038333Y0262500D02*
X0038333Y0267500D01*
X0029833Y0205000D02*
X0029837Y0205331D01*
X0029849Y0205662D01*
X0029870Y0205993D01*
X0029898Y0206323D01*
X0029935Y0206653D01*
X0029979Y0206981D01*
X0030032Y0207308D01*
X0030092Y0207634D01*
X0030161Y0207958D01*
X0030238Y0208280D01*
X0030322Y0208601D01*
X0030414Y0208919D01*
X0030514Y0209235D01*
X0030622Y0209548D01*
X0030738Y0209859D01*
X0030861Y0210166D01*
X0030991Y0210471D01*
X0031129Y0210772D01*
X0031274Y0211070D01*
X0031427Y0211364D01*
X0031587Y0211654D01*
X0031754Y0211940D01*
X0031927Y0212222D01*
X0032108Y0212500D01*
X0032296Y0212773D01*
X0032490Y0213042D01*
X0032690Y0213306D01*
X0032897Y0213564D01*
X0033111Y0213818D01*
X0033330Y0214066D01*
X0033556Y0214309D01*
X0033787Y0214546D01*
X0034024Y0214777D01*
X0034267Y0215003D01*
X0034515Y0215222D01*
X0034769Y0215436D01*
X0035027Y0215643D01*
X0035291Y0215843D01*
X0035560Y0216037D01*
X0035833Y0216225D01*
X0036111Y0216406D01*
X0036393Y0216579D01*
X0036679Y0216746D01*
X0036969Y0216906D01*
X0037263Y0217059D01*
X0037561Y0217204D01*
X0037862Y0217342D01*
X0038167Y0217472D01*
X0038474Y0217595D01*
X0038785Y0217711D01*
X0039098Y0217819D01*
X0039414Y0217919D01*
X0039732Y0218011D01*
X0040053Y0218095D01*
X0040375Y0218172D01*
X0040699Y0218241D01*
X0041025Y0218301D01*
X0041352Y0218354D01*
X0041680Y0218398D01*
X0042010Y0218435D01*
X0042340Y0218463D01*
X0042671Y0218484D01*
X0043002Y0218496D01*
X0043333Y0218500D01*
X0043664Y0218496D01*
X0043995Y0218484D01*
X0044326Y0218463D01*
X0044656Y0218435D01*
X0044986Y0218398D01*
X0045314Y0218354D01*
X0045641Y0218301D01*
X0045967Y0218241D01*
X0046291Y0218172D01*
X0046613Y0218095D01*
X0046934Y0218011D01*
X0047252Y0217919D01*
X0047568Y0217819D01*
X0047881Y0217711D01*
X0048192Y0217595D01*
X0048499Y0217472D01*
X0048804Y0217342D01*
X0049105Y0217204D01*
X0049403Y0217059D01*
X0049697Y0216906D01*
X0049987Y0216746D01*
X0050273Y0216579D01*
X0050555Y0216406D01*
X0050833Y0216225D01*
X0051106Y0216037D01*
X0051375Y0215843D01*
X0051639Y0215643D01*
X0051897Y0215436D01*
X0052151Y0215222D01*
X0052399Y0215003D01*
X0052642Y0214777D01*
X0052879Y0214546D01*
X0053110Y0214309D01*
X0053336Y0214066D01*
X0053555Y0213818D01*
X0053769Y0213564D01*
X0053976Y0213306D01*
X0054176Y0213042D01*
X0054370Y0212773D01*
X0054558Y0212500D01*
X0054739Y0212222D01*
X0054912Y0211940D01*
X0055079Y0211654D01*
X0055239Y0211364D01*
X0055392Y0211070D01*
X0055537Y0210772D01*
X0055675Y0210471D01*
X0055805Y0210166D01*
X0055928Y0209859D01*
X0056044Y0209548D01*
X0056152Y0209235D01*
X0056252Y0208919D01*
X0056344Y0208601D01*
X0056428Y0208280D01*
X0056505Y0207958D01*
X0056574Y0207634D01*
X0056634Y0207308D01*
X0056687Y0206981D01*
X0056731Y0206653D01*
X0056768Y0206323D01*
X0056796Y0205993D01*
X0056817Y0205662D01*
X0056829Y0205331D01*
X0056833Y0205000D01*
X0056829Y0204669D01*
X0056817Y0204338D01*
X0056796Y0204007D01*
X0056768Y0203677D01*
X0056731Y0203347D01*
X0056687Y0203019D01*
X0056634Y0202692D01*
X0056574Y0202366D01*
X0056505Y0202042D01*
X0056428Y0201720D01*
X0056344Y0201399D01*
X0056252Y0201081D01*
X0056152Y0200765D01*
X0056044Y0200452D01*
X0055928Y0200141D01*
X0055805Y0199834D01*
X0055675Y0199529D01*
X0055537Y0199228D01*
X0055392Y0198930D01*
X0055239Y0198636D01*
X0055079Y0198346D01*
X0054912Y0198060D01*
X0054739Y0197778D01*
X0054558Y0197500D01*
X0054370Y0197227D01*
X0054176Y0196958D01*
X0053976Y0196694D01*
X0053769Y0196436D01*
X0053555Y0196182D01*
X0053336Y0195934D01*
X0053110Y0195691D01*
X0052879Y0195454D01*
X0052642Y0195223D01*
X0052399Y0194997D01*
X0052151Y0194778D01*
X0051897Y0194564D01*
X0051639Y0194357D01*
X0051375Y0194157D01*
X0051106Y0193963D01*
X0050833Y0193775D01*
X0050555Y0193594D01*
X0050273Y0193421D01*
X0049987Y0193254D01*
X0049697Y0193094D01*
X0049403Y0192941D01*
X0049105Y0192796D01*
X0048804Y0192658D01*
X0048499Y0192528D01*
X0048192Y0192405D01*
X0047881Y0192289D01*
X0047568Y0192181D01*
X0047252Y0192081D01*
X0046934Y0191989D01*
X0046613Y0191905D01*
X0046291Y0191828D01*
X0045967Y0191759D01*
X0045641Y0191699D01*
X0045314Y0191646D01*
X0044986Y0191602D01*
X0044656Y0191565D01*
X0044326Y0191537D01*
X0043995Y0191516D01*
X0043664Y0191504D01*
X0043333Y0191500D01*
X0043002Y0191504D01*
X0042671Y0191516D01*
X0042340Y0191537D01*
X0042010Y0191565D01*
X0041680Y0191602D01*
X0041352Y0191646D01*
X0041025Y0191699D01*
X0040699Y0191759D01*
X0040375Y0191828D01*
X0040053Y0191905D01*
X0039732Y0191989D01*
X0039414Y0192081D01*
X0039098Y0192181D01*
X0038785Y0192289D01*
X0038474Y0192405D01*
X0038167Y0192528D01*
X0037862Y0192658D01*
X0037561Y0192796D01*
X0037263Y0192941D01*
X0036969Y0193094D01*
X0036679Y0193254D01*
X0036393Y0193421D01*
X0036111Y0193594D01*
X0035833Y0193775D01*
X0035560Y0193963D01*
X0035291Y0194157D01*
X0035027Y0194357D01*
X0034769Y0194564D01*
X0034515Y0194778D01*
X0034267Y0194997D01*
X0034024Y0195223D01*
X0033787Y0195454D01*
X0033556Y0195691D01*
X0033330Y0195934D01*
X0033111Y0196182D01*
X0032897Y0196436D01*
X0032690Y0196694D01*
X0032490Y0196958D01*
X0032296Y0197227D01*
X0032108Y0197500D01*
X0031927Y0197778D01*
X0031754Y0198060D01*
X0031587Y0198346D01*
X0031427Y0198636D01*
X0031274Y0198930D01*
X0031129Y0199228D01*
X0030991Y0199529D01*
X0030861Y0199834D01*
X0030738Y0200141D01*
X0030622Y0200452D01*
X0030514Y0200765D01*
X0030414Y0201081D01*
X0030322Y0201399D01*
X0030238Y0201720D01*
X0030161Y0202042D01*
X0030092Y0202366D01*
X0030032Y0202692D01*
X0029979Y0203019D01*
X0029935Y0203347D01*
X0029898Y0203677D01*
X0029870Y0204007D01*
X0029849Y0204338D01*
X0029837Y0204669D01*
X0029833Y0205000D01*
X0030833Y0185000D02*
X0028333Y0182500D01*
X0028333Y0177500D01*
X0030833Y0175000D01*
X0028333Y0172500D01*
X0028333Y0167500D01*
X0030833Y0165000D01*
X0035833Y0165000D01*
X0038333Y0167500D01*
X0038333Y0172500D01*
X0035833Y0175000D01*
X0030833Y0175000D01*
X0035833Y0175000D01*
X0038333Y0177500D01*
X0038333Y0182500D01*
X0035833Y0185000D01*
X0030833Y0185000D01*
X0030833Y0160000D02*
X0028333Y0157500D01*
X0028333Y0152500D01*
X0030833Y0150000D01*
X0035833Y0150000D01*
X0038333Y0152500D01*
X0038333Y0157500D01*
X0035833Y0160000D01*
X0030833Y0160000D01*
X0038333Y0157500D02*
X0040833Y0160000D01*
X0045833Y0160000D01*
X0048333Y0157500D01*
X0050833Y0160000D01*
X0055833Y0160000D01*
X0058333Y0157500D01*
X0060833Y0160000D01*
X0065833Y0160000D01*
X0068333Y0157500D01*
X0070833Y0160000D01*
X0075833Y0160000D01*
X0078333Y0157500D01*
X0080833Y0160000D01*
X0085833Y0160000D01*
X0088333Y0157500D01*
X0088333Y0152500D01*
X0085833Y0150000D01*
X0088333Y0147500D01*
X0088333Y0142500D01*
X0085833Y0140000D01*
X0080833Y0140000D01*
X0078333Y0142500D01*
X0075833Y0140000D01*
X0070833Y0140000D01*
X0068333Y0142500D01*
X0068333Y0147500D01*
X0070833Y0150000D01*
X0075833Y0150000D01*
X0078333Y0147500D01*
X0078333Y0142500D01*
X0078333Y0147500D01*
X0080833Y0150000D01*
X0085833Y0150000D01*
X0080833Y0150000D01*
X0078333Y0152500D01*
X0075833Y0150000D01*
X0070833Y0150000D01*
X0068333Y0152500D01*
X0068333Y0157500D01*
X0068333Y0152500D02*
X0065833Y0150000D01*
X0060833Y0150000D01*
X0058333Y0152500D01*
X0055833Y0150000D01*
X0050833Y0150000D01*
X0048333Y0152500D01*
X0045833Y0150000D01*
X0040833Y0150000D01*
X0038333Y0152500D01*
X0048333Y0152500D02*
X0048333Y0157500D01*
X0058333Y0157500D02*
X0058333Y0152500D01*
X0078333Y0152500D02*
X0078333Y0157500D01*
X0284833Y0080000D02*
X0284837Y0080331D01*
X0284849Y0080662D01*
X0284870Y0080993D01*
X0284898Y0081323D01*
X0284935Y0081653D01*
X0284979Y0081981D01*
X0285032Y0082308D01*
X0285092Y0082634D01*
X0285161Y0082958D01*
X0285238Y0083280D01*
X0285322Y0083601D01*
X0285414Y0083919D01*
X0285514Y0084235D01*
X0285622Y0084548D01*
X0285738Y0084859D01*
X0285861Y0085166D01*
X0285991Y0085471D01*
X0286129Y0085772D01*
X0286274Y0086070D01*
X0286427Y0086364D01*
X0286587Y0086654D01*
X0286754Y0086940D01*
X0286927Y0087222D01*
X0287108Y0087500D01*
X0287296Y0087773D01*
X0287490Y0088042D01*
X0287690Y0088306D01*
X0287897Y0088564D01*
X0288111Y0088818D01*
X0288330Y0089066D01*
X0288556Y0089309D01*
X0288787Y0089546D01*
X0289024Y0089777D01*
X0289267Y0090003D01*
X0289515Y0090222D01*
X0289769Y0090436D01*
X0290027Y0090643D01*
X0290291Y0090843D01*
X0290560Y0091037D01*
X0290833Y0091225D01*
X0291111Y0091406D01*
X0291393Y0091579D01*
X0291679Y0091746D01*
X0291969Y0091906D01*
X0292263Y0092059D01*
X0292561Y0092204D01*
X0292862Y0092342D01*
X0293167Y0092472D01*
X0293474Y0092595D01*
X0293785Y0092711D01*
X0294098Y0092819D01*
X0294414Y0092919D01*
X0294732Y0093011D01*
X0295053Y0093095D01*
X0295375Y0093172D01*
X0295699Y0093241D01*
X0296025Y0093301D01*
X0296352Y0093354D01*
X0296680Y0093398D01*
X0297010Y0093435D01*
X0297340Y0093463D01*
X0297671Y0093484D01*
X0298002Y0093496D01*
X0298333Y0093500D01*
X0298664Y0093496D01*
X0298995Y0093484D01*
X0299326Y0093463D01*
X0299656Y0093435D01*
X0299986Y0093398D01*
X0300314Y0093354D01*
X0300641Y0093301D01*
X0300967Y0093241D01*
X0301291Y0093172D01*
X0301613Y0093095D01*
X0301934Y0093011D01*
X0302252Y0092919D01*
X0302568Y0092819D01*
X0302881Y0092711D01*
X0303192Y0092595D01*
X0303499Y0092472D01*
X0303804Y0092342D01*
X0304105Y0092204D01*
X0304403Y0092059D01*
X0304697Y0091906D01*
X0304987Y0091746D01*
X0305273Y0091579D01*
X0305555Y0091406D01*
X0305833Y0091225D01*
X0306106Y0091037D01*
X0306375Y0090843D01*
X0306639Y0090643D01*
X0306897Y0090436D01*
X0307151Y0090222D01*
X0307399Y0090003D01*
X0307642Y0089777D01*
X0307879Y0089546D01*
X0308110Y0089309D01*
X0308336Y0089066D01*
X0308555Y0088818D01*
X0308769Y0088564D01*
X0308976Y0088306D01*
X0309176Y0088042D01*
X0309370Y0087773D01*
X0309558Y0087500D01*
X0309739Y0087222D01*
X0309912Y0086940D01*
X0310079Y0086654D01*
X0310239Y0086364D01*
X0310392Y0086070D01*
X0310537Y0085772D01*
X0310675Y0085471D01*
X0310805Y0085166D01*
X0310928Y0084859D01*
X0311044Y0084548D01*
X0311152Y0084235D01*
X0311252Y0083919D01*
X0311344Y0083601D01*
X0311428Y0083280D01*
X0311505Y0082958D01*
X0311574Y0082634D01*
X0311634Y0082308D01*
X0311687Y0081981D01*
X0311731Y0081653D01*
X0311768Y0081323D01*
X0311796Y0080993D01*
X0311817Y0080662D01*
X0311829Y0080331D01*
X0311833Y0080000D01*
X0311829Y0079669D01*
X0311817Y0079338D01*
X0311796Y0079007D01*
X0311768Y0078677D01*
X0311731Y0078347D01*
X0311687Y0078019D01*
X0311634Y0077692D01*
X0311574Y0077366D01*
X0311505Y0077042D01*
X0311428Y0076720D01*
X0311344Y0076399D01*
X0311252Y0076081D01*
X0311152Y0075765D01*
X0311044Y0075452D01*
X0310928Y0075141D01*
X0310805Y0074834D01*
X0310675Y0074529D01*
X0310537Y0074228D01*
X0310392Y0073930D01*
X0310239Y0073636D01*
X0310079Y0073346D01*
X0309912Y0073060D01*
X0309739Y0072778D01*
X0309558Y0072500D01*
X0309370Y0072227D01*
X0309176Y0071958D01*
X0308976Y0071694D01*
X0308769Y0071436D01*
X0308555Y0071182D01*
X0308336Y0070934D01*
X0308110Y0070691D01*
X0307879Y0070454D01*
X0307642Y0070223D01*
X0307399Y0069997D01*
X0307151Y0069778D01*
X0306897Y0069564D01*
X0306639Y0069357D01*
X0306375Y0069157D01*
X0306106Y0068963D01*
X0305833Y0068775D01*
X0305555Y0068594D01*
X0305273Y0068421D01*
X0304987Y0068254D01*
X0304697Y0068094D01*
X0304403Y0067941D01*
X0304105Y0067796D01*
X0303804Y0067658D01*
X0303499Y0067528D01*
X0303192Y0067405D01*
X0302881Y0067289D01*
X0302568Y0067181D01*
X0302252Y0067081D01*
X0301934Y0066989D01*
X0301613Y0066905D01*
X0301291Y0066828D01*
X0300967Y0066759D01*
X0300641Y0066699D01*
X0300314Y0066646D01*
X0299986Y0066602D01*
X0299656Y0066565D01*
X0299326Y0066537D01*
X0298995Y0066516D01*
X0298664Y0066504D01*
X0298333Y0066500D01*
X0298002Y0066504D01*
X0297671Y0066516D01*
X0297340Y0066537D01*
X0297010Y0066565D01*
X0296680Y0066602D01*
X0296352Y0066646D01*
X0296025Y0066699D01*
X0295699Y0066759D01*
X0295375Y0066828D01*
X0295053Y0066905D01*
X0294732Y0066989D01*
X0294414Y0067081D01*
X0294098Y0067181D01*
X0293785Y0067289D01*
X0293474Y0067405D01*
X0293167Y0067528D01*
X0292862Y0067658D01*
X0292561Y0067796D01*
X0292263Y0067941D01*
X0291969Y0068094D01*
X0291679Y0068254D01*
X0291393Y0068421D01*
X0291111Y0068594D01*
X0290833Y0068775D01*
X0290560Y0068963D01*
X0290291Y0069157D01*
X0290027Y0069357D01*
X0289769Y0069564D01*
X0289515Y0069778D01*
X0289267Y0069997D01*
X0289024Y0070223D01*
X0288787Y0070454D01*
X0288556Y0070691D01*
X0288330Y0070934D01*
X0288111Y0071182D01*
X0287897Y0071436D01*
X0287690Y0071694D01*
X0287490Y0071958D01*
X0287296Y0072227D01*
X0287108Y0072500D01*
X0286927Y0072778D01*
X0286754Y0073060D01*
X0286587Y0073346D01*
X0286427Y0073636D01*
X0286274Y0073930D01*
X0286129Y0074228D01*
X0285991Y0074529D01*
X0285861Y0074834D01*
X0285738Y0075141D01*
X0285622Y0075452D01*
X0285514Y0075765D01*
X0285414Y0076081D01*
X0285322Y0076399D01*
X0285238Y0076720D01*
X0285161Y0077042D01*
X0285092Y0077366D01*
X0285032Y0077692D01*
X0284979Y0078019D01*
X0284935Y0078347D01*
X0284898Y0078677D01*
X0284870Y0079007D01*
X0284849Y0079338D01*
X0284837Y0079669D01*
X0284833Y0080000D01*
D18*
X0223333Y0337106D03*
X0213333Y0337106D03*
D19*
X0275413Y0305006D03*
X0281213Y0305006D03*
X0281213Y0295006D03*
X0275413Y0295006D03*
X0246213Y0247506D03*
X0240413Y0247506D03*
X0126254Y0119994D03*
X0120454Y0119994D03*
D20*
X0123327Y0087880D03*
X0123327Y0082080D03*
X0192089Y0107120D03*
X0192089Y0112920D03*
X0208339Y0112920D03*
X0208339Y0107120D03*
X0223339Y0107120D03*
X0223339Y0112920D03*
X0233339Y0112920D03*
X0233339Y0107120D03*
X0230827Y0172080D03*
X0230827Y0177880D03*
X0238339Y0293370D03*
X0238339Y0299170D03*
X0223339Y0317120D03*
X0223339Y0322920D03*
X0213327Y0322880D03*
X0213327Y0317080D03*
X0053327Y0252880D03*
X0053327Y0247080D03*
X0033339Y0292120D03*
X0033339Y0297920D03*
D21*
X0254083Y0337500D03*
X0256583Y0337500D03*
X0259083Y0337500D03*
D22*
X0033412Y0129016D02*
X0033412Y0056181D01*
X0086562Y0056181D01*
X0086562Y0129016D01*
X0033412Y0129016D01*
X0135833Y0094980D02*
X0135833Y0087500D01*
X0150007Y0087500D01*
X0150007Y0094980D01*
X0135833Y0094980D01*
X0134374Y0087106D02*
X0134376Y0087139D01*
X0134382Y0087171D01*
X0134391Y0087203D01*
X0134405Y0087233D01*
X0134421Y0087261D01*
X0134441Y0087287D01*
X0134464Y0087311D01*
X0134490Y0087332D01*
X0134518Y0087349D01*
X0134548Y0087364D01*
X0134579Y0087374D01*
X0134611Y0087381D01*
X0134644Y0087384D01*
X0134677Y0087383D01*
X0134709Y0087378D01*
X0134741Y0087369D01*
X0134772Y0087357D01*
X0134800Y0087341D01*
X0134827Y0087322D01*
X0134851Y0087300D01*
X0134873Y0087275D01*
X0134891Y0087247D01*
X0134906Y0087218D01*
X0134918Y0087187D01*
X0134926Y0087155D01*
X0134930Y0087122D01*
X0134930Y0087090D01*
X0134926Y0087057D01*
X0134918Y0087025D01*
X0134906Y0086994D01*
X0134891Y0086965D01*
X0134873Y0086937D01*
X0134851Y0086912D01*
X0134827Y0086890D01*
X0134800Y0086871D01*
X0134772Y0086855D01*
X0134741Y0086843D01*
X0134709Y0086834D01*
X0134677Y0086829D01*
X0134644Y0086828D01*
X0134611Y0086831D01*
X0134579Y0086838D01*
X0134548Y0086848D01*
X0134518Y0086863D01*
X0134490Y0086880D01*
X0134464Y0086901D01*
X0134441Y0086925D01*
X0134421Y0086951D01*
X0134405Y0086979D01*
X0134391Y0087009D01*
X0134382Y0087041D01*
X0134376Y0087073D01*
X0134374Y0087106D01*
X0163333Y0090000D02*
X0163333Y0064803D01*
X0187743Y0064803D01*
X0187743Y0090000D01*
X0187703Y0090000D02*
X0163333Y0090000D01*
X0164159Y0066850D02*
X0164161Y0066903D01*
X0164167Y0066956D01*
X0164177Y0067008D01*
X0164191Y0067059D01*
X0164208Y0067109D01*
X0164229Y0067158D01*
X0164254Y0067205D01*
X0164282Y0067250D01*
X0164314Y0067293D01*
X0164349Y0067333D01*
X0164386Y0067370D01*
X0164426Y0067405D01*
X0164469Y0067437D01*
X0164514Y0067465D01*
X0164561Y0067490D01*
X0164610Y0067511D01*
X0164660Y0067528D01*
X0164711Y0067542D01*
X0164763Y0067552D01*
X0164816Y0067558D01*
X0164869Y0067560D01*
X0164922Y0067558D01*
X0164975Y0067552D01*
X0165027Y0067542D01*
X0165078Y0067528D01*
X0165128Y0067511D01*
X0165177Y0067490D01*
X0165224Y0067465D01*
X0165269Y0067437D01*
X0165312Y0067405D01*
X0165352Y0067370D01*
X0165389Y0067333D01*
X0165424Y0067293D01*
X0165456Y0067250D01*
X0165484Y0067205D01*
X0165509Y0067158D01*
X0165530Y0067109D01*
X0165547Y0067059D01*
X0165561Y0067008D01*
X0165571Y0066956D01*
X0165577Y0066903D01*
X0165579Y0066850D01*
X0165577Y0066797D01*
X0165571Y0066744D01*
X0165561Y0066692D01*
X0165547Y0066641D01*
X0165530Y0066591D01*
X0165509Y0066542D01*
X0165484Y0066495D01*
X0165456Y0066450D01*
X0165424Y0066407D01*
X0165389Y0066367D01*
X0165352Y0066330D01*
X0165312Y0066295D01*
X0165269Y0066263D01*
X0165224Y0066235D01*
X0165177Y0066210D01*
X0165128Y0066189D01*
X0165078Y0066172D01*
X0165027Y0066158D01*
X0164975Y0066148D01*
X0164922Y0066142D01*
X0164869Y0066140D01*
X0164816Y0066142D01*
X0164763Y0066148D01*
X0164711Y0066158D01*
X0164660Y0066172D01*
X0164610Y0066189D01*
X0164561Y0066210D01*
X0164514Y0066235D01*
X0164469Y0066263D01*
X0164426Y0066295D01*
X0164386Y0066330D01*
X0164349Y0066367D01*
X0164314Y0066407D01*
X0164282Y0066450D01*
X0164254Y0066495D01*
X0164229Y0066542D01*
X0164208Y0066591D01*
X0164191Y0066641D01*
X0164177Y0066692D01*
X0164167Y0066744D01*
X0164161Y0066797D01*
X0164159Y0066850D01*
X0155890Y0137450D02*
X0152887Y0137450D01*
X0154389Y0137450D02*
X0154389Y0141954D01*
X0152887Y0140453D01*
X0151286Y0141954D02*
X0151286Y0138201D01*
X0150535Y0137450D01*
X0149034Y0137450D01*
X0148283Y0138201D01*
X0148283Y0141954D01*
X0210705Y0189423D02*
X0210705Y0191675D01*
X0211456Y0192426D01*
X0214459Y0192426D01*
X0215209Y0191675D01*
X0215209Y0189423D01*
X0210705Y0189423D01*
X0212207Y0194027D02*
X0210705Y0195528D01*
X0215209Y0195528D01*
X0215209Y0194027D02*
X0215209Y0197030D01*
X0215209Y0239423D02*
X0210705Y0239423D01*
X0210705Y0241675D01*
X0211456Y0242426D01*
X0214459Y0242426D01*
X0215209Y0241675D01*
X0215209Y0239423D01*
X0215209Y0244027D02*
X0212207Y0247030D01*
X0211456Y0247030D01*
X0210705Y0246279D01*
X0210705Y0244778D01*
X0211456Y0244027D01*
X0215209Y0244027D02*
X0215209Y0247030D01*
X0218815Y0275600D02*
X0218817Y0275639D01*
X0218823Y0275678D01*
X0218833Y0275716D01*
X0218846Y0275753D01*
X0218863Y0275788D01*
X0218883Y0275822D01*
X0218907Y0275853D01*
X0218934Y0275882D01*
X0218963Y0275908D01*
X0218995Y0275931D01*
X0219029Y0275951D01*
X0219065Y0275967D01*
X0219102Y0275979D01*
X0219141Y0275988D01*
X0219180Y0275993D01*
X0219219Y0275994D01*
X0219258Y0275991D01*
X0219297Y0275984D01*
X0219334Y0275973D01*
X0219371Y0275959D01*
X0219406Y0275941D01*
X0219439Y0275920D01*
X0219470Y0275895D01*
X0219498Y0275868D01*
X0219523Y0275838D01*
X0219545Y0275805D01*
X0219564Y0275771D01*
X0219579Y0275735D01*
X0219591Y0275697D01*
X0219599Y0275659D01*
X0219603Y0275620D01*
X0219603Y0275580D01*
X0219599Y0275541D01*
X0219591Y0275503D01*
X0219579Y0275465D01*
X0219564Y0275429D01*
X0219545Y0275395D01*
X0219523Y0275362D01*
X0219498Y0275332D01*
X0219470Y0275305D01*
X0219439Y0275280D01*
X0219406Y0275259D01*
X0219371Y0275241D01*
X0219334Y0275227D01*
X0219297Y0275216D01*
X0219258Y0275209D01*
X0219219Y0275206D01*
X0219180Y0275207D01*
X0219141Y0275212D01*
X0219102Y0275221D01*
X0219065Y0275233D01*
X0219029Y0275249D01*
X0218995Y0275269D01*
X0218963Y0275292D01*
X0218934Y0275318D01*
X0218907Y0275347D01*
X0218883Y0275378D01*
X0218863Y0275412D01*
X0218846Y0275447D01*
X0218833Y0275484D01*
X0218823Y0275522D01*
X0218817Y0275561D01*
X0218815Y0275600D01*
X0221178Y0282884D02*
X0221375Y0282884D01*
X0250833Y0320625D02*
X0253333Y0322500D01*
X0254293Y0322500D01*
X0253333Y0322500D02*
X0253333Y0320625D01*
X0253333Y0322500D02*
X0253333Y0324375D01*
X0253333Y0322500D02*
X0250833Y0324375D01*
X0250833Y0322500D01*
X0249873Y0322500D01*
X0250833Y0322500D02*
X0250833Y0320625D01*
X0095833Y0340600D02*
X0095833Y0283907D01*
X0040715Y0283907D01*
X0040715Y0343356D01*
X0044652Y0343356D01*
X0044654Y0343199D01*
X0044660Y0343042D01*
X0044670Y0342885D01*
X0044683Y0342729D01*
X0044701Y0342573D01*
X0044722Y0342417D01*
X0044748Y0342262D01*
X0044777Y0342108D01*
X0044810Y0341954D01*
X0044847Y0341802D01*
X0044887Y0341650D01*
X0044932Y0341499D01*
X0044980Y0341350D01*
X0045032Y0341202D01*
X0045087Y0341055D01*
X0045147Y0340909D01*
X0045209Y0340765D01*
X0045276Y0340623D01*
X0045346Y0340482D01*
X0045419Y0340343D01*
X0045496Y0340207D01*
X0045576Y0340071D01*
X0045660Y0339939D01*
X0045747Y0339808D01*
X0045837Y0339679D01*
X0045930Y0339553D01*
X0046026Y0339429D01*
X0046126Y0339307D01*
X0046228Y0339188D01*
X0046334Y0339072D01*
X0046442Y0338958D01*
X0046553Y0338847D01*
X0046667Y0338739D01*
X0046783Y0338633D01*
X0046902Y0338531D01*
X0047024Y0338431D01*
X0047148Y0338335D01*
X0047274Y0338242D01*
X0047403Y0338152D01*
X0047534Y0338065D01*
X0047666Y0337981D01*
X0047802Y0337901D01*
X0047938Y0337824D01*
X0048077Y0337751D01*
X0048218Y0337681D01*
X0048360Y0337614D01*
X0048504Y0337552D01*
X0048650Y0337492D01*
X0048797Y0337437D01*
X0048945Y0337385D01*
X0049094Y0337337D01*
X0049245Y0337292D01*
X0049397Y0337252D01*
X0049549Y0337215D01*
X0049703Y0337182D01*
X0049857Y0337153D01*
X0050012Y0337127D01*
X0050168Y0337106D01*
X0050324Y0337088D01*
X0050480Y0337075D01*
X0050637Y0337065D01*
X0050794Y0337059D01*
X0050951Y0337057D01*
X0089140Y0337057D01*
X0089141Y0337058D02*
X0089250Y0337073D01*
X0089359Y0337093D01*
X0089468Y0337116D01*
X0089575Y0337143D01*
X0089682Y0337174D01*
X0089787Y0337208D01*
X0089891Y0337246D01*
X0089994Y0337288D01*
X0090095Y0337333D01*
X0090194Y0337382D01*
X0090292Y0337434D01*
X0090388Y0337490D01*
X0090481Y0337549D01*
X0090573Y0337611D01*
X0090663Y0337676D01*
X0090750Y0337745D01*
X0090835Y0337816D01*
X0090917Y0337890D01*
X0090996Y0337968D01*
X0091073Y0338047D01*
X0091147Y0338130D01*
X0091218Y0338215D01*
X0091286Y0338302D01*
X0091351Y0338392D01*
X0091413Y0338484D01*
X0091471Y0338578D01*
X0091526Y0338674D01*
X0091578Y0338772D01*
X0091627Y0338872D01*
X0091671Y0338973D01*
X0091713Y0339076D01*
X0091750Y0339180D01*
X0091784Y0339286D01*
X0091815Y0339392D01*
X0091841Y0339500D01*
X0091864Y0339608D01*
X0091883Y0339717D01*
X0091898Y0339827D01*
X0091910Y0339937D01*
X0091917Y0340048D01*
X0091921Y0340159D01*
X0091920Y0340269D01*
X0091916Y0340380D01*
X0091908Y0340491D01*
X0091896Y0340601D01*
X0091896Y0340600D02*
X0095833Y0340600D01*
X0094258Y0341624D02*
X0094256Y0341759D01*
X0094250Y0341894D01*
X0094241Y0342028D01*
X0094227Y0342162D01*
X0094210Y0342296D01*
X0094189Y0342430D01*
X0094164Y0342562D01*
X0094135Y0342694D01*
X0094103Y0342825D01*
X0094067Y0342955D01*
X0094027Y0343084D01*
X0093983Y0343211D01*
X0093936Y0343338D01*
X0093885Y0343463D01*
X0093831Y0343586D01*
X0093773Y0343708D01*
X0093712Y0343829D01*
X0093647Y0343947D01*
X0093579Y0344063D01*
X0093508Y0344178D01*
X0093434Y0344290D01*
X0093356Y0344401D01*
X0093275Y0344509D01*
X0093191Y0344614D01*
X0093104Y0344718D01*
X0093014Y0344818D01*
X0092922Y0344916D01*
X0092826Y0345012D01*
X0092728Y0345104D01*
X0092628Y0345194D01*
X0092524Y0345281D01*
X0092419Y0345365D01*
X0092311Y0345446D01*
X0092200Y0345524D01*
X0092088Y0345598D01*
X0091973Y0345669D01*
X0091857Y0345737D01*
X0091739Y0345802D01*
X0091618Y0345863D01*
X0091496Y0345921D01*
X0091373Y0345975D01*
X0091248Y0346026D01*
X0091121Y0346073D01*
X0090994Y0346117D01*
X0090865Y0346157D01*
X0090735Y0346193D01*
X0090604Y0346225D01*
X0090472Y0346254D01*
X0090340Y0346279D01*
X0090206Y0346300D01*
X0090072Y0346317D01*
X0089938Y0346331D01*
X0089804Y0346340D01*
X0089669Y0346346D01*
X0089534Y0346348D01*
X0053314Y0346348D01*
X0053314Y0349892D02*
X0053179Y0349901D01*
X0053043Y0349906D01*
X0052908Y0349908D01*
X0052773Y0349906D01*
X0052637Y0349900D01*
X0052502Y0349890D01*
X0052368Y0349876D01*
X0052233Y0349858D01*
X0052100Y0349836D01*
X0051967Y0349811D01*
X0051834Y0349782D01*
X0051703Y0349749D01*
X0051573Y0349713D01*
X0051444Y0349672D01*
X0051315Y0349628D01*
X0051189Y0349581D01*
X0051063Y0349529D01*
X0050940Y0349475D01*
X0050817Y0349416D01*
X0050697Y0349354D01*
X0050578Y0349289D01*
X0050461Y0349221D01*
X0050347Y0349149D01*
X0050234Y0349074D01*
X0050124Y0348995D01*
X0050015Y0348914D01*
X0049910Y0348830D01*
X0049806Y0348742D01*
X0049705Y0348652D01*
X0049607Y0348559D01*
X0049512Y0348463D01*
X0049419Y0348364D01*
X0049329Y0348263D01*
X0049242Y0348159D01*
X0049158Y0348053D01*
X0049077Y0347944D01*
X0049000Y0347833D01*
X0048925Y0347720D01*
X0048854Y0347605D01*
X0048786Y0347488D01*
X0048721Y0347369D01*
X0048660Y0347248D01*
X0048602Y0347126D01*
X0048548Y0347001D01*
X0048498Y0346876D01*
X0048451Y0346749D01*
X0048407Y0346621D01*
X0048368Y0346491D01*
X0048332Y0346361D01*
X0048299Y0346229D01*
X0048271Y0346097D01*
X0048246Y0345964D01*
X0048226Y0345830D01*
X0048209Y0345695D01*
X0048195Y0345561D01*
X0048195Y0342018D02*
X0048209Y0342152D01*
X0048226Y0342287D01*
X0048246Y0342421D01*
X0048271Y0342554D01*
X0048299Y0342686D01*
X0048332Y0342818D01*
X0048368Y0342948D01*
X0048407Y0343078D01*
X0048451Y0343206D01*
X0048498Y0343333D01*
X0048548Y0343458D01*
X0048602Y0343583D01*
X0048660Y0343705D01*
X0048721Y0343826D01*
X0048786Y0343945D01*
X0048854Y0344062D01*
X0048925Y0344177D01*
X0049000Y0344290D01*
X0049077Y0344401D01*
X0049158Y0344510D01*
X0049242Y0344616D01*
X0049329Y0344720D01*
X0049419Y0344821D01*
X0049512Y0344920D01*
X0049607Y0345016D01*
X0049705Y0345109D01*
X0049806Y0345199D01*
X0049910Y0345287D01*
X0050015Y0345371D01*
X0050124Y0345452D01*
X0050234Y0345531D01*
X0050347Y0345606D01*
X0050461Y0345678D01*
X0050578Y0345746D01*
X0050697Y0345811D01*
X0050817Y0345873D01*
X0050940Y0345932D01*
X0051063Y0345986D01*
X0051189Y0346038D01*
X0051315Y0346085D01*
X0051444Y0346129D01*
X0051573Y0346170D01*
X0051703Y0346206D01*
X0051834Y0346239D01*
X0051967Y0346268D01*
X0052100Y0346293D01*
X0052233Y0346315D01*
X0052368Y0346333D01*
X0052502Y0346347D01*
X0052637Y0346357D01*
X0052773Y0346363D01*
X0052908Y0346365D01*
X0053043Y0346363D01*
X0053179Y0346358D01*
X0053314Y0346349D01*
X0053314Y0349892D02*
X0089534Y0349892D01*
X0089534Y0349891D02*
X0089669Y0349889D01*
X0089804Y0349883D01*
X0089938Y0349874D01*
X0090072Y0349860D01*
X0090206Y0349843D01*
X0090340Y0349822D01*
X0090472Y0349797D01*
X0090604Y0349768D01*
X0090735Y0349736D01*
X0090865Y0349700D01*
X0090994Y0349660D01*
X0091121Y0349616D01*
X0091248Y0349569D01*
X0091373Y0349518D01*
X0091496Y0349464D01*
X0091618Y0349406D01*
X0091739Y0349345D01*
X0091857Y0349280D01*
X0091973Y0349212D01*
X0092088Y0349141D01*
X0092200Y0349067D01*
X0092311Y0348989D01*
X0092419Y0348908D01*
X0092524Y0348824D01*
X0092628Y0348737D01*
X0092728Y0348647D01*
X0092826Y0348555D01*
X0092922Y0348459D01*
X0093014Y0348361D01*
X0093104Y0348261D01*
X0093191Y0348157D01*
X0093275Y0348052D01*
X0093356Y0347944D01*
X0093434Y0347833D01*
X0093508Y0347721D01*
X0093579Y0347606D01*
X0093647Y0347490D01*
X0093712Y0347372D01*
X0093773Y0347251D01*
X0093831Y0347129D01*
X0093885Y0347006D01*
X0093936Y0346881D01*
X0093983Y0346754D01*
X0094027Y0346627D01*
X0094067Y0346498D01*
X0094103Y0346368D01*
X0094135Y0346237D01*
X0094164Y0346105D01*
X0094189Y0345973D01*
X0094210Y0345839D01*
X0094227Y0345705D01*
X0094241Y0345571D01*
X0094250Y0345437D01*
X0094256Y0345302D01*
X0094258Y0345167D01*
X0094258Y0360128D02*
X0094256Y0360263D01*
X0094250Y0360398D01*
X0094241Y0360532D01*
X0094227Y0360666D01*
X0094210Y0360800D01*
X0094189Y0360934D01*
X0094164Y0361066D01*
X0094135Y0361198D01*
X0094103Y0361329D01*
X0094067Y0361459D01*
X0094027Y0361588D01*
X0093983Y0361715D01*
X0093936Y0361842D01*
X0093885Y0361967D01*
X0093831Y0362090D01*
X0093773Y0362212D01*
X0093712Y0362333D01*
X0093647Y0362451D01*
X0093579Y0362567D01*
X0093508Y0362682D01*
X0093434Y0362794D01*
X0093356Y0362905D01*
X0093275Y0363013D01*
X0093191Y0363118D01*
X0093104Y0363222D01*
X0093014Y0363322D01*
X0092922Y0363420D01*
X0092826Y0363516D01*
X0092728Y0363608D01*
X0092628Y0363698D01*
X0092524Y0363785D01*
X0092419Y0363869D01*
X0092311Y0363950D01*
X0092200Y0364028D01*
X0092088Y0364102D01*
X0091973Y0364173D01*
X0091857Y0364241D01*
X0091739Y0364306D01*
X0091618Y0364367D01*
X0091496Y0364425D01*
X0091373Y0364479D01*
X0091248Y0364530D01*
X0091121Y0364577D01*
X0090994Y0364621D01*
X0090865Y0364661D01*
X0090735Y0364697D01*
X0090604Y0364729D01*
X0090472Y0364758D01*
X0090340Y0364783D01*
X0090206Y0364804D01*
X0090072Y0364821D01*
X0089938Y0364835D01*
X0089804Y0364844D01*
X0089669Y0364850D01*
X0089534Y0364852D01*
X0053314Y0364852D01*
X0053314Y0364853D02*
X0053179Y0364862D01*
X0053043Y0364867D01*
X0052908Y0364869D01*
X0052773Y0364867D01*
X0052637Y0364861D01*
X0052502Y0364851D01*
X0052368Y0364837D01*
X0052233Y0364819D01*
X0052100Y0364797D01*
X0051967Y0364772D01*
X0051834Y0364743D01*
X0051703Y0364710D01*
X0051573Y0364674D01*
X0051444Y0364633D01*
X0051315Y0364589D01*
X0051189Y0364542D01*
X0051063Y0364490D01*
X0050940Y0364436D01*
X0050817Y0364377D01*
X0050697Y0364315D01*
X0050578Y0364250D01*
X0050461Y0364182D01*
X0050347Y0364110D01*
X0050234Y0364035D01*
X0050124Y0363956D01*
X0050015Y0363875D01*
X0049910Y0363791D01*
X0049806Y0363703D01*
X0049705Y0363613D01*
X0049607Y0363520D01*
X0049512Y0363424D01*
X0049419Y0363325D01*
X0049329Y0363224D01*
X0049242Y0363120D01*
X0049158Y0363014D01*
X0049077Y0362905D01*
X0049000Y0362794D01*
X0048925Y0362681D01*
X0048854Y0362566D01*
X0048786Y0362449D01*
X0048721Y0362330D01*
X0048660Y0362209D01*
X0048602Y0362087D01*
X0048548Y0361962D01*
X0048498Y0361837D01*
X0048451Y0361710D01*
X0048407Y0361582D01*
X0048368Y0361452D01*
X0048332Y0361322D01*
X0048299Y0361190D01*
X0048271Y0361058D01*
X0048246Y0360925D01*
X0048226Y0360791D01*
X0048209Y0360656D01*
X0048195Y0360522D01*
D23*
X0044913Y0125001D02*
X0044579Y0125001D01*
X0044413Y0124834D01*
X0044413Y0124167D01*
X0044579Y0124000D01*
X0044913Y0124000D01*
X0045080Y0124167D01*
X0045080Y0124834D02*
X0044913Y0125001D01*
X0044159Y0124834D02*
X0043992Y0125001D01*
X0043659Y0125001D01*
X0043492Y0124834D01*
X0043492Y0124167D01*
X0043659Y0124000D01*
X0043992Y0124000D01*
X0044159Y0124167D01*
X0043238Y0124334D02*
X0043238Y0125001D01*
X0042571Y0125001D02*
X0042571Y0124334D01*
X0042905Y0124000D01*
X0043238Y0124334D01*
X0043238Y0120001D02*
X0043238Y0119000D01*
X0042571Y0120001D01*
X0042571Y0119000D01*
X0043492Y0119167D02*
X0043659Y0119000D01*
X0043992Y0119000D01*
X0044159Y0119167D01*
X0044413Y0119167D02*
X0044579Y0119000D01*
X0044913Y0119000D01*
X0045080Y0119167D01*
X0045080Y0119334D01*
X0044913Y0119500D01*
X0044746Y0119500D01*
X0044913Y0119500D02*
X0045080Y0119667D01*
X0045080Y0119834D01*
X0044913Y0120001D01*
X0044579Y0120001D01*
X0044413Y0119834D01*
X0044159Y0119834D02*
X0043992Y0120001D01*
X0043659Y0120001D01*
X0043492Y0119834D01*
X0043492Y0119167D01*
X0043492Y0114001D02*
X0044159Y0114001D01*
X0044413Y0114001D02*
X0044913Y0114001D01*
X0045080Y0113834D01*
X0045080Y0113667D01*
X0044913Y0113500D01*
X0044413Y0113500D01*
X0044913Y0113500D02*
X0045080Y0113334D01*
X0045080Y0113167D01*
X0044913Y0113000D01*
X0044413Y0113000D01*
X0044413Y0114001D01*
X0043825Y0114001D02*
X0043825Y0113000D01*
X0043238Y0113000D02*
X0042571Y0113000D01*
X0042571Y0114001D01*
X0043238Y0114001D01*
X0042905Y0113500D02*
X0042571Y0113500D01*
X0042317Y0113334D02*
X0042151Y0113500D01*
X0041817Y0113500D01*
X0041650Y0113667D01*
X0041650Y0113834D01*
X0041817Y0114001D01*
X0042151Y0114001D01*
X0042317Y0113834D01*
X0042317Y0113334D02*
X0042317Y0113167D01*
X0042151Y0113000D01*
X0041817Y0113000D01*
X0041650Y0113167D01*
X0041397Y0113000D02*
X0040729Y0113000D01*
X0040729Y0114001D01*
X0041397Y0114001D01*
X0041063Y0113500D02*
X0040729Y0113500D01*
X0040476Y0113500D02*
X0040309Y0113334D01*
X0039809Y0113334D01*
X0040142Y0113334D02*
X0040476Y0113000D01*
X0040476Y0113500D02*
X0040476Y0113834D01*
X0040309Y0114001D01*
X0039809Y0114001D01*
X0039809Y0113000D01*
X0042738Y0108001D02*
X0042571Y0107834D01*
X0042571Y0107167D01*
X0042738Y0107000D01*
X0043071Y0107000D01*
X0043238Y0107167D01*
X0043238Y0107500D01*
X0042905Y0107500D01*
X0043238Y0107834D02*
X0043071Y0108001D01*
X0042738Y0108001D01*
X0043492Y0108001D02*
X0044159Y0107000D01*
X0044159Y0108001D01*
X0044413Y0108001D02*
X0044913Y0108001D01*
X0045080Y0107834D01*
X0045080Y0107167D01*
X0044913Y0107000D01*
X0044413Y0107000D01*
X0044413Y0108001D01*
X0043492Y0108001D02*
X0043492Y0107000D01*
X0043659Y0102001D02*
X0043492Y0101834D01*
X0043492Y0101167D01*
X0043659Y0101000D01*
X0043992Y0101000D01*
X0044159Y0101167D01*
X0044159Y0101834D01*
X0043992Y0102001D01*
X0043659Y0102001D01*
X0043212Y0102001D02*
X0042878Y0102001D01*
X0043045Y0102001D02*
X0043045Y0101000D01*
X0042878Y0101000D02*
X0043212Y0101000D01*
X0042624Y0101500D02*
X0042458Y0101334D01*
X0041957Y0101334D01*
X0041957Y0101000D02*
X0041957Y0102001D01*
X0042458Y0102001D01*
X0042624Y0101834D01*
X0042624Y0101500D01*
X0044413Y0101167D02*
X0044579Y0101000D01*
X0044913Y0101000D01*
X0045080Y0101167D01*
X0045080Y0101334D01*
X0044913Y0101500D01*
X0044746Y0101500D01*
X0044913Y0101500D02*
X0045080Y0101667D01*
X0045080Y0101834D01*
X0044913Y0102001D01*
X0044579Y0102001D01*
X0044413Y0101834D01*
X0044579Y0096001D02*
X0044413Y0095834D01*
X0044579Y0096001D02*
X0044913Y0096001D01*
X0045080Y0095834D01*
X0045080Y0095667D01*
X0044413Y0095000D01*
X0045080Y0095000D01*
X0044159Y0095167D02*
X0044159Y0095834D01*
X0043992Y0096001D01*
X0043659Y0096001D01*
X0043492Y0095834D01*
X0043492Y0095167D01*
X0043659Y0095000D01*
X0043992Y0095000D01*
X0044159Y0095167D01*
X0043212Y0095000D02*
X0042878Y0095000D01*
X0043045Y0095000D02*
X0043045Y0096001D01*
X0042878Y0096001D02*
X0043212Y0096001D01*
X0042624Y0095834D02*
X0042624Y0095500D01*
X0042458Y0095334D01*
X0041957Y0095334D01*
X0041957Y0095000D02*
X0041957Y0096001D01*
X0042458Y0096001D01*
X0042624Y0095834D01*
X0042458Y0090001D02*
X0042624Y0089834D01*
X0042624Y0089500D01*
X0042458Y0089334D01*
X0041957Y0089334D01*
X0041957Y0089000D02*
X0041957Y0090001D01*
X0042458Y0090001D01*
X0042878Y0090001D02*
X0043212Y0090001D01*
X0043045Y0090001D02*
X0043045Y0089000D01*
X0042878Y0089000D02*
X0043212Y0089000D01*
X0043492Y0089167D02*
X0043659Y0089000D01*
X0043992Y0089000D01*
X0044159Y0089167D01*
X0044159Y0089834D01*
X0043992Y0090001D01*
X0043659Y0090001D01*
X0043492Y0089834D01*
X0043492Y0089167D01*
X0044413Y0089000D02*
X0045080Y0089000D01*
X0044746Y0089000D02*
X0044746Y0090001D01*
X0044413Y0089667D01*
X0044579Y0084001D02*
X0044913Y0084001D01*
X0045080Y0083834D01*
X0044413Y0083167D01*
X0044579Y0083000D01*
X0044913Y0083000D01*
X0045080Y0083167D01*
X0045080Y0083834D01*
X0044579Y0084001D02*
X0044413Y0083834D01*
X0044413Y0083167D01*
X0044159Y0083167D02*
X0044159Y0083834D01*
X0043992Y0084001D01*
X0043659Y0084001D01*
X0043492Y0083834D01*
X0043492Y0083167D01*
X0043659Y0083000D01*
X0043992Y0083000D01*
X0044159Y0083167D01*
X0043212Y0083000D02*
X0042878Y0083000D01*
X0043045Y0083000D02*
X0043045Y0084001D01*
X0042878Y0084001D02*
X0043212Y0084001D01*
X0042624Y0083834D02*
X0042624Y0083500D01*
X0042458Y0083334D01*
X0041957Y0083334D01*
X0041957Y0083000D02*
X0041957Y0084001D01*
X0042458Y0084001D01*
X0042624Y0083834D01*
X0072967Y0084001D02*
X0072967Y0083167D01*
X0073134Y0083000D01*
X0073467Y0083000D01*
X0073634Y0083167D01*
X0073634Y0084001D01*
X0073888Y0083667D02*
X0074221Y0084001D01*
X0074555Y0083667D01*
X0074555Y0083000D01*
X0074809Y0083000D02*
X0074809Y0084001D01*
X0075309Y0084001D01*
X0075476Y0083834D01*
X0075476Y0083500D01*
X0075309Y0083334D01*
X0074809Y0083334D01*
X0074555Y0083500D02*
X0073888Y0083500D01*
X0073888Y0083667D02*
X0073888Y0083000D01*
X0075142Y0083334D02*
X0075476Y0083000D01*
X0076063Y0083000D02*
X0076063Y0084001D01*
X0075729Y0084001D02*
X0076397Y0084001D01*
X0077571Y0084001D02*
X0078071Y0084001D01*
X0078238Y0083834D01*
X0078238Y0083500D01*
X0078071Y0083334D01*
X0077571Y0083334D01*
X0077905Y0083334D02*
X0078238Y0083000D01*
X0078825Y0083000D02*
X0078825Y0084001D01*
X0078492Y0084001D02*
X0079159Y0084001D01*
X0079413Y0083834D02*
X0079413Y0083667D01*
X0079579Y0083500D01*
X0079913Y0083500D01*
X0080080Y0083334D01*
X0080080Y0083167D01*
X0079913Y0083000D01*
X0079579Y0083000D01*
X0079413Y0083167D01*
X0079413Y0083834D02*
X0079579Y0084001D01*
X0079913Y0084001D01*
X0080080Y0083834D01*
X0077571Y0084001D02*
X0077571Y0083000D01*
X0077317Y0082833D02*
X0076650Y0082833D01*
X0077571Y0088833D02*
X0078238Y0088833D01*
X0078825Y0089000D02*
X0078825Y0090001D01*
X0078492Y0090001D02*
X0079159Y0090001D01*
X0079413Y0090001D02*
X0080080Y0089000D01*
X0079413Y0089000D02*
X0080080Y0090001D01*
X0077317Y0090001D02*
X0076650Y0090001D01*
X0076397Y0089834D02*
X0076397Y0089500D01*
X0076230Y0089334D01*
X0075729Y0089334D01*
X0075476Y0089500D02*
X0074809Y0089500D01*
X0074809Y0089667D02*
X0075142Y0090001D01*
X0075476Y0089667D01*
X0075476Y0089000D01*
X0075729Y0089000D02*
X0075729Y0090001D01*
X0076230Y0090001D01*
X0076397Y0089834D01*
X0076063Y0089334D02*
X0076397Y0089000D01*
X0076984Y0089000D02*
X0076984Y0090001D01*
X0074809Y0089667D02*
X0074809Y0089000D01*
X0074555Y0089167D02*
X0074555Y0090001D01*
X0073888Y0090001D02*
X0073888Y0089167D01*
X0074055Y0089000D01*
X0074388Y0089000D01*
X0074555Y0089167D01*
X0074555Y0095000D02*
X0074555Y0095667D01*
X0074221Y0096001D01*
X0073888Y0095667D01*
X0073888Y0095000D01*
X0073634Y0095167D02*
X0073634Y0096001D01*
X0073888Y0095500D02*
X0074555Y0095500D01*
X0074809Y0095334D02*
X0075309Y0095334D01*
X0075476Y0095500D01*
X0075476Y0095834D01*
X0075309Y0096001D01*
X0074809Y0096001D01*
X0074809Y0095000D01*
X0075142Y0095334D02*
X0075476Y0095000D01*
X0076063Y0095000D02*
X0076063Y0096001D01*
X0075729Y0096001D02*
X0076397Y0096001D01*
X0077571Y0095834D02*
X0077571Y0095167D01*
X0077738Y0095000D01*
X0078071Y0095000D01*
X0078238Y0095167D01*
X0078825Y0095000D02*
X0078825Y0096001D01*
X0078492Y0096001D02*
X0079159Y0096001D01*
X0079413Y0095834D02*
X0079413Y0095667D01*
X0079579Y0095500D01*
X0079913Y0095500D01*
X0080080Y0095334D01*
X0080080Y0095167D01*
X0079913Y0095000D01*
X0079579Y0095000D01*
X0079413Y0095167D01*
X0079413Y0095834D02*
X0079579Y0096001D01*
X0079913Y0096001D01*
X0080080Y0095834D01*
X0078238Y0095834D02*
X0078071Y0096001D01*
X0077738Y0096001D01*
X0077571Y0095834D01*
X0077317Y0094833D02*
X0076650Y0094833D01*
X0073634Y0095167D02*
X0073467Y0095000D01*
X0073134Y0095000D01*
X0072967Y0095167D01*
X0072967Y0096001D01*
X0074055Y0101000D02*
X0074388Y0101000D01*
X0074555Y0101167D01*
X0074555Y0102001D01*
X0074809Y0101667D02*
X0075142Y0102001D01*
X0075476Y0101667D01*
X0075476Y0101000D01*
X0075729Y0101000D02*
X0075729Y0102001D01*
X0076230Y0102001D01*
X0076397Y0101834D01*
X0076397Y0101500D01*
X0076230Y0101334D01*
X0075729Y0101334D01*
X0075476Y0101500D02*
X0074809Y0101500D01*
X0074809Y0101667D02*
X0074809Y0101000D01*
X0074055Y0101000D02*
X0073888Y0101167D01*
X0073888Y0102001D01*
X0076063Y0101334D02*
X0076397Y0101000D01*
X0076984Y0101000D02*
X0076984Y0102001D01*
X0077317Y0102001D02*
X0076650Y0102001D01*
X0077571Y0100833D02*
X0078238Y0100833D01*
X0078492Y0101000D02*
X0078492Y0102001D01*
X0078992Y0102001D01*
X0079159Y0101834D01*
X0079159Y0101500D01*
X0078992Y0101334D01*
X0078492Y0101334D01*
X0078825Y0101334D02*
X0079159Y0101000D01*
X0079413Y0101000D02*
X0080080Y0102001D01*
X0079413Y0102001D02*
X0080080Y0101000D01*
X0080080Y0107000D02*
X0079413Y0107000D01*
X0079159Y0107167D02*
X0078992Y0107000D01*
X0078659Y0107000D01*
X0078492Y0107167D01*
X0078492Y0107834D01*
X0078659Y0108001D01*
X0078992Y0108001D01*
X0079159Y0107834D01*
X0079413Y0107667D02*
X0079746Y0108001D01*
X0079746Y0107000D01*
X0078238Y0107000D02*
X0078238Y0108001D01*
X0077571Y0108001D02*
X0078238Y0107000D01*
X0077571Y0107000D02*
X0077571Y0108001D01*
X0077571Y0113000D02*
X0077571Y0114001D01*
X0078238Y0113000D01*
X0078238Y0114001D01*
X0078492Y0113834D02*
X0078492Y0113167D01*
X0078659Y0113000D01*
X0078992Y0113000D01*
X0079159Y0113167D01*
X0079413Y0113000D02*
X0080080Y0113667D01*
X0080080Y0113834D01*
X0079913Y0114001D01*
X0079579Y0114001D01*
X0079413Y0113834D01*
X0079159Y0113834D02*
X0078992Y0114001D01*
X0078659Y0114001D01*
X0078492Y0113834D01*
X0079413Y0113000D02*
X0080080Y0113000D01*
X0080080Y0119000D02*
X0079413Y0119000D01*
X0079746Y0119000D02*
X0079746Y0120001D01*
X0079413Y0119667D01*
X0079159Y0119334D02*
X0079159Y0120001D01*
X0078492Y0120001D02*
X0078492Y0119334D01*
X0078825Y0119000D01*
X0079159Y0119334D01*
X0078238Y0119000D02*
X0078238Y0120001D01*
X0077571Y0120001D02*
X0078238Y0119000D01*
X0077571Y0119000D02*
X0077571Y0120001D01*
X0077571Y0124000D02*
X0077571Y0125001D01*
X0078238Y0124000D01*
X0078238Y0125001D01*
X0078492Y0125001D02*
X0078492Y0124334D01*
X0078825Y0124000D01*
X0079159Y0124334D01*
X0079159Y0125001D01*
X0079413Y0124834D02*
X0079579Y0125001D01*
X0079913Y0125001D01*
X0080080Y0124834D01*
X0080080Y0124667D01*
X0079413Y0124000D01*
X0080080Y0124000D01*
D24*
X0216148Y0191142D02*
X0218412Y0191142D01*
X0216148Y0191142D02*
X0216148Y0208858D01*
X0218412Y0208858D01*
X0230518Y0208858D02*
X0230518Y0191142D01*
X0228255Y0191142D01*
X0228255Y0241142D02*
X0230518Y0241142D01*
X0230518Y0258858D01*
X0218412Y0258858D02*
X0216148Y0258858D01*
X0216148Y0241142D01*
X0218412Y0241142D01*
X0228254Y0208858D02*
X0229386Y0208849D01*
X0230518Y0208858D01*
X0230518Y0258858D02*
X0229386Y0258849D01*
X0228254Y0258858D01*
D25*
X0229239Y0245571D03*
X0217428Y0245571D03*
X0217428Y0195571D03*
X0229239Y0195571D03*
M02*
