G75*
%MOIN*%
%OFA0B0*%
%FSLAX25Y25*%
%IPPOS*%
%LPD*%
%AMOC8*
5,1,8,0,0,1.08239X$1,22.5*
%
%ADD10R,0.06318X0.07106*%
%ADD11R,0.03365X0.05924*%
%ADD12R,0.05924X0.04350*%
%ADD13R,0.05924X0.05924*%
%ADD14R,0.06712X0.05137*%
%ADD15R,0.05531X0.06712*%
%ADD16R,0.06712X0.05531*%
%ADD17C,0.06800*%
%ADD18OC8,0.07600*%
%ADD19R,0.02300X0.06800*%
%ADD20R,0.07106X0.06318*%
%ADD21R,0.06400X0.06400*%
%ADD22C,0.06400*%
%ADD23R,0.04350X0.08300*%
%ADD24C,0.06800*%
%ADD25R,0.05137X0.06712*%
%ADD26OC8,0.07800*%
%ADD27C,0.15373*%
%ADD28OC8,0.08800*%
%ADD29R,0.05924X0.04743*%
%ADD30C,0.08100*%
%ADD31R,0.04743X0.10058*%
%ADD32R,0.04743X0.12224*%
%ADD33R,0.07106X0.09468*%
%ADD34R,0.09074X0.09074*%
%ADD35C,0.07600*%
%ADD36R,0.03562X0.04350*%
%ADD37R,0.06712X0.08680*%
%ADD38R,0.08287X0.06712*%
%ADD39R,0.03956X0.07106*%
%ADD40R,0.03150X0.01181*%
%ADD41R,0.06811X0.07402*%
%ADD42C,0.05956*%
%ADD43C,0.05562*%
D10*
X0034987Y0140000D03*
X0041680Y0140000D03*
X0054987Y0140000D03*
X0061680Y0140000D03*
X0239987Y0220000D03*
X0246680Y0220000D03*
X0246680Y0233750D03*
X0239987Y0233750D03*
X0274987Y0275000D03*
X0281680Y0275000D03*
X0281680Y0285000D03*
X0274987Y0285000D03*
X0261680Y0180000D03*
X0254987Y0180000D03*
X0254987Y0170000D03*
X0261680Y0170000D03*
D11*
X0247073Y0194881D03*
X0243333Y0194881D03*
X0239593Y0194881D03*
X0239593Y0205119D03*
X0247073Y0205119D03*
X0247073Y0259881D03*
X0239593Y0259881D03*
X0239593Y0270119D03*
X0243333Y0270119D03*
X0247073Y0270119D03*
D12*
X0223333Y0228543D03*
X0223333Y0221457D03*
X0243333Y0178543D03*
X0243333Y0171457D03*
D13*
X0223333Y0333366D03*
X0223333Y0341634D03*
X0213333Y0341634D03*
X0213333Y0333366D03*
D14*
X0247753Y0307500D03*
X0256414Y0311240D03*
X0256414Y0303760D03*
D15*
X0274396Y0305000D03*
X0282270Y0305000D03*
X0282270Y0295000D03*
X0274396Y0295000D03*
X0247270Y0247500D03*
X0239396Y0247500D03*
X0127270Y0120000D03*
X0119396Y0120000D03*
D16*
X0123333Y0088937D03*
X0123333Y0081063D03*
X0192083Y0106063D03*
X0192083Y0113937D03*
X0208333Y0113937D03*
X0208333Y0106063D03*
X0223333Y0106063D03*
X0223333Y0113937D03*
X0233333Y0113937D03*
X0233333Y0106063D03*
X0230833Y0171063D03*
X0230833Y0178937D03*
X0238333Y0292313D03*
X0238333Y0300187D03*
X0223333Y0316063D03*
X0223333Y0323937D03*
X0213333Y0323937D03*
X0213333Y0316063D03*
X0053333Y0253937D03*
X0053333Y0246063D03*
X0033333Y0291063D03*
X0033333Y0298937D03*
D17*
X0235533Y0337500D02*
X0241133Y0337500D01*
X0265533Y0337500D02*
X0271133Y0337500D01*
D18*
X0293333Y0280000D03*
X0303333Y0280000D03*
X0313333Y0280000D03*
X0313333Y0115000D03*
X0313333Y0105000D03*
X0083333Y0145000D03*
X0073333Y0145000D03*
X0073333Y0155000D03*
X0083333Y0155000D03*
X0063333Y0155000D03*
X0053333Y0155000D03*
X0043333Y0155000D03*
X0033333Y0155000D03*
X0033333Y0170000D03*
X0033333Y0180000D03*
X0033333Y0265000D03*
X0043333Y0265000D03*
X0053333Y0265000D03*
X0063333Y0265000D03*
X0073333Y0265000D03*
X0083333Y0265000D03*
D19*
X0279433Y0257350D03*
X0281333Y0257350D03*
X0283333Y0257350D03*
X0285333Y0257350D03*
X0287233Y0257350D03*
X0287233Y0240150D03*
X0285333Y0240150D03*
X0283333Y0240150D03*
X0281333Y0240150D03*
X0279433Y0240150D03*
X0279433Y0223600D03*
X0281333Y0223600D03*
X0283333Y0223600D03*
X0285333Y0223600D03*
X0287233Y0223600D03*
X0287233Y0206400D03*
X0285333Y0206400D03*
X0283333Y0206400D03*
X0281333Y0206400D03*
X0279433Y0206400D03*
D20*
X0263333Y0203346D03*
X0263333Y0196654D03*
X0263333Y0216654D03*
X0263333Y0223346D03*
X0263333Y0236654D03*
X0263333Y0243346D03*
X0263333Y0256654D03*
X0263333Y0263346D03*
X0225833Y0292904D03*
X0225833Y0299596D03*
X0213333Y0299596D03*
X0213333Y0292904D03*
X0043333Y0253346D03*
X0043333Y0246654D03*
X0033333Y0246654D03*
X0033333Y0253346D03*
X0033333Y0311654D03*
X0033333Y0318346D03*
X0033333Y0331654D03*
X0033333Y0338346D03*
X0138333Y0113346D03*
X0138333Y0106654D03*
X0148333Y0106654D03*
X0148333Y0113346D03*
X0158333Y0113346D03*
X0158333Y0106654D03*
X0168333Y0106654D03*
X0168333Y0113346D03*
X0243333Y0113346D03*
X0243333Y0106654D03*
X0253333Y0106654D03*
X0253333Y0113346D03*
D21*
X0312270Y0255748D03*
D22*
X0304396Y0255748D03*
X0304396Y0247874D03*
X0304396Y0240000D03*
X0304396Y0232126D03*
X0304396Y0224252D03*
X0312270Y0224252D03*
X0312270Y0232126D03*
X0312270Y0240000D03*
X0312270Y0247874D03*
D23*
X0245833Y0090400D03*
X0240833Y0090400D03*
X0235833Y0090400D03*
X0230833Y0090400D03*
X0230833Y0069600D03*
X0235833Y0069600D03*
X0240833Y0069600D03*
X0245833Y0069600D03*
D24*
X0308333Y0291063D03*
X0308333Y0298937D03*
D25*
X0127073Y0109331D03*
X0119593Y0109331D03*
X0123333Y0100669D03*
D26*
X0223333Y0135000D03*
X0223333Y0145000D03*
X0233333Y0145000D03*
X0243333Y0145000D03*
X0253333Y0145000D03*
X0253333Y0135000D03*
X0243333Y0135000D03*
X0233333Y0135000D03*
X0303333Y0170000D03*
X0313333Y0170000D03*
X0313333Y0180000D03*
X0303333Y0180000D03*
X0303333Y0190000D03*
X0313333Y0190000D03*
X0313333Y0200000D03*
X0303333Y0200000D03*
D27*
X0298333Y0080000D03*
X0043333Y0205000D03*
X0298333Y0325000D03*
D28*
X0313333Y0152500D03*
X0313333Y0142500D03*
D29*
X0086199Y0125079D03*
X0086199Y0119173D03*
X0086199Y0113268D03*
X0086199Y0107362D03*
X0086199Y0101457D03*
X0086199Y0095551D03*
X0086199Y0089646D03*
X0086199Y0083740D03*
X0033774Y0083740D03*
X0033774Y0089646D03*
X0033774Y0095551D03*
X0033774Y0101457D03*
X0033774Y0107362D03*
X0033774Y0113268D03*
X0033774Y0119173D03*
X0033774Y0125079D03*
D30*
X0108333Y0160000D03*
X0118333Y0160000D03*
X0128333Y0160000D03*
X0128333Y0170000D03*
X0118333Y0170000D03*
X0108333Y0170000D03*
X0108333Y0180000D03*
X0108333Y0190000D03*
X0118333Y0190000D03*
X0118333Y0180000D03*
X0128333Y0180000D03*
X0128333Y0190000D03*
X0128333Y0200000D03*
X0118333Y0200000D03*
X0108333Y0200000D03*
X0108333Y0210000D03*
X0118333Y0210000D03*
X0128333Y0210000D03*
X0128333Y0220000D03*
X0118333Y0220000D03*
X0108333Y0220000D03*
X0108333Y0230000D03*
X0118333Y0230000D03*
X0128333Y0230000D03*
X0128333Y0240000D03*
X0118333Y0240000D03*
X0108333Y0240000D03*
X0108333Y0250000D03*
X0118333Y0250000D03*
X0128333Y0250000D03*
X0128333Y0260000D03*
X0118333Y0260000D03*
X0108333Y0260000D03*
X0108333Y0270000D03*
X0118333Y0270000D03*
X0128333Y0270000D03*
X0128333Y0280000D03*
X0118333Y0280000D03*
X0108333Y0280000D03*
X0108333Y0290000D03*
X0108333Y0300000D03*
X0118333Y0300000D03*
X0118333Y0290000D03*
X0128333Y0290000D03*
X0128333Y0300000D03*
X0128333Y0310000D03*
X0118333Y0310000D03*
X0108333Y0310000D03*
X0108333Y0320000D03*
X0118333Y0320000D03*
X0128333Y0320000D03*
X0128333Y0330000D03*
X0118333Y0330000D03*
X0108333Y0330000D03*
X0178333Y0330000D03*
X0188333Y0330000D03*
X0188333Y0320000D03*
X0178333Y0320000D03*
X0178333Y0310000D03*
X0188333Y0310000D03*
X0188333Y0300000D03*
X0178333Y0300000D03*
X0178333Y0290000D03*
X0188333Y0290000D03*
X0188333Y0280000D03*
X0178333Y0280000D03*
X0178333Y0270000D03*
X0178333Y0260000D03*
X0188333Y0260000D03*
X0188333Y0270000D03*
X0198333Y0270000D03*
X0198333Y0260000D03*
X0198333Y0250000D03*
X0188333Y0250000D03*
X0178333Y0250000D03*
X0178333Y0240000D03*
X0188333Y0240000D03*
X0188333Y0230000D03*
X0178333Y0230000D03*
X0178333Y0220000D03*
X0188333Y0220000D03*
X0188333Y0210000D03*
X0178333Y0210000D03*
X0178333Y0200000D03*
X0188333Y0200000D03*
X0188333Y0190000D03*
X0178333Y0190000D03*
X0178333Y0180000D03*
X0188333Y0180000D03*
X0188333Y0170000D03*
X0178333Y0170000D03*
X0178333Y0160000D03*
X0188333Y0160000D03*
X0198333Y0160000D03*
X0198333Y0170000D03*
X0198333Y0180000D03*
X0198333Y0190000D03*
X0198333Y0200000D03*
X0198333Y0210000D03*
X0198333Y0220000D03*
X0198333Y0230000D03*
X0198333Y0240000D03*
X0198333Y0280000D03*
X0198333Y0290000D03*
X0198333Y0300000D03*
X0198333Y0310000D03*
X0198333Y0320000D03*
X0198333Y0330000D03*
D31*
X0183018Y0087933D03*
X0178097Y0087933D03*
X0172979Y0087933D03*
X0168058Y0087933D03*
X0168058Y0066870D03*
X0172979Y0066870D03*
X0183018Y0066870D03*
D32*
X0178097Y0067953D03*
D33*
X0244997Y0322500D03*
X0259170Y0322500D03*
D34*
X0223333Y0257874D03*
X0223333Y0242126D03*
X0223333Y0207874D03*
X0223333Y0192126D03*
D35*
X0283333Y0128200D02*
X0283333Y0121800D01*
X0293333Y0121800D02*
X0293333Y0128200D01*
X0303333Y0128200D02*
X0303333Y0121800D01*
X0313333Y0121800D02*
X0313333Y0128200D01*
D36*
X0148825Y0093406D03*
X0148825Y0089075D03*
X0137014Y0089075D03*
X0137014Y0093406D03*
D37*
X0094259Y0337057D03*
X0042290Y0340600D03*
D38*
X0064337Y0285482D03*
X0087959Y0285482D03*
D39*
X0086385Y0325640D03*
X0090715Y0325640D03*
X0082054Y0327215D03*
X0077723Y0325640D03*
X0073392Y0327215D03*
X0069062Y0325640D03*
X0064731Y0324065D03*
X0060400Y0325640D03*
D40*
X0221572Y0281703D03*
X0221572Y0281703D03*
X0221572Y0279734D03*
X0221572Y0277766D03*
X0221572Y0275797D03*
X0232595Y0275797D03*
X0232595Y0277766D03*
X0232595Y0279734D03*
X0232595Y0281703D03*
D41*
X0227083Y0278750D03*
D42*
X0272083Y0235000D03*
D43*
X0038333Y0065000D03*
X0053333Y0065000D03*
X0068333Y0065000D03*
X0068333Y0080000D03*
X0053333Y0080000D03*
X0053333Y0095000D03*
X0068333Y0095000D03*
X0078333Y0095000D03*
X0068333Y0115000D03*
X0048333Y0125000D03*
X0028333Y0162500D03*
X0028333Y0190000D03*
X0063333Y0192500D03*
X0083333Y0205000D03*
X0090833Y0210000D03*
X0073333Y0225000D03*
X0063333Y0227500D03*
X0058333Y0220000D03*
X0075833Y0245000D03*
X0078333Y0250000D03*
X0060833Y0255000D03*
X0090833Y0265000D03*
X0090833Y0276250D03*
X0103333Y0275000D03*
X0088333Y0293750D03*
X0083333Y0300000D03*
X0083333Y0315000D03*
X0087083Y0332500D03*
X0073333Y0340000D03*
X0058333Y0340000D03*
X0048333Y0325000D03*
X0048333Y0315000D03*
X0063333Y0300000D03*
X0038333Y0280000D03*
X0028333Y0325000D03*
X0138333Y0325000D03*
X0153333Y0325000D03*
X0153333Y0337500D03*
X0138333Y0337500D03*
X0168333Y0325000D03*
X0168333Y0305000D03*
X0153333Y0305000D03*
X0138333Y0305000D03*
X0138333Y0285000D03*
X0138333Y0275000D03*
X0138333Y0265000D03*
X0153333Y0265000D03*
X0153333Y0275000D03*
X0153333Y0285000D03*
X0168333Y0285000D03*
X0168333Y0250000D03*
X0158333Y0250000D03*
X0148333Y0250000D03*
X0138333Y0250000D03*
X0153333Y0235000D03*
X0153333Y0225000D03*
X0168333Y0225000D03*
X0168333Y0235000D03*
X0209583Y0220000D03*
X0213333Y0230000D03*
X0253333Y0211250D03*
X0270833Y0220000D03*
X0275833Y0226250D03*
X0279583Y0233750D03*
X0287083Y0230000D03*
X0294583Y0226250D03*
X0302083Y0218750D03*
X0283333Y0216250D03*
X0293333Y0190000D03*
X0284583Y0175000D03*
X0265833Y0157500D03*
X0258333Y0155000D03*
X0269583Y0140000D03*
X0292083Y0146250D03*
X0314583Y0161250D03*
X0263333Y0120000D03*
X0283333Y0110000D03*
X0283333Y0095000D03*
X0303333Y0110000D03*
X0313333Y0095000D03*
X0313333Y0065000D03*
X0283333Y0065000D03*
X0240833Y0100000D03*
X0233333Y0100000D03*
X0213333Y0100000D03*
X0218333Y0120000D03*
X0228333Y0120000D03*
X0203333Y0140000D03*
X0188333Y0135000D03*
X0162083Y0135000D03*
X0133333Y0135000D03*
X0113333Y0125000D03*
X0133333Y0100000D03*
X0159583Y0070000D03*
X0168333Y0080000D03*
X0172083Y0096250D03*
X0148333Y0065000D03*
X0118333Y0065000D03*
X0088333Y0065000D03*
X0098333Y0165000D03*
X0098333Y0185000D03*
X0028333Y0220000D03*
X0208333Y0270000D03*
X0215833Y0275000D03*
X0234583Y0263750D03*
X0247083Y0277500D03*
X0255833Y0277500D03*
X0268333Y0280000D03*
X0263333Y0292500D03*
X0264583Y0310000D03*
X0264583Y0316250D03*
X0272083Y0316250D03*
X0278333Y0311250D03*
X0275833Y0330000D03*
X0283333Y0340000D03*
X0313333Y0340000D03*
X0313333Y0310000D03*
X0288333Y0290000D03*
X0288333Y0270000D03*
X0304583Y0265000D03*
X0299583Y0251250D03*
X0289583Y0246250D03*
X0283333Y0250000D03*
X0275833Y0247500D03*
X0255833Y0250000D03*
X0240833Y0285000D03*
X0244583Y0296250D03*
X0230833Y0316250D03*
X0237083Y0322500D03*
X0229583Y0328750D03*
X0218333Y0337500D03*
X0207083Y0315000D03*
X0318333Y0270000D03*
X0235833Y0187500D03*
X0220833Y0177500D03*
X0213333Y0158750D03*
X0208333Y0155000D03*
M02*
