G75*
%MOIN*%
%OFA0B0*%
%FSLAX25Y25*%
%IPPOS*%
%LPD*%
%AMOC8*
5,1,8,0,0,1.08239X$1,22.5*
%
%ADD10C,0.06800*%
%ADD11OC8,0.07600*%
%ADD12R,0.06400X0.06400*%
%ADD13C,0.06400*%
%ADD14C,0.06800*%
%ADD15OC8,0.07800*%
%ADD16C,0.15373*%
%ADD17OC8,0.08800*%
%ADD18C,0.08100*%
%ADD19C,0.07600*%
%ADD20C,0.05956*%
%ADD21C,0.05562*%
D10*
X0235533Y0337500D02*
X0241133Y0337500D01*
X0265533Y0337500D02*
X0271133Y0337500D01*
D11*
X0293333Y0280000D03*
X0303333Y0280000D03*
X0313333Y0280000D03*
X0313333Y0115000D03*
X0313333Y0105000D03*
X0083333Y0145000D03*
X0073333Y0145000D03*
X0073333Y0155000D03*
X0083333Y0155000D03*
X0063333Y0155000D03*
X0053333Y0155000D03*
X0043333Y0155000D03*
X0033333Y0155000D03*
X0033333Y0170000D03*
X0033333Y0180000D03*
X0033333Y0265000D03*
X0043333Y0265000D03*
X0053333Y0265000D03*
X0063333Y0265000D03*
X0073333Y0265000D03*
X0083333Y0265000D03*
D12*
X0312270Y0255748D03*
D13*
X0304396Y0255748D03*
X0304396Y0247874D03*
X0304396Y0240000D03*
X0304396Y0232126D03*
X0304396Y0224252D03*
X0312270Y0224252D03*
X0312270Y0232126D03*
X0312270Y0240000D03*
X0312270Y0247874D03*
D14*
X0308333Y0291063D03*
X0308333Y0298937D03*
D15*
X0303333Y0200000D03*
X0313333Y0200000D03*
X0313333Y0190000D03*
X0303333Y0190000D03*
X0303333Y0180000D03*
X0313333Y0180000D03*
X0313333Y0170000D03*
X0303333Y0170000D03*
X0253333Y0145000D03*
X0243333Y0145000D03*
X0233333Y0145000D03*
X0223333Y0145000D03*
X0223333Y0135000D03*
X0233333Y0135000D03*
X0243333Y0135000D03*
X0253333Y0135000D03*
D16*
X0298333Y0080000D03*
X0043333Y0205000D03*
X0298333Y0325000D03*
D17*
X0313333Y0152500D03*
X0313333Y0142500D03*
D18*
X0198333Y0160000D03*
X0188333Y0160000D03*
X0178333Y0160000D03*
X0178333Y0170000D03*
X0188333Y0170000D03*
X0188333Y0180000D03*
X0178333Y0180000D03*
X0178333Y0190000D03*
X0188333Y0190000D03*
X0188333Y0200000D03*
X0178333Y0200000D03*
X0178333Y0210000D03*
X0188333Y0210000D03*
X0188333Y0220000D03*
X0178333Y0220000D03*
X0178333Y0230000D03*
X0188333Y0230000D03*
X0188333Y0240000D03*
X0178333Y0240000D03*
X0178333Y0250000D03*
X0188333Y0250000D03*
X0188333Y0260000D03*
X0178333Y0260000D03*
X0178333Y0270000D03*
X0188333Y0270000D03*
X0188333Y0280000D03*
X0178333Y0280000D03*
X0178333Y0290000D03*
X0178333Y0300000D03*
X0188333Y0300000D03*
X0188333Y0290000D03*
X0198333Y0290000D03*
X0198333Y0300000D03*
X0198333Y0310000D03*
X0188333Y0310000D03*
X0178333Y0310000D03*
X0178333Y0320000D03*
X0188333Y0320000D03*
X0188333Y0330000D03*
X0178333Y0330000D03*
X0198333Y0330000D03*
X0198333Y0320000D03*
X0198333Y0280000D03*
X0198333Y0270000D03*
X0198333Y0260000D03*
X0198333Y0250000D03*
X0198333Y0240000D03*
X0198333Y0230000D03*
X0198333Y0220000D03*
X0198333Y0210000D03*
X0198333Y0200000D03*
X0198333Y0190000D03*
X0198333Y0180000D03*
X0198333Y0170000D03*
X0128333Y0170000D03*
X0118333Y0170000D03*
X0108333Y0170000D03*
X0108333Y0160000D03*
X0118333Y0160000D03*
X0128333Y0160000D03*
X0128333Y0180000D03*
X0118333Y0180000D03*
X0108333Y0180000D03*
X0108333Y0190000D03*
X0118333Y0190000D03*
X0128333Y0190000D03*
X0128333Y0200000D03*
X0118333Y0200000D03*
X0108333Y0200000D03*
X0108333Y0210000D03*
X0118333Y0210000D03*
X0128333Y0210000D03*
X0128333Y0220000D03*
X0118333Y0220000D03*
X0108333Y0220000D03*
X0108333Y0230000D03*
X0118333Y0230000D03*
X0128333Y0230000D03*
X0128333Y0240000D03*
X0118333Y0240000D03*
X0108333Y0240000D03*
X0108333Y0250000D03*
X0118333Y0250000D03*
X0128333Y0250000D03*
X0128333Y0260000D03*
X0118333Y0260000D03*
X0108333Y0260000D03*
X0108333Y0270000D03*
X0118333Y0270000D03*
X0128333Y0270000D03*
X0128333Y0280000D03*
X0118333Y0280000D03*
X0108333Y0280000D03*
X0108333Y0290000D03*
X0108333Y0300000D03*
X0118333Y0300000D03*
X0118333Y0290000D03*
X0128333Y0290000D03*
X0128333Y0300000D03*
X0128333Y0310000D03*
X0118333Y0310000D03*
X0108333Y0310000D03*
X0108333Y0320000D03*
X0118333Y0320000D03*
X0128333Y0320000D03*
X0128333Y0330000D03*
X0118333Y0330000D03*
X0108333Y0330000D03*
D19*
X0283333Y0128200D02*
X0283333Y0121800D01*
X0293333Y0121800D02*
X0293333Y0128200D01*
X0303333Y0128200D02*
X0303333Y0121800D01*
X0313333Y0121800D02*
X0313333Y0128200D01*
D20*
X0272083Y0235000D03*
D21*
X0038333Y0065000D03*
X0053333Y0065000D03*
X0068333Y0065000D03*
X0068333Y0080000D03*
X0053333Y0080000D03*
X0053333Y0095000D03*
X0068333Y0095000D03*
X0078333Y0095000D03*
X0068333Y0115000D03*
X0048333Y0125000D03*
X0028333Y0162500D03*
X0028333Y0190000D03*
X0063333Y0192500D03*
X0083333Y0205000D03*
X0090833Y0210000D03*
X0073333Y0225000D03*
X0063333Y0227500D03*
X0058333Y0220000D03*
X0075833Y0245000D03*
X0078333Y0250000D03*
X0060833Y0255000D03*
X0090833Y0265000D03*
X0090833Y0276250D03*
X0103333Y0275000D03*
X0088333Y0293750D03*
X0083333Y0300000D03*
X0083333Y0315000D03*
X0087083Y0332500D03*
X0073333Y0340000D03*
X0058333Y0340000D03*
X0048333Y0325000D03*
X0048333Y0315000D03*
X0063333Y0300000D03*
X0038333Y0280000D03*
X0028333Y0325000D03*
X0138333Y0325000D03*
X0153333Y0325000D03*
X0153333Y0337500D03*
X0138333Y0337500D03*
X0168333Y0325000D03*
X0168333Y0305000D03*
X0153333Y0305000D03*
X0138333Y0305000D03*
X0138333Y0285000D03*
X0138333Y0275000D03*
X0138333Y0265000D03*
X0153333Y0265000D03*
X0153333Y0275000D03*
X0153333Y0285000D03*
X0168333Y0285000D03*
X0168333Y0250000D03*
X0158333Y0250000D03*
X0148333Y0250000D03*
X0138333Y0250000D03*
X0153333Y0235000D03*
X0153333Y0225000D03*
X0168333Y0225000D03*
X0168333Y0235000D03*
X0209583Y0220000D03*
X0213333Y0230000D03*
X0253333Y0211250D03*
X0270833Y0220000D03*
X0275833Y0226250D03*
X0279583Y0233750D03*
X0287083Y0230000D03*
X0294583Y0226250D03*
X0302083Y0218750D03*
X0283333Y0216250D03*
X0293333Y0190000D03*
X0284583Y0175000D03*
X0265833Y0157500D03*
X0258333Y0155000D03*
X0269583Y0140000D03*
X0292083Y0146250D03*
X0314583Y0161250D03*
X0263333Y0120000D03*
X0283333Y0110000D03*
X0283333Y0095000D03*
X0303333Y0110000D03*
X0313333Y0095000D03*
X0313333Y0065000D03*
X0283333Y0065000D03*
X0240833Y0100000D03*
X0233333Y0100000D03*
X0213333Y0100000D03*
X0218333Y0120000D03*
X0228333Y0120000D03*
X0203333Y0140000D03*
X0188333Y0135000D03*
X0162083Y0135000D03*
X0133333Y0135000D03*
X0113333Y0125000D03*
X0133333Y0100000D03*
X0159583Y0070000D03*
X0168333Y0080000D03*
X0172083Y0096250D03*
X0148333Y0065000D03*
X0118333Y0065000D03*
X0088333Y0065000D03*
X0098333Y0165000D03*
X0098333Y0185000D03*
X0028333Y0220000D03*
X0208333Y0270000D03*
X0215833Y0275000D03*
X0234583Y0263750D03*
X0247083Y0277500D03*
X0255833Y0277500D03*
X0268333Y0280000D03*
X0263333Y0292500D03*
X0264583Y0310000D03*
X0264583Y0316250D03*
X0272083Y0316250D03*
X0278333Y0311250D03*
X0275833Y0330000D03*
X0283333Y0340000D03*
X0313333Y0340000D03*
X0313333Y0310000D03*
X0288333Y0290000D03*
X0288333Y0270000D03*
X0304583Y0265000D03*
X0299583Y0251250D03*
X0289583Y0246250D03*
X0283333Y0250000D03*
X0275833Y0247500D03*
X0255833Y0250000D03*
X0240833Y0285000D03*
X0244583Y0296250D03*
X0230833Y0316250D03*
X0237083Y0322500D03*
X0229583Y0328750D03*
X0218333Y0337500D03*
X0207083Y0315000D03*
X0318333Y0270000D03*
X0235833Y0187500D03*
X0220833Y0177500D03*
X0213333Y0158750D03*
X0208333Y0155000D03*
M02*
